<?xml version="1.0" encoding="UTF-8"?>
<svg width="16px" height="14px" viewBox="0 0 16 14" version="1.1" xmlns="http://www.w3.org/2000/svg" xmlns:xlink="http://www.w3.org/1999/xlink">
    <!-- Generator: Sketch 54.1 (76490) - https://sketchapp.com -->
    <title>ℹ️ Icon3@2x</title>
    <desc>Created with Sketch.</desc>
    <g id="9.-500" stroke="none" stroke-width="1" fill="none" fill-rule="evenodd" stroke-linecap="round" stroke-linejoin="round">
        <g id="ℹ️-Icon3" transform="translate(1.000000, 1.000000)" stroke="#FFFFFF">
            <path d="M9.30769231,0.4995 L1.69230769,0.4995 C0.757892901,0.4995 0,1.2965 0,2.2775 L0,6.7225 C0,7.7045 0.757892901,8.5005 1.69230769,8.5005 L2.62288505,8.5005 L2.62288505,10.6335 L4.6528868,8.5005 L9.30769231,8.5005 C10.2430665,8.5005 11,7.7045 11,6.7225 L11,2.2775 C11,1.2965 10.2430665,0.4995 9.30769231,0.4995 Z" id="Stroke-1"></path>
            <path d="M13.2061224,2.6704 C13.6846939,2.9894 14,3.5304 14,4.1444 L14,8.5894 C14,9.5704 13.1938776,10.3664 12.2,10.3664 L11.2091837,10.3664 L11.2091837,12.4994 L9.05102041,10.3664 L5,10.3664" id="Stroke-3"></path>
            <path d="M3.5,4.5 L8.5,4.5" id="Stroke-4" stroke-dasharray="0,2"></path>
        </g>
    </g>
</svg>