<svg id="SVGDoc" width="15" height="15" xmlns="http://www.w3.org/2000/svg" version="1.1" xmlns:xlink="http://www.w3.org/1999/xlink" xmlns:avocode="https://avocode.com/" viewBox="0 0 15 15"><defs><path d="M833.728,814.5l1.272,-1.308M829.99,812.211l-4.257,4.374c-0.543,0.559 -0.543,1.465 0,2.023c0.543,0.558 1.426,0.557 1.969,0l6.285,-6.457c0.908,-0.933 0.864,-2.384 -0.101,-3.377c-0.966,-0.991 -2.379,-1.036 -3.287,-0.104l-6.69,6.875c-0.586,0.602 -0.909,1.404 -0.909,2.261c0,0.856 0.323,1.659 0.909,2.26c0.585,0.603 1.367,0.934 2.201,0.934c0.833,0 1.614,-0.331 2.2,-0.934l4.222,-4.337" id="Path-0"/></defs><desc>Generated with Avocode.</desc><g transform="matrix(1,0,0,1,-822,-807)"><g><title>Page 1</title><use xlink:href="#Path-0" fill-opacity="0" fill="#ffffff" stroke-linejoin="miter" stroke-linecap="round" stroke-opacity="1" stroke="#80878e" stroke-miterlimit="50" stroke-width="1"/></g></g></svg>