<svg xmlns="http://www.w3.org/2000/svg" width="64" height="64" viewBox="0 0 64 64"><g><g><path fill="#f4f6f8" d="M32 64c17.673 0 32-14.327 32-32C64 14.327 49.673 0 32 0 14.327 0 0 14.327 0 32c0 17.673 14.327 32 32 32z"/></g><g><path fill="#babec2" d="M51.2 57.63c-4.42-2.592-10.667-7.166-13.104-7.166h-5.794c-1.37 0-4.266-1.221-4.57-2.286-.304-.763-.304-2.136-.153-3.355 0-.152.305-.152.457 0 1.22 1.373 1.829 2.288 3.048 2.288h2.744c1.066 0 4.723-3.203 6.247-7.167.304-.914.61-2.44.76-4.115 0-.153.153-.307.153-.153.153.761.457 1.678.61 1.678.457.304 1.067-.915 1.83-2.592.76-1.526.76-2.439 1.066-3.66.457-1.677-.153-2.896-.61-2.896a1.383 1.383 0 0 0-1.066.456c-.153 0-.306 0-.306-.15 0-1.07.153-2.747 1.372-3.661-1.676-1.524-.61-4.116-.61-4.116.61.304 1.524.304 1.524.304l-1.22-1.982c.916-.152 1.677-.914 1.677-.914s-2.437-.61-3.657-1.524c1.067-.306 2.743-1.373 2.743-1.373s-3.2-.152-4.723-.61c1.37-1.37 1.37-3.964 1.37-3.964s-3.352 1.373-8.076 1.373c-3.351-.152-4.57-.61-7.01 1.83-2.894 2.894-2.894 3.659-4.723 3.659 1.523 2.134.762 4.268.762 4.268l-.153 3.203.153.608s0 .152.153.457c0 .154 0 .46.151.61l.457 2.442s-.15.15-.304 0a2.172 2.172 0 0 0-1.83-.916c-.456 0-1.217 1.22-.607 2.896.457 1.221.914 1.982 1.37 3.66.457 1.677 1.371 2.896 1.83 2.592.151-.154.304-.61.457-1.373 0-.152.15 0 .304.154.153 1.523.457 2.895.762 3.657.304.458.61 1.067.914 1.524-.304 2.592-.61 5.795-1.22 8.233-3.96 1.067-10.056 2.897-15.237 4.116C3.353 48.484 0 40.557 0 32.017 0 14.333 14.324 0 32 0c17.676 0 32 14.333 32 32.017 0 10.52-5.03 19.818-12.8 25.613z"/></g></g></svg>