<?xml version="1.0" encoding="UTF-8" standalone="no"?>
<svg viewBox="0 0 18 18" version="1.1" xmlns="http://www.w3.org/2000/svg" xmlns:xlink="http://www.w3.org/1999/xlink">
    <!-- Generator: Sketch 46.2 (44496) - http://www.bohemiancoding.com/sketch -->
    <title>clock</title>
    <desc>Created with Sketch.</desc>
    <defs></defs>
    <g id="GUI" stroke="" stroke-width="1" fill="none" fill-rule="evenodd">
        <g transform="translate(-973.000000, -1693.000000)" id="clock" stroke="">
            <g transform="translate(973.000000, 1693.000000)">
                <path d="M9,0.5 C6.65388838,0.5 4.66131746,1.32747939 2.99439849,2.99439708 C1.32747915,4.66131667 0.5,6.65388718 0.5,9 C0.5,11.3461129 1.32747924,13.3386833 2.99439857,15.0056016 C4.66131666,16.6725208 6.65388706,17.5 9,17.5 C11.3461128,17.5 13.3386833,16.6725208 15.0056028,15.0056017 C16.6725206,13.3386825 17.5,11.3461116 17.5,9 C17.5,6.6538885 16.6725207,4.66131747 15.0056032,2.99439738 C13.3386825,1.3274793 11.3461115,0.5 9,0.5 Z" id="Path"></path>
                <polyline id="Path-2" stroke-linecap="round" stroke-linejoin="round" points="8.14172363 4.5670166 8.14172363 9.87672439 12.7661133 12.6778564"></polyline>
            </g>
        </g>
    </g>
</svg>
