<?xml version="1.0" encoding="UTF-8" standalone="no"?>
<svg viewBox="0 0 80 87" version="1.1" xmlns="http://www.w3.org/2000/svg" xmlns:xlink="http://www.w3.org/1999/xlink">
    <!-- Generator: Sketch 47.1 (45422) - http://www.bohemiancoding.com/sketch -->
    <title>credit_calendar</title>
    <desc>Created with Sketch.</desc>
    <defs></defs>
    <g id="++Credit" stroke="none" stroke-width="1" fill="none" fill-rule="evenodd" stroke-linecap="round" stroke-linejoin="round">
        <g id="TS_1440-Credit" transform="translate(-535.000000, -682.000000)" stroke="#DC1414" stroke-width="2">
            <g id="credit_calendar" transform="translate(536.000000, 683.000000)">
                <path d="M17.0098,9 L4.9998,9 C2.2388,9 -0.0002,11.238 -0.0002,14 L-0.0002,79.835 C-0.0002,82.597 2.2388,84.835 4.9998,84.835 L72.9998,84.835 C75.7618,84.835 77.9998,82.597 77.9998,79.835 L77.9998,14 C77.9998,11.238 75.7618,9 72.9998,9 L60.9898,9" id="Stroke-1"></path>
                <path d="M52.9902,9 L25.0102,9" id="Stroke-3"></path>
                <path d="M33.502,44.1592 L27.502,44.1592 C26.398,44.1592 25.502,43.2632 25.502,42.1592 L25.502,36.1592 C25.502,35.0552 26.398,34.1592 27.502,34.1592 L33.502,34.1592 C34.606,34.1592 35.502,35.0552 35.502,36.1592 L35.502,42.1592 C35.502,43.2632 34.606,44.1592 33.502,44.1592 Z" id="Stroke-5"></path>
                <path d="M50.498,44.1592 L44.498,44.1592 C43.394,44.1592 42.498,43.2632 42.498,42.1592 L42.498,36.1592 C42.498,35.0552 43.394,34.1592 44.498,34.1592 L50.498,34.1592 C51.602,34.1592 52.498,35.0552 52.498,36.1592 L52.498,42.1592 C52.498,43.2632 51.602,44.1592 50.498,44.1592 Z" id="Stroke-7"></path>
                <path d="M67.4951,44.1592 L61.4951,44.1592 C60.3911,44.1592 59.4951,43.2632 59.4951,42.1592 L59.4951,36.1592 C59.4951,35.0552 60.3911,34.1592 61.4951,34.1592 L67.4951,34.1592 C68.5991,34.1592 69.4951,35.0552 69.4951,36.1592 L69.4951,42.1592 C69.4951,43.2632 68.5991,44.1592 67.4951,44.1592 Z" id="Stroke-9"></path>
                <path d="M16.5049,59.8291 L10.5049,59.8291 C9.4009,59.8291 8.5049,58.9331 8.5049,57.8291 L8.5049,51.8291 C8.5049,50.7251 9.4009,49.8291 10.5049,49.8291 L16.5049,49.8291 C17.6089,49.8291 18.5049,50.7251 18.5049,51.8291 L18.5049,57.8291 C18.5049,58.9331 17.6089,59.8291 16.5049,59.8291 Z" id="Stroke-11"></path>
                <path d="M33.502,59.8291 L27.502,59.8291 C26.398,59.8291 25.502,58.9331 25.502,57.8291 L25.502,51.8291 C25.502,50.7251 26.398,49.8291 27.502,49.8291 L33.502,49.8291 C34.606,49.8291 35.502,50.7251 35.502,51.8291 L35.502,57.8291 C35.502,58.9331 34.606,59.8291 33.502,59.8291 Z" id="Stroke-13"></path>
                <path d="M67.4951,59.8291 L61.4951,59.8291 C60.3911,59.8291 59.4951,58.9331 59.4951,57.8291 L59.4951,51.8291 C59.4951,50.7251 60.3911,49.8291 61.4951,49.8291 L67.4951,49.8291 C68.5991,49.8291 69.4951,50.7251 69.4951,51.8291 L69.4951,57.8291 C69.4951,58.9331 68.5991,59.8291 67.4951,59.8291 Z" id="Stroke-15"></path>
                <path d="M16.5049,75.499 L10.5049,75.499 C9.4009,75.499 8.5049,74.604 8.5049,73.499 L8.5049,67.499 C8.5049,66.395 9.4009,65.499 10.5049,65.499 L16.5049,65.499 C17.6089,65.499 18.5049,66.395 18.5049,67.499 L18.5049,73.499 C18.5049,74.604 17.6089,75.499 16.5049,75.499 Z" id="Stroke-17"></path>
                <path d="M33.502,75.499 L27.502,75.499 C26.398,75.499 25.502,74.604 25.502,73.499 L25.502,67.499 C25.502,66.395 26.398,65.499 27.502,65.499 L33.502,65.499 C34.606,65.499 35.502,66.395 35.502,67.499 L35.502,73.499 C35.502,74.604 34.606,75.499 33.502,75.499 Z" id="Stroke-19"></path>
                <path d="M50.498,75.499 L44.498,75.499 C43.394,75.499 42.498,74.604 42.498,73.499 L42.498,67.499 C42.498,66.395 43.394,65.499 44.498,65.499 L50.498,65.499 C51.602,65.499 52.498,66.395 52.498,67.499 L52.498,73.499 C52.498,74.604 51.602,75.499 50.498,75.499 Z" id="Stroke-21"></path>
                <path d="M43.9629,58.3652 L51.0339,51.2942" id="Stroke-23"></path>
                <path d="M43.9629,51.2939 L51.0339,58.3649" id="Stroke-25"></path>
                <path d="M60.9902,14 L60.9902,4 C60.9902,1.791 59.1992,-1.42108547e-14 56.9902,-1.42108547e-14 C54.7812,-1.42108547e-14 52.9902,1.791 52.9902,4 L52.9902,14 C52.9902,16.209 54.7812,18 56.9902,18 C58.0852,18 59.0762,17.558 59.7992,16.845" id="Stroke-27"></path>
                <path d="M25.0098,14 L25.0098,4 C25.0098,1.791 23.2188,-1.42108547e-14 21.0098,-1.42108547e-14 C18.8008,-1.42108547e-14 17.0098,1.791 17.0098,4 L17.0098,14 C17.0098,16.209 18.8008,18 21.0098,18 C22.1058,18 23.0968,17.558 23.8188,16.845" id="Stroke-29"></path>
                <path d="M12,23.706 L66,23.706" id="Stroke-31" stroke-dasharray="0,4"></path>
            </g>
        </g>
    </g>
</svg>
