<?xml version="1.0" encoding="UTF-8" standalone="no"?>
<svg viewBox="0 0 91 82" version="1.1" xmlns="http://www.w3.org/2000/svg" xmlns:xlink="http://www.w3.org/1999/xlink">
    <!-- Generator: Sketch 47.1 (45422) - http://www.bohemiancoding.com/sketch -->
    <title>credit_piggy-bank</title>
    <desc>Created with Sketch.</desc>
    <defs></defs>
    <g id="++Credit" stroke="none" stroke-width="1" fill="none" fill-rule="evenodd" stroke-linecap="round" stroke-linejoin="round">
        <g id="TS_1440-Credit" transform="translate(-230.000000, -687.000000)" stroke="#DC1414" stroke-width="2">
            <g id="credit_piggy-bank" transform="translate(231.000000, 688.000000)">
                <path d="M76.9837215,36.2892222 C76.9837215,36.2892222 81.6078987,32.9114444 84.3956203,35.3914444 C86.0532152,36.7192222 85.8697975,39.8803333 84.3956203,40.6281111 C82.9225823,41.377 80.8742278,40.3458889 81.4677722,38.0103333 C82.0601772,35.6747778 87.3291646,36.8681111 88.861443,39.6792222" id="Stroke-1"></path>
                <path d="M21.2766835,37.562 C21.2766835,38.932 20.1533924,40.042 18.7669367,40.042 C17.380481,40.042 16.2571899,38.932 16.2571899,37.562 C16.2571899,36.1931111 17.380481,35.082 18.7669367,35.082 C20.1533924,35.082 21.2766835,36.1931111 21.2766835,37.562 Z" id="Stroke-3"></path>
                <path d="M58.3141899,15.5958889 C57.9006456,15.4114444 57.4825443,15.2347778 57.0587468,15.0636667" id="Stroke-5"></path>
                <path d="M17.8856203,66.822 C19.1023291,67.7831111 20.3942278,68.6731111 21.7533418,69.4842222 L21.7533418,77.9775556 C21.7533418,78.8908889 22.5018228,79.6308889 23.4257468,79.6308889 L28.4463797,79.6308889 C29.3703038,79.6308889 30.1187848,78.8908889 30.1187848,77.9775556 L30.1187848,73.192 C33.8304304,74.3286667 37.8166329,74.9542222 41.976,74.9542222 C45.4051139,74.9542222 48.7123291,74.5097778 51.8543544,73.7264444 L51.8543544,77.9775556 C51.8543544,78.8908889 52.6051139,79.6308889 53.5278987,79.6308889 L58.5473924,79.6308889 C59.4724557,79.6308889 60.2209367,78.8908889 60.2209367,77.9775556 L60.2209367,70.5797778 C70.8204304,65.1131111 77.9509367,55.0642222 77.9509367,43.5353333 C77.9509367,33.4608889 72.5076456,24.5197778 64.0567595,18.7853333" id="Stroke-7"></path>
                <path d="M26.5478354,15.1781111 C23.4388481,16.4747778 20.5759367,18.1458889 18.0331519,20.1303333 C18.0331519,20.1303333 12.0942911,15.6181111 7.56353165,20.097 L12.1068228,26.0203333 C9.25074684,29.727 7.28213924,33.9958889 6.44821519,38.5947778 L5.02074684,38.5947778 C2.24783544,38.5947778 0.000113924051,40.8158889 0.000113924051,43.5558889 L0.000113924051,55.1303333 C0.000113924051,57.8714444 2.24783544,60.0914444 5.02074684,60.0914444 L11.4392278,60.0914444 C11.8561899,60.6747778 12.292519,61.2458889 12.7504937,61.8025556" id="Stroke-9"></path>
                <path d="M41.9754304,18.4626667 C44.9169494,18.4626667 47.7468228,18.8648889 50.4160633,19.5871111 C52.4393544,17.5071111 53.687962,14.6882222 53.687962,11.576 C53.687962,5.18266667 48.444038,0.000444444444 41.9754304,0.000444444444 C35.5056835,0.000444444444 30.2617595,5.18266667 30.2617595,11.576 C30.2617595,14.6882222 31.5103671,17.5071111 33.5336582,19.5871111 C36.2028987,18.8648889 39.0327722,18.4626667 41.9754304,18.4626667 Z" id="Stroke-11"></path>
                <path d="M52.8805823,20.3506667 C49.520962,19.1362222 45.8400759,18.4628889 41.9757722,18.4628889 C35.7657722,18.4628889 30.0331139,20.2017778 25.3360253,23.1284444" id="Stroke-13"></path>
                <path d="M72.454557,5.36044444 L4.93746835,75.2804444" id="Stroke-15"></path>
            </g>
        </g>
    </g>
</svg>
