<?xml version="1.0" encoding="UTF-8" standalone="no"?>
<svg viewBox="0 0 79 81" version="1.1" xmlns="http://www.w3.org/2000/svg" xmlns:xlink="http://www.w3.org/1999/xlink">
    <!-- Generator: Sketch 47.1 (45422) - http://www.bohemiancoding.com/sketch -->
    <title>credit_clock</title>
    <desc>Created with Sketch.</desc>
    <defs></defs>
    <g id="++Credit" stroke="none" stroke-width="1" fill="none" fill-rule="evenodd" stroke-linecap="round" stroke-linejoin="round">
        <g id="TS_1440-Credit" transform="translate(-1131.000000, -688.000000)" stroke="#DC1414" stroke-width="2">
            <g id="credit_clock" transform="translate(1132.000000, 688.000000)">
                <g id="Group-24" transform="translate(0.000000, 0.663407)">
                    <path d="M44.2904,8.51762963 C58.5576115,11.3398519 69.3154,23.9235556 69.3154,39.0198519 C69.3154,55.1635556 57.0116885,68.4331852 41.26815,69.9665185" id="Stroke-2" stroke-dasharray="0,4.121"></path>
                    <path d="M38.2068077,78.5191111 L38.2068077,78.5191111 C59.4691731,78.5191111 76.7068077,61.125037 76.7068077,39.6672593 C76.7068077,18.2124444 59.4691731,0.81837037 38.2068077,0.81837037" id="Stroke-6"></path>
                    <path d="M38.2068077,14.8385185 L38.2068077,35.9644444 C40.2502692,35.9644444 41.9087308,37.6237037 41.9087308,39.6681481 C41.9087308,40.6903704 41.4941154,41.6162963 40.8248077,42.2874074 L46.5198462,47.2918519" id="Stroke-8"></path>
                    <path d="M29.6158288,38.5755556 L0.000444230769,38.5755556" id="Stroke-10"></path>
                    <path d="M29.6158288,28.8648889 L7.40429038,28.8648889" id="Stroke-12"></path>
                    <path d="M29.6158288,19.1542222 L14.8081365,19.1542222" id="Stroke-14"></path>
                    <path d="M29.6158288,9.44355556 L22.2119827,9.44355556" id="Stroke-16"></path>
                    <path d="M29.6158288,48.2860741 L7.40429038,48.2860741" id="Stroke-18"></path>
                    <path d="M29.6158288,57.9967407 L14.8081365,57.9967407" id="Stroke-20"></path>
                    <path d="M29.6158288,67.7074074 L22.2119827,67.7074074" id="Stroke-22"></path>
                </g>
            </g>
        </g>
    </g>
</svg>
