<svg xmlns="http://www.w3.org/2000/svg" xmlns:xlink="http://www.w3.org/1999/xlink" width="81" height="81" viewBox="0 0 81 81"><defs><path id="qt4ma" d="M908.519 621.03h-69.012a9.507 9.507 0 0 0-9.507 9.507"/><path id="qt4mb" d="M830 676.02c0 5.249 4.256 9.505 9.507 9.505h69.012"/><path id="qt4mc" d="M891.906 673.168h16.608V655.39h-16.608a7.936 7.936 0 0 0-7.936 7.936v1.905a7.936 7.936 0 0 0 7.936 7.937z"/><path id="qt4md" d="M908.519 640.047v51.18h-69.012a9.507 9.507 0 0 1-9.507-9.506V630.54"/><path id="qt4me" d="M897.157 664.272c0 1.994-1.657 3.612-3.703 3.612s-3.704-1.618-3.704-3.612c0-1.996 1.658-3.612 3.704-3.612 2.046 0 3.703 1.616 3.703 3.612z"/><path id="qt4mf" d="M907.04 645.971h1.481v-1.481"/><path id="qt4mg" d="M908.52 638.07v-6.42"/><path id="qt4mh" d="M908.521 628.441v-1.481h-1.481"/><path id="qt4mi" d="M901.148 626.96h-61.641a9.507 9.507 0 0 0 0 19.012h64.585"/><path id="qt4mj" d="M894.826 640.043l-26.563-26.563-26.563 26.563"/><path id="qt4mk" d="M905.616 640.043l-26.563-26.563-26.563 26.563"/><path id="qt4ml" d="M896.756 640.048l-17.697-17.698-17.699 17.698"/><path id="qt4mm" d="M830 630.537c0 5.249 4.256 9.506 9.507 9.506h69.012V621.03"/></defs><g><g transform="translate(-829 -612)"><g><use fill="#fff" fill-opacity="0" stroke="#dc1414" stroke-linecap="round" stroke-linejoin="round" stroke-miterlimit="50" stroke-width="2" xlink:href="#qt4ma"/></g><g><use fill="#fff" fill-opacity="0" stroke="#dc1414" stroke-dasharray="2 4 0 0" stroke-linecap="round" stroke-linejoin="round" stroke-miterlimit="50" stroke-width="2" xlink:href="#qt4mb"/></g><g><use fill="#fff" fill-opacity="0" stroke="#dc1414" stroke-linecap="round" stroke-linejoin="round" stroke-miterlimit="50" stroke-width="2" xlink:href="#qt4mc"/></g><g><use fill="#fff" fill-opacity="0" stroke="#dc1414" stroke-linecap="round" stroke-linejoin="round" stroke-miterlimit="50" stroke-width="2" xlink:href="#qt4md"/></g><g><use fill="#fff" fill-opacity="0" stroke="#dc1414" stroke-linecap="round" stroke-linejoin="round" stroke-miterlimit="50" stroke-width="2" xlink:href="#qt4me"/></g><g><use fill="#fff" fill-opacity="0" stroke="#dc1414" stroke-linecap="round" stroke-linejoin="round" stroke-miterlimit="50" stroke-width="2" xlink:href="#qt4mf"/></g><g><use fill="#fff" fill-opacity="0" stroke="#dc1414" stroke-dasharray="2.167 4.333" stroke-linecap="round" stroke-linejoin="round" stroke-miterlimit="50" stroke-width="2" xlink:href="#qt4mg"/></g><g><use fill="#fff" fill-opacity="0" stroke="#dc1414" stroke-linecap="round" stroke-linejoin="round" stroke-miterlimit="50" stroke-width="2" xlink:href="#qt4mh"/></g><g><use fill="#fff" fill-opacity="0" stroke="#dc1414" stroke-dasharray="1.987 3.975" stroke-linecap="round" stroke-linejoin="round" stroke-miterlimit="50" stroke-width="2" xlink:href="#qt4mi"/></g><g><g><use fill="#fff" xlink:href="#qt4mj"/></g><g><use fill="#fff" fill-opacity="0" stroke="#dc1414" stroke-linecap="round" stroke-linejoin="round" stroke-miterlimit="50" stroke-width="2" xlink:href="#qt4mj"/></g></g><g><g><use fill="#fff" xlink:href="#qt4mk"/></g><g><use fill="#fff" fill-opacity="0" stroke="#dc1414" stroke-linecap="round" stroke-linejoin="round" stroke-miterlimit="50" stroke-width="2" xlink:href="#qt4mk"/></g></g><g><use fill="#fff" fill-opacity="0" stroke="#dc1414" stroke-linecap="round" stroke-linejoin="round" stroke-miterlimit="50" stroke-width="2" xlink:href="#qt4ml"/></g><g><use fill="#fff" fill-opacity="0" stroke="#dc1414" stroke-linecap="round" stroke-linejoin="round" stroke-miterlimit="50" stroke-width="2" xlink:href="#qt4mm"/></g></g></g></svg>