<svg id="SVGDoc" width="30" height="30" xmlns="http://www.w3.org/2000/svg" version="1.1" xmlns:xlink="http://www.w3.org/1999/xlink" xmlns:avocode="https://avocode.com/" viewBox="0 0 30 30"><defs><path d="M472,1607c0,-8.28427 6.71573,-15 15,-15c8.28427,0 15,6.71573 15,15c0,8.28427 -6.71573,15 -15,15c-8.28427,0 -15,-6.71573 -15,-15zM488.47988,1615.67294v-8.02389h2.69157l0.43164,-3.27559h-3.12321v-2.27687c0,-0.63571 0.51537,-1.15109 1.15108,-1.15109h2.02295v-2.9455h-2.82712c-2.00066,0 -3.6225,1.62184 -3.6225,3.6225v2.75092h-2.70429v3.27559h2.70429v8.02393z" id="Path-0"/></defs><desc>Generated with Avocode.</desc><g transform="matrix(1,0,0,1,-472,-1592)"><g><title>Combined Shape Copy 3</title><use xlink:href="#Path-0" fill="#f8f8f8" fill-opacity="1"/></g></g></svg>