<svg xmlns="http://www.w3.org/2000/svg" xmlns:xlink="http://www.w3.org/1999/xlink" width="16" height="11" viewBox="0 0 16 11"><defs><path id="z8l9a" d="M30 738.5a.5.5 0 0 1 .5-.5h15a.5.5 0 0 1 0 1h-15a.5.5 0 0 1-.5-.5z"/><path id="z8l9b" d="M30 743.5a.5.5 0 0 1 .5-.5h15a.5.5 0 0 1 0 1h-15a.5.5 0 0 1-.5-.5z"/><path id="z8l9c" d="M30 748.5a.5.5 0 0 1 .5-.5h15a.5.5 0 0 1 0 1h-15a.5.5 0 0 1-.5-.5z"/></defs><g><g transform="translate(-30 -738)"><g><use fill="#a7aaad" xlink:href="#z8l9a"/></g><g><use fill="#a7aaad" xlink:href="#z8l9b"/></g><g><use fill="#a7aaad" xlink:href="#z8l9c"/></g></g></g></svg>