<?xml version="1.0" encoding="UTF-8" standalone="no"?>
<svg viewBox="0 0 12 9" version="1.1" xmlns="http://www.w3.org/2000/svg" xmlns:xlink="http://www.w3.org/1999/xlink">
    <!-- Generator: Sketch 46.2 (44496) - http://www.bohemiancoding.com/sketch -->
    <title>1440 Menu Hamberger Dark</title>
    <desc>Created with Sketch.</desc>
    <defs></defs>
    <g id="GUI" stroke="none" stroke-width="1" fill="" fill-rule="">
        <g transform="translate(-510.000000, -1184.000000)" id="1440-Menu-Hamberger-Dark" fill="">
            <path d="M510.5,1184 L521.5,1184 C521.776142,1184 522,1184.22386 522,1184.5 L522,1184.5 C522,1184.77614 521.776142,1185 521.5,1185 L510.5,1185 C510.223858,1185 510,1184.77614 510,1184.5 L510,1184.5 L510,1184.5 C510,1184.22386 510.223858,1184 510.5,1184 L510.5,1184 Z M510.5,1188 L521.5,1188 C521.776142,1188 522,1188.22386 522,1188.5 C522,1188.77614 521.776142,1189 521.5,1189 L510.5,1189 C510.223858,1189 510,1188.77614 510,1188.5 C510,1188.22386 510.223858,1188 510.5,1188 L510.5,1188 Z M510.5,1192 L521.5,1192 C521.776142,1192 522,1192.22386 522,1192.5 C522,1192.77614 521.776142,1193 521.5,1193 L510.5,1193 C510.223858,1193 510,1192.77614 510,1192.5 C510,1192.22386 510.223858,1192 510.5,1192 L510.5,1192 Z"></path>
        </g>
    </g>
</svg>
