<?xml version="1.0" encoding="UTF-8"?>
<svg width="22px" height="16px" viewBox="0 0 22 16" version="1.1" xmlns="http://www.w3.org/2000/svg" xmlns:xlink="http://www.w3.org/1999/xlink">
    <!-- Generator: Sketch 54.1 (76490) - https://sketchapp.com -->
    <title>Components / Mixin / Icons basic / Heart</title>
    <desc>Created with Sketch.</desc>
    <g id="Components-/-Mixin-/-Icons-basic-/-Heart" stroke="none" stroke-width="1" fill="none" fill-rule="evenodd">
        <path d="M15.5015632,3.37478853 L15.497606,3.37079951 C15.2072299,3.07477997 14.8823507,2.85794498 14.5197428,2.71677689 C14.1475219,2.57186709 13.7714849,2.5 13.3886353,2.5 C13.0057876,2.5 12.6297506,2.57186717 12.2575307,2.7167766 C11.894922,2.85794498 11.5700428,3.07477997 11.2751533,3.37534209 L10,4.64240175 L9.647574,4.29221266 L8.72033331,3.37079951 C8.42995717,3.07477997 8.10507799,2.85794498 7.74247002,2.71677689 C7.37024942,2.57186717 6.99421239,2.5 6.61136465,2.5 C6.2285151,2.5 5.85247807,2.57186709 5.48025777,2.71677669 C5.11765001,2.8579445 4.79277197,3.07477895 4.49843687,3.37478844 C4.16433264,3.70781596 3.91614245,4.0801502 3.75078176,4.49471668 C3.58321874,4.91480462 3.5,5.34212547 3.5,5.77992354 C3.5,6.21824271 3.5834243,6.64913881 3.75153791,7.07568663 C3.91697508,7.49544157 4.16494099,7.86993584 4.49878609,8.20270541 L9.65846756,13.3559179 C9.85081824,13.5480274 10.1491818,13.5480274 10.3415324,13.3559179 L15.5015632,8.20235687 C15.8350601,7.86993496 16.0830261,7.49544072 16.2484615,7.0756882 C16.4165754,6.64913738 16.5,6.21824091 16.5,5.77992354 C16.5,5.34212726 16.416781,4.91480601 16.2492179,4.49471588 C16.0838588,4.08015105 15.8356684,3.70781685 15.5015632,3.37478853 Z" id="Page-1" stroke="#DC1414"></path>
    </g>
</svg>