<?xml version="1.0" encoding="UTF-8"?>
<svg viewBox="0 0 46 56" version="1.1" xmlns="http://www.w3.org/2000/svg" xmlns:xlink="http://www.w3.org/1999/xlink">
    <!-- Generator: Sketch 47.1 (45422) - http://www.bohemiancoding.com/sketch -->
    <title>icon_empl_3-calculate</title>
    <desc>Created with Sketch.</desc>
    <defs></defs>
    <g id="++Emplyees" stroke="none" stroke-width="1" fill="none" fill-rule="evenodd" stroke-linecap="round" stroke-linejoin="round">
        <g id="TS_1440-Emplyees" transform="translate(-596.000000, -2321.000000)" stroke="#DC1414" stroke-width="2">
            <path d="M637.616,2337.172 C637.616,2338.104 636.858,2338.859 635.924,2338.859 L602.359,2338.859 C601.425,2338.859 600.667,2338.104 600.667,2337.172 L600.667,2327.049 C600.667,2326.117 601.425,2325.361 602.359,2325.361 L635.924,2325.361 C636.858,2325.361 637.616,2326.117 637.616,2327.049 L637.616,2337.172 Z M637.616,2348.985 C637.616,2349.916 636.858,2350.672 635.924,2350.672 L632.539,2350.672 C631.604,2350.672 630.846,2349.916 630.846,2348.985 L630.846,2345.61 C630.846,2344.678 631.604,2343.922 632.539,2343.922 L635.924,2343.922 C636.858,2343.922 637.616,2344.678 637.616,2345.61 L637.616,2348.985 Z M637.616,2369.235 C637.616,2370.166 636.858,2370.922 635.924,2370.922 L632.539,2370.922 C631.604,2370.922 630.846,2370.166 630.846,2369.235 L630.846,2355.735 C630.846,2354.803 631.604,2354.047 632.539,2354.047 L635.924,2354.047 C636.858,2354.047 637.616,2354.803 637.616,2355.735 L637.616,2369.235 Z M627.462,2348.985 C627.462,2349.916 626.704,2350.672 625.769,2350.672 L622.385,2350.672 C621.45,2350.672 620.692,2349.916 620.692,2348.985 L620.692,2345.61 C620.692,2344.678 621.45,2343.922 622.385,2343.922 L625.769,2343.922 C626.704,2343.922 627.462,2344.678 627.462,2345.61 L627.462,2348.985 Z M627.462,2359.11 C627.462,2360.041 626.704,2360.797 625.769,2360.797 L622.385,2360.797 C621.45,2360.797 620.692,2360.041 620.692,2359.11 L620.692,2355.735 C620.692,2354.803 621.45,2354.047 622.385,2354.047 L625.769,2354.047 C626.704,2354.047 627.462,2354.803 627.462,2355.735 L627.462,2359.11 Z M627.462,2369.235 C627.462,2370.166 626.704,2370.922 625.769,2370.922 L622.385,2370.922 C621.45,2370.922 620.692,2370.166 620.692,2369.235 L620.692,2365.86 C620.692,2364.928 621.45,2364.172 622.385,2364.172 L625.769,2364.172 C626.704,2364.172 627.462,2364.928 627.462,2365.86 L627.462,2369.235 Z M617.307,2348.985 C617.307,2349.916 616.551,2350.672 615.616,2350.672 L612.231,2350.672 C611.296,2350.672 610.539,2349.916 610.539,2348.985 L610.539,2345.61 C610.539,2344.678 611.296,2343.922 612.231,2343.922 L615.616,2343.922 C616.551,2343.922 617.307,2344.678 617.307,2345.61 L617.307,2348.985 Z M617.307,2359.11 C617.307,2360.041 616.551,2360.797 615.616,2360.797 L612.231,2360.797 C611.296,2360.797 610.539,2360.041 610.539,2359.11 L610.539,2355.735 C610.539,2354.803 611.296,2354.047 612.231,2354.047 L615.616,2354.047 C616.551,2354.047 617.307,2354.803 617.307,2355.735 L617.307,2359.11 Z M617.307,2369.235 C617.307,2370.166 616.551,2370.922 615.616,2370.922 L612.231,2370.922 C611.296,2370.922 610.539,2370.166 610.539,2369.235 L610.539,2365.86 C610.539,2364.928 611.296,2364.172 612.231,2364.172 L615.616,2364.172 C616.551,2364.172 617.307,2364.928 617.307,2365.86 L617.307,2369.235 Z M607.154,2348.985 C607.154,2349.916 606.396,2350.672 605.462,2350.672 L602.077,2350.672 C601.142,2350.672 600.385,2349.916 600.385,2348.985 L600.385,2345.61 C600.385,2344.678 601.142,2343.922 602.077,2343.922 L605.462,2343.922 C606.396,2343.922 607.154,2344.678 607.154,2345.61 L607.154,2348.985 Z M607.154,2359.11 C607.154,2360.041 606.396,2360.797 605.462,2360.797 L602.077,2360.797 C601.142,2360.797 600.385,2360.041 600.385,2359.11 L600.385,2355.735 C600.385,2354.803 601.142,2354.047 602.077,2354.047 L605.462,2354.047 C606.396,2354.047 607.154,2354.803 607.154,2355.735 L607.154,2359.11 Z M607.154,2369.235 C607.154,2370.166 606.396,2370.922 605.462,2370.922 L602.077,2370.922 C601.142,2370.922 600.385,2370.166 600.385,2369.235 L600.385,2365.86 C600.385,2364.928 601.142,2364.172 602.077,2364.172 L605.462,2364.172 C606.396,2364.172 607.154,2364.928 607.154,2365.86 L607.154,2369.235 Z M637.616,2322 L600.385,2322 C598.515,2322 597,2323.511 597,2325.375 L597,2372.625 C597,2374.489 598.515,2376 600.385,2376 L637.616,2376 C639.485,2376 641,2374.489 641,2372.625 L641,2325.375 C641,2323.511 639.485,2322 637.616,2322 Z" id="icon_empl_3-calculate"></path>
        </g>
    </g>
</svg>
