<?xml version="1.0" encoding="UTF-8"?>
<svg viewBox="0 0 45 61" version="1.1" xmlns="http://www.w3.org/2000/svg" xmlns:xlink="http://www.w3.org/1999/xlink">
    <!-- Generator: Sketch 47.1 (45422) - http://www.bohemiancoding.com/sketch -->
    <title>icon_empl_1-consult</title>
    <desc>Created with Sketch.</desc>
    <defs></defs>
    <g id="++Emplyees" stroke="none" stroke-width="1" fill="none" fill-rule="evenodd" stroke-linecap="round" stroke-linejoin="round">
        <g id="TS_1440-Emplyees" transform="translate(-207.000000, -2318.000000)" stroke="#DC1414" stroke-width="2">
            <g id="icon_empl_1-consult" transform="translate(208.000000, 2319.000000)">
                <path d="M30.2236981,13.1967925 C29.6780377,13.9349057 29.0836981,14.6333962 28.4553962,15.275283 C25.302566,18.4915094 21.1682264,20.4454717 16.6376604,20.4454717 C10.2199245,20.4454717 4.60256604,23.0990566 4.60256604,26.3718868 L4.60256604,33.2673585 C1.16218868,29.4907547 -0.000452830189,25.3915094 -0.000452830189,19.4696226 C-0.000452830189,8.0254717 8.00898113,0.131509434 17.8897358,0.131509434 C23.2150189,0.131509434 27.7353962,1.68471698 29.4493585,5.78509434 C30.2259623,5.54056604 31.032,5.39792453 31.8663396,5.39792453 C37.5550189,5.39792453 42.1659623,11.420566 42.1659623,18.8481132 C42.1659623,23.5258491 40.3874717,27.5571698 37.6116226,29.9662264 C37.6116226,23.0696226 34.6999245,16.9632075 30.2236981,13.1967925 L30.2236981,13.1967925 Z" id="Stroke-1"></path>
                <path d="M4.60279245,33.2667925 L4.60279245,42.7830189 C4.60279245,45.7184906 5.8005283,48.5328302 7.93222642,50.6090566 L14.0556226,56.569434 C15.6541132,58.1249057 17.8231698,58.9988679 20.0839245,58.9988679 L21.216,58.9988679 L22.3480755,58.9988679 C24.6088302,58.9988679 26.7778868,58.1249057 28.3763774,56.569434 L34.5326038,50.5762264 C36.6439245,48.5226415 37.6220377,45.7354717 37.6220377,42.829434 L37.6220377,29.9667925" id="Stroke-3"></path>
                <path d="M25.2681509,52.1726792 L28.3168302,52.1726792 C35.2315472,52.1726792 40.8364528,46.5813585 40.8364528,39.2862642" id="Stroke-5"></path>
                <path d="M22.755283,54.3738868 L18.9458491,54.3738868 C18.0084906,54.3738868 17.2477358,53.6142642 17.2477358,52.6757736 L17.2477358,51.6693585 C17.2477358,50.732 18.0084906,49.9712453 18.9458491,49.9712453 L22.755283,49.9712453 C23.6926415,49.9712453 24.4533962,50.732 24.4533962,51.6693585 L24.4533962,52.6757736 C24.4533962,53.6142642 23.6926415,54.3738868 22.755283,54.3738868 Z" id="Stroke-7"></path>
                <path d="M40.6290566,38.7392453 L37.6075472,38.7392453 L37.6075472,31.4022642 L40.6290566,31.4022642 C41.8788679,31.4022642 42.8932075,32.4154717 42.8932075,33.6664151 L42.8932075,36.4750943 C42.8932075,37.7249057 41.8788679,38.7392453 40.6290566,38.7392453 Z" id="Stroke-9"></path>
            </g>
        </g>
    </g>
</svg>
