<?xml version="1.0" encoding="UTF-8"?>
<svg viewBox="0 0 60 54" version="1.1" xmlns="http://www.w3.org/2000/svg" xmlns:xlink="http://www.w3.org/1999/xlink">
    <!-- Generator: Sketch 47.1 (45422) - http://www.bohemiancoding.com/sketch -->
    <title>icon_empl_2-measure</title>
    <desc>Created with Sketch.</desc>
    <defs></defs>
    <g id="++Emplyees" stroke="none" stroke-width="1" fill="none" fill-rule="evenodd" stroke-linecap="round" stroke-linejoin="round">
        <g id="TS_1440-Emplyees" transform="translate(-391.000000, -2322.000000)" stroke="#DC1414" stroke-width="2">
            <g id="icon_empl_2-measure" transform="translate(392.000000, 2323.000000)">
                <path d="M55.2055636,39.7862308 L55.2055636,37.9554231 C55.2055636,36.8754231 54.3308727,36 53.2520182,36 L51,36 L55.2055636,39.7862308 Z" id="Stroke-1"></path>
                <path d="M52,48.5961923 L53.2757636,48.5961923 C54.3546182,48.5961923 55.2293091,47.7197308 55.2293091,46.6397308 L55.2293091,45 L52,48.5961923 Z" id="Stroke-3"></path>
                <path d="M32.5312727,36 L3.95354545,36 C2.87469091,36 2,36.8764615 2,37.9564615 L2,46.7605385 C2,47.8405385 2.87469091,48.717 3.95354545,48.717 L46.6527636,48.717 L32.5312727,36 Z" id="Stroke-5"></path>
                <path d="M56.5538182,41.4216538 L24.9913636,13 L6,13 L48.0618545,50.8768462 C48.864,51.5996154 50.0993455,51.5341923 50.8206545,50.7314615 L56.6999455,44.185 C57.4212545,43.3812308 57.3559636,42.1444231 56.5538182,41.4216538 Z" id="Stroke-7"></path>
                <path d="M11.3942727,5.87868489 L9.8646,4.50168489 C9.06245455,3.77995412 7.82710909,3.84433874 7.1058,4.64706951 L6,5.87868489 L11.3942727,5.87868489 Z" id="Stroke-9"></path>
                <path d="M1.42852579,4 L0.500980338,5.03223077 C-0.220328753,5.83703846 -0.155037844,7.07280769 0.647107611,7.79557692 L1.42852579,8.49861538 L1.42852579,4 Z" id="Stroke-11"></path>
                <path d="M53.6554727,12.717 L4.07272727,12.717 C2.92754545,12.717 2,11.7865385 2,10.6400769 L2,2.07692308 C2,0.929423077 2.92754545,0 4.07272727,0 L53.6554727,0 C54.7996182,0 55.7282,0.929423077 55.7282,2.07692308 L55.7282,10.6400769 C55.7282,11.7865385 54.7996182,12.717 53.6554727,12.717 Z" id="Stroke-13"></path>
                <path d="M10.8843818,42.4445385 C10.8843818,43.7955769 9.79101818,44.8890769 8.44270909,44.8890769 C7.09336364,44.8890769 6,43.7955769 6,42.4445385 C6,41.0935 7.09336364,40 8.44270909,40 C9.79101818,40 10.8843818,41.0935 10.8843818,42.4445385 Z" id="Stroke-15"></path>
                <path d="M46.6260572,39.8107177 C47.5287299,38.8054869 49.0718753,38.7244869 50.0750753,39.62691 C51.0782753,40.5303716 51.1601481,42.0766408 50.2574753,43.0808331 C49.355839,44.0850254 47.8126935,44.1670639 46.8094935,43.2636023 C45.8062935,42.3611792 45.7244208,40.81491 46.6260572,39.8107177 Z" id="Stroke-17"></path>
                <path d="M10.8843818,6.44453846 C10.8843818,7.79557692 9.79101818,8.89011538 8.44270909,8.89011538 C7.09336364,8.89011538 6,7.79557692 6,6.44453846 C6,5.0935 7.09336364,4 8.44270909,4 C9.79101818,4 10.8843818,5.0935 10.8843818,6.44453846 Z" id="Stroke-19"></path>
                <path d="M16,0 L16,3.91292308" id="Stroke-21"></path>
                <path d="M49,0 L49,3.91292308" id="Stroke-23"></path>
                <path d="M45,0 L45,4.89115385" id="Stroke-25"></path>
                <path d="M41,0 L41,3.91292308" id="Stroke-27"></path>
                <path d="M37,0 L37,4.89115385" id="Stroke-29"></path>
                <path d="M32,0 L32,3.91292308" id="Stroke-31"></path>
                <path d="M28,0 L28,4.89115385" id="Stroke-33"></path>
                <path d="M24,0 L24,3.91292308" id="Stroke-35"></path>
                <path d="M20,0 L20,4.89115385" id="Stroke-37"></path>
                <path d="M16,36 L16,39.9139615" id="Stroke-39"></path>
                <path d="M29,36 L29,40.8911538" id="Stroke-41"></path>
                <path d="M25,36 L25,39.9139615" id="Stroke-43"></path>
                <path d="M21,36 L21,40.8911538" id="Stroke-45"></path>
                <path d="M38,40.9087308 L40.6095636,38" id="Stroke-47"></path>
                <path d="M13,18.9087308 L15.6095636,16" id="Stroke-49"></path>
                <path d="M16,21.6346154 L19.2614364,18" id="Stroke-51"></path>
                <path d="M19,24.9076923 L21.6095636,22" id="Stroke-53"></path>
                <path d="M23,27.6346154 L26.2604,24" id="Stroke-55"></path>
                <path d="M26,29.9076923 L28.6085273,27" id="Stroke-57"></path>
                <path d="M29,32.6346154 L32.2614364,29" id="Stroke-59"></path>
                <path d="M32,35.9076923 L34.6095636,33" id="Stroke-61"></path>
                <path d="M35,38.6346154 L38.2614364,35" id="Stroke-63"></path>
            </g>
        </g>
    </g>
</svg>
