<?xml version="1.0" encoding="UTF-8"?>
<svg viewBox="0 0 63 46" version="1.1" xmlns="http://www.w3.org/2000/svg" xmlns:xlink="http://www.w3.org/1999/xlink">
    <!-- Generator: Sketch 47.1 (45422) - http://www.bohemiancoding.com/sketch -->
    <title>icon_empl_6-install</title>
    <desc>Created with Sketch.</desc>
    <defs></defs>
    <g id="++Emplyees" stroke="none" stroke-width="1" fill="none" fill-rule="evenodd">
        <g id="TS_1440-Emplyees" transform="translate(-1187.000000, -2325.000000)" fill="#DC1414">
            <g id="icon_empl_6-install" transform="translate(1187.000000, 2325.000000)">
                <path d="M60.7013794,43.31084 C60.4037246,43.60984 60.0096075,43.77544 59.5897672,43.77544 L51.2104155,43.77544 C50.5728461,43.77544 50.0537875,43.2538 50.0537875,42.61072 L50.0537875,41.38528 C50.0537875,41.11296 50.1493311,40.84708 50.3229631,40.63824 L51.5117451,39.20488 C52.5792604,37.91964 53.1672206,36.28848 53.1672206,34.61408 L53.1672206,18.83424 C53.1672206,18.5196 53.0064502,18.2252 52.7409494,18.05776 C52.5912033,17.96208 52.4203274,17.91424 52.2485327,17.91424 C52.115323,17.91424 51.9821133,17.94276 51.8580904,18.00072 C51.7983757,18.03016 45.7800518,20.83248 38.1935277,20.63192 C29.9244186,20.63192 26.5546716,16.40912 25.8895416,15.4376 L25.8895416,3.06084 L56.5911701,3.06084 C57.556711,3.06084 58.3789366,3.75176 58.5470565,4.70396 C59.3316159,9.14664 60.5764379,18.36412 61.0118959,33.52572 L56.6968192,33.52572 C56.1897035,33.52572 55.7781314,33.93788 55.7781314,34.44572 C55.7781314,34.95448 56.1897035,35.36572 56.6968192,35.36572 L61.0615051,35.36572 C61.0798788,36.12564 61.0945778,36.90672 61.1074394,37.69516 L56.6968192,37.69516 C56.1897035,37.69516 55.7781314,38.10732 55.7781314,38.61516 C55.7781314,39.12392 56.1897035,39.53516 56.6968192,39.53516 L61.1340814,39.53516 C61.1451056,40.40824 61.1570486,41.2758 61.1625607,42.18108 C61.1653168,42.60704 61.0017903,43.00816 60.7013794,43.31084 L60.7013794,43.31084 Z M49.6578331,26.41228 L47.9637727,21.27868 C49.3739585,20.90516 50.5241557,20.51416 51.3298449,20.20872 L51.3298449,26.15928 L49.6578331,26.41228 Z M21.5129128,23.03404 L21.5129128,15.70716 L21.5129128,5.15568 L21.5129128,1.84 L24.0420604,1.84 L24.0420604,23.03404 L21.5129128,23.03404 Z M25.8840295,26.91552 C25.4467341,27.6828 25.2170621,28.55496 25.2170621,29.43908 L25.2170621,42.31724 C25.2170621,43.0192 25.4935872,43.67516 25.9850852,44.16 L19.8170151,44.16 C20.3296429,43.67516 20.6272978,42.9916 20.6272978,42.27676 L20.6272978,29.5182 C20.6272978,28.57152 20.364553,27.646 19.8684616,26.84008 L18.6567124,24.87404 L20.594225,24.87404 L24.9607482,24.87404 L27.0452509,24.87404 L25.8840295,26.91552 Z M16.209328,14.78716 C14.6898183,14.78716 13.4532645,13.54884 13.4532645,12.02716 L13.4532645,8.83568 C13.4532645,7.314 14.6898183,6.07568 16.209328,6.07568 L19.6755372,6.07568 L19.6755372,14.78716 L16.209328,14.78716 Z M60.3568715,4.3838 C60.0325747,2.55116 58.4496756,1.22084 56.5911701,1.22084 L25.8794361,1.22084 L25.8794361,0.92 C25.8794361,0.41124 25.4678639,0 24.9607482,0 L20.594225,0 C20.0871093,0 19.6755372,0.41124 19.6755372,0.92 L19.6755372,4.23568 L16.209328,4.23568 C13.6765057,4.23568 11.6158889,6.30016 11.6158889,8.83568 L11.6158889,9.51188 L0.918687826,9.51188 C0.411572146,9.51188 0,9.92312 0,10.43188 C0,10.93972 0.411572146,11.35188 0.918687826,11.35188 L11.6158889,11.35188 L11.6158889,12.02716 C11.6158889,14.5636 13.6765057,16.62716 16.209328,16.62716 L19.6755372,16.62716 L19.6755372,23.03404 L18.5005354,23.03404 C17.8675595,23.03404 17.2823554,23.37812 16.9736763,23.93196 C16.6640785,24.48672 16.6796962,25.16844 17.0122612,25.71032 L18.3048549,27.80608 C18.6218022,28.32128 18.7899221,28.91284 18.7899221,29.5182 L18.7899221,42.27676 C18.7899221,42.51688 18.6732488,42.74412 18.4803243,42.88396 L17.5193768,43.57764 C17.0471713,43.91804 16.8505721,44.5188 17.0297162,45.07356 C17.2079417,45.62832 17.7178134,46 18.2984241,46 L27.4173195,46 C27.9869059,46 28.4931029,45.63752 28.6786779,45.09748 C28.8642528,44.55744 28.6869461,43.95944 28.2386264,43.60892 L27.3410684,42.90788 C27.1591682,42.76436 27.0544378,42.55 27.0544378,42.31724 L27.0544378,29.43908 C27.0544378,28.8742 27.2014278,28.31576 27.4797903,27.82632 L27.4807089,27.82632 L28.713588,25.65788 C29.0268606,25.10864 29.0250232,24.4536 28.7080759,23.9062 C28.3911286,23.35972 27.8252169,23.03404 27.194997,23.03404 L25.8794361,23.03404 L25.8794361,18.18748 C27.8435906,20.03392 31.6644133,22.47192 38.1705605,22.47192 C41.1618081,22.54184 43.8985791,22.1858 46.1695754,21.70556 L47.9352934,27.05904 C48.1759896,27.78676 48.8484691,28.26332 49.5935249,28.26332 C49.6798816,28.26332 49.7680756,28.25596 49.8562696,28.24308 L51.3298449,28.02044 L51.3298449,34.61408 C51.3298449,35.85976 50.8925495,37.07324 50.0988032,38.03004 L48.9100212,39.46248 C48.4626202,40.00068 48.2164119,40.68516 48.2164119,41.38528 L48.2164119,42.61072 C48.2164119,44.26764 49.5595335,45.61544 51.2104155,45.61544 L59.5897672,45.61544 C60.5020242,45.61544 61.3600786,45.25756 62.0040788,44.60712 C62.6526724,43.95484 63.0054485,43.09004 62.9999364,42.17096 C62.8759135,21.62092 61.291177,9.67472 60.3568715,4.3838 L60.3568715,4.3838 Z" id="Fill-1"></path>
                <path d="M38.645,10.8125 L31.942,10.8125 C31.39,10.8125 30.942,11.2595 30.942,11.8125 C30.942,12.3655 31.39,12.8125 31.942,12.8125 L38.645,12.8125 C39.197,12.8125 39.645,12.3655 39.645,11.8125 C39.645,11.2595 39.197,10.8125 38.645,10.8125" id="Fill-4"></path>
                <path d="M38.645,7.6396 L31.942,7.6396 C31.39,7.6396 30.942,8.0866 30.942,8.6396 C30.942,9.1926 31.39,9.6396 31.942,9.6396 L38.645,9.6396 C39.197,9.6396 39.645,9.1926 39.645,8.6396 C39.645,8.0866 39.197,7.6396 38.645,7.6396" id="Fill-6"></path>
                <path d="M38.645,4.4678 L31.942,4.4678 C31.39,4.4678 30.942,4.9148 30.942,5.4678 C30.942,6.0208 31.39,6.4678 31.942,6.4678 L38.645,6.4678 C39.197,6.4678 39.645,6.0208 39.645,5.4678 C39.645,4.9148 39.197,4.4678 38.645,4.4678" id="Fill-8"></path>
            </g>
        </g>
    </g>
</svg>
