<?xml version="1.0" encoding="UTF-8"?>
<svg viewBox="0 0 52 56" version="1.1" xmlns="http://www.w3.org/2000/svg" xmlns:xlink="http://www.w3.org/1999/xlink">
    <!-- Generator: Sketch 47.1 (45422) - http://www.bohemiancoding.com/sketch -->
    <title>icon_empl_5-prod</title>
    <desc>Created with Sketch.</desc>
    <defs></defs>
    <g id="++Emplyees" stroke="none" stroke-width="1" fill="none" fill-rule="evenodd" stroke-linecap="round" stroke-linejoin="round">
        <g id="TS_1440-Emplyees" transform="translate(-994.000000, -2320.000000)" stroke="#DC1414" stroke-width="2">
            <g id="icon_empl_5-prod" transform="translate(995.000000, 2321.000000)">
                <path d="M47.6733,44.466 L48.6733,44.466" id="Stroke-4"></path>
                <path d="M46.0322,41.2102 L44.8042,35.6202 C44.6032,34.7032 43.7902,34.0502 42.8512,34.0502 L37.4512,34.0502" id="Stroke-6"></path>
                <polyline id="Stroke-8" points="37.4511 43.2317 37.4511 29.2497 13.2851 29.2497 13.2851 34.6887"></polyline>
                <path d="M13.2851,38.1545 L13.2851,50.5005 L18.1131,50.5005 C18.1131,48.5665 19.6801,47.0005 21.6131,47.0005 C23.5461,47.0005 25.1131,48.5665 25.1131,50.5005 L37.4511,50.5005 L37.4511,46.7345" id="Stroke-10"></path>
                <path d="M25.1132,50.5002 C25.1132,52.4332 23.5462,54.0002 21.6132,54.0002 C19.6802,54.0002 18.1132,52.4332 18.1132,50.5002 C18.1132,48.5662 19.6802,47.0002 21.6132,47.0002 C23.5462,47.0002 25.1132,48.5662 25.1132,50.5002 Z" id="Stroke-12"></path>
                <path d="M37.4511,50.5002 L40.1171,50.5002 C40.1171,48.5662 41.6841,47.0002 43.6171,47.0002 C45.5501,47.0002 47.1171,48.5662 47.1171,50.5002 L49.6851,50.5002 L49.6851,44.2102 C49.6851,42.5542 48.3421,41.2102 46.6851,41.2102 L37.4511,41.2102" id="Stroke-14"></path>
                <path d="M47.1171,50.5002 C47.1171,52.4332 45.5501,54.0002 43.6171,54.0002 C41.6841,54.0002 40.1171,52.4332 40.1171,50.5002 C40.1171,48.5662 41.6841,47.0002 43.6171,47.0002 C45.5501,47.0002 47.1171,48.5662 47.1171,50.5002 Z" id="Stroke-20"></path>
                <polyline id="Stroke-22" points="16.789 14.885 16.388 7.6 12.243 7.6 11.716 17.655"></polyline>
                <polyline id="Stroke-24" points="9.0151 18.591 8.5801 10.433 4.4351 10.433 3.8721 21.674"></polyline>
                <path d="M25.5453,0.1057 L18.2283,0.1057 C16.5023,0.1057 15.1033,1.5047 15.1033,3.2307" id="Stroke-26"></path>
                <path d="M30.8613,0.1057 L28.9293,0.1057" id="Stroke-28"></path>
                <polyline id="Stroke-30" points="-0.0001 48.3303 -0.0001 23.5703 26.9159 10.5673 26.9159 23.0403 42.7499 15.0663 42.7499 29.2893"></polyline>
            </g>
        </g>
    </g>
</svg>
