<?xml version="1.0" encoding="UTF-8"?>
<svg width="25px" height="25px" viewBox="0 0 25 25" version="1.1" xmlns="http://www.w3.org/2000/svg" xmlns:xlink="http://www.w3.org/1999/xlink">
    <!-- Generator: Sketch 51.2 (57519) - http://www.bohemiancoding.com/sketch -->
    <title>social_color_inst</title>
    <desc>Created with Sketch.</desc>
    <defs>
        <radialGradient cx="29.062843%" cy="99.7542825%" fx="29.062843%" fy="99.7542825%" r="100.81035%" id="radialGradient-1">
            <stop stop-color="#FFD776" offset="0%"></stop>
            <stop stop-color="#F3A554" offset="25%"></stop>
            <stop stop-color="#F15C3C" offset="38%"></stop>
            <stop stop-color="#C32F87" offset="70%"></stop>
            <stop stop-color="#6765AE" offset="95%"></stop>
            <stop stop-color="#5C6CB3" offset="99%"></stop>
        </radialGradient>
    </defs>
    <g id="GUI" stroke="none" stroke-width="1" fill="none" fill-rule="evenodd">
        <g transform="translate(-280.000000, -1511.000000)" fill="url(#radialGradient-1)" fill-rule="nonzero" id="social_color_inst">
            <path d="M292.5,1536 C299.403559,1536 305,1530.40356 305,1523.5 C305,1516.59644 299.403559,1511 292.5,1511 C285.596441,1511 280,1516.59644 280,1523.5 C280,1530.40356 285.596441,1536 292.5,1536 Z M295.821347,1518.25566 L289.178653,1518.25566 C288.118391,1518.25566 287.255664,1519.11839 287.255664,1520.17865 L287.255664,1526.82135 C287.255664,1527.88161 288.118391,1528.74434 289.178653,1528.74434 L295.821347,1528.74434 C296.881609,1528.74434 297.744336,1527.88161 297.744336,1526.82135 L297.744336,1520.17865 C297.744336,1519.11839 296.881609,1518.25566 295.821347,1518.25566 Z M292.49978,1526.95289 C290.596148,1526.95289 289.04711,1525.40385 289.04711,1523.49978 C289.04711,1521.59615 290.596148,1520.04711 292.49978,1520.04711 C294.403852,1520.04711 295.95289,1521.59615 295.95289,1523.49978 C295.95289,1525.40385 294.403852,1526.95289 292.49978,1526.95289 Z M296.063755,1520.76114 C295.613254,1520.76114 295.246782,1520.39467 295.246782,1519.94416 C295.246782,1519.49366 295.613254,1519.12719 296.063755,1519.12719 C296.514256,1519.12719 296.880729,1519.49366 296.880729,1519.94416 C296.880729,1520.39467 296.514256,1520.76114 296.063755,1520.76114 Z M292.49978,1521.5064 C291.400803,1521.5064 290.50596,1522.4008 290.50596,1523.49978 C290.50596,1524.5992 291.400803,1525.49404 292.49978,1525.49404 C293.599197,1525.49404 294.4936,1524.5992 294.4936,1523.49978 C294.4936,1522.4008 293.599197,1521.5064 292.49978,1521.5064 Z M295.821347,1518.25566 L289.178653,1518.25566 C288.118391,1518.25566 287.255664,1519.11839 287.255664,1520.17865 L287.255664,1526.82135 C287.255664,1527.88161 288.118391,1528.74434 289.178653,1528.74434 L295.821347,1528.74434 C296.881609,1528.74434 297.744336,1527.88161 297.744336,1526.82135 L297.744336,1520.17865 C297.744336,1519.11839 296.881609,1518.25566 295.821347,1518.25566 Z M292.49978,1526.95289 C290.596148,1526.95289 289.04711,1525.40385 289.04711,1523.49978 C289.04711,1521.59615 290.596148,1520.04711 292.49978,1520.04711 C294.403852,1520.04711 295.95289,1521.59615 295.95289,1523.49978 C295.95289,1525.40385 294.403852,1526.95289 292.49978,1526.95289 Z M296.063755,1520.76114 C295.613254,1520.76114 295.246782,1520.39467 295.246782,1519.94416 C295.246782,1519.49366 295.613254,1519.12719 296.063755,1519.12719 C296.514256,1519.12719 296.880729,1519.49366 296.880729,1519.94416 C296.880729,1520.39467 296.514256,1520.76114 296.063755,1520.76114 Z M292.49978,1521.5064 C291.400803,1521.5064 290.50596,1522.4008 290.50596,1523.49978 C290.50596,1524.5992 291.400803,1525.49404 292.49978,1525.49404 C293.599197,1525.49404 294.4936,1524.5992 294.4936,1523.49978 C294.4936,1522.4008 293.599197,1521.5064 292.49978,1521.5064 Z M299.203186,1526.82135 C299.203186,1528.68626 297.686264,1530.20319 295.821347,1530.20319 L289.178653,1530.20319 C287.313736,1530.20319 285.796814,1528.68626 285.796814,1526.82135 L285.796814,1520.17865 C285.796814,1518.31374 287.313736,1516.79681 289.178653,1516.79681 L295.821347,1516.79681 C297.686264,1516.79681 299.203186,1518.31374 299.203186,1520.17865 L299.203186,1526.82135 Z M295.821347,1518.25566 L289.178653,1518.25566 C288.118391,1518.25566 287.255664,1519.11839 287.255664,1520.17865 L287.255664,1526.82135 C287.255664,1527.88161 288.118391,1528.74434 289.178653,1528.74434 L295.821347,1528.74434 C296.881609,1528.74434 297.744336,1527.88161 297.744336,1526.82135 L297.744336,1520.17865 C297.744336,1519.11839 296.881609,1518.25566 295.821347,1518.25566 Z M292.49978,1526.95289 C290.596148,1526.95289 289.04711,1525.40385 289.04711,1523.49978 C289.04711,1521.59615 290.596148,1520.04711 292.49978,1520.04711 C294.403852,1520.04711 295.95289,1521.59615 295.95289,1523.49978 C295.95289,1525.40385 294.403852,1526.95289 292.49978,1526.95289 Z M296.063755,1520.76114 C295.613254,1520.76114 295.246782,1520.39467 295.246782,1519.94416 C295.246782,1519.49366 295.613254,1519.12719 296.063755,1519.12719 C296.514256,1519.12719 296.880729,1519.49366 296.880729,1519.94416 C296.880729,1520.39467 296.514256,1520.76114 296.063755,1520.76114 Z M292.49978,1521.5064 C291.400803,1521.5064 290.50596,1522.4008 290.50596,1523.49978 C290.50596,1524.5992 291.400803,1525.49404 292.49978,1525.49404 C293.599197,1525.49404 294.4936,1524.5992 294.4936,1523.49978 C294.4936,1522.4008 293.599197,1521.5064 292.49978,1521.5064 Z M292.49978,1521.5064 C291.400803,1521.5064 290.50596,1522.4008 290.50596,1523.49978 C290.50596,1524.5992 291.400803,1525.49404 292.49978,1525.49404 C293.599197,1525.49404 294.4936,1524.5992 294.4936,1523.49978 C294.4936,1522.4008 293.599197,1521.5064 292.49978,1521.5064 Z M292.49978,1521.5064 C291.400803,1521.5064 290.50596,1522.4008 290.50596,1523.49978 C290.50596,1524.5992 291.400803,1525.49404 292.49978,1525.49404 C293.599197,1525.49404 294.4936,1524.5992 294.4936,1523.49978 C294.4936,1522.4008 293.599197,1521.5064 292.49978,1521.5064 Z M295.821347,1518.25566 L289.178653,1518.25566 C288.118391,1518.25566 287.255664,1519.11839 287.255664,1520.17865 L287.255664,1526.82135 C287.255664,1527.88161 288.118391,1528.74434 289.178653,1528.74434 L295.821347,1528.74434 C296.881609,1528.74434 297.744336,1527.88161 297.744336,1526.82135 L297.744336,1520.17865 C297.744336,1519.11839 296.881609,1518.25566 295.821347,1518.25566 Z M292.49978,1526.95289 C290.596148,1526.95289 289.04711,1525.40385 289.04711,1523.49978 C289.04711,1521.59615 290.596148,1520.04711 292.49978,1520.04711 C294.403852,1520.04711 295.95289,1521.59615 295.95289,1523.49978 C295.95289,1525.40385 294.403852,1526.95289 292.49978,1526.95289 Z M296.063755,1520.76114 C295.613254,1520.76114 295.246782,1520.39467 295.246782,1519.94416 C295.246782,1519.49366 295.613254,1519.12719 296.063755,1519.12719 C296.514256,1519.12719 296.880729,1519.49366 296.880729,1519.94416 C296.880729,1520.39467 296.514256,1520.76114 296.063755,1520.76114 Z M292.49978,1521.5064 C291.400803,1521.5064 290.50596,1522.4008 290.50596,1523.49978 C290.50596,1524.5992 291.400803,1525.49404 292.49978,1525.49404 C293.599197,1525.49404 294.4936,1524.5992 294.4936,1523.49978 C294.4936,1522.4008 293.599197,1521.5064 292.49978,1521.5064 Z M292.49978,1521.5064 C291.400803,1521.5064 290.50596,1522.4008 290.50596,1523.49978 C290.50596,1524.5992 291.400803,1525.49404 292.49978,1525.49404 C293.599197,1525.49404 294.4936,1524.5992 294.4936,1523.49978 C294.4936,1522.4008 293.599197,1521.5064 292.49978,1521.5064 Z M292.49978,1521.5064 C291.400803,1521.5064 290.50596,1522.4008 290.50596,1523.49978 C290.50596,1524.5992 291.400803,1525.49404 292.49978,1525.49404 C293.599197,1525.49404 294.4936,1524.5992 294.4936,1523.49978 C294.4936,1522.4008 293.599197,1521.5064 292.49978,1521.5064 Z M295.821347,1518.25566 L289.178653,1518.25566 C288.118391,1518.25566 287.255664,1519.11839 287.255664,1520.17865 L287.255664,1526.82135 C287.255664,1527.88161 288.118391,1528.74434 289.178653,1528.74434 L295.821347,1528.74434 C296.881609,1528.74434 297.744336,1527.88161 297.744336,1526.82135 L297.744336,1520.17865 C297.744336,1519.11839 296.881609,1518.25566 295.821347,1518.25566 Z M292.49978,1526.95289 C290.596148,1526.95289 289.04711,1525.40385 289.04711,1523.49978 C289.04711,1521.59615 290.596148,1520.04711 292.49978,1520.04711 C294.403852,1520.04711 295.95289,1521.59615 295.95289,1523.49978 C295.95289,1525.40385 294.403852,1526.95289 292.49978,1526.95289 Z M296.063755,1520.76114 C295.613254,1520.76114 295.246782,1520.39467 295.246782,1519.94416 C295.246782,1519.49366 295.613254,1519.12719 296.063755,1519.12719 C296.514256,1519.12719 296.880729,1519.49366 296.880729,1519.94416 C296.880729,1520.39467 296.514256,1520.76114 296.063755,1520.76114 Z"></path>
        </g>
    </g>
</svg>