<svg xmlns="http://www.w3.org/2000/svg" width="122" height="20" viewBox="0 0 122 20"><g><g><g><path fill="#ff1010" d="M44.42 2.896a3.1 3.1 0 0 1-1.553-1.854A4.39 4.39 0 0 1 42.677 0h1.82c.016.155.056.316.124.487.065.17.162.329.289.474.124.147.276.272.454.371.177.1.378.151.6.151.25 0 .469-.05.653-.15.186-.1.34-.225.468-.372.125-.145.216-.304.276-.474.06-.17.089-.332.089-.487h1.798c-.03.324-.104.671-.222 1.042-.12.371-.3.72-.544 1.044-.243.324-.57.594-.976.81-.407.217-.921.326-1.542.326-.622 0-1.137-.109-1.544-.326zm4.917 5.54a96.507 96.507 0 0 1-1.821 3.013c-.103.17-.288.47-.554.904a1022.32 1022.32 0 0 1-2.03 3.29c-.393.633-.767 1.233-1.123 1.796a206.344 206.344 0 0 0-1.485 2.4h-2.331V3.87h2.53v11.355h.112l6.99-11.355H52v15.967h-2.531V8.435zm-14.392.998c0-.571-.09-1.065-.266-1.483a2.923 2.923 0 0 0-.712-1.032 2.706 2.706 0 0 0-1.036-.592 3.979 3.979 0 0 0-1.21-.185c-.43 0-.84.06-1.223.185-.388.124-.725.321-1.012.592-.287.27-.526.613-.702 1.032-.178.418-.265.912-.265 1.483v4.85c0 .587.087 1.09.265 1.507a2.8 2.8 0 0 0 .712 1.02c.296.263.64.456 1.024.58.385.124.787.185 1.2.185.414 0 .82-.06 1.211-.186.397-.123.74-.316 1.036-.579.295-.262.534-.603.712-1.02.177-.418.266-.92.266-1.507zm2.53 5.236c0 .834-.147 1.584-.443 2.248a4.734 4.734 0 0 1-1.227 1.68 5.473 5.473 0 0 1-1.836 1.042c-.704.24-1.45.36-2.248.36-.814 0-1.568-.12-2.27-.36a5.208 5.208 0 0 1-1.814-1.042 4.856 4.856 0 0 1-1.206-1.68c-.295-.664-.442-1.414-.442-2.248V8.992c0-.835.15-1.576.453-2.225A4.99 4.99 0 0 1 27.67 5.11a5.362 5.362 0 0 1 1.814-1.042 6.76 6.76 0 0 1 2.237-.36c.783 0 1.522.123 2.225.37a5.61 5.61 0 0 1 1.836 1.055 4.905 4.905 0 0 1 1.239 1.67c.301.655.454 1.4.454 2.236zm-16.957-1.348a2.502 2.502 0 0 0-1.721-.645h-3.661v4.774h3.684c.799 0 1.401-.212 1.808-.633.407-.427.611-1.005.611-1.743 0-.737-.24-1.32-.721-1.753zm-.116-6.567c-.422-.332-1.013-.498-1.768-.498h-3.498v4.103h3.61c.666 0 1.216-.18 1.646-.534.433-.355.646-.858.646-1.506 0-.71-.21-1.233-.636-1.565zm3.178 10.128a4.501 4.501 0 0 1-.833 1.507c-.369.44-.828.792-1.376 1.054-.546.262-1.175.394-1.886.394h-6.88V3.871h6.614c.725 0 1.366.115 1.92.347a3.885 3.885 0 0 1 1.376.939c.363.393.635.846.82 1.356.186.51.278 1.05.278 1.622 0 .617-.147 1.231-.444 1.842-.295.61-.776 1.108-1.443 1.495.74.385 1.28.923 1.621 1.61.34.687.51 1.37.51 2.051 0 .603-.092 1.187-.277 1.75zM6.768 6.257v13.581h-2.53V6.257H0V3.871h10.985v2.386z"/></g><g><path fill="#fff" d="M119.543 13.023c-.588-.512-1.36-.767-2.32-.767h-4.28v5.799h4.326c.448 0 .866-.064 1.249-.19.38-.125.711-.312.99-.555a2.71 2.71 0 0 0 .662-.91c.166-.364.249-.79.249-1.279 0-.888-.293-1.588-.876-2.098zm2.152 3.817a4.035 4.035 0 0 1-.877 1.39 4.023 4.023 0 0 1-1.42.924c-.564.223-1.207.335-1.927.335h-6.11V4.156h1.582v6.653h4.608c.718 0 1.352.127 1.896.378.55.253 1.015.582 1.397.992.38.407.67.867.862 1.378.196.512.294 1.035.294 1.57 0 .608-.1 1.18-.305 1.713zM100.904 5.58v5.52c0 1.334-.086 2.49-.26 3.47-.174.98-.421 1.818-.745 2.514-.323.698-.727 1.28-1.208 1.747A6.685 6.685 0 0 1 97.04 20l-.721-1.335c.495-.296.93-.638 1.297-1.024.37-.385.683-.876.938-1.468.256-.594.45-1.325.576-2.193.129-.867.192-1.931.192-3.194v-6.63h9.374V19.49h-1.581V5.579zM85.116 16.75l2.823-4.273 5.534-8.32h1.559v15.332H93.45V6.825h-.09l-3.005 4.563-5.375 8.1h-1.56V4.157h1.583V16.75zm-8.04-11.148V19.49h-1.581V5.602h-4.7V4.156h10.933v1.446zm-7.341-.333l-.813 1.223a4.922 4.922 0 0 0-1.57-.78 6.35 6.35 0 0 0-1.818-.265c-.497 0-.98.074-1.445.221-.466.15-.89.38-1.266.69a3.357 3.357 0 0 0-.904 1.214c-.226.497-.338 1.093-.338 1.791v4.896c0 .697.116 1.293.35 1.792.235.495.535.904.903 1.223.37.319.789.557 1.255.712.466.156.934.234 1.4.234.632 0 1.25-.085 1.852-.257a4.52 4.52 0 0 0 1.626-.834l.79 1.203c-.436.34-1.024.644-1.762.911-.737.267-1.558.401-2.461.401a6.518 6.518 0 0 1-2.203-.357 5.171 5.171 0 0 1-1.75-1.023 4.712 4.712 0 0 1-1.163-1.602C60.14 16.04 60 15.341 60 14.57V9.03c0-.757.143-1.443.43-2.059a4.851 4.851 0 0 1 1.174-1.59 5.195 5.195 0 0 1 1.75-1.024A6.476 6.476 0 0 1 65.534 4c1.656 0 3.056.423 4.2 1.269z"/></g></g></g></svg>