<svg xmlns="http://www.w3.org/2000/svg" xmlns:xlink="http://www.w3.org/1999/xlink" width="20" height="20" viewBox="0 0 20 20"><defs><path id="547ea" d="M76.392 1456.499c-.644-.413-1.392-1.287-1.392-1.797v-.202a2.5 2.5 0 0 1 2.5-2.5h11.25a2.5 2.5 0 0 1 2.5 2.5c0 .806-.717 1.562-1.386 2.001l-.861.561c-1.24.81-2.483 1.618-3.709 2.432l-.367.247c-.498.341-1.33.913-1.812.913-.463 0-1.295-.572-1.79-.912l-.365-.247c-.995-.659-1.997-1.314-2.997-1.968l-1.571-1.028m14.858 6.751a2.5 2.5 0 0 1-2.5 2.5H77.5a2.5 2.5 0 0 1-2.5-2.5v-6.273c.247.235.497.433.711.57l1.568 1.027c.999.651 1.999 1.306 2.995 1.966l.342.233c.734.504 1.648 1.131 2.518 1.131.852 0 1.766-.627 2.5-1.132l.346-.234a511.22 511.22 0 0 1 3.706-2.428l.861-.562c.262-.171.49-.365.703-.564v6.266m1.25-4.936a3.128 3.128 0 0 1 2.5 3.061v7.5a3.129 3.129 0 0 1-3.125 3.125h-10a3.129 3.129 0 0 1-3.125-3.125V1467H80v1.875c0 1.034.841 1.875 1.875 1.875h10a1.877 1.877 0 0 0 1.875-1.875v-7.5c0-.814-.524-1.501-1.25-1.76v-1.301"/></defs><g><g transform="translate(-75 -1452)"><use fill="#babec2" xlink:href="#547ea"/></g></g></svg>