<svg id="SVGDoc" width="13" height="11" xmlns="http://www.w3.org/2000/svg" version="1.1" xmlns:xlink="http://www.w3.org/1999/xlink" xmlns:avocode="https://avocode.com/" viewBox="0 0 13 11"><defs><path d="M143,7144.16071c0,0.8125 -0.60212,1.54521 -1.24051,1.98773c-1.1317,0.78348 -2.27065,1.56696 -3.39509,2.3577c-0.47154,0.32645 -1.26953,0.99386 -1.85715,0.99386h-0.0145c-0.58762,0 -1.38561,-0.66741 -1.85715,-0.99386c-1.12444,-0.79074 -2.26339,-1.57422 -3.38783,-2.3577c-0.51507,-0.34822 -1.24777,-1.16797 -1.24777,-1.82813c0,-0.71093 0.38449,-1.32031 1.16071,-1.32031h10.67858c0.63113,0 1.16071,0.52232 1.16071,1.16071zM143,7146.29353v5.76004c0,0.63839 -0.52232,1.16072 -1.16071,1.16072h-10.67858c-0.63839,0 -1.16071,-0.52233 -1.16071,-1.16072v-5.76004c0.21763,0.23939 0.46429,0.44977 0.7327,0.63114c1.20424,0.81975 2.42299,1.6395 3.60547,2.50279c0.60937,0.44977 1.36384,1.00111 2.15458,1.00111h0.0145c0.79074,0 1.54521,-0.55134 2.15458,-1.00111c1.18248,-0.85603 2.40123,-1.68304 3.61272,-2.50279c0.26116,-0.18137 0.50782,-0.39175 0.72545,-0.63114z" id="Path-0"/></defs><desc>Generated with Avocode.</desc><g transform="matrix(1,0,0,1,-130,-7143)"><g><title></title><use xlink:href="#Path-0" fill="#ffffff" fill-opacity="1"/></g></g></svg>