<svg id="SVGDoc" width="17" height="13" xmlns="http://www.w3.org/2000/svg" version="1.1" xmlns:xlink="http://www.w3.org/1999/xlink" xmlns:avocode="https://avocode.com/" viewBox="0 0 17 13"><defs><path d="M851.51613,1882.43v8.00301c0,0.66533 -0.58324,1.20968 -1.29608,1.20968h-11.92397c-0.71284,0 -1.29608,-0.54435 -1.29608,-1.20968v-8.00301" id="Path-0"/><path d="M851.51613,1882.20968c0,0.84677 -0.67234,1.61038 -1.38519,2.07157c-1.26368,0.81653 -2.53546,1.63306 -3.79104,2.45716c-0.52654,0.34022 -1.41759,1.03578 -2.07373,1.03578h-0.01621c-0.65614,0 -1.5472,-0.69556 -2.07373,-1.03578c-1.25558,-0.8241 -2.52736,-1.64063 -3.78294,-2.45716c-0.57514,-0.3629 -1.39329,-1.21724 -1.39329,-1.90524c0,-0.74093 0.42933,-1.37601 1.29608,-1.37601h11.92397c0.70474,0 1.29608,0.54435 1.29608,1.20968z" id="Path-1"/></defs><desc>Generated with Avocode.</desc><g transform="matrix(1,0,0,1,-836,-1880)"><g><title>Path</title><use xlink:href="#Path-0" fill-opacity="0" fill="#ffffff" stroke-linejoin="miter" stroke-linecap="butt" stroke-opacity="1" stroke="#a7aaad" stroke-miterlimit="50" stroke-width="1"/></g><g><title>Path</title><use xlink:href="#Path-1" fill-opacity="0" fill="#ffffff" stroke-linejoin="miter" stroke-linecap="butt" stroke-opacity="1" stroke="#a7aaad" stroke-miterlimit="50" stroke-width="1"/></g></g></svg>