<?xml version="1.0" encoding="UTF-8" standalone="no"?>
<svg viewBox="0 0 19 19" version="1.1" xmlns="http://www.w3.org/2000/svg" xmlns:xlink="http://www.w3.org/1999/xlink">
    <!-- Generator: Sketch 46.2 (44496) - http://www.bohemiancoding.com/sketch -->
    <title>768 Main Hamburger Menu dark X</title>
    <desc>Created with Sketch.</desc>
    <defs></defs>
    <g id="GUI" stroke="none" stroke-width="1" fill="none" fill-rule="evenodd">
        <g transform="translate(-424.000000, -1324.000000)" id="Icons-/-768-Main-Hamburger-Menu-dark" fill="#A7AAAD">
            <g transform="translate(418.000000, 1324.000000)">
                <g id="Icons-/-768-Main-Hamburger-dark-X">
                    <path d="M15.5,8.7806903 L6.86828362,0.148973916 C6.66965173,-0.0496579721 6.3476058,-0.0496579721 6.14897392,0.148973916 C5.95034203,0.347605805 5.95034203,0.669651727 6.14897392,0.868283615 L14.7806903,9.5 L6.14897392,18.1317164 C5.95034203,18.3303483 5.95034203,18.6523942 6.14897392,18.8510261 C6.3476058,19.049658 6.66965173,19.049658 6.86828362,18.8510261 L15.5,10.2193097 L24.1317164,18.8510261 C24.3303483,19.049658 24.6523942,19.049658 24.8510261,18.8510261 C25.049658,18.6523942 25.049658,18.3303483 24.8510261,18.1317164 L16.2193097,9.5 L24.8510261,0.868283615 C25.049658,0.669651727 25.049658,0.347605805 24.8510261,0.148973916 C24.6523942,-0.0496579721 24.3303483,-0.0496579721 24.1317164,0.148973916 L15.5,8.7806903 Z" id="Combined-Shape"></path>
                </g>
            </g>
        </g>
    </g>
</svg>
