<svg id="SVGDoc" width="30" height="30" xmlns="http://www.w3.org/2000/svg" version="1.1" xmlns:xlink="http://www.w3.org/1999/xlink" xmlns:avocode="https://avocode.com/" viewBox="0 0 30 30"><defs><path d="M438.87793,1603.78994c0,-0.85808 -0.66464,-1.51425 -1.53379,-1.51425c-0.86916,0 -1.5338,0.65617 -1.5338,1.51425c0,0.85808 0.66464,1.51425 1.5338,1.51425c0.86915,0 1.53379,-0.65617 1.53379,-1.51425zM437,1622c8.28427,0 15,-6.71573 15,-15c0,-8.28427 -6.71573,-15 -15,-15c-8.28427,0 -15,6.71573 -15,15c0,8.28427 6.71573,15 15,15zM440.87186,1612.60658c0.40902,0.45578 0.40902,1.11412 0,1.51926c-0.46013,0.40513 -1.12478,0.40513 -1.53379,0l-1.99393,-1.97503l-1.99394,1.97503c-0.2045,0.20256 -0.51126,0.30385 -0.7669,0.30385c-0.30676,0 -0.56239,-0.10129 -0.76689,-0.30385c-0.40902,-0.45578 -0.40902,-1.11412 0,-1.51926l2.04506,-2.02566c-0.71577,-0.15193 -1.43155,-0.45578 -2.09619,-0.86091c-0.51127,-0.30385 -0.66464,-0.9622 -0.35789,-1.46861c0.30676,-0.50642 0.97141,-0.65835 1.48267,-0.3545c1.48267,0.91155 3.42548,0.91155 4.90815,0c0.51126,-0.30385 1.17591,-0.15192 1.48267,0.3545c0.30676,0.50641 0.15338,1.16476 -0.35789,1.46861c-0.61352,0.40513 -1.32929,0.70898 -2.09619,0.86091zM440.913,1603.79492c0,1.97503 -1.58271,3.54492 -3.57385,3.54492c-1.99116,0 -3.57386,-1.56989 -3.57386,-3.54492c0,-1.97503 1.58271,-3.54492 3.57386,-3.54492c1.99115,0 3.57385,1.56989 3.57385,3.54492z" id="Path-0"/></defs><desc>Generated with Avocode.</desc><g transform="matrix(1,0,0,1,-422,-1592)"><g><title>Combined Shape Copy 2</title><use xlink:href="#Path-0" fill="#f8f8f8" fill-opacity="1"/></g></g></svg>