<svg id="SVGDoc" width="26" height="26" xmlns="http://www.w3.org/2000/svg" version="1.1" xmlns:xlink="http://www.w3.org/1999/xlink" xmlns:avocode="https://avocode.com/" viewBox="0 0 26 26"><defs><path d="M222,1357c0,-1.10457 0.89543,-2 2,-2h6c1.10457,0 2,0.89543 2,2v12c0,1.10457 -0.89543,2 -2,2h-6c-1.10457,0 -2,-0.89543 -2,-2z" id="Path-0"/><path d="M226,1368.5c0,-0.27614 0.22386,-0.5 0.5,-0.5h1c0.27614,0 0.5,0.22386 0.5,0.5v0c0,0.27614 -0.22386,0.5 -0.5,0.5h-1c-0.27614,0 -0.5,-0.22386 -0.5,-0.5z" id="Path-1"/><path d="M222,1366.5c0,-0.27614 0.22386,-0.5 0.5,-0.5h9c0.27614,0 0.5,0.22386 0.5,0.5v0c0,0.27614 -0.22386,0.5 -0.5,0.5h-9c-0.27614,0 -0.5,-0.22386 -0.5,-0.5z" id="Path-2"/><path d="M222,1357.5c0,-0.27614 0.22386,-0.5 0.5,-0.5h9c0.27614,0 0.5,0.22386 0.5,0.5v0c0,0.27614 -0.22386,0.5 -0.5,0.5h-9c-0.27614,0 -0.5,-0.22386 -0.5,-0.5z" id="Path-3"/><path d="M215,1363c0,-6.62742 5.37258,-12 12,-12c6.62742,0 12,5.37258 12,12c0,6.62742 -5.37258,12 -12,12c-6.62742,0 -12,-5.37258 -12,-12z" id="Path-4"/><clipPath id="ClipPath1020"><use xlink:href="#Path-0" fill="#ffffff"/></clipPath></defs><desc>Generated with Avocode.</desc><g transform="matrix(1,0,0,1,-214,-1350)"><g><title>Group 12</title><g><title>Group 6</title><g><title>Rectangle 16</title><use xlink:href="#Path-0" fill-opacity="0" fill="#ffffff" stroke-linejoin="miter" stroke-linecap="butt" stroke-opacity="1" stroke="#a5aaaf" stroke-miterlimit="50" stroke-width="2" clip-path="url(&quot;#ClipPath1020&quot;)"/></g><g><title>Rectangle 17</title><use xlink:href="#Path-1" fill="#a5aaaf" fill-opacity="1"/></g><g><title>Rectangle 17</title><use xlink:href="#Path-2" fill="#a5aaaf" fill-opacity="1"/></g><g><title>Rectangle 17</title><use xlink:href="#Path-3" fill="#a5aaaf" fill-opacity="1"/></g></g><g><title>Oval 5</title><use xlink:href="#Path-4" fill-opacity="0" fill="#ffffff" stroke-linejoin="miter" stroke-linecap="butt" stroke-opacity="1" stroke="#a7aaad" stroke-miterlimit="50" stroke-width="1"/></g></g></g></svg>