<svg xmlns="http://www.w3.org/2000/svg" xmlns:xlink="http://www.w3.org/1999/xlink" width="20" height="20" viewBox="0 0 20 20"><defs><path id="s8y9a" d="M87.928 1327.072a9.345 9.345 0 0 1 3.072 6.764v.328a9.343 9.343 0 0 1-3.072 6.764l-.884-.883a8.099 8.099 0 0 0 2.714-6.045 8.094 8.094 0 0 0-2.714-6.044l.884-.883m-1.856 1.855a7.14 7.14 0 0 1 2.124 5.072 7.14 7.14 0 0 1-2.124 5.073l-.894-.895c1.08-1.073 1.768-2.538 1.768-4.178 0-1.64-.688-3.106-1.768-4.177l.894-.895M76 1341.5a.625.625 0 0 0 0 1.25h2.5a.625.625 0 0 0 0-1.25zm-5-1.25h12.5v1.17c0 1.425-1.178 2.58-2.632 2.58h-7.237c-1.452 0-2.631-1.155-2.631-2.58zm0-12.5h12.5V1339H71zm9.868-3.75c1.425 0 2.58 1.114 2.624 2.5H71.01c.044-1.386 1.197-2.5 2.622-2.5h7.237"/></defs><g><g transform="translate(-71 -1324)"><use fill="#babec2" xlink:href="#s8y9a"/></g></g></svg>