<svg id="SVGDoc" width="18" height="26" xmlns="http://www.w3.org/2000/svg" version="1.1" xmlns:xlink="http://www.w3.org/1999/xlink" xmlns:avocode="https://avocode.com/" viewBox="0 0 18 26"><defs><path d="M914,1884.32863c-0.88591,0 -1.64093,-0.31533 -2.2651,-0.94601c-0.62416,-0.63067 -0.93624,-1.39357 -0.93624,-2.28873c0,-0.89515 0.31208,-1.65805 0.93624,-2.28873c0.62417,-0.63068 1.37919,-0.94601 2.2651,-0.94601c0.88591,0 1.64094,0.31533 2.2651,0.94601c0.62417,0.63068 0.93624,1.39358 0.93624,2.28873c0,0.89516 -0.31207,1.65806 -0.93624,2.28873c-0.62416,0.63068 -1.37919,0.94601 -2.2651,0.94601zM914,1872c2.49666,0 4.6208,0.88497 6.37248,2.65493c1.75169,1.76996 2.62752,3.91626 2.62752,6.43897c0,1.26135 -0.31208,2.70578 -0.93624,4.33333c-0.62417,1.62755 -1.37919,3.15336 -2.2651,4.57746c-0.88591,1.42411 -1.76174,2.75665 -2.62752,3.99766c-0.86578,1.24101 -1.60067,2.22769 -2.2047,2.96009l-0.96644,1.03756c-0.24161,-0.28482 -0.56376,-0.66119 -0.96644,-1.12911c-0.40269,-0.46792 -1.12751,-1.40375 -2.1745,-2.80751c-1.04699,-1.40376 -1.96308,-2.76682 -2.74832,-4.0892c-0.78524,-1.32239 -1.5,-2.81768 -2.1443,-4.48592c-0.6443,-1.66824 -0.96644,-3.13301 -0.96644,-4.39436c0,-2.52271 0.87583,-4.66901 2.62752,-6.43897c1.75168,-1.76996 3.87582,-2.65493 6.37248,-2.65493z" id="Path-0"/><clipPath id="ClipPath1030"><use xlink:href="#Path-0" fill="#ffffff"/></clipPath></defs><desc>Generated with Avocode.</desc><g transform="matrix(1,0,0,1,-905,-1872)"><g><title>Path</title><use xlink:href="#Path-0" fill-opacity="0" fill="#ffffff" stroke-linejoin="miter" stroke-linecap="butt" stroke-opacity="1" stroke="#a7aaad" stroke-miterlimit="50" stroke-width="2" clip-path="url(&quot;#ClipPath1030&quot;)"/></g></g></svg>