<svg id="SVGDoc" width="13" height="18" xmlns="http://www.w3.org/2000/svg" version="1.1" xmlns:xlink="http://www.w3.org/1999/xlink" xmlns:avocode="https://avocode.com/" viewBox="0 0 13 18"><defs><path d="M143,7192.90909c0,0.70401 -0.08887,1.43111 -0.41895,2.06587l-4.62109,8.93289c-0.2666,0.50781 -0.85058,0.81942 -1.45996,0.81942c-0.60937,0 -1.19336,-0.31161 -1.44727,-0.81942l-4.63378,-8.93289c-0.33008,-0.63476 -0.41895,-1.36186 -0.41895,-2.06587c0,-3.26616 2.90723,-5.90909 6.5,-5.90909c3.59277,0 6.5,2.64293 6.5,5.90909zM139.44456,7193.49501c0,-1.62456 -1.32499,-2.94955 -2.94955,-2.94955c-1.62456,0 -2.94955,1.32499 -2.94955,2.94955c0,1.62456 1.32499,2.94955 2.94955,2.94955c1.62456,0 2.94955,-1.32499 2.94955,-2.94955z" id="Path-0"/></defs><desc>Generated with Avocode.</desc><g transform="matrix(1,0,0,1,-130,-7187)"><g><title>ï</title><use xlink:href="#Path-0" fill="#ffffff" fill-opacity="1"/></g></g></svg>