<?xml version="1.0" encoding="UTF-8"?>
<svg width="64px" height="48px" viewBox="0 0 64 48" version="1.1" xmlns="http://www.w3.org/2000/svg" xmlns:xlink="http://www.w3.org/1999/xlink">
    <!-- Generator: Sketch 53.2 (72643) - https://sketchapp.com -->
    <title>Combined Shape</title>
    <desc>Created with Sketch.</desc>
    <g id="7.5-Feedback" stroke="none" stroke-width="1" fill="none" fill-rule="evenodd">
        <g id="TS_1440-Feedback-popup" transform="translate(-687.000000, -3269.000000)" fill="#FFFFFF" fill-rule="nonzero">
            <path d="M750.337875,3279.36362 C750.337875,3279.36362 751,3284.92729 751,3290.49084 L751,3295.61815 C751,3301.07271 750.337875,3306.63638 750.337875,3306.63638 C750.337875,3306.63638 749.675875,3311.32733 747.8,3313.40001 C745.372375,3316.01816 742.61375,3316.12728 741.4,3316.2364 C732.462125,3317 719,3317 719,3317 C719,3317 702.337875,3316.89088 697.262125,3316.34565 C695.827625,3316.01828 692.627625,3316.12741 690.2,3313.40013 C688.32425,3311.32745 687.662125,3306.6365 687.662125,3306.6365 C687.662125,3306.6365 687,3301.18195 687,3295.61828 L687,3290.49097 C687,3284.92729 687.662125,3279.36362 687.662125,3279.36362 C687.662125,3279.36362 688.21375,3274.67279 690.2,3272.59999 C692.627625,3269.98184 695.38625,3269.87272 696.6,3269.7636 C705.537875,3269.10912 719,3269 719,3269 C719,3269 732.462125,3269.10912 741.4,3269.7636 C742.61375,3269.87272 745.372375,3269.87272 747.8,3272.59999 C749.67575,3274.67267 750.337875,3279.36362 750.337875,3279.36362 Z M711.436364,3282.056 L711.436364,3305.864 L732.381818,3294.23436 L711.436364,3282.056 Z" id="Combined-Shape"></path>
        </g>
    </g>
</svg>