<?xml version="1.0" encoding="UTF-8"?>
<svg width="50px" height="40px" viewBox="0 0 50 40" version="1.1" xmlns="http://www.w3.org/2000/svg" xmlns:xlink="http://www.w3.org/1999/xlink">
    <!-- Generator: Sketch 53.2 (72643) - https://sketchapp.com -->
    <title>Fill 1</title>
    <desc>Created with Sketch.</desc>
    <g id="7.0-About" stroke="none" stroke-width="1" fill="none" fill-rule="evenodd">
        <g id="TS_1440-About_Blag" transform="translate(-730.000000, -625.000000)" fill="#FFFFFF">
            <path d="M766.85023,634.418837 C764.435204,637.391224 763.22812,640.400866 763.22812,643.44988 C763.22812,644.741964 763.38551,645.852852 763.700719,646.782966 C765.537361,645.387583 767.531822,644.689891 769.684963,644.689891 C772.624192,644.689891 775.078351,645.608152 777.04701,647.442132 C779.01567,649.27696 780,651.744282 780,654.844946 C780,657.739858 779.001909,660.155107 777.007878,662.09281 C775.012127,664.030937 772.571298,665 769.684963,665 C765.537361,665 762.362048,663.321391 760.157304,659.96121 C758.319372,657.170443 757.401266,653.681985 757.401266,649.496259 C757.401266,644.17382 758.7795,639.406401 761.535107,635.194003 C764.291145,630.982452 768.450788,627.585015 774.015756,625 L775.511817,627.868241 C772.151593,629.263624 769.263967,631.447297 766.85023,634.418837 M739.448534,634.418837 C737.033508,637.391224 735.826424,640.400866 735.826424,643.44988 C735.826424,644.741964 735.984244,645.852852 736.299023,646.782966 C738.083201,645.387583 740.078523,644.689891 742.283267,644.689891 C745.169602,644.689891 747.610431,645.608152 749.606182,647.442132 C751.600643,649.27696 752.598304,651.744282 752.598304,654.844946 C752.598304,656.757671 752.125705,658.488352 751.180938,660.038684 C750.23617,661.589016 748.976194,662.804049 747.401438,663.682091 C745.826682,664.561403 744.120339,665 742.283267,665 C738.136095,665 734.960352,663.321391 732.755608,659.96121 C730.917676,657.170443 730,653.681985 730,649.496259 C730,644.17382 731.377804,639.406401 734.133411,635.194003 C736.889879,630.982452 741.049092,627.585015 746.61406,625 L748.110121,627.868241 C744.749897,629.263624 741.862701,631.447297 739.448534,634.418837" id="Fill-1"></path>
        </g>
    </g>
</svg>