<?xml version="1.0" encoding="UTF-8"?>
<svg width="120px" height="96px" viewBox="0 0 120 96" version="1.1" xmlns="http://www.w3.org/2000/svg" xmlns:xlink="http://www.w3.org/1999/xlink">
    <!-- Generator: Sketch 53.2 (72643) - https://sketchapp.com -->
    <title>Fill 1</title>
    <desc>Created with Sketch.</desc>
    <g id="2.-Photoprint" stroke="none" stroke-width="1" fill="none" fill-rule="evenodd">
        <g id="TS_1440-Photoprint" transform="translate(-660.000000, -1201.000000)" fill="#E6E8EA">
            <path d="M748.345684,1223.60521 C742.532197,1230.73894 739.626488,1237.96208 739.626488,1245.27971 C739.626488,1248.38071 740.005359,1251.04684 740.764135,1253.27912 C745.185325,1249.9302 749.986421,1248.25574 755.169493,1248.25574 C762.244847,1248.25574 768.152535,1250.45956 772.891521,1254.86112 C777.630507,1259.2647 780,1265.18628 780,1272.62787 C780,1279.57566 777.597382,1285.37226 772.797321,1290.02274 C767.993119,1294.67425 762.117522,1297 755.169493,1297 C745.185325,1297 737.541665,1292.97134 732.234374,1284.9069 C727.810078,1278.20906 725.6,1269.83676 725.6,1259.79102 C725.6,1247.01717 728.917704,1235.57536 735.551043,1225.46561 C742.185416,1215.35788 752.198569,1207.20404 765.594641,1201 L769.195981,1207.88378 C761.1072,1211.2327 754.156066,1216.47351 748.345684,1223.60521 M682.745082,1223.60521 C676.931484,1230.73894 674.02572,1237.96208 674.02572,1245.27971 C674.02572,1248.38071 674.405633,1251.04684 675.163388,1253.27912 C679.45837,1249.9302 684.261628,1248.25574 689.569021,1248.25574 C696.517181,1248.25574 702.392891,1250.45956 707.197184,1254.86112 C711.998371,1259.2647 714.4,1265.18628 714.4,1272.62787 C714.4,1277.21841 713.262332,1281.37205 710.988031,1285.09284 C708.71373,1288.81364 705.680638,1291.72972 701.889791,1293.83702 C698.098944,1295.94737 693.99133,1297 689.569021,1297 C679.585698,1297 671.940857,1292.97134 666.633465,1284.9069 C662.209085,1278.20906 660,1269.83676 660,1259.79102 C660,1247.01717 663.316732,1235.57536 669.950197,1225.46561 C676.585732,1215.35788 686.59804,1207.20404 699.994367,1201 L703.595776,1207.88378 C695.506841,1211.2327 688.55661,1216.47351 682.745082,1223.60521" id="Fill-1"></path>
        </g>
    </g>
</svg>