<svg id="SVGDoc" width="20" height="20" xmlns="http://www.w3.org/2000/svg" version="1.1" xmlns:xlink="http://www.w3.org/1999/xlink" xmlns:avocode="https://avocode.com/" viewBox="0 0 20 20"><defs><path d="M374,1139.98857l-4.89,-4.88857c1.26571,-1.49286 2.03286,-3.42143 2.03286,-5.52857c0,-4.72714 -3.84429,-8.57143 -8.57143,-8.57143c-4.72714,0 -8.57143,3.84429 -8.57143,8.57143c0,4.72714 3.84429,8.57143 8.57143,8.57143c2.10714,0 4.03571,-0.76715 5.52857,-2.03286l4.89,4.89zM362.56643,1136.70429c-3.93581,0 -7.13786,-3.20205 -7.13786,-7.13786c0,-3.93581 3.20205,-7.13786 7.13786,-7.13786c3.93581,0 7.13786,3.20205 7.13786,7.13786c0,3.93581 -3.20205,7.13786 -7.13786,7.13786z" id="Path-0"/></defs><desc>Generated with Avocode.</desc><g transform="matrix(1,0,0,1,-354,-1121)"><g><title>Fill 1</title><use xlink:href="#Path-0" fill="#aaaaaa" fill-opacity="1"/></g></g></svg>