<svg xmlns="http://www.w3.org/2000/svg" width="24" height="24" viewBox="0 0 24 24"><g><g><path fill="#babec2" d="M12 24c6.627 0 12-5.373 12-12S18.627 0 12 0 0 5.373 0 12s5.373 12 12 12z"/></g><g><g><g><g><path fill="none" stroke="#fff" stroke-miterlimit="50" d="M17.125 7.875a1.5 1.5 0 1 1-3.001-.001 1.5 1.5 0 0 1 3.001.001z"/></g><g><path fill="none" stroke="#fff" stroke-miterlimit="50" d="M14.875 16.125a1.5 1.5 0 1 1-3.001-.001 1.5 1.5 0 0 1 3.001.001z"/></g><g><path fill="none" stroke="#fff" stroke-miterlimit="50" d="M8.875 11.205a1.5 1.5 0 1 1-3.001-.001 1.5 1.5 0 0 1 3.001.001z"/></g><g><path fill="none" stroke="#fff" stroke-miterlimit="50" d="M12.218 15.173l-3.68-3.016"/></g><g><path fill="none" stroke="#fff" stroke-miterlimit="50" d="M8.875 10.603l5.36-2.165"/></g></g></g></g></g></svg>