<svg xmlns="http://www.w3.org/2000/svg" xmlns:xlink="http://www.w3.org/1999/xlink" width="25" height="25" viewBox="0 0 25 25"><defs><path id="vyxea" d="M145 1521.5c0-6.904 5.596-12.5 12.5-12.5s12.5 5.596 12.5 12.5-5.596 12.5-12.5 12.5-12.5-5.596-12.5-12.5z"/><path id="vyxeb" d="M159.027 1524.487a4.922 4.922 0 0 0 1.747-.718.885.885 0 0 0 .298-1.224.903.903 0 0 0-1.235-.295 3.955 3.955 0 0 1-4.09 0 .903.903 0 0 0-1.236.295.885.885 0 0 0 .298 1.224c.554.338 1.15.591 1.747.718l-1.704 1.688c-.34.337-.34.886 0 1.266.17.168.383.253.64.253a.944.944 0 0 0 .638-.253l1.662-1.646 1.661 1.646c.341.337.895.337 1.279 0 .34-.338.34-.887 0-1.266z"/><path id="vyxec" d="M157.782 1515.88c-1.661 0-2.982 1.308-2.982 2.954 0 1.646 1.32 2.954 2.982 2.954 1.662 0 2.983-1.308 2.983-2.954 0-1.646-1.321-2.954-2.983-2.954z"/><path id="vyxed" d="M157.788 1520.092c-.724 0-1.278-.549-1.278-1.266s.554-1.266 1.278-1.266 1.278.549 1.278 1.266-.554 1.266-1.278 1.266z"/></defs><g><g transform="translate(-145 -1509)"><g><use fill="#f5a623" xlink:href="#vyxea"/></g><g><use fill="#fff" xlink:href="#vyxeb"/></g><g><use fill="#fff" xlink:href="#vyxec"/></g><g><use fill="#f5a623" xlink:href="#vyxed"/></g></g></g></svg>