<svg xmlns="http://www.w3.org/2000/svg" xmlns:xlink="http://www.w3.org/1999/xlink" width="25" height="25" viewBox="0 0 25 25"><defs><path id="vmiya" d="M100 1521.5c0-6.904 5.596-12.5 12.5-12.5s12.5 5.596 12.5 12.5-5.596 12.5-12.5 12.5-12.5-5.596-12.5-12.5z"/><path id="vmiyb" d="M108.36 1519.732c.347.85.788 1.653 1.368 2.373.077.096.174.181.276.25.149.102.29.066.35-.103a2.95 2.95 0 0 0 .127-.724c.01-.487-.001-.807-.028-1.293-.017-.312-.129-.586-.591-.668-.143-.026-.156-.143-.064-.259.19-.242.457-.28.745-.296.468-.025.937-.004 1.405 0 .191.002.383.017.57.058.246.053.377.223.417.46.021.123.032.248.03.372-.013.532-.039 1.064-.045 1.595-.003.21.013.423.058.626.063.283.257.355.456.15.253-.26.475-.552.684-.85.38-.54.664-1.133.908-1.744.126-.316.223-.384.565-.385.643-.001 1.287-.002 1.93 0 .114 0 .233.011.341.045.175.056.244.197.203.376-.095.42-.324.778-.57 1.121-.393.551-.806 1.089-1.209 1.633-.051.07-.096.144-.138.219-.151.27-.14.421.08.646.349.358.723.692 1.062 1.06.246.267.474.557.67.863.246.386.094.75-.367.815-.29.04-1.707 0-1.78 0a1.393 1.393 0 0 1-.984-.39c-.299-.285-.57-.598-.857-.896a2.39 2.39 0 0 0-.279-.251c-.235-.178-.465-.138-.575.135-.094.235-.175.852-.178.905-.02.275-.197.45-.508.468-.899.048-1.77-.051-2.58-.482-.688-.365-1.237-.881-1.712-1.483-.755-.956-1.352-2.007-1.897-3.089-.028-.055-.58-1.219-.594-1.274-.05-.184-.003-.36.153-.42.098-.038 1.917 0 1.947.001.29.016.489.137.61.436z"/></defs><g><g transform="translate(-100 -1509)"><g><use fill="#597da3" xlink:href="#vmiya"/></g><g><use fill="#fff" xlink:href="#vmiyb"/></g></g></g></svg>