<?xml version="1.0" encoding="UTF-8"?>
<svg width="24px" height="24px" viewBox="0 0 24 24" version="1.1" xmlns="http://www.w3.org/2000/svg" xmlns:xlink="http://www.w3.org/1999/xlink">
    <!-- Generator: Sketch 54.1 (76490) - https://sketchapp.com -->
    <title>fb@2x</title>
    <desc>Created with Sketch.</desc>
    <g id="9.-500" stroke="none" stroke-width="1" fill="none" fill-rule="evenodd">
        <g id="TS_1440-500" transform="translate(-166.000000, -812.000000)" fill="#FFFFFF">
            <g id="Icons-/-Social" transform="translate(166.000000, 812.000000)">
                <g id="Components-/-Mixin-/-Icons-social-/-White-/-Fb">
                    <path d="M12,24 C5.372583,24 0,18.627417 0,12 C0,5.372583 5.372583,0 12,0 C18.627417,0 24,5.372583 24,12 C24,18.627417 18.627417,24 12,24 Z M10.5634287,18.9383513 L13.1839014,18.9383513 L13.1839014,12.5192435 L15.3371565,12.5192435 L15.6824738,9.89877086 L13.1839014,9.89877086 L13.1839014,8.07726816 C13.1839014,7.56870015 13.5962036,7.15639796 14.1047716,7.15639796 L15.7231315,7.15639796 L15.7231315,4.8 L13.4614314,4.8 C11.8609025,4.8 10.5634287,6.09747381 10.5634287,7.69800266 L10.5634287,9.8987344 L8.4,9.8987344 L8.4,12.519207 L10.5634287,12.519207 L10.5634287,18.9383513 Z" id="Combined-Shape"></path>
                </g>
            </g>
        </g>
    </g>
</svg>