<?xml version="1.0" encoding="UTF-8"?>
<svg width="30px" height="30px" viewBox="0 0 30 30" version="1.1" xmlns="http://www.w3.org/2000/svg" xmlns:xlink="http://www.w3.org/1999/xlink">
    <!-- Generator: Sketch 52.5 (67469) - http://www.bohemiancoding.com/sketch -->
    <title>social_gray_ok</title>
    <desc>Created with Sketch.</desc>
    <g id="GUI" stroke="none" stroke-width="1" fill="none" fill-rule="evenodd">
        <g transform="translate(-672.000000, -1511.000000)" fill="#BABEC2" id="social_gray_ok">
            <path d="M687,1541 C678.715729,1541 672,1534.28427 672,1526 C672,1517.71573 678.715729,1511 687,1511 C695.284271,1511 702,1517.71573 702,1526 C702,1534.28427 695.284271,1541 687,1541 Z M688.826804,1529.58092 C689.593701,1529.42899 690.309472,1529.12514 690.922991,1528.72001 C691.434256,1528.41616 691.587635,1527.75781 691.280876,1527.2514 C690.974117,1526.74498 690.309472,1526.59305 689.798207,1526.8969 C688.315539,1527.80845 686.372732,1527.80845 684.890063,1526.8969 C684.378798,1526.59305 683.714153,1526.74498 683.407394,1527.2514 C683.100635,1527.75781 683.254015,1528.41616 683.76528,1528.72001 C684.429924,1529.12514 685.145695,1529.42899 685.861466,1529.58092 L683.816406,1531.60658 C683.407394,1532.01172 683.407394,1532.67006 683.816406,1533.12584 C684.020912,1533.3284 684.276545,1533.42969 684.583304,1533.42969 C684.838936,1533.42969 685.145695,1533.3284 685.350201,1533.12584 L687.344135,1531.15081 L689.338069,1533.12584 C689.747081,1533.53097 690.411726,1533.53097 690.871864,1533.12584 C691.280876,1532.7207 691.280876,1532.06236 690.871864,1531.60658 L688.826804,1529.58092 Z M687.344135,1519.25 C685.350201,1519.25 683.76528,1520.81989 683.76528,1522.79492 C683.76528,1524.76995 685.350201,1526.33984 687.344135,1526.33984 C689.338069,1526.33984 690.922991,1524.76995 690.922991,1522.79492 C690.922991,1520.81989 689.338069,1519.25 687.344135,1519.25 Z M687.344135,1524.31417 C686.474985,1524.31417 685.81034,1523.65583 685.81034,1522.79492 C685.81034,1521.93401 686.474985,1521.27567 687.344135,1521.27567 C688.213286,1521.27567 688.87793,1521.93401 688.87793,1522.79492 C688.87793,1523.65583 688.213286,1524.31417 687.344135,1524.31417 Z"></path>
        </g>
    </g>
</svg>