<svg xmlns="http://www.w3.org/2000/svg" xmlns:xlink="http://www.w3.org/1999/xlink" width="40" height="40" viewBox="0 0 40 40"><defs><path id="l3rha" d="M420.74 1842.32a5.42 5.42 0 0 1-5.42 5.42H404.7a5.42 5.42 0 0 1-5.42-5.42v-10.63a5.42 5.42 0 0 1 5.42-5.42h10.63a5.42 5.42 0 0 1 5.42 5.42zm-7.55-5.32a3.2 3.2 0 1 1-6.39 0 3.2 3.2 0 0 1 6.39 0zm2.12-8.4H404.7a3.08 3.08 0 0 0-3.08 3.09v10.62c0 1.7 1.38 3.08 3.08 3.08h10.62c1.7 0 3.08-1.38 3.08-3.08v-10.62c0-1.7-1.38-3.08-3.08-3.08zM410 1857a20 20 0 1 0 0-40 20 20 0 0 0 0 40z"/></defs><g><g transform="translate(-390 -1817)"><use fill="#a7aaad" xlink:href="#l3rha"/></g></g></svg>