<svg xmlns="http://www.w3.org/2000/svg" xmlns:xlink="http://www.w3.org/1999/xlink" width="40" height="40" viewBox="0 0 40 40"><defs><path id="ihlva" d="M210 1837a20 20 0 1 1 40 0 20 20 0 0 1-40 0zm12.4-3.53c-.06 0-2.97-.06-3.12 0-.26.1-.33.38-.25.67.02.1.9 1.95.95 2.04a28.64 28.64 0 0 0 3.04 4.94 8.7 8.7 0 0 0 2.73 2.38c1.3.69 2.7.85 4.13.77.5-.03.78-.31.82-.75 0-.08.13-1.07.28-1.45.18-.44.55-.5.92-.21.16.12.3.25.45.4.46.47.9.98 1.37 1.43.43.41.96.62 1.57.62.12 0 2.39.07 2.85 0 .74-.1.98-.68.59-1.3-.32-.49-.68-.95-1.07-1.38-.55-.59-1.14-1.12-1.7-1.7-.36-.36-.37-.6-.13-1.03l.22-.35c.64-.87 1.3-1.73 1.93-2.61.4-.55.76-1.12.92-1.8.06-.28-.05-.5-.33-.6a1.87 1.87 0 0 0-.54-.07h-3.1c-.54 0-.7.11-.9.62-.39.97-.84 1.92-1.45 2.79-.33.47-.69.94-1.1 1.36-.31.32-.62.21-.72-.24a4.4 4.4 0 0 1-.1-1c.01-.85.06-1.7.07-2.56 0-.2 0-.4-.04-.6-.07-.37-.28-.64-.67-.73-.3-.06-.6-.09-.91-.09-.75 0-1.5-.04-2.25 0-.46.02-.89.09-1.2.47-.14.19-.12.38.11.42.74.13.92.57.95 1.07.04.77.06 1.29.04 2.06 0 .3-.1.88-.2 1.16-.1.27-.32.33-.56.17a2.04 2.04 0 0 1-.44-.4 15.08 15.08 0 0 1-2.2-3.8c-.19-.48-.5-.67-.97-.7z"/></defs><g><g transform="translate(-210 -1817)"><use fill="#a7aaad" xlink:href="#ihlva"/></g></g></svg>