<?xml version="1.0" encoding="UTF-8"?>
<svg width="64px" height="64px" viewBox="0 0 64 64" version="1.1" xmlns="http://www.w3.org/2000/svg" xmlns:xlink="http://www.w3.org/1999/xlink">
    <!-- Generator: Sketch 52.5 (67469) - http://www.bohemiancoding.com/sketch -->
    <title>social_gray_inst</title>
    <desc>Created with Sketch.</desc>
    <g id="GUI" stroke="none" stroke-width="1" fill="none" fill-rule="evenodd">
        <path d="M32,64 C49.673112,64 64,49.673112 64,32 C64,14.326888 49.673112,0 32,0 C14.326888,0 0,14.326888 0,32 C0,49.673112 14.326888,64 32,64 Z M40.5026478,18.5744999 L23.4973522,18.5744999 C20.7830822,18.5744999 18.5744999,20.7830822 18.5744999,23.4973522 L18.5744999,40.5026478 C18.5744999,43.2169178 20.7830822,45.4255001 23.4973522,45.4255001 L40.5026478,45.4255001 C43.2169178,45.4255001 45.4255001,43.2169178 45.4255001,40.5026478 L45.4255001,23.4973522 C45.4255001,20.7830822 43.2169178,18.5744999 40.5026478,18.5744999 Z M31.9994369,40.8393975 C27.1261397,40.8393975 23.1606025,36.8738603 23.1606025,31.9994369 C23.1606025,27.1261397 27.1261397,23.1606025 31.9994369,23.1606025 C36.8738603,23.1606025 40.8393975,27.1261397 40.8393975,31.9994369 C40.8393975,36.8738603 36.8738603,40.8393975 31.9994369,40.8393975 Z M41.1232133,24.9885113 C39.9699301,24.9885113 39.0317612,24.0503425 39.0317612,22.8970593 C39.0317612,21.7437761 39.9699301,20.8056073 41.1232133,20.8056073 C42.2764964,20.8056073 43.2146653,21.7437761 43.2146653,22.8970593 C43.2146653,24.0503425 42.2764964,24.9885113 41.1232133,24.9885113 Z M31.9994369,26.8963841 C29.1860566,26.8963841 26.8952578,29.1860566 26.8952578,31.9994369 C26.8952578,34.8139434 29.1860566,37.1047422 31.9994369,37.1047422 C34.8139434,37.1047422 37.1036159,34.8139434 37.1036159,31.9994369 C37.1036159,29.1860566 34.8139434,26.8963841 31.9994369,26.8963841 Z M40.5026478,18.5744999 L23.4973522,18.5744999 C20.7830822,18.5744999 18.5744999,20.7830822 18.5744999,23.4973522 L18.5744999,40.5026478 C18.5744999,43.2169178 20.7830822,45.4255001 23.4973522,45.4255001 L40.5026478,45.4255001 C43.2169178,45.4255001 45.4255001,43.2169178 45.4255001,40.5026478 L45.4255001,23.4973522 C45.4255001,20.7830822 43.2169178,18.5744999 40.5026478,18.5744999 Z M31.9994369,40.8393975 C27.1261397,40.8393975 23.1606025,36.8738603 23.1606025,31.9994369 C23.1606025,27.1261397 27.1261397,23.1606025 31.9994369,23.1606025 C36.8738603,23.1606025 40.8393975,27.1261397 40.8393975,31.9994369 C40.8393975,36.8738603 36.8738603,40.8393975 31.9994369,40.8393975 Z M41.1232133,24.9885113 C39.9699301,24.9885113 39.0317612,24.0503425 39.0317612,22.8970593 C39.0317612,21.7437761 39.9699301,20.8056073 41.1232133,20.8056073 C42.2764964,20.8056073 43.2146653,21.7437761 43.2146653,22.8970593 C43.2146653,24.0503425 42.2764964,24.9885113 41.1232133,24.9885113 Z M31.9994369,26.8963841 C29.1860566,26.8963841 26.8952578,29.1860566 26.8952578,31.9994369 C26.8952578,34.8139434 29.1860566,37.1047422 31.9994369,37.1047422 C34.8139434,37.1047422 37.1036159,34.8139434 37.1036159,31.9994369 C37.1036159,29.1860566 34.8139434,26.8963841 31.9994369,26.8963841 Z M49.1601554,40.5026478 C49.1601554,45.2768347 45.2768347,49.1601554 40.5026478,49.1601554 L23.4973522,49.1601554 C18.7231653,49.1601554 14.8398446,45.2768347 14.8398446,40.5026478 L14.8398446,23.4973522 C14.8398446,18.7231653 18.7231653,14.8398446 23.4973522,14.8398446 L40.5026478,14.8398446 C45.2768347,14.8398446 49.1601554,18.7231653 49.1601554,23.4973522 L49.1601554,40.5026478 Z M40.5026478,18.5744999 L23.4973522,18.5744999 C20.7830822,18.5744999 18.5744999,20.7830822 18.5744999,23.4973522 L18.5744999,40.5026478 C18.5744999,43.2169178 20.7830822,45.4255001 23.4973522,45.4255001 L40.5026478,45.4255001 C43.2169178,45.4255001 45.4255001,43.2169178 45.4255001,40.5026478 L45.4255001,23.4973522 C45.4255001,20.7830822 43.2169178,18.5744999 40.5026478,18.5744999 Z M31.9994369,40.8393975 C27.1261397,40.8393975 23.1606025,36.8738603 23.1606025,31.9994369 C23.1606025,27.1261397 27.1261397,23.1606025 31.9994369,23.1606025 C36.8738603,23.1606025 40.8393975,27.1261397 40.8393975,31.9994369 C40.8393975,36.8738603 36.8738603,40.8393975 31.9994369,40.8393975 Z M41.1232133,24.9885113 C39.9699301,24.9885113 39.0317612,24.0503425 39.0317612,22.8970593 C39.0317612,21.7437761 39.9699301,20.8056073 41.1232133,20.8056073 C42.2764964,20.8056073 43.2146653,21.7437761 43.2146653,22.8970593 C43.2146653,24.0503425 42.2764964,24.9885113 41.1232133,24.9885113 Z M31.9994369,26.8963841 C29.1860566,26.8963841 26.8952578,29.1860566 26.8952578,31.9994369 C26.8952578,34.8139434 29.1860566,37.1047422 31.9994369,37.1047422 C34.8139434,37.1047422 37.1036159,34.8139434 37.1036159,31.9994369 C37.1036159,29.1860566 34.8139434,26.8963841 31.9994369,26.8963841 Z M31.9994369,26.8963841 C29.1860566,26.8963841 26.8952578,29.1860566 26.8952578,31.9994369 C26.8952578,34.8139434 29.1860566,37.1047422 31.9994369,37.1047422 C34.8139434,37.1047422 37.1036159,34.8139434 37.1036159,31.9994369 C37.1036159,29.1860566 34.8139434,26.8963841 31.9994369,26.8963841 Z M31.9994369,26.8963841 C29.1860566,26.8963841 26.8952578,29.1860566 26.8952578,31.9994369 C26.8952578,34.8139434 29.1860566,37.1047422 31.9994369,37.1047422 C34.8139434,37.1047422 37.1036159,34.8139434 37.1036159,31.9994369 C37.1036159,29.1860566 34.8139434,26.8963841 31.9994369,26.8963841 Z M40.5026478,18.5744999 L23.4973522,18.5744999 C20.7830822,18.5744999 18.5744999,20.7830822 18.5744999,23.4973522 L18.5744999,40.5026478 C18.5744999,43.2169178 20.7830822,45.4255001 23.4973522,45.4255001 L40.5026478,45.4255001 C43.2169178,45.4255001 45.4255001,43.2169178 45.4255001,40.5026478 L45.4255001,23.4973522 C45.4255001,20.7830822 43.2169178,18.5744999 40.5026478,18.5744999 Z M31.9994369,40.8393975 C27.1261397,40.8393975 23.1606025,36.8738603 23.1606025,31.9994369 C23.1606025,27.1261397 27.1261397,23.1606025 31.9994369,23.1606025 C36.8738603,23.1606025 40.8393975,27.1261397 40.8393975,31.9994369 C40.8393975,36.8738603 36.8738603,40.8393975 31.9994369,40.8393975 Z M41.1232133,24.9885113 C39.9699301,24.9885113 39.0317612,24.0503425 39.0317612,22.8970593 C39.0317612,21.7437761 39.9699301,20.8056073 41.1232133,20.8056073 C42.2764964,20.8056073 43.2146653,21.7437761 43.2146653,22.8970593 C43.2146653,24.0503425 42.2764964,24.9885113 41.1232133,24.9885113 Z M31.9994369,26.8963841 C29.1860566,26.8963841 26.8952578,29.1860566 26.8952578,31.9994369 C26.8952578,34.8139434 29.1860566,37.1047422 31.9994369,37.1047422 C34.8139434,37.1047422 37.1036159,34.8139434 37.1036159,31.9994369 C37.1036159,29.1860566 34.8139434,26.8963841 31.9994369,26.8963841 Z M31.9994369,26.8963841 C29.1860566,26.8963841 26.8952578,29.1860566 26.8952578,31.9994369 C26.8952578,34.8139434 29.1860566,37.1047422 31.9994369,37.1047422 C34.8139434,37.1047422 37.1036159,34.8139434 37.1036159,31.9994369 C37.1036159,29.1860566 34.8139434,26.8963841 31.9994369,26.8963841 Z M31.9994369,26.8963841 C29.1860566,26.8963841 26.8952578,29.1860566 26.8952578,31.9994369 C26.8952578,34.8139434 29.1860566,37.1047422 31.9994369,37.1047422 C34.8139434,37.1047422 37.1036159,34.8139434 37.1036159,31.9994369 C37.1036159,29.1860566 34.8139434,26.8963841 31.9994369,26.8963841 Z M40.5026478,18.5744999 L23.4973522,18.5744999 C20.7830822,18.5744999 18.5744999,20.7830822 18.5744999,23.4973522 L18.5744999,40.5026478 C18.5744999,43.2169178 20.7830822,45.4255001 23.4973522,45.4255001 L40.5026478,45.4255001 C43.2169178,45.4255001 45.4255001,43.2169178 45.4255001,40.5026478 L45.4255001,23.4973522 C45.4255001,20.7830822 43.2169178,18.5744999 40.5026478,18.5744999 Z M31.9994369,40.8393975 C27.1261397,40.8393975 23.1606025,36.8738603 23.1606025,31.9994369 C23.1606025,27.1261397 27.1261397,23.1606025 31.9994369,23.1606025 C36.8738603,23.1606025 40.8393975,27.1261397 40.8393975,31.9994369 C40.8393975,36.8738603 36.8738603,40.8393975 31.9994369,40.8393975 Z M41.1232133,24.9885113 C39.9699301,24.9885113 39.0317612,24.0503425 39.0317612,22.8970593 C39.0317612,21.7437761 39.9699301,20.8056073 41.1232133,20.8056073 C42.2764964,20.8056073 43.2146653,21.7437761 43.2146653,22.8970593 C43.2146653,24.0503425 42.2764964,24.9885113 41.1232133,24.9885113 Z" id="social_gray_inst" fill="#BABEC2" fill-rule="nonzero"></path>
    </g>
</svg>