<?xml version="1.0" encoding="UTF-8"?>
<svg width="24px" height="24px" viewBox="0 0 24 24" version="1.1" xmlns="http://www.w3.org/2000/svg" xmlns:xlink="http://www.w3.org/1999/xlink">
    <!-- Generator: Sketch 54.1 (76490) - https://sketchapp.com -->
    <title>ok@2x</title>
    <desc>Created with Sketch.</desc>
    <g id="9.-500" stroke="none" stroke-width="1" fill="none" fill-rule="evenodd">
        <g id="TS_1440-500" transform="translate(-238.000000, -812.000000)" fill="#FFFFFF">
            <g id="Icons-/-Social" transform="translate(238.000000, 812.000000)">
                <g id="Components-/-Mixin-/-Icons-social-/-White-/-Ok">
                    <path d="M12,24 C5.372583,24 0,18.627417 0,12 C0,5.372583 5.372583,0 12,0 C18.627417,0 24,5.372583 24,12 C24,18.627417 18.627417,24 12,24 Z M13.461443,14.8647321 C14.0749611,14.743192 14.647578,14.5001116 15.1383925,14.1760045 C15.5474045,13.9329241 15.6701081,13.40625 15.4247009,13.0011161 C15.1792937,12.5959821 14.647578,12.474442 14.2385659,12.7175223 C13.052431,13.4467634 11.4981852,13.4467634 10.3120503,12.7175223 C9.90303821,12.474442 9.37132254,12.5959821 9.12591531,13.0011161 C8.88050808,13.40625 9.0032117,13.9329241 9.41222375,14.1760045 C9.94393941,14.5001116 10.5165563,14.743192 11.0891732,14.8647321 L9.45312495,16.4852679 C9.12591531,16.809375 9.12591531,17.3360491 9.45312495,17.7006696 C9.61672977,17.8627232 9.8212358,17.94375 10.066643,17.94375 C10.2711491,17.94375 10.5165563,17.8627232 10.6801611,17.7006696 L12.2753081,16.1206473 L13.8704551,17.7006696 C14.1976647,18.0247768 14.7293804,18.0247768 15.0974912,17.7006696 C15.4247009,17.3765625 15.4247009,16.8498884 15.0974912,16.4852679 L13.461443,14.8647321 Z M12.2753081,6.6 C10.6801611,6.6 9.41222375,7.85591518 9.41222375,9.4359375 C9.41222375,11.0159598 10.6801611,12.271875 12.2753081,12.271875 C13.8704551,12.271875 15.1383925,11.0159598 15.1383925,9.4359375 C15.1383925,7.85591518 13.8704551,6.6 12.2753081,6.6 Z M12.2753081,10.6513393 C11.5799876,10.6513393 11.0482719,10.1246652 11.0482719,9.4359375 C11.0482719,8.74720982 11.5799876,8.22053571 12.2753081,8.22053571 C12.9706286,8.22053571 13.5023442,8.74720982 13.5023442,9.4359375 C13.5023442,10.1246652 12.9706286,10.6513393 12.2753081,10.6513393 Z" id="Combined-Shape"></path>
                </g>
            </g>
        </g>
    </g>
</svg>