<?xml version="1.0" encoding="UTF-8"?>
<svg width="24px" height="24px" viewBox="0 0 24 24" version="1.1" xmlns="http://www.w3.org/2000/svg" xmlns:xlink="http://www.w3.org/1999/xlink">
    <!-- Generator: Sketch 54.1 (76490) - https://sketchapp.com -->
    <title>yt@2x</title>
    <desc>Created with Sketch.</desc>
    <g id="9.-500" stroke="none" stroke-width="1" fill="none" fill-rule="evenodd">
        <g id="TS_1440-500" transform="translate(-274.000000, -812.000000)" fill="#FFFFFF">
            <g id="Icons-/-Social" transform="translate(274.000000, 812.000000)">
                <g id="Components-/-Mixin-/-Icons-social-/-White-/-Youtube">
                    <path d="M12,24 C5.372583,24 0,18.627417 0,12 C0,5.372583 5.372583,0 12,0 C18.627417,0 24,5.372583 24,12 C24,18.627417 18.627417,24 12,24 Z M18.267575,9.27272446 C18.267575,9.27272446 18.13515,8.33453377 17.76,7.91999876 C17.274475,7.37454366 16.72275,7.37454366 16.48,7.35271952 C14.692425,7.22182414 12,7.2 12,7.2 C12,7.2 9.307575,7.22182414 7.52,7.35271952 C7.27725,7.37454366 6.725525,7.39636779 6.24,7.91999876 C5.84275,8.33455849 5.732425,9.27272446 5.732425,9.27272446 C5.732425,9.27272446 5.6,10.3854588 5.6,11.4981932 L5.6,12.5236557 C5.6,13.63639 5.732425,14.7273003 5.732425,14.7273003 C5.732425,14.7273003 5.86485,15.6654909 6.24,16.080026 C6.725525,16.6254811 7.365525,16.6036569 7.652425,16.6691293 C8.667575,16.7781759 12,16.8 12,16.8 C12,16.8 14.692425,16.8 16.48,16.6472805 C16.72275,16.6254563 17.274475,16.6036322 17.76,16.0800012 C18.135175,15.6654662 18.267575,14.7272755 18.267575,14.7272755 C18.267575,14.7272755 18.4,13.6145412 18.4,12.523631 L18.4,11.4981684 C18.4,10.3854588 18.267575,9.27272446 18.267575,9.27272446 Z M10.4872727,9.8112 L14.6763636,12.246872 L10.4872727,14.5728 L10.4872727,9.8112 Z" id="Combined-Shape"></path>
                </g>
            </g>
        </g>
    </g>
</svg>