<?xml version="1.0" encoding="UTF-8"?>
<svg width="30px" height="30px" viewBox="0 0 30 30" version="1.1" xmlns="http://www.w3.org/2000/svg" xmlns:xlink="http://www.w3.org/1999/xlink">
    <!-- Generator: Sketch 52.5 (67469) - http://www.bohemiancoding.com/sketch -->
    <title>social_gray_vk</title>
    <desc>Created with Sketch.</desc>
    <g id="GUI" stroke="none" stroke-width="1" fill="none" fill-rule="evenodd">
        <g transform="translate(-622.000000, -1511.000000)" fill="#BABEC2" id="social_gray_vk">
            <path d="M637,1541 C628.715729,1541 622,1534.28427 622,1526 C622,1517.71573 628.715729,1511 637,1511 C645.284271,1511 652,1517.71573 652,1526 C652,1534.28427 645.284271,1541 637,1541 Z M632.025839,1523.87821 C631.879123,1523.51977 631.641622,1523.37406 631.29333,1523.35536 C631.257023,1523.35343 629.074271,1523.30831 628.956914,1523.35359 C628.768661,1523.42623 628.713495,1523.63727 628.772631,1523.85819 C628.790422,1523.92417 629.452456,1525.321 629.485861,1525.38736 C630.139495,1526.68536 630.855435,1527.94633 631.761842,1529.09348 C632.332441,1529.8157 632.991153,1530.435 633.816051,1530.87298 C634.789307,1531.39004 635.83403,1531.5092 636.912159,1531.45117 C637.28561,1531.43081 637.497761,1531.22011 637.521431,1530.88956 C637.525974,1530.82635 637.623174,1530.08617 637.735683,1529.80431 C637.867356,1529.47615 638.143951,1529.42883 638.425777,1529.64195 C638.545233,1529.73212 638.656024,1529.83539 638.759828,1529.94316 C639.104341,1530.30066 639.430414,1530.67648 639.789205,1531.0191 C640.111803,1531.32686 640.512398,1531.48403 640.969419,1531.48608 C641.057265,1531.48645 642.757151,1531.53479 643.105137,1531.48608 C643.658289,1531.40836 643.841197,1530.97178 643.545093,1530.50825 C643.310989,1530.14178 643.037563,1529.79363 642.742147,1529.47274 C642.335634,1529.03166 641.886249,1528.62998 641.466489,1528.20064 C641.202798,1527.93089 641.190237,1527.74922 641.371045,1527.42522 C641.421592,1527.33509 641.475918,1527.24632 641.537575,1527.16308 C642.021053,1526.5096 642.516061,1525.86437 642.988429,1525.20327 C643.282776,1524.79119 643.557615,1524.36256 643.672224,1523.85826 C643.721358,1523.64306 643.638093,1523.47347 643.428385,1523.40715 C643.299155,1523.36638 643.155989,1523.35359 643.019085,1523.3529 C642.247139,1523.35048 641.475193,1523.35116 640.703247,1523.3529 C640.292573,1523.35393 640.176552,1523.43615 640.025026,1523.81469 C639.732053,1524.54831 639.39174,1525.25983 638.936093,1525.90816 C638.685306,1526.2646 638.418103,1526.61555 638.115051,1526.92744 C637.876404,1527.173 637.643026,1527.08768 637.567435,1526.74782 C637.513414,1526.50396 637.494974,1526.2473 637.498105,1525.9969 C637.505435,1525.35893 637.536435,1524.72097 637.551057,1524.08266 C637.554569,1523.93412 637.541665,1523.7832 637.516583,1523.6364 C637.468136,1523.35181 637.310692,1523.14732 637.016688,1523.08376 C636.791289,1523.03504 636.561042,1523.01676 636.332168,1523.01467 C635.770274,1523.00915 635.207005,1522.98462 634.645798,1523.01467 C634.299529,1523.033 633.980214,1523.07929 633.750997,1523.36979 C633.640894,1523.50932 633.656814,1523.64919 633.828192,1523.67993 C634.383138,1523.77907 634.517255,1524.10754 634.537794,1524.48161 C634.569482,1525.06567 634.582691,1525.44891 634.571199,1526.03369 C634.567,1526.25749 634.496334,1526.68941 634.41933,1526.90253 C634.346526,1527.10562 634.177591,1527.14847 633.998539,1527.02654 C633.875952,1526.9433 633.759587,1526.84105 633.667274,1526.72605 C632.971263,1525.86187 632.442812,1524.89923 632.025839,1523.87821 Z"></path>
        </g>
    </g>
</svg>