<?xml version="1.0" encoding="UTF-8"?>
<svg width="24px" height="24px" viewBox="0 0 24 24" version="1.1" xmlns="http://www.w3.org/2000/svg" xmlns:xlink="http://www.w3.org/1999/xlink">
    <!-- Generator: Sketch 54.1 (76490) - https://sketchapp.com -->
    <title>inst@2x</title>
    <desc>Created with Sketch.</desc>
    <g id="9.-500" stroke="none" stroke-width="1" fill="none" fill-rule="evenodd">
        <g id="TS_1440-500" transform="translate(-130.000000, -812.000000)" fill="#FFFFFF" fill-rule="nonzero">
            <g id="Icons-/-Social" transform="translate(130.000000, 812.000000)">
                <g id="Components-/-Mixin-/-Icons-social-/-White-/-Instagram">
                    <path d="M12,24 C18.627417,24 24,18.627417 24,12 C24,5.372583 18.627417,0 12,0 C5.372583,0 0,5.372583 0,12 C0,18.627417 5.372583,24 12,24 Z M15.1884929,6.96543746 L8.81150707,6.96543746 C7.79365583,6.96543746 6.96543746,7.79365583 6.96543746,8.81150707 L6.96543746,15.1884929 C6.96543746,16.2063442 7.79365583,17.0345625 8.81150707,17.0345625 L15.1884929,17.0345625 C16.2063442,17.0345625 17.0345625,16.2063442 17.0345625,15.1884929 L17.0345625,8.81150707 C17.0345625,7.79365583 16.2063442,6.96543746 15.1884929,6.96543746 Z M11.9997888,15.3147741 C10.1723024,15.3147741 8.68522594,13.8276976 8.68522594,11.9997888 C8.68522594,10.1723024 10.1723024,8.68522594 11.9997888,8.68522594 C13.8276976,8.68522594 15.3147741,10.1723024 15.3147741,11.9997888 C15.3147741,13.8276976 13.8276976,15.3147741 11.9997888,15.3147741 Z M15.421205,9.37069174 C14.9887238,9.37069174 14.6369105,9.01887843 14.6369105,8.58639723 C14.6369105,8.15391604 14.9887238,7.80210273 15.421205,7.80210273 C15.8536862,7.80210273 16.2054995,8.15391604 16.2054995,8.58639723 C16.2054995,9.01887843 15.8536862,9.37069174 15.421205,9.37069174 Z M11.9997888,10.086144 C10.9447712,10.086144 10.0857217,10.9447712 10.0857217,11.9997888 C10.0857217,13.0552288 10.9447712,13.9142783 11.9997888,13.9142783 C13.0552288,13.9142783 13.913856,13.0552288 13.913856,11.9997888 C13.913856,10.9447712 13.0552288,10.086144 11.9997888,10.086144 Z M15.1884929,6.96543746 L8.81150707,6.96543746 C7.79365583,6.96543746 6.96543746,7.79365583 6.96543746,8.81150707 L6.96543746,15.1884929 C6.96543746,16.2063442 7.79365583,17.0345625 8.81150707,17.0345625 L15.1884929,17.0345625 C16.2063442,17.0345625 17.0345625,16.2063442 17.0345625,15.1884929 L17.0345625,8.81150707 C17.0345625,7.79365583 16.2063442,6.96543746 15.1884929,6.96543746 Z M11.9997888,15.3147741 C10.1723024,15.3147741 8.68522594,13.8276976 8.68522594,11.9997888 C8.68522594,10.1723024 10.1723024,8.68522594 11.9997888,8.68522594 C13.8276976,8.68522594 15.3147741,10.1723024 15.3147741,11.9997888 C15.3147741,13.8276976 13.8276976,15.3147741 11.9997888,15.3147741 Z M15.421205,9.37069174 C14.9887238,9.37069174 14.6369105,9.01887843 14.6369105,8.58639723 C14.6369105,8.15391604 14.9887238,7.80210273 15.421205,7.80210273 C15.8536862,7.80210273 16.2054995,8.15391604 16.2054995,8.58639723 C16.2054995,9.01887843 15.8536862,9.37069174 15.421205,9.37069174 Z M11.9997888,10.086144 C10.9447712,10.086144 10.0857217,10.9447712 10.0857217,11.9997888 C10.0857217,13.0552288 10.9447712,13.9142783 11.9997888,13.9142783 C13.0552288,13.9142783 13.913856,13.0552288 13.913856,11.9997888 C13.913856,10.9447712 13.0552288,10.086144 11.9997888,10.086144 Z M18.4350583,15.1884929 C18.4350583,16.978813 16.978813,18.4350583 15.1884929,18.4350583 L8.81150707,18.4350583 C7.02118698,18.4350583 5.56494172,16.978813 5.56494172,15.1884929 L5.56494172,8.81150707 C5.56494172,7.02118698 7.02118698,5.56494172 8.81150707,5.56494172 L15.1884929,5.56494172 C16.978813,5.56494172 18.4350583,7.02118698 18.4350583,8.81150707 L18.4350583,15.1884929 Z M15.1884929,6.96543746 L8.81150707,6.96543746 C7.79365583,6.96543746 6.96543746,7.79365583 6.96543746,8.81150707 L6.96543746,15.1884929 C6.96543746,16.2063442 7.79365583,17.0345625 8.81150707,17.0345625 L15.1884929,17.0345625 C16.2063442,17.0345625 17.0345625,16.2063442 17.0345625,15.1884929 L17.0345625,8.81150707 C17.0345625,7.79365583 16.2063442,6.96543746 15.1884929,6.96543746 Z M11.9997888,15.3147741 C10.1723024,15.3147741 8.68522594,13.8276976 8.68522594,11.9997888 C8.68522594,10.1723024 10.1723024,8.68522594 11.9997888,8.68522594 C13.8276976,8.68522594 15.3147741,10.1723024 15.3147741,11.9997888 C15.3147741,13.8276976 13.8276976,15.3147741 11.9997888,15.3147741 Z M15.421205,9.37069174 C14.9887238,9.37069174 14.6369105,9.01887843 14.6369105,8.58639723 C14.6369105,8.15391604 14.9887238,7.80210273 15.421205,7.80210273 C15.8536862,7.80210273 16.2054995,8.15391604 16.2054995,8.58639723 C16.2054995,9.01887843 15.8536862,9.37069174 15.421205,9.37069174 Z M11.9997888,10.086144 C10.9447712,10.086144 10.0857217,10.9447712 10.0857217,11.9997888 C10.0857217,13.0552288 10.9447712,13.9142783 11.9997888,13.9142783 C13.0552288,13.9142783 13.913856,13.0552288 13.913856,11.9997888 C13.913856,10.9447712 13.0552288,10.086144 11.9997888,10.086144 Z M11.9997888,10.086144 C10.9447712,10.086144 10.0857217,10.9447712 10.0857217,11.9997888 C10.0857217,13.0552288 10.9447712,13.9142783 11.9997888,13.9142783 C13.0552288,13.9142783 13.913856,13.0552288 13.913856,11.9997888 C13.913856,10.9447712 13.0552288,10.086144 11.9997888,10.086144 Z M11.9997888,10.086144 C10.9447712,10.086144 10.0857217,10.9447712 10.0857217,11.9997888 C10.0857217,13.0552288 10.9447712,13.9142783 11.9997888,13.9142783 C13.0552288,13.9142783 13.913856,13.0552288 13.913856,11.9997888 C13.913856,10.9447712 13.0552288,10.086144 11.9997888,10.086144 Z M15.1884929,6.96543746 L8.81150707,6.96543746 C7.79365583,6.96543746 6.96543746,7.79365583 6.96543746,8.81150707 L6.96543746,15.1884929 C6.96543746,16.2063442 7.79365583,17.0345625 8.81150707,17.0345625 L15.1884929,17.0345625 C16.2063442,17.0345625 17.0345625,16.2063442 17.0345625,15.1884929 L17.0345625,8.81150707 C17.0345625,7.79365583 16.2063442,6.96543746 15.1884929,6.96543746 Z M11.9997888,15.3147741 C10.1723024,15.3147741 8.68522594,13.8276976 8.68522594,11.9997888 C8.68522594,10.1723024 10.1723024,8.68522594 11.9997888,8.68522594 C13.8276976,8.68522594 15.3147741,10.1723024 15.3147741,11.9997888 C15.3147741,13.8276976 13.8276976,15.3147741 11.9997888,15.3147741 Z M15.421205,9.37069174 C14.9887238,9.37069174 14.6369105,9.01887843 14.6369105,8.58639723 C14.6369105,8.15391604 14.9887238,7.80210273 15.421205,7.80210273 C15.8536862,7.80210273 16.2054995,8.15391604 16.2054995,8.58639723 C16.2054995,9.01887843 15.8536862,9.37069174 15.421205,9.37069174 Z M11.9997888,10.086144 C10.9447712,10.086144 10.0857217,10.9447712 10.0857217,11.9997888 C10.0857217,13.0552288 10.9447712,13.9142783 11.9997888,13.9142783 C13.0552288,13.9142783 13.913856,13.0552288 13.913856,11.9997888 C13.913856,10.9447712 13.0552288,10.086144 11.9997888,10.086144 Z M11.9997888,10.086144 C10.9447712,10.086144 10.0857217,10.9447712 10.0857217,11.9997888 C10.0857217,13.0552288 10.9447712,13.9142783 11.9997888,13.9142783 C13.0552288,13.9142783 13.913856,13.0552288 13.913856,11.9997888 C13.913856,10.9447712 13.0552288,10.086144 11.9997888,10.086144 Z M11.9997888,10.086144 C10.9447712,10.086144 10.0857217,10.9447712 10.0857217,11.9997888 C10.0857217,13.0552288 10.9447712,13.9142783 11.9997888,13.9142783 C13.0552288,13.9142783 13.913856,13.0552288 13.913856,11.9997888 C13.913856,10.9447712 13.0552288,10.086144 11.9997888,10.086144 Z M15.1884929,6.96543746 L8.81150707,6.96543746 C7.79365583,6.96543746 6.96543746,7.79365583 6.96543746,8.81150707 L6.96543746,15.1884929 C6.96543746,16.2063442 7.79365583,17.0345625 8.81150707,17.0345625 L15.1884929,17.0345625 C16.2063442,17.0345625 17.0345625,16.2063442 17.0345625,15.1884929 L17.0345625,8.81150707 C17.0345625,7.79365583 16.2063442,6.96543746 15.1884929,6.96543746 Z M11.9997888,15.3147741 C10.1723024,15.3147741 8.68522594,13.8276976 8.68522594,11.9997888 C8.68522594,10.1723024 10.1723024,8.68522594 11.9997888,8.68522594 C13.8276976,8.68522594 15.3147741,10.1723024 15.3147741,11.9997888 C15.3147741,13.8276976 13.8276976,15.3147741 11.9997888,15.3147741 Z M15.421205,9.37069174 C14.9887238,9.37069174 14.6369105,9.01887843 14.6369105,8.58639723 C14.6369105,8.15391604 14.9887238,7.80210273 15.421205,7.80210273 C15.8536862,7.80210273 16.2054995,8.15391604 16.2054995,8.58639723 C16.2054995,9.01887843 15.8536862,9.37069174 15.421205,9.37069174 Z" id="social_gray_inst"></path>
                </g>
            </g>
        </g>
    </g>
</svg>