<?xml version="1.0" encoding="UTF-8"?>
<svg width="24px" height="24px" viewBox="0 0 24 24" version="1.1" xmlns="http://www.w3.org/2000/svg" xmlns:xlink="http://www.w3.org/1999/xlink">
    <!-- Generator: Sketch 54.1 (76490) - https://sketchapp.com -->
    <title>vk@2x</title>
    <desc>Created with Sketch.</desc>
    <g id="9.-500" stroke="none" stroke-width="1" fill="none" fill-rule="evenodd">
        <g id="TS_1440-500" transform="translate(-202.000000, -812.000000)" fill="#FFFFFF">
            <g id="Icons-/-Social" transform="translate(202.000000, 812.000000)">
                <g id="Components-/-Mixin-/-Icons-social-/-White-/-Vk">
                    <path d="M12,24 C5.372583,24 0,18.627417 0,12 C0,5.372583 5.372583,0 12,0 C18.627417,0 24,5.372583 24,12 C24,18.627417 18.627417,24 12,24 Z M8.02067092,10.3025699 C7.90329845,10.0158138 7.71329737,9.89925199 7.43466373,9.88429186 C7.4056184,9.8827474 5.65941656,9.84664926 5.5655308,9.88286853 C5.41492876,9.94098289 5.37079573,10.1098143 5.41810511,10.2865498 C5.43233763,10.3393343 5.96196449,11.4568016 5.98868864,11.5098889 C6.51159629,12.5482855 7.08434829,13.5570648 7.80947377,14.474781 C8.26595281,15.0525631 8.79292253,15.5480039 9.45284108,15.898386 C10.2314454,16.3120306 11.0672241,16.4073636 11.929727,16.3609387 C12.2284878,16.3446461 12.398209,16.1760872 12.417145,15.9116502 C12.4207795,15.8610765 12.4985391,15.2689399 12.5885461,15.0434478 C12.693885,14.7809186 12.915161,14.7430641 13.1406212,14.9135611 C13.2361868,14.9856968 13.3248193,15.0683106 13.4078627,15.1545282 C13.6834727,15.4405272 13.944331,15.7411835 14.2313636,16.0152809 C14.4894426,16.2614871 14.8099186,16.3872249 15.1755355,16.3888602 C15.2458124,16.3891631 16.6057204,16.4278353 16.8841097,16.3888602 C17.3266311,16.3266879 17.4729573,15.9774263 17.2360744,15.6066028 C17.0487916,15.3134266 16.8300506,15.0349078 16.5937175,14.7781931 C16.2685075,14.4253278 15.9089989,14.1039878 15.5731909,13.7605105 C15.3622381,13.544709 15.3521898,13.3993777 15.4968361,13.1401798 C15.5372736,13.0680744 15.5807347,12.9970592 15.6300599,12.9304654 C16.0168423,12.4076785 16.4128484,11.8914933 16.7907432,11.3626194 C17.0262211,11.0329514 17.2460922,10.6900494 17.3377789,10.2866104 C17.3770863,10.1144477 17.3104745,9.97877691 17.1427079,9.92571992 C17.0393236,9.89310441 16.9247915,9.88286853 16.8152683,9.88232342 C16.1977114,9.88038527 15.5801544,9.88093038 14.9625975,9.88232342 C14.6340584,9.88314108 14.5412416,9.94891721 14.4200208,10.2517539 C14.1856424,10.8386514 13.913392,11.4078632 13.5488746,11.9265316 C13.348245,12.2116826 13.1344823,12.4924424 12.8920408,12.7419496 C12.7011235,12.9383997 12.5144209,12.8701403 12.453948,12.5982536 C12.4107312,12.4031662 12.3959795,12.1978429 12.3984839,11.9975165 C12.4043479,11.4871458 12.4291479,10.9767752 12.4408455,10.466132 C12.4436553,10.3472989 12.4333322,10.2265579 12.4132662,10.1091178 C12.3745085,9.8814452 12.2485538,9.71785283 12.0133507,9.66700655 C11.8330314,9.62803147 11.6488333,9.61340446 11.4657347,9.61173885 C11.0162192,9.60731744 10.5656042,9.58769362 10.1166384,9.61173885 C9.83962353,9.62639615 9.58417119,9.66343308 9.4007977,9.89582994 C9.3127149,10.0074555 9.32545087,10.1193537 9.4625534,10.143944 C9.90651026,10.223257 10.0138039,10.4860283 10.0302354,10.7852915 C10.0555852,11.2525382 10.0661527,11.5591301 10.0569596,12.0269522 C10.0536,12.2059892 9.99706696,12.5515259 9.93546397,12.7220229 C9.87722059,12.8844948 9.74207274,12.9187759 9.59883129,12.8212322 C9.5007613,12.7546384 9.40766962,12.6728423 9.33381934,12.5808405 C8.7770102,11.8894946 8.35424941,11.119381 8.02067092,10.3025699 Z" id="Combined-Shape"></path>
                </g>
            </g>
        </g>
    </g>
</svg>