<?xml version="1.0" encoding="UTF-8"?>
<svg width="32px" height="32px" viewBox="0 0 32 32" version="1.1" xmlns="http://www.w3.org/2000/svg" xmlns:xlink="http://www.w3.org/1999/xlink">
    <!-- Generator: Sketch 52.6 (67491) - http://www.bohemiancoding.com/sketch -->
    <title>wa grey</title>
    <desc>Created with Sketch.</desc>
    <g id="++Why-Us" stroke="none" stroke-width="1" fill="none" fill-rule="evenodd">
        <g id="TS_1440-Why_Us" transform="translate(-1174.000000, -1327.000000)">
            <g id="Icons-/-Social" transform="translate(1174.000000, 1327.000000)">
                <g id="Components-/-Mixin-/-Icons-social-/-Gray-/-Whatsapp">
                    <path d="M0.132773667,15.8562989 L0.133545607,15.8562989 C0.132773667,18.6496326 0.866116594,21.378416 2.26101203,23.7829115 L0,32 L8.44656664,29.7953028 C10.7731936,31.0571058 13.3931577,31.7233562 16.060982,31.7256616 L16.0679295,31.7256616 C24.8495181,31.7256616 31.9961379,24.6105374 31.9999976,15.8678258 C32.0023134,11.6313337 30.3457303,7.64766342 27.3374804,4.64992075 C24.3292306,1.653715 20.3290379,0.00230536478 16.0671576,0 C7.28479705,0 0.136633366,7.11205033 0.132773667,15.8562989 Z" id="Fill-1" fill="#BABEC2" fill-rule="nonzero"></path>
                    <path d="M11.7886512,9.64073864 C11.4909767,8.99346591 11.1776744,8.98110227 10.8941395,8.96946591 C10.6619535,8.95928409 10.3970233,8.96001136 10.1313488,8.96001136 C9.8664186,8.96001136 9.43627907,9.05746591 9.07237209,9.44655682 C8.70697674,9.83564773 7.68,10.7760114 7.68,12.6865568 C7.68,14.5985568 9.10511628,16.4458295 9.30306977,16.7054659 C9.50251163,16.964375 12.0535814,21.0131023 16.0945116,22.5694659 C19.4537674,23.8647386 20.1369302,23.6065568 20.8654884,23.5418295 C21.5947907,23.4771023 23.2178605,22.6021932 23.5490233,21.6945568 C23.880186,20.7876477 23.880186,20.0101932 23.7812093,19.8480114 C23.6814884,19.6865568 23.4165581,19.5891023 23.0191628,19.3941932 C22.6217674,19.2007386 20.6667907,18.260375 20.3021395,18.1301932 C19.9374884,18.0007386 19.6733023,17.9360114 19.4076279,18.3251023 C19.1426977,18.7141932 18.3806512,19.5891023 18.1492093,19.8480114 C17.9170233,20.1076477 17.6855814,20.140375 17.288186,19.9454659 C16.8893023,19.7505568 15.6100465,19.3411023 14.0904186,18.0174659 C12.9086512,16.9876477 12.1108837,15.7156477 11.8786977,15.3265568 C11.6472558,14.9381932 11.8541395,14.7272841 12.0528372,14.5345568 C12.232186,14.3592841 12.4509767,14.0800114 12.6496744,13.8538295 C12.8483721,13.6261932 12.9146047,13.4647386 13.0463256,13.2051023 C13.1795349,12.9461932 13.1133023,12.7192841 13.0135814,12.5251023 C12.9146047,12.3301932 12.1421395,10.4094659 11.787907,9.64073864" id="Fill-7" fill="#FFFFFF" fill-rule="evenodd"></path>
                </g>
            </g>
        </g>
    </g>
</svg>