<?xml version="1.0" encoding="UTF-8"?>
<svg width="32px" height="32px" viewBox="0 0 32 32" version="1.1" xmlns="http://www.w3.org/2000/svg" xmlns:xlink="http://www.w3.org/1999/xlink">
    <!-- Generator: Sketch 52.6 (67491) - http://www.bohemiancoding.com/sketch -->
    <title>YouTube Color</title>
    <desc>Created with Sketch.</desc>
    <g id="Why-Us" stroke="none" stroke-width="1" fill="none" fill-rule="evenodd">
        <g id="TS_1440-Why_Us" transform="translate(-894.000000, -1343.000000)" fill="#DC1414">
            <g id="Icons-/-Social" transform="translate(894.000000, 1343.000000)">
                <g id="Components-/-Mixin-/-Icons-social-/-Colored-/-Youtube">
                    <path d="M16,32 C7.163444,32 0,24.836556 0,16 C0,7.163444 7.163444,0 16,0 C24.836556,0 32,7.163444 32,16 C32,24.836556 24.836556,32 16,32 Z M24.3567667,12.3636326 C24.3567667,12.3636326 24.1802,11.1127117 23.68,10.5599984 C23.0326333,9.83272488 22.297,9.83272488 21.9733333,9.80362603 C19.5899,9.62909885 16,9.6 16,9.6 C16,9.6 12.4101,9.62909885 10.0266667,9.80362603 C9.703,9.83272488 8.96736667,9.86182372 8.32,10.5599984 C7.79033333,11.1127446 7.64323333,12.3636326 7.64323333,12.3636326 C7.64323333,12.3636326 7.46666667,13.8472784 7.46666667,15.3309242 L7.46666667,16.6982076 C7.46666667,18.1818534 7.64323333,19.6364003 7.64323333,19.6364003 C7.64323333,19.6364003 7.8198,20.8873213 8.32,21.4400346 C8.96736667,22.1673081 9.8207,22.1382092 10.2032333,22.2255058 C11.5567667,22.3709012 16,22.4 16,22.4 C16,22.4 19.5899,22.4 21.9733333,22.196374 C22.297,22.1672751 23.0326333,22.1381763 23.68,21.4400016 C24.1802333,20.8872883 24.3567667,19.6363674 24.3567667,19.6363674 C24.3567667,19.6363674 24.5333333,18.1527216 24.5333333,16.6981746 L24.5333333,15.3308913 C24.5333333,13.8472784 24.3567667,12.3636326 24.3567667,12.3636326 Z M13.9830303,13.0816 L19.5684848,16.3291627 L13.9830303,19.4304 L13.9830303,13.0816 Z" id="Combined-Shape"></path>
                </g>
            </g>
        </g>
    </g>
</svg>