<?xml version="1.0" encoding="UTF-8"?>
<svg width="24px" height="24px" viewBox="0 0 24 24" version="1.1" xmlns="http://www.w3.org/2000/svg" xmlns:xlink="http://www.w3.org/1999/xlink">
    <!-- Generator: Sketch 54.1 (76490) - https://sketchapp.com -->
    <title>лфоыаилыидпмыижпрдилыатидмытдтиоатидытадлтыжтиыжлиа.эсвэгэ</title>
    <desc>Created with Sketch.</desc>
    <g id="9.-500" stroke="none" stroke-width="1" fill="none" fill-rule="evenodd">
        <g id="Icons-/-Social" fill="#FFFFFF">
            <g id="Components-/-Mixin-/-Icons-social-/-White-/-Whatsapp">
                <path d="M0.0995802501,11.8922242 C0.102475025,5.33403775 5.46359779,0 12.0503682,0 C15.2467784,0.00172902358 18.2469229,1.24028625 20.5031103,3.48744056 C22.7592977,5.73574756 24.001735,8.72350031 23.9999982,11.9008693 C23.9971034,18.4579031 18.6371386,23.7942462 12.0509471,23.7942462 L12.0457365,23.7942462 C10.0448683,23.7925172 8.07989518,23.2928294 6.33492498,22.3464771 L0,24 L1.69575903,17.8371836 C0.649587445,16.033812 0.0995802501,13.9872244 0.100159205,11.8922242 L0.0995802501,11.8922242 Z M8.84148837,7.23055398 C8.61823256,6.74509943 8.38325581,6.7358267 8.17060465,6.72709943 C7.99646512,6.71946307 7.79776744,6.72000852 7.59851163,6.72000852 C7.39981395,6.72000852 7.0772093,6.79309943 6.80427907,7.08491761 C6.53023256,7.3767358 5.76,8.08200852 5.76,9.51491761 C5.76,10.9489176 6.82883721,12.3343722 6.97730233,12.5290994 C7.12688372,12.7232812 9.04018605,15.7598267 12.0708837,16.9270994 C14.5903256,17.898554 15.1026977,17.7049176 15.6491163,17.6563722 C16.196093,17.6078267 17.4133953,16.9516449 17.6617674,16.2709176 C17.9101395,15.5907358 17.9101395,15.0076449 17.835907,14.8860085 C17.7611163,14.7649176 17.5624186,14.6918267 17.2643721,14.5456449 C16.9663256,14.400554 15.500093,13.6952812 15.2266047,13.5976449 C14.9531163,13.500554 14.7549767,13.4520085 14.5557209,13.7438267 C14.3570233,14.0356449 13.7854884,14.6918267 13.611907,14.8860085 C13.4377674,15.0807358 13.264186,15.1052812 12.9661395,14.9590994 C12.6669767,14.8129176 11.7075349,14.5058267 10.567814,13.5130994 C9.68148837,12.7407358 9.08316279,11.7867358 8.90902326,11.4949176 C8.73544186,11.2036449 8.89060465,11.0454631 9.03962791,10.9009176 C9.17413953,10.7694631 9.33823256,10.5600085 9.48725581,10.3903722 C9.63627907,10.2196449 9.68595349,10.098554 9.78474419,9.9038267 C9.88465116,9.70964489 9.83497674,9.53946307 9.76018605,9.3938267 C9.68595349,9.24764489 9.10660465,7.80709943 8.84093023,7.23055398 L8.84148837,7.23055398 Z" id="Combined-Shape"></path>
            </g>
        </g>
    </g>
</svg>