<?xml version="1.0" encoding="UTF-8"?>
<svg width="30px" height="30px" viewBox="0 0 30 30" version="1.1" xmlns="http://www.w3.org/2000/svg" xmlns:xlink="http://www.w3.org/1999/xlink">
    <!-- Generator: Sketch 52.5 (67469) - http://www.bohemiancoding.com/sketch -->
    <title>social_gray_yt</title>
    <desc>Created with Sketch.</desc>
    <g id="GUI" stroke="none" stroke-width="1" fill="none" fill-rule="evenodd">
        <g transform="translate(-772.000000, -1511.000000)" fill="#BABEC2" id="social_gray_yt">
            <path d="M787,1541 C778.715729,1541 772,1534.28427 772,1526 C772,1517.71573 778.715729,1511 787,1511 C795.284271,1511 802,1517.71573 802,1526 C802,1534.28427 795.284271,1541 787,1541 Z M794.834469,1522.59091 C794.834469,1522.59091 794.668937,1521.41817 794.2,1520.9 C793.593094,1520.21818 792.903437,1520.21818 792.6,1520.1909 C790.365531,1520.02728 787,1520 787,1520 C787,1520 783.634469,1520.02728 781.4,1520.1909 C781.096563,1520.21818 780.406906,1520.24546 779.8,1520.9 C779.303437,1521.4182 779.165531,1522.59091 779.165531,1522.59091 C779.165531,1522.59091 779,1523.98182 779,1525.37274 L779,1526.65457 C779,1528.04549 779.165531,1529.40913 779.165531,1529.40913 C779.165531,1529.40913 779.331063,1530.58186 779.8,1531.10003 C780.406906,1531.78185 781.206906,1531.75457 781.565531,1531.83641 C782.834469,1531.97272 787,1532 787,1532 C787,1532 790.365531,1532 792.6,1531.8091 C792.903437,1531.78182 793.593094,1531.75454 794.2,1531.1 C794.668969,1530.58183 794.834469,1529.40909 794.834469,1529.40909 C794.834469,1529.40909 795,1528.01818 795,1526.65454 L795,1525.37271 C795,1523.98182 794.834469,1522.59091 794.834469,1522.59091 Z M785.109091,1523.264 L790.345455,1526.30859 L785.109091,1529.216 L785.109091,1523.264 Z"></path>
        </g>
    </g>
</svg>