<svg xmlns="http://www.w3.org/2000/svg" xmlns:xlink="http://www.w3.org/1999/xlink" width="24" height="20" viewBox="0 0 24 20"><defs><path id="zfg6a" d="M660 2130a3.49 3.49 0 0 0-3.366 2.592A2.988 2.988 0 0 0 654 2131a3 3 0 1 0 0 6 2.99 2.99 0 0 0 2.829-2.04A3.49 3.49 0 0 0 660 2137a3.5 3.5 0 1 0 0-7"/><path id="zfg6b" d="M671.379 2146.845l-3.672-1.128a1 1 0 0 1-.707-.956v-3.522a1 1 0 0 1 .707-.956l3.672-1.127a.499.499 0 0 1 .621.484v6.72a.5.5 0 0 1-.621.485"/><path id="zfg6c" d="M662.5 2141h-8a.5.5 0 0 0-.5.5v4a.5.5 0 0 0 .5.5h8a.5.5 0 0 0 .5-.5v-4a.5.5 0 0 0-.5-.5"/><path id="zfg6d" d="M664.5 2138c.829 0 1.5.805 1.5 1.8v8.4c0 .994-.671 1.8-1.5 1.8h-15c-.829 0-1.5-.806-1.5-1.8v-8.4c0-.995.671-1.8 1.5-1.8zm-14.75 3a.75.75 0 1 0 0-1.5.75.75 0 0 0 0 1.5zm2 0a.75.75 0 1 0 0-1.5.75.75 0 0 0 0 1.5zm12.25.5c0-.827-.673-1.5-1.5-1.5h-8c-.827 0-1.5.673-1.5 1.5v4c0 .827.673 1.5 1.5 1.5h8c.827 0 1.5-.673 1.5-1.5z"/></defs><g><g transform="translate(-648 -2130)"><g><use fill="#babec2" xlink:href="#zfg6a"/></g><g><use fill="#babec2" xlink:href="#zfg6b"/></g><g><use fill="#babec2" xlink:href="#zfg6c"/></g><g><g><use fill="#babec2" xlink:href="#zfg6d"/></g></g></g></g></svg>