<?xml version="1.0" encoding="UTF-8"?>
<svg width="16px" height="16px" viewBox="0 0 16 16" version="1.1" xmlns="http://www.w3.org/2000/svg" xmlns:xlink="http://www.w3.org/1999/xlink">
    <!-- Generator: Sketch 54.1 (76490) - https://sketchapp.com -->
    <title>icon__wa</title>
    <desc>Created with Sketch.</desc>
    <g id="Symbols" stroke="none" stroke-width="1" fill="none" fill-rule="evenodd">
        <g id="Menu-/-768-/-Header-Home" transform="translate(-272.000000, -16.000000)" fill="#BABEC2" fill-rule="nonzero">
            <path d="M275.607557,29.9003083 C275.682338,29.877065 275.76043,29.8653758 275.839391,29.8653758 C275.985558,29.8653758 276.129903,29.9069806 276.254203,29.984546 C277.376899,30.6873985 278.671015,31.0588005 280,31.0588005 C283.89169,31.0588005 287.058824,27.8915894 287.058824,23.9998039 C287.058824,20.1081007 283.891772,16.9411995 280,16.9411995 C276.108228,16.9411995 272.941176,20.1081007 272.941176,23.9998039 C272.941176,25.3705043 273.333078,26.697168 274.077026,27.8422293 C274.199932,28.033968 274.235761,28.2721331 274.171246,28.4847591 C274.036159,28.9558562 273.823516,29.7196856 273.60422,30.516712 L275.607557,29.9003083 Z M273.268541,28.2185052 C273.266016,28.2268351 273.264139,28.2351215 273.262892,28.2433343 C273.263792,28.2350687 273.266178,28.2267445 273.268541,28.2185052 Z M272,23.9998039 C272,19.5882754 275.588445,16 280,16 C284.411555,16 288,19.5882754 288,23.9998039 C288,28.4113996 284.411487,32 280,32 C278.518591,32 277.074323,31.5923233 275.816713,30.8206943 L272.244613,31.9197909 L272.469977,31.0944338 C272.749963,30.0690328 273.059597,28.9499759 273.24743,28.2922728 C272.430875,27.0104803 272,25.5282213 272,23.9998039 Z M276.740497,20.0141408 C276.293554,20.0141408 275.587602,21.6394896 276.025472,22.7766488 C276.926983,25.1177995 279.054756,27.4027954 281.528105,27.7733099 C283.241638,28.0313195 284.356604,27.1807819 284.356604,26.5809427 C284.356604,26.6672804 284.347911,26.6553011 284.291471,26.6070723 C284.238743,26.5620148 284.171246,26.5099717 284.075328,26.4398642 C284.030148,26.4068417 283.834856,26.2664278 283.784092,26.2294282 C283.729337,26.1895188 283.68388,26.1559603 283.584565,26.0823501 C283.214603,25.8082156 282.974741,25.6561416 282.991411,25.6561416 C283.084058,25.6561416 282.957992,25.8061931 282.666395,26.2044148 C282.208892,26.8292069 281.855615,27.1378237 281.328187,27.1378237 C280.118283,27.1378237 276.70601,24.3856254 276.70601,22.7453549 C276.70601,22.5350223 276.788414,22.334484 276.935611,22.1902206 C277.20667,21.9191558 277.369934,21.7230288 277.449007,21.5891048 C277.483364,21.5309145 277.489429,21.514943 277.493384,21.5418954 C277.4341,21.1417892 276.878415,20.0141408 276.740497,20.0141408 Z M275.147164,23.1148702 C274.499365,21.4325226 275.524223,19.0729413 276.740497,19.0729413 C277.57196,19.0729413 278.314005,20.5812881 278.431541,21.4887881 C278.431541,21.8675037 278.231825,22.2165073 277.649778,22.8067068 C277.694878,23.3518842 278.325784,24.1558745 279.317519,24.9557665 C280.141293,25.6201889 281.14782,26.1966241 281.328187,26.1966241 C281.437769,26.1966241 281.625929,26.0322515 281.907039,25.6483509 C281.94867,25.5914981 282.088702,25.3958211 282.101209,25.3785311 C282.18159,25.2674115 282.242692,25.1870455 282.303782,25.1143325 C282.518441,24.8588322 282.711863,24.7149421 282.991411,24.7149421 C283.294256,24.7149421 283.472994,24.8282626 284.138561,25.3214345 C284.243408,25.3991408 284.286431,25.4309028 284.338448,25.4688159 C284.385741,25.5032859 284.581717,25.6441913 284.630699,25.6799931 C284.744229,25.7629737 284.82839,25.827865 284.90289,25.8915271 C285.155546,26.1074267 285.297781,26.3034141 285.297781,26.5809427 C285.297781,27.7841941 283.64636,29.04399 281.388499,28.7040975 C278.517817,28.2739729 276.157886,25.739634 275.147164,23.1148702 Z M277.646131,22.7625597 C277.646832,22.7568009 277.647186,22.7510529 277.647186,22.7453549 C277.647186,22.7472542 277.647194,22.7491571 277.64721,22.7510634 L277.646131,22.7625597 Z M277.597791,22.8590491 C277.603283,22.8536648 277.608347,22.8479539 277.612966,22.8419849 C277.608999,22.8478296 277.603411,22.8534286 277.597791,22.8590491 Z" id="icon__wa"></path>
        </g>
    </g>
</svg>