<?xml version="1.0" encoding="UTF-8" standalone="no"?>
<svg width="18px" height="18px" viewBox="0 0 18 18" version="1.1" xmlns="http://www.w3.org/2000/svg" xmlns:xlink="http://www.w3.org/1999/xlink">
    <!-- Generator: Sketch 50.2 (55047) - http://www.bohemiancoding.com/sketch -->
    <title>Stroke-1</title>
    <desc>Created with Sketch.</desc>
    <defs></defs>
    <g id="Home" stroke-width="1" fill="none" fill-rule="evenodd">
        <path stroke-linejoin="miter" stroke-linecap="butt" stroke-opacity="1" d="M9.20504615,17.2050807 C7.69788432,17.2050807 6.23114126,16.7833921 4.95982505,15.9875173 C4.90773901,15.9550156 4.84606913,15.9370981 4.78439925,15.9370981 C4.7502308,15.9370981 4.71731242,15.9420983 4.68647748,15.9516821 L1.68673791,16.8746469 C1.90633268,16.0704383 2.30218663,14.6316133 2.53136523,13.832405 C2.55928336,13.740317 2.54303251,13.638645 2.49094646,13.5573908 C1.64923596,12.2619066 1.20504615,10.7576616 1.20504615,9.20508075 C1.20504615,4.79401767 4.79398308,1.20549744 9.20504615,1.20549744 C13.6161092,1.20549744 17.2050462,4.79401767 17.2050462,9.20508075 C17.2050462,13.6161439 13.6161092,17.2050807 9.20504615,17.2050807 Z M10.7545852,13.7088153 C7.33315699,13.1962886 5.17804475,9.80569536 4.51551024,8.08518908 C3.85797599,6.37760015 5.03012037,4.47041748 5.74182411,4.47041748 C6.39727492,4.47041748 7.00272312,6.27009455 7.03855831,6.5371918 C7.03855831,6.71303428 6.98147201,6.95721367 6.30268665,7.63599902 C6.23935003,7.69808559 6.20518158,7.78225664 6.20518158,7.87226133 C6.20518158,9.61693553 9.96371066,12.039145 10.6162447,12.039145 C11.4104527,12.039145 11.9488141,10.4648964 12.38342,10.4648964 C12.6009313,10.4648964 13.08679,10.8540833 13.5201459,11.1699331 C13.9535017,11.4857828 14.3339383,11.7287122 14.3339383,11.9474735 C14.3339383,12.4208315 13.3947227,14.106336 10.7545852,13.7088153 Z" id="Stroke-1" stroke="#a7aaad"></path>
    </g>
</svg>