<svg xmlns="http://www.w3.org/2000/svg" width="280" height="280" viewBox="0 0 280 280"><g><g><g><path fill="#dc1414" d="M49.537 153.03l1.787 5.979-15.45 4.653 19.988 10.512 2.194 7.354-17.614-9.516-16.045 20.686-2.224-7.443 12.908-16.053-6.285-3.418-11.419 3.438-1.787-5.978z"/></g><g><path fill="#dc1414" d="M215.349 144.97l-.218-.788.516-.757-.14-.787-.297-.598v-1.355l.357-.379-.347-.319v-.458-.778l-.05-.149c0-.737 0-1.465-.06-2.192 0 .07-2.114-14.508-1.856-14.15l-.238-1.185.06-.817-.22-.748-.367-.707.11-.837-.536-.658-.338-.707-.576-.628-.129-.767-.427-.678-.427-.658.288-.936.139-.887-.904-.478v-.837l-.883-.469.198-.936-.605-.578-.517-.608.15-.917v-.867l-1.152-.299v-.867l-.705-.508-.278-.727.307-.997-.992-.308v-.917l-.278-.738-.328-.707-.477-.628-.764-.428.06-.997-.994-.279-.615-.508-.258-.697-.268-.758-.666-.468-.238-.787-.516-.578.139-1.086-.943-.25-.755-.378-.13-.897-.406-.667-.239-.818h-.695l-.427-.498v-.518l-.655-.239c-.476-.528-.993-.996-1.46-1.564l-.089-.39-.377-.099-.487-.498v-.767h-.784l-.506-.498-.13-.22h-.148l-1.241-1.155V82.8h-.755l-.765-.667-.367-.827-.794-.25-.417-.727-.884-.13-.338-.826-.675-.399-.615-.488-.735-.07a77.963 77.963 0 0 0-1.748-1.236l-.168-.318-.656-.409-.357-.07-1.31-.837-.1-.657-.725-.3-.794-.179-.636-.448-.566-.588-.675-.389-.655-.408-.804.1-.199-.11-.357-.747-.596.259a78.143 78.143 0 0 0-4.23-1.993l-.178-.429-.636-.498h-.824l-.705-.319-.695-.378-.745-.21H165l-.586-.687-.536.319a74.036 74.036 0 0 0-2.522-.797h-.06l-1.121-.33-.258-.298-.755-.18-.387.1-1.787-.438-.11-.12-.764-.14-.755-.169-.744-.21-.219.09a75.984 75.984 0 0 0-5.66-.876l-.228-.29-.744-.318h-.775l-.804.279-.755-.349-.367.369c-.526 0-1.062-.07-1.599-.09l-.357-.518-.397.478h-1.629l-.307-.269-.725-.1-.05.32-.774-.36-.378.42h-1.042l-.13-.08-.784-.38-.734.529-.785-.438h-.774l-.775.169-.774-.12-.765.27-.357.368-1.36.17-.596-.34-.536.479c-.755.11-1.5.24-2.244.359h-.238l-.19.1-.992.199-.298-.05-.11.14a77.16 77.16 0 0 0-6.493 1.584h-.149l-.119.11-.496.448-.765.14-.685.378-.874-.2-.695.37-.566.717-.992-.469-.745.24-.775.159-.516.777h-.824l-.596.568-.993-.23-.317 1.187-.993-.23-.675.4-.785.159-.397.926-.993-.19-.536.649-.625.458-.596.518-.755.23-.844.089-.735.279-.317.996-.536.598-.834.13-.993-.07-.278.996-.735.3-.407.767-1.162-.3-.228.997-.804.21-.278.916-1.142-.21-.566.539v1.186h-.993l-.834.199-.378.767-.556.528-.129.997-.992.08-.308.797-.636.458-.377.718h-1.112l-.417.677-.526.568-.745.369-.149.936-.238.827-.566.519-1.102.07-.278.787-.209.837-.298.747h-1.191l-.467.628v.996l-.298.747-.883.3-.189.826-.487.598-.248.768-.466.617-.437.638-.288.727-.844.38-.169.806-.506.498h-.06l-.556.568v.449l-.447.767-.258.18-.725.498v.896l-.536.598.12.369-.388.807-.626.12.269.617c-.15.3-.288.598-.427.897l-.12.08v.22l-.327.737-.636.308-.278.728-.05.817-.476.648.189.488c-.288.727-.556 1.465-.824 2.202l-.517.21-.248.737.08.847-.408.677.14.349-.298.996-.18.15v.618a65.25 65.25 0 0 0-.644 2.391l-.2.13.1.219c-.1.408-.188.817-.278 1.226l-.1.08v.248a83.8 83.8 0 0 0-.366 1.684l-.487.28.318.637a67.153 67.153 0 0 0-.576 3.488l-.546.478.268.827-.526.717.466.668-.119 1.385-.397.299.338.379c0 .508-.07.996-.1 1.534l-.516.409.397.797.06.09v1.125l-.338.33.328.308v1.226l-.209.777.249.498v.518l-.288.538.317.588c0 1.306.14 2.601.249 3.887l-.08.169v.787l.248.409c0 .319.07.637.11.996v.08s1.985 6.178 2.144 9.227c-.198-.23-.407-.449-.586-.698.08.33.15.668.239.997l-.239.548.219.757.526.329a37.37 37.37 0 0 0 .496 3.378v.06c.253 1.213.584 2.408.993 3.577a21.054 21.054 0 0 0 3.734 6.527l-.13.597.477.638.596.558.784.449-.407 1.116.477.627.566.558.804.419.149.817.218.777.705.468-.07.997.736.438.258.768.993.259.228.797-.07.996 1.182.08.149.857.804.349.328.727.556.538.08.997.913.229-.11 1.136 1.093.06.139.926.715.389.139.936.635.469.993.07.387.707.308.787.635.459.318.07a74.18 74.18 0 0 0 2.075 1.893c.318.289.646.568.993.847l.06.308.715.36.546.547.417.728.754.08.249.189.307.568h.398l.655.488v.687l.665-.169 1.172.817.1.668.615-.17.595.399.09.608.844.12h.228l.765.478.149.607.843.12.447.757.755.25.705.338.834.09 1.35.697.626.479.615.508.487-.12 1.29.608.398.359.675.388.596.578.734.26h1.192c.725.278 1.45.557 2.174.817l.259.637.883-.239.596.558.546-.18c.536.18 1.062.34 1.608.499l.14.15.724.269.775.09.635.647.775.08.724.308h.815l.913-.587.606.866.874-.398.605.917.755.229.883-.608.656.807.864-.518.764.06.804-.15.646 1.057.874-.847.695.837.814-.429.754.27.785-.12.734.627.785-.09.774.06.795-.857.764.558h.775l.774.2.775-.25.764-.298.775.249.764-.23.804.569.755-.399.774.05.735-.558.824.588.695-.807.874.827.655-.997.824.31.715-.43.834.34.695-.499.864.419.695-.489.675-.587.755-.15.874.379h.784l.745-.24.665-.518.755-.159.377-.23a1 1 0 0 1 0 .17c.745-.209 1.48-.428 2.214-.657l.457.12.665-.46.774-.129.16-.209a70.972 70.972 0 0 0 2.432-.887l.357.12.308-.379.566-.23.616.17.466-.617.268-.11h.636l.764-.19.646-.458.695-.329.834-.06.586-.587.665-.389.467-.468c.496-.26.992-.528 1.489-.807l.824-.12.1-.398.794-.469.496.16.695-.35.606-.497.496-.668v-.07l.934-.608.575.2.08-.638c.397-.26.784-.528 1.162-.797h.565l.08-.399 1.042-.996h.16l.724-.329.457-.678.645-.428.675-.399.199-.388 1.172-.997a2.78 2.78 0 0 1-.07-.568l.05-.08.665-.398.546-.558 1.182.16-.07-1.226.516-.568.993-.05.288-.827h1.043l-.1-1.186.815-.289.397-.687.476-.618.487-.588h1.152l-.05-1.066.884-.27v-.996l.357-.707h1.241l-.149-1.096.864-.319.179-.827.496-.598.844-.349.397-.667-.208-1.086.735-.439.119-.847 1.112-.2.367-.687-.109-.996.219-.767.655-.509.1-.837 1.28-.169.298-.727.258-.738v-.867l.536-.597-.218-.997.695-.518v-.847l.308-.708.268-.717.834-.478-.18-.917.775-.518.11-.797.149-.768.248-.727.893-.508-.595-.997.993-.478.387-.697-.258-.897.218-.738.149-.767.09-.777.109-.767.556-.658.079-.777.635-.648v-.807l-.466-.887.794-.638v-.787l.447-.707.198-.757-.417-.678c0-.12 0-.23.05-.339l.596-.528v-.787l-.219-.817-.06-.14c.08-.647.15-1.305.21-1.993l.148-.199-.109-.22c0-.328.06-.657.08-.996z"/></g><g><path fill="#fff" d="M87.128 132.97v2.919l-.06 2.89.318 2.89-.178.218 2.899-2.55 3.644-1.685h2.522l2.393.678 2.323.379 1.43 1.903 1.529 1.674 1.757 1.674.477 2.55.576 2.452v2.76l-.516 2.73-.993 2.392-.815 2.63-2.095 1.665-2.105 1.564-2.67.498-2.453 1.216-2.601.05-2.522-.568-2.443-.18-2.313-.877-2.055-1.414-1.37-2.053-1.59-2.252-.317-2.82 2.512.15 2.443-.449 2.382-.379.586 2.103 2.135 1.136 1.767 1.485L94 157.86l2.74-.468 1.708-1.993.993-2.491-.596-2.74-.268-2.77-1.27-2.422-2.324-1.355-2.9.06-3.137 1.345-2.134 2.242-3.138 1.206h-3.247l.268-2.86-.635-2.99.228-2.989.824-2.989-.446-2.99-.239-3.118.298-3.249h3.207l2.81-.996 2.979.299 2.83-.847 2.879-.598 2.979-.15 3.187-.657.357 3.428.11 3.039-2.84.677-2.979.558-2.979.509-3.107-.29z"/></g><g><path fill="#fff" d="M115.661 141.464l-.883-2.232-.507-2.828 1.092-2.889-.119-2.849 1.847-1.763 2.343-.787 2.76-.468 1.857 1.893 1.56 2.34.535 2.909.844 2.72.695 2.24-.179 3.985.447 2.211.189 2.28-1.797 3.756-3.227 2.181-3.565-1.284-2.373-3.228-.675-2.121-.337-2.202zm-7.715-5.037l-.496 3.109v3.149l1.31 2.989.606 3.099.993 2.99 1.53 2.988 1.876 2.87 2.581.997 2.274 1.524 2.68-.299 2.592.15 2.532-.698 2.562-.747 2.393-1.425 1.221-2.531 1.062-3.129 1.649-3.069-.576-3.228.417-3.189-.14-3.199-1.37-2.92-.416-3.068-1.232-2.82-1.24-3.139-2.334-2.411-2.314-1.316-2.263-1.554h-2.691l-2.582.468h-2.66l-2.314 1.276-2.323 1.405-1.52 2.262-1.39 3.039-.893 3.258z"/></g><g><path fill="#fff" d="M143.883 137.48l-.189-2.342.12-2.84-.388-2.99 1.45-2.44.884-2.313 2.434-1.195 2.731.478 1.709 1.853 1.38 2.282.994 2.73 1.211 2.65.08 2.353.606 3.876.228 2.262-.417 2.252-1.291 3.926-3.487 1.783-3.516-.996-1.986-3.398-.666-2.073-.804-2.072zm-7.196-5.103l-.437 3.11.933 2.989.477 3.109.318 3.178.715 3.159 1.658 2.99 2.63 2.221 2.225 1.664 2.313 1.585 2.72-.09 2.592-.438 2.552-.529 2.383-1.076 2.095-1.594 1.728-1.993 1.658-2.99.208-3.407.993-3.109-.715-3.169-.506-3.138-.387-3.07-.318-3.128-1.152-2.92-1.678-2.99-2.591-2.132-1.986-1.773-2.512-.817-2.572-.22-2.62-.149-2.533.588-2.522.807-2.204 1.614-1.886 1.993-1.44 3.139-.427 3.398z"/></g><g><path fill="#fff" d="M185.137 130.964l-.348-3.158-.099-3.08-.417-2.989-.288-2.75 1.748-.907 2.752-.08 2.146 1.286 1.56 1.694 1.51 2.75-.606 2.99-.725 2.341-2.245.996-2.673.24zm-10.383 4.255l.408 2.71 1.926-.518 2.035.21 1.082 4.045-2.442.578-1.906.08-.07 2.59.745 2.492 1.986.06 2.392-.778-.387 2.58.655 2.313 3.436-.867h3.634l-.824-2.412-.14-2.351 3.099-.787 3.147.259 3.277-.419-.477-2.99-.675-2.52-2.979.15-3.058.328-3.336.937-.238-4.365 2.84-.857 2.978-.478 2.979-.687 2.194-1.136.993-2.282 1.579-1.585.496-2.152.06-2.252.397-2.312-.656-2.232-.734-2.212-1.42-1.793-1.877-1.236-1.747-1.724-2.403-.458-2.979-.478-3.078-.12-3.227.448-3.246.27-2.87 1.165.497 2.67-.189 2.99.328 2.99.993 2.86-.1 2.988.993 3.1-2.482.259h-2.383z"/></g><g><path fill="#dc1414" d="M271.344 123.146l-.775.897.993 1.325.09.12c.079.697.158 1.404.218 2.112l-.526.647.615.479c.07.767.13 1.524.18 2.281l-.319 1.455.467.847c0 .339 0 .688.05.997l-.497.996.556.996c.066 2.425.066 4.836 0 7.234l-.169.27-.238 1.424.308.767c0 .628-.06 1.256-.1 1.884l-.069.219v.09c1.777.946 3.257 4.752 1.212 5.051a4.532 4.532 0 0 1-1.738 1.535v.179l-.139.25.09.178c-.08.705-.17 1.412-.269 2.123l-.566.478v1.435l-.447 1.375.437.757c-.228 1.375-.476 2.75-.754 4.115l-.795.708-.268 1.395.447.807c-.188.827-.377 1.664-.586 2.49l-.317.997v.32c-.12.487-.259.996-.388 1.454l-1.072.787.417 1.594c-.457 1.575-.94 3.139-1.45 4.693l-.992.479.496.996c-.149.448-.308.887-.467 1.325l-.655.439-.715 1.245-.457 1.345.408.827a136.358 136.358 0 0 1-2.78 6.597l-.894.458-.387 1.385-.14 1.196c-.367.767-.754 1.534-1.141 2.301l-.854.21-.497 1.345-.327 1.434v.2c-.556.996-1.112 1.993-1.688 2.989l-.497.468-.06.469-.794 1.345-.992.388-.17 1.515-.079.12-.993.916.07.618c-.496.757-.993 1.514-1.49 2.262l-1.38.378.298 1.186a154.802 154.802 0 0 1-2.87 3.986c-.456.607-.932 1.195-1.4 1.793l-.674.21v.707l-.864 1.096-1.271.09.13 1.285c-.279.329-.547.668-.825.996l-.755.22-.526 1.285-.119.12-1.608.398-.775 1.216v1.076c-.556.588-1.112 1.176-1.678 1.753l-1.062.439-.854 1.156-.13.508a149.309 149.309 0 0 1-5.58 5.28h-.545l-.825 1.157-.109.09-1.092.767-1.45.488-.427 1.235-.565.459-1.053.279-.139.687-1.241.997-1.162-.28-.09 1.226-2.164 1.584-1.132-.239-.129 1.126c-.367.26-.734.528-1.102.777l-1.082-.259-.814 1.336-.159.279c-.487.328-.993.657-1.46.996l-1.102-.23-.883 1.276h-1.629l-1.062.997-1.182.787-.933 1.166c-.923.508-1.847.996-2.78 1.484l-1.132.349-1.41.349-.357.787-2.463 1.186-.903.12-1.36.448-1.51.07-1.27.647-1.073 1.116-1.062 1.176-1.37.428-1.222.817-1.876-.996-.993 1.375-1.56-.16-.992 1.425-1.3.648-1.6-.369-1.39.31-1.31.597-1.589-.458-1.32.558-1.43.12-1.29.717-1.083 1.693-1.668-.996-1.201 1.305-1.659-1.145-1.43.08-1.17 1.593-1.61-.996-1.23 1.385-1.4.27-1.37.637-1.62-1.624-1.24 1.853-1.55-1.265-1.34.996-1.45-.299-1.4.409-1.479-.997-1.4.27h-1.42l-1.4 1.623-1.44-.996-1.419.05-1.42-.389-1.43.399-1.45.478-1.4-.588-1.449.28-1.618-1.127-1.47.528-1.4-.319-1.509.738-1.28-1.375-1.6 1.146-1.18-1.864-.934.807-1.897-.279-.109-.08h-.169l-2.114-.378-.477-.399-.705.18-1.221-.22-.814-.757-1.53.33h-.06a119.354 119.354 0 0 1-3.732-.878l-.298-.358-1.31-.608-1.4-.28-1.073.16a137.267 137.267 0 0 1-6.524-2.042l-.536-.648-1.41-.1-1.24-.717-.448.11a108.079 108.079 0 0 1-4.468-1.794l-.307-.588-.834.1-1.102-.479-.556-.996-1.34.14-.626-.32-.755-.757-1.231-.817-1.37-.418-1.271-.638-.993-1.166-1.47-.189-1.29-.608-1.113-.239c-.992-.538-1.886-1.096-2.82-1.654l-.873-1.136-.715.17a36.472 36.472 0 0 1-1.46-.937l-.139-.897-1.131-.857-1.242-.647-1.489-.35h-.08l-1.727-1.215v-1.086l-1.102.25-1.698-1.246-.447-.349-.377-.917-.715.07a75.099 75.099 0 0 1-1.668-1.325l-.07-.23-.913-1.145-1.36-.548-.1-.08-.992-.927-.934-1.096-.705-.219a121.95 121.95 0 0 1-3.534-3.278 1.043 1.043 0 0 1-.864.618c-.993.14-2.085-.997-2.681-2.212a2.32 2.32 0 0 1-.874.368.99.99 0 0 1-.814-.149c-.172.05-.348.087-.526.11h-.219a1.052 1.052 0 0 1-1.102-.658 2.139 2.139 0 0 1 .229-1.644c.197-.431.465-.825.794-1.166a1.164 1.164 0 0 1-.616-.598 1.999 1.999 0 0 1 .189-1.534v-.997h-1.132c-1.529-1.733-2.979-3.507-4.458-5.3l.199-1.316-1.4-.199-.606-.777-.08-.997-.834-.229c-.575-.767-1.131-1.544-1.697-2.331l.317-1.096-1.27-.25-.795-1.175v-.648l-.715-.448c-.447-.668-.883-1.345-1.32-1.993v-1.276l-.824-1.155-.775-.19a128.162 128.162 0 0 1-2.274-3.896l.278-.886-.764-1.196-.844-.379a125.837 125.837 0 0 1-2.552-5.091l.546-.997-.734-1.215-.775-1.216-.993-.837-.278-.668-.139-.996-.357-.2c-.993-2.45-1.986-4.931-2.83-7.452l.1-.32-.279-.218a77.301 77.301 0 0 1-.715-2.143l.1-.348-.437-.738c-.397-1.255-.765-2.51-1.122-3.776l.526-1.116-.993-.468a41.116 41.116 0 0 1-.377-1.495l.447-.747-.05-1.445-1.201-1.136c-.517-2.242-.993-4.504-1.36-6.785l.069-.29-.298-.996c0-.17-.05-.339-.08-.508l.576-1.455-.556-1.355-.516-.488c-.08-.578-.149-1.156-.218-1.734l.387-.608-.387-1.385.417-1.474v-1.435l-1.34-1.315 1.111-1.515-.307-1.405-.656-1.385-.913-1.405.09-1.435.754-1.444-.795-1.445 1.142-1.425-.476-1.435.893-1.395-.268-1.435-.685-1.464-.397-1.455 1.39-1.355-1.44-1.545 1.112-1.345-.278-1.465.298-1.405-.347-1.145.119-.708.516-.996v-1.445l.556-1.365.655-1.345v-1.445l.348-1.385-.685-1.604.854-1.286.864-1.275-.298-1.534.715-1.296.724-1.285-.238-1.545.824-1.255.904-1.226-.894-1.753 1.202-1.116.347-1.395.149-.339c-1.36-1.425-2.145-4.185-.407-4.434.271-.026.545.018.794.13a5.329 5.329 0 0 1 2.73-2.501l.557-.538v-1.545l.367-1.395v-1.574l.794-1.206.308-1.445.328-1.444 1.588-.807 1.38-.887-.426-1.834 1.201-.996-.387-1.823 1.588-.748.199-1.534.377-1.445 1.56-.727 1.33-.847-.626-2.093 1.39-.807.199-1.584.993-1.096 1.985-.359-.297-1.993 1.578-.618.993-.996.993-1.046.755-1.206.288-1.574 1.707-.448v-1.884l.606-1.365 1.043-.996 1.24-.807.596-1.405 1.33-.718.895-1.126h1.985l.229-1.773.556-1.485 1.608-.388 1.112-.877 1.47-.508.08-1.993 1.816-.11.606-1.544 1.092-.927.894-1.146 1.618-.269.596-1.544 1.986.229.397-1.833 1.39-.528.725-1.425 1.181-.807 1.986.438.407-1.993 1.41-.448h1.678l.884-1.256 1.529-.219.794-1.455h1.638l1.142-.867 1.251-.667.844-1.425 1.3-.598 1.103-.996h1.598l1.251-.668.993-1.126.517-.448c.08.15.168.299.238.458l1.33-.598 1.063.499 1.201-.788 1.132-.996 1.35-.438 1.48-.13 1.32-.508 1.39-.409.805-1.165.486-.17 1.39.449.427-1.096c2.72-.927 5.481-1.744 8.261-2.491l.705.398h1.47l1.25-.857 1.4-.269 1.43-.11 1.36-.418 1.282-.817 1.538.568.596-.996A128.02 128.02 0 0 1 121.546 8h.06l1.499.469.566-.788c.661-.086 1.323-.166 1.985-.239l.189.09 1.49.598 1.23-.997h.219l1.37.728h1.42l1.4-.28 1.42.09 1.4-.408.685-.598h2.611l.993.708.993-.698c1.48 0 2.979 0 4.448.1l.219.08.218-.06c.735 0 1.48 0 2.224.1l.397.179.219-.15c4.16.28 8.29.767 12.381 1.425l.13.1h.178c.993.17 1.986.319 2.979.508 0-.16.109-.309.168-.468h.993l1.231 1.116 1.44.08 1.589-.549 1.062 1.724 1.36.419 1.301.607 1.628-.558 1.232.867 1.509-.1 1.042 1.445 1.887-1.225.993 1.534 1.39.339 1.221.817 1.738-.618.933 1.565h1.539l1.39.368.993.2a4.065 4.065 0 0 1 2.125-.997l1.797-.259c.39-.062.78.114.993.449a2.15 2.15 0 0 1 .883-.37c1.986-.278.834 2.322-.695 3.797l.547-.15 1.469.26.993 1.205.784 1.605 1.817-.399 1.112.947 1.599.06.397 2.192 1.857-.37.933 1.216 1.748-.12.377 2.093 1.26.668 2.096-.608.536 1.774.774 1.395 1.51.309 1.181.797 1.778-.14.129.08.456 1.664 1.55.319.992.996 1.38.558.189 1.993 1.3.668 1.093.896.725 1.345 1.678.25 1.529.448.993 1.086v1.993l1.41.598 1.479.518 1.32.717-.198 2.182.993.997 1.787.279 1.251.797.209 1.734 1.39.687.844 1.156 1.24.827.855 1.156.863 1.146 1.093.996.109 1.724 1.27.837.527 1.385.536 1.375 1.52.677.208 1.585.178 1.584 1.48.737.457 1.395 1.985.459-.854 2.182 2.115.408v1.654l1.142.997-.387 1.843.705 1.226 1.102.996.308 1.435 1.817.697v1.575l1.35.996-.884 1.993.576 1.305 1.142 1.056.238 1.445 1.609.897-.367 1.674.873 1.205.884 1.196.923 1.256-.724 1.753 1.479.997-.477 1.654.834 1.235.874 1.236-1.171 1.813 1.4 1.096.695 1.306v.209h-.606c.377 1.514.725 3.049 1.052 4.593l-.615 1.146.933 1.256-.526 1.554 1.152.917c.149.847.288 1.704.427 2.56l-.547.668.725.538c0 .26.09.518.13.777.049.678.128 1.365.218 2.043zm7.168 6.98l-.605-1.386.745-1.504-.457-1.395-.685-.997c-.09-.817-.189-1.644-.288-2.461l.546-.787-.705-.489c0-.288-.07-.568-.11-.847-.04-.279-.138-.856-.198-1.285l.06-.13-.12-.268c-.45-2.89-.98-5.747-1.588-8.57l.07-.996-.557-1.336-.248-1.405-.169-.149c-.109-.438-.208-.887-.327-1.325-.143.22-.306.428-.487.618l-.318-.28.19-1.524.178-1.525-.993-1.185v-1.475l-.05-1.485-.993-1.166v-2.989l-1.777-.877.268-1.614-.596-1.295-.397-1.376-.516-1.335-.179-1.594-.605-1.305-.834-1.196v-1.555l-1.142-.996-.805-1.206-1.2-.996-.428-1.375-.943-1.106-.993-1.096.278-1.764v-1.654l-1.718-.698-.188-1.534-1.728-.628.13-1.744-1.252-.897-1.102-.996v-1.714l-.219-1.574-2.154-.25-.219-1.574-1.4-.747-.695-1.246.288-1.992-1.985-.31-.08-1.614-.705-1.275-.784-1.196-.993-.996-1.49-.638-.138-1.764-1.907-.229-1.25-.777-.865-1.136-.675-1.305-1.34-.688-.626-1.355-1.082-.927v-1.993l-1.777-.209-1.48-.498-.466-1.594-.904-1.116-.645-1.425-1.281.1c-.308-.27-.596-.539-.904-.798l-.178-.936-1.271-.29a76.625 76.625 0 0 0-3.048-2.47l-.278-.688-.705-.09-1.023-.737-.199-1.325-1.43.11-1.062-.778-.278-.359-.298-.05c-.844-.597-1.688-1.195-2.542-1.783l-.208-1.296-1.36.26-1.56-.997-.724-1.505-1.52-.259-.932-1.195h-1.649l-.824-1.435-1.3-.618-1.261-.728-1.36.07a115.82 115.82 0 0 0-3.496-1.803l-.387-.528-.735-.33a3.962 3.962 0 0 1-1.23.41 6.105 6.105 0 0 1-2.652-.09c-1.152-.35-.635-1.804-.179-2.601l-.119-.379-1.4-.358-1.49-.12-1.27-.648-1.172-.926-1.33-.529-1.3-.577-1.47.438-.387-.14-.854-1.285-.993.628a136.71 136.71 0 0 0-8.202-2.511l-.427-.738-1.28-.747-1.52.18-1.37-.4-1.35-.517-1.42-.18-1.5.26-1.24-1.107-.904.718a154.537 154.537 0 0 0-4.786-.797l-.06-.06h-.118c-.695-.11-1.4-.2-2.105-.29l-.546-.487-1.42-.13-.665.28c-1.122-.13-2.244-.24-3.366-.34l-.239-.199-1.42-.06-1.39-.12-1.41-.199-.377.23c-3.485-.18-7-.24-10.524-.15L136.31.35 134.86 0l-1.42.12-1.39.717-1.45-.448-.585.757c-.993.07-1.986.16-2.919.249l-.784-.837-.606.996c-.993.1-1.986.22-2.979.35l-.605-.45h-1.35v.609l-1.5-.459-.576.857-1.896.31-.249-.12-1.529-.479-1.201 1.146h-.08l-1.548-.588-1.42.17-1.36.498-1.43.17-1.3.677-.567.767c-.814.2-1.618.429-2.423.648l-1.191-.449-.834.997c-1.35.388-2.68.807-3.972 1.235h-.437l-.307.23-1.867.627h-.546l-.218.27a146.675 146.675 0 0 0-11.399 4.563h-.278l-.199.24-.774.996-1.36.448-1.152.857-1.718-.17-1.171.848-.814 1.444-1.927-.587-1.28.617-1.37.489-.755 1.544-1.48.299-.993 1.196-1.777-.17-.258 2.242-1.817-.189-1.112.897-1.38.508-.497 1.784-1.817-.1-.804 1.305-.993.997-.993 1.096-1.32.618-1.51.378-1.27.698-.328 1.843-.824 1.226-1.49.448-1.767.13-.198 1.803-1.251.738-.576 1.534-2.175-.279-.149 1.883-1.41.598-.238 1.764-2.125-.08-.893 1.126.248 2.173-1.827.259-1.48.588-.476 1.484-.913 1.166v1.873l-1.758.389-.357 1.544-.993.997-.526 1.385-1.986.259-.586 1.335-.814 1.176-1.261.857-.05 1.704-.218 1.564-.904 1.106-1.986.409-.298 1.495-.168 1.574-.358 1.435-2.154.378-.685 1.266.278 1.784-.388 1.385-1.539.787-.129 1.534-.734 1.226-.259 1.435-.675 1.245-.635 1.266-.338 1.475-1.45.906-.089 1.515-.804.996-.09.12v.06a1.78 1.78 0 0 1-.119.867c.487.259.378.996 0 1.833 1.837-.259.993 1.993-.367 3.468 1.748.299-.933 4.474-2.77 4.753a7.496 7.496 0 0 1-1.082 1.255c-.1.32-.209.648-.298.997l-.199.18v.408c-.139.468-.268.996-.407 1.415l-1.082.697-.328 1.395.12 1.505-.706 1.305.477.827c-.338 1.405-.645 2.81-.933 4.225l-.894.508-.268 1.405.377 1.525-.576 1.345.348.608c-.11.638-.189 1.285-.288 1.933l-.308.319.11.857c-.212 1.494-.401 2.999-.567 4.514l-.307.279.238.378c-.08.767-.149 1.535-.219 2.292l-.148.19.099.438c-.09 1.056-.169 2.102-.229 3.158l-.814.628.735 1.086a141.372 141.372 0 0 0-.169 6.497l-.864.997.695 1.415-.774 1.454.993 1.086c0 .847.09 1.704.139 2.561l-.645.638.704.598c.06.937.14 1.883.219 2.82l-.834.877.923 1.355.12.15c.069.687.148 1.374.228 2.062l-.536.678.675.478c.09.747.169 1.495.278 2.242v.05l-.189 1.464.586.847c.05.31.09.628.149.997l-.387.996.734.997c.417 2.361.904 4.693 1.44 6.975l-.11.329.15 1.435.556.677c.139.578.288 1.146.437 1.704v.309l.278 1.405v1.495l.883.747c.278.996.576 1.913.874 2.86v.348l.199.16c.218.658.427 1.325.645 1.993l-.308.687.646 1.286.268 1.425.774.448c.483 1.295.99 2.58 1.52 3.856l-.289 1.056.586 1.306 1.738.797v1.554l.496 1.346.993 1.116-.417 1.793 1.38.907 1.112.996 1.063.997.427 1.375-.626 1.993 1.926.548-.218 1.774.506 1.365.795 1.195 2.075.379.139 1.594.824 1.156.993 1.076.883 1.116-.119 1.824.993.996 1.231.867 1.55.618-.448 2.132.993.997 1.013 1.026 1.569.558.486 1.445.586 1.365.914.439c.397-.41.904-.698 1.46-.827.655-.09.992.13.992.528.646-.07.933.199.993.637a1.98 1.98 0 0 1 .576-.189c1.986-.289.794 2.421-.775 3.886l1.281.16.606 1.375.129 1.873 2.174-.16.497 1.515 1.549.439.774 1.245 1.172.827.377 1.694 1.728.2.07 2.082 1.985-.17.477 1.645 1.4.538.496 1.664 1.271.697 2.036-.15.883 1.187.765 1.365 1.28.667h.596c1.4.997 2.81 1.993 4.25 2.91l1.986 1.275.198.558 1.38.469 1.152.847.933 1.215h1.4l.497.29.705.946.705-.15 1.33.718.248 1.226 1.172-.469c.775.409 1.549.797 2.333 1.196l.338 1.166 1.092-.459 1.182.568.327 1.097h1.966l1.51.677.436 1.076h1.55l.992 1.276 1.44.249 1.36.428h1.53c.873.32 1.757.618 2.64.927l1.261.707 1.251.768.854-.349 2.502.777.815.558 1.33.538 1.231.897 1.41.27 1.53-.26.625-.14c1.38.34 2.77.648 4.17.937l.625 1.096 1.54-.657h.109l1.22.867.994-.469c.993.18 1.986.339 3.048.498l.288.23 1.4.289h1.43l1.31.996 1.45-.06 1.4.369 1.45-.27 1.529-1.304 1.32 1.424 1.48-.946 1.35 1.504 1.42.22 1.46-1.336 1.4 1.316 1.429-1.176 1.42-.09 1.41-.478 1.46 1.754 1.36-1.754 1.479 1.345 1.37-.996 1.44.309 1.4-.429 1.5.947 1.409-.349 1.42-.1 1.231-1.753 1.53.807 1.4-.24 1.459.16 1.34-.648 1.31-.757 1.49.27 1.33-.629 1.609.837 1.261-.926 1.44-.11 1.201-1.206 1.668.857.993-1.654 1.807 1.276.933-1.993 1.58.349 1.19-.997 1.6.379 1.15-1.076 1.679.538 1.142-1.067 1.062-1.235 1.33-.468 1.698.468 1.42-.28 1.291-.617 1.072-1.126 1.34-.478.636-.508a2.91 2.91 0 0 1 0 .309c1.3-.568 2.582-1.166 3.863-1.774l.863.1 1.093-.997 1.38-.418.228-.429c1.42-.717 2.81-1.465 4.19-2.232l.695.13.467-.778.993-.558 1.161.14.685-1.236.467-.279 1.132-.219 1.35-.538 1.053-.996 1.191-.788 1.5-.319.903-1.205 1.122-.887.735-.996c.844-.598 1.668-1.216 2.492-1.834l1.47-.428.079-.748 1.33-1.056.934.17 1.171-.828.993-.996.735-1.345v-.13c.526-.448.993-.897 1.549-1.355l1.25.26v-1.177c.646-.578 1.282-1.175 1.917-1.763l.993-.23v-.747l1.48-1.445.287-.05 1.232-.787.665-1.335 1.062-.996 1.132-.887.248-.758c.636-.687 1.271-1.375 1.887-2.072a4.897 4.897 0 0 1-.258-.997l.07-.169 1.111-.907.834-1.146h2.234l-.446-2.202.794-1.176 1.847-.358.298-1.565 1.886-.358-.477-2.123 1.41-.737.537-1.355.714-1.236.735-1.206 2.105-.319-.377-1.943 1.539-.707-.209-1.804.467-1.375 2.264-.319-.556-1.992 1.499-.788.11-1.564.754-1.206 1.43-.857.566-1.325-.705-1.863 1.23-.997v-1.564l1.987-.658.486-1.345-.457-1.754.209-1.445 1.062-1.096v-1.544l2.274-.638.357-1.395.298-1.425-.198-1.584.824-1.216-.646-1.714 1.142-1.126-.178-1.534.367-1.375.308-1.385 1.41-1.086-.576-1.615 1.28-1.146v-1.464l.07-1.445.278-1.395 1.48-1.146-1.39-1.734 1.707-1.136.536-1.355-.705-1.564.219-1.405.07-1.435v-.997l-.318-.08c-.507-.1-.676-.647-.705-1.076v-.12c-.376.36-.843.609-1.35.718-2.672.379.337-4.484 2.303-4.753.596-.09.903.1.993.429l.834-1.126-.239-1.455-1.072-1.505 1.271-1.345-.159-1.445.626-1.405.178-1.425-.992-1.136v-.627l.992-1.106-.228-1.435-.596-1.425-.149-.24c0-1.205-.06-2.41-.109-3.626l.199-.409-.239-.369c0-.597-.069-1.195-.109-1.793z"/></g><g><path fill="#dc1414" d="M220.299 129.113V130l.357.837-.794.997.278.847.08.867-.259.886.616.827.456.857-.05.877-.863.897.357.857.417.877.259.867-.993.857v.867l.645.896.199.887-.656.837.308.887-.129.867.179.897-.14.867-.118.867.06.886-.686.788.189.906-.368.827-.357.818.357.946-.586.777-.605.768.327.996-.407.797.656 1.047-1.301.577.735 1.087-.715.707.06.927-.993.627-.229.838v.916l-.476.748.486 1.096-.665.687.169.997-1.232.458-.307.807v.997l-.517.717.308 1.086-.874.568-.139.887-.139.907-.168.887-1.073.438.209 1.086-.914.508-.178.887-.14.927-1.28.269.129 1.086-.258.857-.11.08c-.079-.1-.168-.19-.238-.29a62.54 62.54 0 0 1-1.529 2.442l-.754.22-.14.996-.883.438.1.887a42.18 42.18 0 0 1-.914 1.285l-.517-.08.09.549-.288.388-.765.997h-.715l-.168.996v.1l-.805.996-.516.05.07.478-.904 1.056-.765.489-.158.568-.417.468-.636.2-.208.697a91.582 91.582 0 0 1-3.108 3.109h-.189l-.715.508-.188.458-.854.778-.12.06-.694.527-.834.35-.199.647-1.46 1.186-.168.05v.119c-.338.269-.676.538-.993.797h-.447l-.635.608-.775.389-.139.518c-.695.498-1.39.996-2.095 1.455h-.645l-.715.488-.15.538-1.33.827-.556.279-.129.14-.794.468-.804-.13-.507.867a74.57 74.57 0 0 1-2.64 1.395l-.636-.229-.229.668-.774.368-.467-.1-.844.23-.774.388-.179.529a94.862 94.862 0 0 1-4.031 1.644l-.576-.19-.764.429-.576.448-1.48.498-.456-.279-.795.37-.754.477-.08.09c-.675.19-1.35.389-1.986.568h-.417l-.228.17-.913.239-.606-.27-.715.578h-.09l-.843-.05-.239.29c-.523.12-1.059.229-1.608.328l-.755-.428-.377.638c-.993.17-1.986.339-2.979.478l-1.37.17-.387-.2-.318.29-.844.089-.586-.508-.496.607-.775.07-.426-.229-.775.319h-.1l-.863-.528-.854.189-.467.458h-1.479l-.645-.269-.864.13-.278.16c-1.56 0-3.118 0-4.667-.14l-.248-.22-.854.14h-.08l-.804-.14-.824-.418-.725.349h-.436l-.576-.339-.348.24-.993-.13-.387-.628-.556.488-1.608-.249-.398-.598-.536.439-.804-.14-.357-.588-.924.23-.189.05-.992-.22-.378-.578-.923.17-.725-.678h-.884l-.844-.17-.903.1-1.837-.558-.635-.339-.755-.468-.496.19c-.527-.18-1.053-.36-1.57-.559l-.436-.338-.784-.39-.686-.627-.814-.269h-.943l-.993.05-.774-.409-.874-.179-.377-1.245-.993.149-.606-.737-1.052.169-.834-.289-.537-.847-.724-.468-.825-.31-.486-.886-.814-.329-.665-.568-.864-.249-.924.21a2.8 2.8 0 0 1-1.837 1.325h-.218c-1.052.15-1.182-1.126-1.102-1.993a3.976 3.976 0 0 1-1.122-.997 4.68 4.68 0 0 1-.993-1.993v-.299l-.457-.308-.854-.32v-1.394l-1.33.259-.13-1.216-.992-.13-.497-.757-.774-.428-.208-1.066-.725-.489-.606-.617-1.3.09-.2-1.047-.635-.588-.437-.787-.794-.448-.824-.419-.347-.857-.745-.508-.05-1.106-.864-.409-.466-.737-.993-.339v-1.136l-1.182-.19.288-1.314-.754-.05-.695-.947v-.08l-.09-.06-.744-1.076v-.378l-.388-.22-.427-.627v-.708l-.794-.518a59.83 59.83 0 0 1-1.231-1.993v-.279l-.298-.837-.487-.717-.526-.399c-.675-1.215-1.32-2.45-1.986-3.697v-.508l-.605-.677-.239-.847-.228-.15a64.938 64.938 0 0 1-1.162-2.7l.12-.379-.398-.329c-.089-.229-.188-.448-.278-.677l.19-.668-.636-.528-.14-.388v-.648l-.138-.867-.437-.767-.268-.827.07-.927-.537-.747-.288-.817-.377-.588a61.244 61.244 0 0 1-.507-1.933l.11-.867-.378-.23c-.08-.348-.149-.687-.228-.996l.328-.448-.12-.857-.288-.827-.486-.798a48.54 48.54 0 0 1-.228-1.275l.446-.488-.575-.369a48.21 48.21 0 0 1-.199-1.265v-.35l.238-.557-.347-.28-.15-1.285.07-.13.1-.886-.358-.827v-.887l.07-.877-.209-.398c-.09-1.455-.139-2.9-.149-4.345l.536-.468-.546-.448v-1.993l.17-.19-.15-.328v-.838l.536-.548-.486-.478c.08-1.415.198-2.82.347-4.215l.656-.468-.517-.698c0-.199 0-.398.08-.597l.387-.459-.258-.458c.08-.578.169-1.156.268-1.734l.606-.339-.447-.628c0-.279.109-.568.169-.847l.268-.289-.12-.508c.1-.478.2-.996.308-1.435l.536-.568.14-.856-.249-.409c.219-.897.447-1.784.695-2.66l.497-.26.188-.847-.208-.528a80.07 80.07 0 0 1 1.092-3.298l.675-.22.219-.836.178-.857-.07-.797c.05-.14.11-.27.17-.409l.357-.478-.07-.25a80.182 80.182 0 0 1 1.986-4.433l.18-.09v-.22c.198-.408.406-.816.615-1.225l.188-.11.13-.508c.367-.707.754-1.405 1.141-2.112l.705-.25-.218-.617.476-.807.517-.13.605-.647v-.997a73.795 73.795 0 0 1 2.324-3.507l.159-.09.288-.558.178-.25.874-.368.348-.817v-.438l.516-.987.427-.1.427-.757.814-.458.615-.618v-1.056l.388-.06c-.15-1.534 1.092-4.265 2.571-4.464a.813.813 0 0 1 .904.399l.129-.499 1.102-.12.407-.826.993-.22.496-.727.328-.926.457-.798h1.171V77.16l1.053-.09.516-.747.725-.488.367-.638.348-.25.655-.208.616-.628.824-.349.854-.299.625-.618.745-.448.397-.996.914-.18.923-.18.526-.786.874-.25.864-.239.556-.767.893-.19.904-.149.367-1.156h.993l.745-.448.814-.319.785-.358.903-.1.775-.379.724-.518h.993l.656-.668.754-.438.675-.688.864-.179.745-.488.754-.478.993.338.993.21.606-.997.933.1.636-.927.993.359.744-.578.785-.458.992.368.993.2.626-1.166.943.249.765-.598.883-.06.993.698.715-.997.993.419h1.748l.843-.19.815-.568.923.548.794-.827.854-.328h.874l.884.189.854-.349.883.26.874-.09.874.847.864-.668.873-.399.864.528.864.16.844.408.913-.837.824.738.894-.399.794.17.874-.1.814.578.924-.399.754.997.993-.618.824.379.934-.3.854.16.685 1.066.993-.667.804.418.735.718.913-.16.764.518.993-.279.715.698.864.12.824.258.993-.249.814.31.894.05.685.697.834.249h1.34c0 .1-.05.199-.089.299l.794.309.249.667.853.19.904.06.774.398.695.578.785.358.764.409.844-.16.288.14.407.797.656-.289a79.994 79.994 0 0 1 4.627 2.501l.129.469.625.647.904.17.715.498.665.568.764.409.904.199.427.907.675-.16a67.542 67.542 0 0 1 2.413 1.754l.447.847.575-.1.993.767v.12l.378.897.993.11.099.09.278.906.606.628.724.478.576.658.775.428h.546l1.062 1.136.11.717.744.14a59.565 59.565 0 0 1 1.867 1.993l.06.13.118.06.924.996.09.249h.158a79.948 79.948 0 0 1 4.726 5.978v.1l.1.06c.357.498.734.996 1.082 1.524l.268-.14.427.44.05.996.585.657.914.449-.308 1.225.218.419a.993.993 0 0 1 .805-.518c1.926-.28 4.14 4.075 2.63 5.072l-.218.996.447.747.179.877.993.489-.268 1.076.665.657.447.758.496.737.14.887v.996l.158.867.993.558.526.747-.09.997-.357.996.993.608.07.897.655.707-.755 1.126.993.638-.119.927.804.707-.744 1.067.268.827 1.162.647-.537.997-.258.936.517.788.168.847.824.707a.29.29 0 0 0 0 .09l-.516.916zm3.971 5.98l.338-.888-.596-.518c0-.239 0-.488-.05-.727l.328-.489-.427-.647c-.08-.797-.159-1.595-.258-2.382l.178-.418-.268-.349c0-.25-.07-.508-.099-.767l.477-.658-.666-.578-.119-.787v-.279l-.109-.15c-.11-.617-.218-1.245-.338-1.863l.477-.648-.705-.478c-.07-.368-.149-.747-.228-1.116l.337-.996-.546-.768.11-.926-.705-.718.258-.996-.338-.817-.218-.847-.606-.558a153.15 153.15 0 0 0-.735-2.282l.06-.399-.318-.817-.268-.309c-.189-.548-.397-1.086-.606-1.634l.358-.647-.447-.758-.596-.707-.268-.827-.11-.897-.347-.807-.307-.817-.785-.449c0-.07-.07-.15-.109-.229l.189-.917-.705-.169c-.755-1.534-1.56-2.99-2.403-4.534-.23.189-.503.316-.794.369-1.192.17-1.301-1.256-.844-2.69a5.103 5.103 0 0 1-.844-2.193l-.477-.338-.06-.997-.695-.08a70.234 70.234 0 0 0-1.717-2.41h-.06l-.784-.997v-.449l-.556-.667-.407-.17c-.427-.538-.864-1.066-1.301-1.604v-.18l-.586-.637-.566-.658-.526-.697-.258-.07a83.65 83.65 0 0 0-4.468-4.614v-.398l-.447-.797-.685-.538-.914-.29-.426-.826-.576.07-1.39-1.226v-.698l-.686.16-1.4-1.156-.089-.449-.576-.588-.268.26-.447-.847-.615.12-.993-.688-.06-.16-.446-.867h-.993l-.398-.926-.685-.539-.804-.368-.685-.548-.854-.27-.566.08-1.33-.767-.308-.707-.804.07c-.745-.41-1.5-.808-2.254-1.196l-.179-.19h-.238l-1.073-.538-.228-.239h-.189a91.836 91.836 0 0 0-6.87-2.99l-.11-.139h-.188l-.735.07-.784-.388-.864-.13-.656-.767-.863-.14-.993.26-.656-1.057-.824-.289-.794-.389-.993.34-.764-.509-.914.11-.695-.837-1.082.847-.695-.867-.864-.09-.814-.379-.993.558-.735-.827-.913.21h-.864l-.884.07-.834-.31-.814-.488-.844-.249-.933.648-.874.18-.834-.46-.824-.707-.904.688-.854-.23-.873.41-.844-1.057-.874.747-.864-.358-.864.627-.873-.996h-.08c-.437 1.285-1.31 2.56-2.293 2.7a.823.823 0 0 1-.914-.418 2.867 2.867 0 0 1-1.986-1.136l-.178-.23-.477.499-.923-.588-.815.508h-.873l-.824.369-.993-.757-.834.318-.854.15-.904-.17-.754.708-.765.578-.864.09-.993-.688-.774.518-.745.598-.774.468-1.092-.767-.834.25-.646.886-.764.468-.993-.328-.715.607-.844.21-.735.518-.824.249-.824.269-.745.458-.993-.239-.685.618-.794.09h-.1l-.883.13-.288.408-.913.388h-1.34l-.567.837-.873.17-.14.408-.893.459-.715-.33-.179.728-.993.508h-.168l-.16.19-.784.428-.695-.16-.734.46-.596.707-.864.249-.149.568c-.745.458-1.49.926-2.224 1.415l-.596-.17-.715.488-.496.818-.824.338-.11.409-.992.707h-.268l-.318.419a91.082 91.082 0 0 0-2.174 1.704h-.259l-.06.259-1.081.897h-.14l-.148.229c-.487.418-.993.827-1.45 1.255l-.626-.08-.148.788a92.738 92.738 0 0 0-2.483 2.361c.755 1.415.904 3.08-.427 3.269a2.441 2.441 0 0 1-1.985-1.166v.438c-.358.379-.695.768-.993 1.156h-.556v.568c-.378.429-.745.867-1.122 1.305h-.735l-.179.997v.12l-.794.996-.516.06.089.498c-.288.359-.576.717-.854 1.086l-.715.548-.1.618c-.118.16-.237.309-.347.468l-.615.29-.11.747a79.908 79.908 0 0 0-2.392 3.637l-.189.09-.546.687-.06.528-.536.927-.129.13-.486.727-.666.627.06.698a125.62 125.62 0 0 0-.844 1.614l-.169.14v.149l-.576 1.136-.427.16-.278.836-.496.728.149.528c-.199.438-.387.887-.576 1.325.655 1.365.735 2.88-.536 3.06-.148.029-.3.029-.447 0l.08.199-.676.677-.357.787-.06.897-.993.598.209.996v1.834l-.407.777-1.112.578.595 1.066-.853.668-.368.807-.179.857.735 1.066-.625.747-.14.857-.059.867-.09.867-.843.728v.886l.159.907.407.927-1.112.727v.877l.129.887.437.917-.407.837-.328.837.308.896-.715.828.367.886-.298.857.695.887-.327.857-.745.867.993.867-.437.867.477.857-.199.877.149.857-.566.896.655.827-.863.937.992.797-.506.917.377.837-.506.927.208.697c1.986.28 4.051 4.932 1.778 5.251-.154.03-.313.03-.467 0 .1.568.199 1.136.318 1.694l.298 1.415-.15.32.398.796.129.867-.12.927.616.588.09.329-.1.717.368.24.268.886-.427.638.705.299c.159.508.328.996.496 1.524l-.357.658.665.269.268.757-.327.608.675.678.188.159.358.996-.268.658.675.668-.11.996.507.728.407.777.675.647c.239.519.497.997.745 1.545l.238.847.209.867.516.22c.248.477.487.946.745 1.414l.11.588.347.807.149.927.486.727.765.548.327.21c.457.737.924 1.474 1.4 2.202l-.198.747.993.379v.06l.158.896.606.21 1.102 1.524v.23l.477.727.625.607.13.997.645.598.447.767.744.508 1.212.1v1.186l.992.229-.02 1.195.517.708 1.201.06v1.166l1.122.11.646.577.814.409-.12 1.375 1.341-.17.06 1.216.993.17.486.757.784.408.239 1.066.754.449.656.578 1.29-.22.308.997.705.498.566.708.854.299.884.239.526.757.844.309.337 1.056.934.15.675.568h.993l.347 1.086 1.162-.26.228 1.336 1.251-.449.527.827.933.11.526.857h.993l.487.996h.993l.992-.08.775.38.526.926.735.498.814.29h.993l.774.378.497.05-.189.16c.795.318 1.609.617 2.413.906l.338.418h.903l.775.409.278-.08a97.86 97.86 0 0 0 2.77.847l.238.359.536-.14.655.18.447.568.824-.24.318.08.586.399.814.349h.884l.774.16a1.155 1.155 0 0 1 .993-1.276c.854-.12 1.758.667 2.383 1.674h.08c.486-.997 1.21-1.834 1.985-1.943 1.102-.16 1.271 1.066.924 2.391l.993.12.327.478.864.15h.874l.893-.26h.07l1.241.09.387.558.497-.508 1.578.07.537.338.337-.308H139l.14.1.863.198.864-.289h.874l.863.1.437-.22 1.698-.069c.086-.193.193-.377.318-.548h.1l.863.09.854-.13.993.947.754-1.146.854-.16.943.638.805-.538.993.668.705-1.136.923.299.814-.349.834-.23.844-.198.993.777.675-.997.993.36.685-.868.785-.378 1.112.837.605-1.087.308.1c.447-1.226 1.3-2.391 2.244-2.53.735-.1 1.052.418 1.082 1.165.302.088.582.237.824.438l.417-.877.993.11.675-.677 1.132.577.785-.368.556-.997.715-.528h.923l.655-.677 1.261.807.755-.449.735-.488.595-.767.884-.17.457-.996h.993l.585-.737.745-.429.725-.468 1.072.14.447-.997 1.043.06.625-.628.655-.588.715-.478 1.132.14.16-1.316 1.22.25.815-.36.367-.996.695-.518.645-.588.596-.638.626-.608.933-.219.596-.638.993-.15.516-.727.189-1.116h1.121l.557-.687.873-.339.685-.538.08-.897.278-.279.883-.06.517-.717.347-.867v-.17c.427-.438.834-.876 1.251-1.325.28-.94.86-1.762 1.649-2.341l.168-.12c-.526-1.056 1.688-4.195 3.267-4.414.189-.048.387-.048.576 0l.208-.279h.08l.06-.16a77.451 77.451 0 0 0 2.978-4.384l.467-.408.337-.807.487-.718v-.14c.149-.239.298-.468.437-.707a2.583 2.583 0 0 1-.477.05v-.26l.735-.567.725-.578.08-.996.615-.648.615-.658.06-.996.635-.648.656-.648-.388-1.145.805-.578.307-.818.417-.767.348-.797.606-.687.297-.818.16-.876.665-.558v-.947l.168-.857-.089-.947.407-.777.07-.887.06-.886.873-.638.725-.698-.487-.996.576-.738-.476-.996.804-.697-.15-.927-.059-.897.755-.727.576-.768-.824-.996.585-.767-.288-.927.239-.837.993-.737-.705-.997.655-.787.238-.847.18-.857v-.877l-.398-.907.695-.817-.685-.916-.209-.877.12-.857.268-.857-.288-.867.317-.867-.07-.867.855-.867-.675-.867-.427-.847.486-.886z"/></g><g><path fill="#dc1414" d="M33.373 80.556a9.957 9.957 0 0 1 3.368-3.74 9.593 9.593 0 0 1 4.291-1.505 13.8 13.8 0 0 1 4.729.42 20.342 20.342 0 0 1 4.649 1.893c1.47.818 2.83 1.823 4.043 2.991a13.952 13.952 0 0 1 2.89 3.779 9.82 9.82 0 0 1 1.054 4.437 9.997 9.997 0 0 1-1.371 4.845 9.837 9.837 0 0 1-3.398 3.729 9.593 9.593 0 0 1-4.212 1.465 13.542 13.542 0 0 1-4.728-.428 19.555 19.555 0 0 1-4.689-1.775 20.12 20.12 0 0 1-4.053-2.99 13.635 13.635 0 0 1-2.88-3.84 9.56 9.56 0 0 1-1.054-4.426 9.937 9.937 0 0 1 1.361-4.855zm-6.631 4.512c-.142 2.258.196 4.52.992 6.636a17.947 17.947 0 0 0 3.555 5.81 22.597 22.597 0 0 0 12.56 6.975 17.81 17.81 0 0 0 6.792-.08 15.533 15.533 0 0 0 6.086-2.77 18.102 18.102 0 0 0 6.88-12.476c.177-2.249-.134-4.51-.913-6.626a18.116 18.116 0 0 0-3.554-5.81 22.626 22.626 0 0 0-12.56-6.974 17.81 17.81 0 0 0-6.792.07 16.057 16.057 0 0 0-6.106 2.74 16.475 16.475 0 0 0-4.746 5.54 16.713 16.713 0 0 0-2.194 6.965z"/></g><g><path fill="#dc1414" d="M38.72 62.995L58.449 42.07l3.892 3.697-7.735 8.22L76.45 74.733l-4.27 4.524-21.843-20.756-7.715 8.181z"/></g><g><path fill="#dc1414" d="M79.74 27.444l5.779-2.282 11.01 28.09 14.1-5.56-11.021-28.1 5.778-2.282 11.012 28.1 5.361-2.113 5.183 13.213-5.808 2.282-3.217-8.21-25.22 9.964z"/></g><g><path fill="#dc1414" d="M124.23 13.537l25.498-.827.178 5.38-19.302.619.298 9.316 17.872-.578.16 5.082-17.873.578.338 10.403 19.65-.668.168 5.381-25.815.837z"/></g><g><path fill="#dc1414" d="M163.295 14.43l5.957 1.823-4.14 13.532 15.42 4.753 4.15-13.522 5.957 1.834-10.475 33.999-5.957-1.834 4.706-15.335-15.43-4.753-4.696 15.335-5.957-1.833z"/></g><g><path fill="#dc1414" d="M207.346 77.338l4.823 3.915 22.312-27.663-4.823-3.915zM196.99 47.304l7.07 5.73a8.02 8.02 0 0 1 1.469 1.584c.455.594.793 1.27.993 1.993a5 5 0 0 1 0 2.331 6.116 6.116 0 0 1-1.291 2.551 7.097 7.097 0 0 1-2.194 1.933 4.495 4.495 0 0 1-2.185.568 4.712 4.712 0 0 1-2.085-.498 10.371 10.371 0 0 1-1.986-1.285l-7.139-5.79zm-15.4 9.227l12.163 9.865a14.967 14.967 0 0 0 5.47 2.989 9.647 9.647 0 0 0 4.578.19 9.288 9.288 0 0 0 3.614-1.685 15.006 15.006 0 0 0 2.612-2.49 14.358 14.358 0 0 0 1.866-3.07 9.385 9.385 0 0 0 .864-3.876 9.573 9.573 0 0 0-1.162-4.434 15.13 15.13 0 0 0-4.11-4.713l-7.338-5.979 8.549-10.622-4.825-3.916z"/></g><g><path fill="#dc1414" d="M63.949 198.32a9.64 9.64 0 0 1-.596 4.513 14.08 14.08 0 0 1-2.481 4.065 20.544 20.544 0 0 1-3.723 3.349 20.103 20.103 0 0 1-4.437 2.321 13.929 13.929 0 0 1-4.655.907 9.538 9.538 0 0 1-4.417-.996 11.06 11.06 0 0 1-5.569-8.072 9.62 9.62 0 0 1 .596-4.504 13.87 13.87 0 0 1 2.481-4.065 20.259 20.259 0 0 1 8.15-5.68 13.979 13.979 0 0 1 4.655-.906 9.578 9.578 0 0 1 4.427.996 10.069 10.069 0 0 1 3.722 3.378 10.036 10.036 0 0 1 1.847 4.693zm-2.97-12.636a15.729 15.729 0 0 0-6.345-2.102 17.702 17.702 0 0 0-6.762.618 21.314 21.314 0 0 0-6.533 3.128 21.88 21.88 0 0 0-5.222 5.102 17.903 17.903 0 0 0-2.98 6.148 15.768 15.768 0 0 0-.237 6.686 18.175 18.175 0 0 0 8.082 11.748 15.66 15.66 0 0 0 6.324 2.113c2.273.232 4.569.022 6.762-.618a22.588 22.588 0 0 0 11.796-8.2 18.152 18.152 0 0 0 2.978-6.149c.558-2.188.646-4.47.258-6.696a16.472 16.472 0 0 0-2.83-6.726 16.308 16.308 0 0 0-5.291-5.052z"/></g><g><path fill="#dc1414" d="M74.258 203.55l4.964 3.737-8.46 11.32 12.908 9.715 8.46-11.32 4.964 3.737-21.268 28.458-4.964-3.737 9.561-12.834-12.907-9.715-9.592 12.834-4.964-3.737z"/></g><g><path fill="#dc1414" d="M98.91 221.53l5.888 1.993-5.104 15.365 20.087-10.353 7.248 2.421-17.872 8.968 7.635 25.08-7.347-2.46-5.68-19.8-6.384 3.169-3.763 11.34-5.888-1.993z"/></g><g><path fill="#dc1414" d="M135.21 261.068a5.945 5.945 0 0 0 3.475-1.315 6.975 6.975 0 0 0 2.304-3.259l-12.739-25.549 7.397-.308 8.936 19.52h.1l7.406-20.208 6.95-.289-10.633 26.575a17.65 17.65 0 0 1-5.124 7.613 11.889 11.889 0 0 1-7.069 2.57h-1.569c-.417 0-.814 0-1.221-.099l-.218-5.37 1.042.109c.32.022.642.025.963.01z"/></g><g><path fill="#dc1414" d="M168.463 231.37l8.561-3.328a10.57 10.57 0 0 1 2.274-.608 4.673 4.673 0 0 1 2.136.16c.725.237 1.38.65 1.907 1.205a7.448 7.448 0 0 1 1.5 2.52c.381.892.545 1.863.476 2.83a4.993 4.993 0 0 1-.745 2.213 5.97 5.97 0 0 1-1.53 1.634c-.578.415-1.21.75-1.876.997l-8.482 3.288zm5.146 30.68l5.778-2.242-4.905-12.734 8.798-3.408a15.35 15.35 0 0 0 5.361-3.229 9.71 9.71 0 0 0 2.453-3.866 9.348 9.348 0 0 0 .357-3.986 13.87 13.87 0 0 0-2.572-6.666 9.316 9.316 0 0 0-2.929-2.7 9.556 9.556 0 0 0-4.408-1.226 14.65 14.65 0 0 0-6.136 1.206l-14.556 5.63z"/></g><g><path fill="#dc1414" d="M186.66 218.223l20.056-15.843 3.327 4.225-15.162 11.957 5.749 7.314 14.03-11.11 3.137 3.986-14.02 11.11 6.425 8.17 15.43-12.216 3.325 4.215-20.304 16.093z"/></g><g><path fill="#dc1414" d="M208.17 200.934l3.376-5.221 11.855 7.702 8.777-13.581-11.825-7.703 3.376-5.231 29.707 19.4-3.376 5.232-13.414-8.729-8.777 13.582 13.404 8.689-3.376 5.221z"/></g><g><path fill="#dc1414" d="M224.64 174.79l6.702-27.99 5.203 1.265-2.641 10.961 29.24 7.095-1.46 6.048-29.24-7.084-2.631 10.96z"/></g><g><path fill="#dc1414" d="M236.616 138.998v-.15l15.201-5.443.08 10.868zm29.42 16.68l-.05-6.426-9.413-3.269-.099-14.199 9.353-3.408V121.7l-35.337 13.95.05 6.627z"/></g></g></g></svg>