<?xml version="1.0" encoding="UTF-8"?>
<svg width="140px" height="191px" viewBox="0 0 140 191" version="1.1" xmlns="http://www.w3.org/2000/svg" xmlns:xlink="http://www.w3.org/1999/xlink">
    <!-- Generator: Sketch 53.2 (72643) - https://sketchapp.com -->
    <title>Combined Shape</title>
    <desc>Created with Sketch.</desc>
    <g id="Home" stroke="none" stroke-width="1" fill="none" fill-rule="evenodd">
        <g id="TS_1440-Home" transform="translate(-532.000000, -7773.000000)" fill="#F4F6F8">
            <g id="Group-4" transform="translate(602.000000, 7868.500000) rotate(-90.000000) translate(-602.000000, -7868.500000) translate(506.500000, 7798.500000)">
                <path d="M27,70 C27,73.76925 27.127535,78.4166394 27,84 C27.6376824,89.3141298 28.4347759,94.5704875 30,100 C31.1130502,104.698743 33.2492607,109.025623 36,113 C39.1159567,116.205146 43.3246103,118 49,118 C54.4203179,118 58.7246227,116.205146 62,113 C64.7188556,109.025623 66.8869498,104.698743 68,100 C69.5652241,94.5704875 70.3623176,89.3141298 71,84 C70.872465,78.4166394 71,73.76925 71,70 C71,67.6153731 70.9681163,64.8269394 71,62 C70.8405794,58.2884452 70.5855095,54.9230942 70,51 C69.6927514,47.9999827 69.0550766,44.5705298 68,41 C67.3970973,37.775624 66.1536315,34.7307827 64,32 C62.8376729,29.3461404 60.7333461,27.166675 58,25 C55.6318713,23.833325 52.5072649,23 49,23 C45.1101264,23 42.0174037,23.833325 40,25 C37.0434658,27.166675 35.0029065,29.3461404 33,32 C31.8144848,34.7307827 30.571019,37.775624 30,41 C28.7855028,44.5705298 28.147828,47.9999827 28,51 C27.3826068,54.9230942 27.1594206,58.2884452 27,62 C27.0318837,64.8269394 27,67.6153731 27,70 Z M95.1767155,36.6293755 C95.428062,35.7373618 95.7022847,34.8601918 96,34 C97.9909314,26.8953912 101.134869,21.0130971 105,16 C109.518828,10.9476873 114.791473,7.02615784 121,4 C127.49841,1.40521471 134.801515,0 143,0 C149.342444,0 155.335575,0.980382353 161,3 C166.732519,4.90197059 171.743169,7.7124 176,11 C180.389127,15.032698 183.827808,19.5424569 186,25 C188.936783,30.2614647 190.214008,36.2744765 190,43 C190.214008,49.8693157 189.10053,55.8169686 187,61 C184.646552,65.7516588 181.69911,70.1633794 178,74 C174.363146,77.8758363 170.203979,81.3725333 166,85 C160.903025,87.6470745 156.219868,90.7516186 152,94 C146.787914,96.8954402 142.203005,100.196061 138,104 C133.295049,107.25492 129.365127,111.372525 126,116 L191,116 L191,140 L90,140 C90,132.026104 91.1462272,125.098069 93,119 C95.7312047,113.333304 98.8423928,108.071919 103,103 C106.702354,98.7908265 111.320012,94.5098235 117,91 C121.93096,86.6666471 127.531099,82.6797588 133,79 C136.439055,76.5359373 139.648491,74.4117755 143,72 C146.460458,70.0980284 149.571646,67.7124314 152,65 C155.204618,62.4836471 157.562572,59.5425 159,56 C161.361553,53.0065196 162.311284,49.2810667 162,45 C162.311284,38.4313392 160.379073,33.2353127 157,30 C152.65011,25.7842951 147.704959,23.9215686 142,24 C137.618008,23.9215686 134.179327,24.8692716 131,27 C128.546354,28.6601402 126.286649,31.1437755 125,34 C122.880666,37.2875971 121.66894,40.6862559 121,44 C120.227947,48.1372735 119.867704,51.8300471 120,55 L98.3759375,55 C98.7930515,59.636734 99,64.6164867 99,70 C99,82.9986919 97.6838653,94.2640538 95,103 C92.4192475,112.365932 88.8239528,119.587318 84,125 C79.7071757,130.371416 74.4426369,134.222822 68,137 C62.5009429,138.844578 56.1128745,140 49,140 C42.6303168,140 36.3064501,138.844578 30,137 C24.3647561,134.222822 19.1323182,130.371416 15,125 C10.1439464,119.587318 6.58075246,112.365932 4,103 C1.3161347,94.2640538 0,82.9986919 0,70 C0,56.4235934 1.3161347,45.4149919 4,36 C6.58075246,27.5698774 10.1439464,20.4126817 15,15 C19.1323182,9.62858377 24.3647561,5.77717799 30,3 C36.3064501,1.15542173 42.6303168,0 49,0 C56.1128745,0 62.5009429,1.15542173 68,3 C74.4426369,5.77717799 79.7071757,9.62858377 84,15 C88.8239528,20.4126817 92.4192475,27.5698774 95,36 C95.059579,36.209003 95.118484,36.4187912 95.1767155,36.6293755 L95.1767155,36.6293755 Z" id="Combined-Shape"></path>
            </g>
        </g>
    </g>
</svg>