<?xml version="1.0" encoding="UTF-8"?>
<svg width="140px" height="160px" viewBox="0 0 140 160" version="1.1" xmlns="http://www.w3.org/2000/svg" xmlns:xlink="http://www.w3.org/1999/xlink">
    <!-- Generator: Sketch 53.2 (72643) - https://sketchapp.com -->
    <title>Combined Shape</title>
    <desc>Created with Sketch.</desc>
    <g id="Home" stroke="none" stroke-width="1" fill="none" fill-rule="evenodd">
        <g id="TS_1440-Home" transform="translate(-170.000000, -7913.000000)" fill="#F4F6F8">
            <path d="M257.720468,7972.2 C258.576627,7978.42582 259,7985.2999 259,7993 C259,8005.99869 257.683865,8017.26405 255,8026 C252.419248,8035.36593 248.823953,8042.58732 244,8048 C239.707176,8053.37142 234.442637,8057.22282 228,8060 C222.500943,8061.84458 216.112874,8063 209,8063 C202.630317,8063 196.30645,8061.84458 190,8060 C184.364756,8057.22282 179.132318,8053.37142 175,8048 C170.143946,8042.58732 166.580752,8035.36593 164,8026 C161.316135,8017.26405 160,8005.99869 160,7993 C160,7979.42359 161.316135,7968.41499 164,7959 C166.580752,7950.56988 170.143946,7943.41268 175,7938 C179.132318,7932.62858 184.364756,7928.77718 190,7926 C196.30645,7924.15542 202.630317,7923 209,7923 C216.112874,7923 222.500943,7924.15542 228,7926 C234.442637,7928.77718 239.707176,7932.62858 244,7938 C248.823953,7943.41268 252.419248,7950.56988 255,7959 C255.35757,7960.25435 255.690863,7961.537 256,7962.85023 L256,7950.8 C260.964385,7950.93333 265.760983,7950.56667 270.389937,7949.7 C275.018891,7948.83333 279.178179,7947.30001 282.867925,7945.1 C286.55767,7942.89999 289.677136,7940.00002 292.226415,7936.4 C294.775694,7932.79998 296.452826,7928.33336 297.257862,7923 L320,7923 L320,8063 L291.421384,8063 L291.421384,7972.2 L257.720468,7972.2 L257.720468,7972.2 Z M187,7993 C187,7996.76925 187.127535,8001.41664 187,8007 C187.637682,8012.31413 188.434776,8017.57049 190,8023 C191.11305,8027.69874 193.249261,8032.02562 196,8036 C199.115957,8039.20515 203.32461,8041 209,8041 C214.420318,8041 218.724623,8039.20515 222,8036 C224.718856,8032.02562 226.88695,8027.69874 228,8023 C229.565224,8017.57049 230.362318,8012.31413 231,8007 C230.872465,8001.41664 231,7996.76925 231,7993 C231,7990.61537 230.968116,7987.82694 231,7985 C230.840579,7981.28845 230.585509,7977.92309 230,7974 C229.692751,7970.99998 229.055077,7967.57053 228,7964 C227.397097,7960.77562 226.153631,7957.73078 224,7955 C222.837673,7952.34614 220.733346,7950.16667 218,7948 C215.631871,7946.83332 212.507265,7946 209,7946 C205.110126,7946 202.017404,7946.83332 200,7948 C197.043466,7950.16667 195.002907,7952.34614 193,7955 C191.814485,7957.73078 190.571019,7960.77562 190,7964 C188.785503,7967.57053 188.147828,7970.99998 188,7974 C187.382607,7977.92309 187.159421,7981.28845 187,7985 C187.031884,7987.82694 187,7990.61537 187,7993 Z" id="Combined-Shape" transform="translate(240.000000, 7993.000000) rotate(-90.000000) translate(-240.000000, -7993.000000) "></path>
        </g>
    </g>
</svg>