<?xml version="1.0" encoding="UTF-8"?>
<svg width="140px" height="189px" viewBox="0 0 140 189" version="1.1" xmlns="http://www.w3.org/2000/svg" xmlns:xlink="http://www.w3.org/1999/xlink">
    <!-- Generator: Sketch 53.2 (72643) - https://sketchapp.com -->
    <title>Combined Shape</title>
    <desc>Created with Sketch.</desc>
    <g id="Home" stroke="none" stroke-width="1" fill="none" fill-rule="evenodd">
        <g id="TS_1440-Home" transform="translate(-897.000000, -7971.000000)" fill="#F4F6F8">
            <g id="Group-6" transform="translate(967.000000, 8065.500000) rotate(-90.000000) translate(-967.000000, -8065.500000) translate(872.500000, 7995.500000)">
                <path d="M94.1651708,33.421937 C94.6838032,31.5144508 95.292695,29.7074839 96,28 C98.2717794,21.9211085 101.412464,17.0105662 105,13 C109.488631,8.79411059 114.327849,5.61670083 120,3 C125.608844,1.12332669 131.890213,0 139,0 C144.196753,0 149.580784,0.802376204 155,2 C160.349006,4.01192916 165.188224,6.41905777 169,10 C173.777164,12.8381637 177.270374,16.7537596 180,21 C182.654485,25.9972721 184.000493,31.3250501 184,37 C184.000493,43.9064977 182.430151,49.6836063 179,55 C176.148688,59.6974116 171.437661,63.0994867 165,65 C172.591399,66.9509483 178.424099,70.5455937 183,76 C186.884845,81.5864558 189,88.1980358 189,96 C189,102.961979 187.621945,109.252609 185,115 C182.10964,120.293471 178.424143,124.915158 174,129 C169.194238,132.361321 163.874303,135.185685 158,137 C151.824149,139.037149 145.54278,140 139,140 C131.441536,140 124.551259,138.908768 118,137 C112.116526,134.543776 106.828638,131.366367 102,127 C98.1115058,123.021529 94.7464867,117.918416 92,112 C91.990301,111.970128 91.9806226,111.940238 91.970965,111.910329 C89.8028751,117.115965 87.1660648,121.44754 84,125 C79.7071757,130.371416 74.4426369,134.222822 68,137 C62.5009429,138.844578 56.1128745,140 49,140 C42.6303168,140 36.3064501,138.844578 30,137 C24.3647561,134.222822 19.1323182,130.371416 15,125 C10.1439464,119.587318 6.58075246,112.365932 4,103 C1.3161347,94.2640538 0,82.9986919 0,70 C0,56.4235934 1.3161347,45.4149919 4,36 C6.58075246,27.5698774 10.1439464,20.4126817 15,15 C19.1323182,9.62858377 24.3647561,5.77717799 30,3 C36.3064501,1.15542173 42.6303168,0 49,0 C56.1128745,0 62.5009429,1.15542173 68,3 C74.4426369,5.77717799 79.7071757,9.62858377 84,15 C88.3242913,19.8520402 91.6612698,26.1059197 94.1651708,33.421937 Z M97.3956869,47 C98.4696286,53.7980415 99,61.3816382 99,70 C99,77.6554046 98.5435036,84.7096102 97.6199713,91 L115,91 C115.097033,94.6813568 115.673893,98.115527 117,101 C117.724983,104.663015 119.199182,107.487379 121,110 C123.044976,112.237518 125.448561,114.131125 128,116 C131.217251,116.955532 134.646366,117.661623 139,118 C144.773623,117.661623 149.965367,115.768015 154,112 C158.426113,108.19347 160.541268,103.026168 161,96 C160.541268,91.3433948 159.547786,87.4277989 158,85 C155.573799,82.0357499 153.042023,80.077952 150,79 C146.888753,77.6386917 143.523734,76.9326007 140,77 C136.216726,76.5474543 132.723515,76.4511692 129,76 L129,57 C132.338936,57.450712 135.479621,57.450712 139,57 C142.145663,56.9371835 145.2543,56.1989974 148,55 C151.022991,53.7597371 153.394528,51.9945095 155,50 C157.112128,47.3727532 158.041515,44.2916286 158,40 C158.041515,34.6629697 156.118647,30.2338531 152,27 C148.427059,24.0715114 144.004463,22.5309491 139,23 C132.082502,22.5309491 126.85871,24.8096975 123,29 C119.808088,33.9248279 118.109555,39.6698415 118,47 L97.3956869,47 Z M27,70 C27,73.76925 27.127535,78.4166394 27,84 C27.6376824,89.3141298 28.4347759,94.5704875 30,100 C31.1130502,104.698743 33.2492607,109.025623 36,113 C39.1159567,116.205146 43.3246103,118 49,118 C54.4203179,118 58.7246227,116.205146 62,113 C64.7188556,109.025623 66.8869498,104.698743 68,100 C69.5652241,94.5704875 70.3623176,89.3141298 71,84 C70.872465,78.4166394 71,73.76925 71,70 C71,67.6153731 70.9681163,64.8269394 71,62 C70.8405794,58.2884452 70.5855095,54.9230942 70,51 C69.6927514,47.9999827 69.0550766,44.5705298 68,41 C67.3970973,37.775624 66.1536315,34.7307827 64,32 C62.8376729,29.3461404 60.7333461,27.166675 58,25 C55.6318713,23.833325 52.5072649,23 49,23 C45.1101264,23 42.0174037,23.833325 40,25 C37.0434658,27.166675 35.0029065,29.3461404 33,32 C31.8144848,34.7307827 30.571019,37.775624 30,41 C28.7855028,44.5705298 28.147828,47.9999827 28,51 C27.3826068,54.9230942 27.1594206,58.2884452 27,62 C27.0318837,64.8269394 27,67.6153731 27,70 Z" id="Combined-Shape"></path>
            </g>
        </g>
    </g>
</svg>