<svg xmlns="http://www.w3.org/2000/svg" xmlns:xlink="http://www.w3.org/1999/xlink" width="28" height="28" viewBox="0 0 28 28"><defs><path id="e8v0a" d="M492.24 6716.7a.75.75 0 0 0 1.02 1.1l3.5-3.25a.75.75 0 0 0 0-1.1l-3.5-3.25a.75.75 0 1 0-1.02 1.1l2.908 2.7zm1.76 5.3a8 8 0 1 1 0-16 8 8 0 0 1 0 16z"/><mask id="e8v0c" width="2" height="2" x="-1" y="-1"><path fill="#fff" d="M486 6706h16v16h-16z"/><use xlink:href="#e8v0a"/></mask><filter id="e8v0b" width="52" height="52" x="468" y="6688" filterUnits="userSpaceOnUse"><feOffset in="SourceGraphic" result="FeOffset1023Out"/><feGaussianBlur in="FeOffset1023Out" result="FeGaussianBlur1024Out" stdDeviation="3.2 3.2"/></filter></defs><g><g opacity=".8" transform="translate(-480 -6700)"><g filter="url(#e8v0b)"><use fill="none" stroke-opacity=".32" stroke-width="0" mask="url(&quot;#e8v0c&quot;)" xlink:href="#e8v0a"/><use fill-opacity=".32" xlink:href="#e8v0a"/></g><use fill="#fff" xlink:href="#e8v0a"/></g></g></svg>