<svg xmlns="http://www.w3.org/2000/svg" xmlns:xlink="http://www.w3.org/1999/xlink" width="98" height="98" viewBox="0 0 98 98"><defs><path id="d9x1a" d="M293 2011h-18c-5.522 0-10-4.478-10-10v-36h38v36c0 5.522-4.478 10-10 10z"/><path id="d9x1b" d="M303 2000h8c4.418 0 8-3.695 8-8.253v-11.495c0-4.558-3.582-8.252-8-8.252h-8"/><path id="d9x1c" d="M296 1960.051a3.991 3.991 0 0 0-3.991-3.991H276.75a4.75 4.75 0 0 1 0-9.5h8.5a3.75 3.75 0 0 0 0-7.5h-4.75a3 3 0 0 1 0-6h2.5"/><path id="d9x1d" d="M261.6 2004.5h-33.318c-2.917 0-5.282-1.919-5.282-4.286v-80.928c0-2.367 2.365-4.286 5.282-4.286h62.244c3.023 0 5.474 2.015 5.474 4.5v32.048"/><path id="d9x1e" d="M236.04 1953h8.31"/><path id="d9x1f" d="M236.04 1941h25.886"/><path id="d9x1g" d="M236.04 1965h25"/><path id="d9x1h" d="M236.04 1977h16.5"/><path id="d9x1i" d="M236.04 1989h25"/><path id="d9x1j" d="M248.54 1953h19.31"/><path id="d9x1k" d="M256.85 1977h4.19"/></defs><g><g transform="translate(-222 -1914)"><g><use fill="#fff" fill-opacity="0" stroke="#dc1414" stroke-linecap="round" stroke-linejoin="round" stroke-miterlimit="50" stroke-width="2" xlink:href="#d9x1a"/></g><g><use fill="#fff" fill-opacity="0" stroke="#dc1414" stroke-linecap="round" stroke-linejoin="round" stroke-miterlimit="50" stroke-width="2" xlink:href="#d9x1b"/></g><g><use fill="#fff" fill-opacity="0" stroke="#dc1414" stroke-linecap="round" stroke-linejoin="round" stroke-miterlimit="50" stroke-width="2" xlink:href="#d9x1c"/></g><g><use fill="#fff" fill-opacity="0" stroke="#dc1414" stroke-linecap="round" stroke-linejoin="round" stroke-miterlimit="50" stroke-width="2" xlink:href="#d9x1d"/></g><g><use fill="#fff" fill-opacity="0" stroke="#dc1414" stroke-linecap="round" stroke-linejoin="round" stroke-miterlimit="50" stroke-width="2" xlink:href="#d9x1e"/></g><g><use fill="#fff" fill-opacity="0" stroke="#dc1414" stroke-linecap="round" stroke-linejoin="round" stroke-miterlimit="50" stroke-width="2" xlink:href="#d9x1f"/></g><g><use fill="#fff" fill-opacity="0" stroke="#dc1414" stroke-linecap="round" stroke-linejoin="round" stroke-miterlimit="50" stroke-width="2" xlink:href="#d9x1g"/></g><g><use fill="#fff" fill-opacity="0" stroke="#dc1414" stroke-linecap="round" stroke-linejoin="round" stroke-miterlimit="50" stroke-width="2" xlink:href="#d9x1h"/></g><g><use fill="#fff" fill-opacity="0" stroke="#dc1414" stroke-linecap="round" stroke-linejoin="round" stroke-miterlimit="50" stroke-width="2" xlink:href="#d9x1i"/></g><g><use fill="#fff" fill-opacity="0" stroke="#dc1414" stroke-linecap="round" stroke-linejoin="round" stroke-miterlimit="50" stroke-width="2" xlink:href="#d9x1j"/></g><g><use fill="#fff" fill-opacity="0" stroke="#dc1414" stroke-linecap="round" stroke-linejoin="round" stroke-miterlimit="50" stroke-width="2" xlink:href="#d9x1k"/></g></g></g></svg>