<?xml version="1.0" encoding="UTF-8"?>
<svg width="70px" height="56px" viewBox="0 0 70 56" version="1.1" xmlns="http://www.w3.org/2000/svg" xmlns:xlink="http://www.w3.org/1999/xlink">
    <!-- Generator: Sketch 52.6 (67491) - http://www.bohemiancoding.com/sketch -->
    <title>icon_balony-3</title>
    <desc>Created with Sketch.</desc>
    <defs>
        <rect id="path-1" x="11" y="4" width="17" height="30"></rect>
        <rect id="path-2" x="27" y="4" width="17" height="30"></rect>
        <rect id="path-3" x="43" y="4" width="16" height="30"></rect>
        <polygon id="path-4" points="58 4 68 -1.17961196e-16 68 34 58 34"></polygon>
        <polygon id="path-5" points="2 4 12 -1.17961196e-16 12 34 2 34"></polygon>
    </defs>
    <g id="Calculators-/-Balconys" stroke="none" stroke-width="1" fill="none" fill-rule="evenodd">
        <g id="TS_1440-Calc_Balcony-1" transform="translate(-831.000000, -438.000000)">
            <g id="Group-9" transform="translate(797.000000, 438.000000)">
                <g id="icon_balony-3" transform="translate(34.000000, 0.000000)">
                    <g id="Rectangle" stroke-linejoin="square">
                        <rect stroke="#BABEC2" stroke-width="2" fill="#FFFFFF" fill-rule="evenodd" x="12" y="5" width="15" height="28"></rect>
                        <rect stroke="#808890" stroke-width="1" x="11.5" y="4.5" width="16" height="29"></rect>
                    </g>
                    <rect id="Rectangle" stroke="#808890" fill="#FFFFFF" x="13.5" y="33.5" width="45" height="3"></rect>
                    <rect id="Rectangle" stroke="#808890" fill="#FFFFFF" x="56.5" y="33.5" width="13" height="3"></rect>
                    <rect id="Rectangle" stroke="#808890" fill="#FFFFFF" transform="translate(7.000000, 35.000000) scale(-1, 1) translate(-7.000000, -35.000000) " x="0.5" y="33.5" width="13" height="3"></rect>
                    <rect id="Rectangle" stroke="#808890" fill="#F4F6F8" x="11.5" y="36.5" width="47" height="15"></rect>
                    <path d="M58.5,36.5 L58.5,51.6614835 L67.5,55.2614835 L67.5,36.5 L58.5,36.5 Z" id="Rectangle" stroke="#808890" fill="#F4F6F8"></path>
                    <path d="M2.5,36.5 L2.5,51.6614835 L11.5,55.2614835 L11.5,36.5 L2.5,36.5 Z" id="Rectangle" stroke="#808890" fill="#F4F6F8" transform="translate(7.000000, 46.000000) scale(-1, 1) translate(-7.000000, -46.000000) "></path>
                    <g id="Rectangle" stroke-linejoin="square">
                        <rect stroke="#BABEC2" stroke-width="2" fill="#FFFFFF" fill-rule="evenodd" x="28" y="5" width="15" height="28"></rect>
                        <rect stroke="#808890" stroke-width="1" x="27.5" y="4.5" width="16" height="29"></rect>
                    </g>
                    <g id="Rectangle" stroke-linejoin="square">
                        <rect stroke="#BABEC2" stroke-width="2" fill="#FFFFFF" fill-rule="evenodd" x="44" y="5" width="14" height="28"></rect>
                        <rect stroke="#808890" stroke-width="1" x="43.5" y="4.5" width="15" height="29"></rect>
                    </g>
                    <g id="Rectangle" stroke-linejoin="square">
                        <path stroke="#BABEC2" stroke-width="2" d="M59,4.67703296 L59,33 L67,33 L67,1.47703296 L59,4.67703296 Z" fill="#FFFFFF" fill-rule="evenodd"></path>
                        <path stroke="#808890" stroke-width="1" d="M58.5,4.33851648 L58.5,33.5 L67.5,33.5 L67.5,0.738516481 L58.5,4.33851648 Z"></path>
                    </g>
                    <g id="Rectangle" transform="translate(7.000000, 17.000000) scale(-1, 1) translate(-7.000000, -17.000000) " stroke-linejoin="square">
                        <path stroke="#BABEC2" stroke-width="2" d="M3,4.67703296 L3,33 L11,33 L11,1.47703296 L3,4.67703296 Z" fill="#FFFFFF" fill-rule="evenodd"></path>
                        <path stroke="#808890" stroke-width="1" d="M2.5,4.33851648 L2.5,33.5 L11.5,33.5 L11.5,0.738516481 L2.5,4.33851648 Z"></path>
                    </g>
                </g>
            </g>
        </g>
    </g>
</svg>