<svg id="SVGDoc" width="17" height="14" xmlns="http://www.w3.org/2000/svg" version="1.1" xmlns:xlink="http://www.w3.org/1999/xlink" xmlns:avocode="https://avocode.com/" viewBox="0 0 17 14"><defs><path d="M385.202,808.5h-7.938c-0.974,0 -1.764,0.797 -1.764,1.778v4.445c0,0.982 0.79,1.778 1.764,1.778h0.97v2.133l2.116,-2.133h4.852c0.975,0 1.764,-0.796 1.764,-1.778v-4.445c0,-0.981 -0.789,-1.778 -1.764,-1.778z" id="Path-0"/><path d="M388.962,810.67c0.469,0.319 0.778,0.86 0.778,1.474v4.445c0,0.981 -0.79,1.777 -1.764,1.777h-0.971v2.133l-2.115,-2.133h-3.97" id="Path-1"/><path d="M379.5,812.5h4.5" id="Path-2"/></defs><desc>Generated with Avocode.</desc><g transform="matrix(1,0,0,1,-374,-807)"><g><title>Page 1</title><g><title>Stroke 1</title><use xlink:href="#Path-0" fill-opacity="0" fill="#ffffff" stroke-linejoin="round" stroke-linecap="round" stroke-opacity="1" stroke="#80878e" stroke-miterlimit="50" stroke-width="1"/></g><g><title>Stroke 3</title><use xlink:href="#Path-1" fill-opacity="0" fill="#ffffff" stroke-linejoin="round" stroke-linecap="round" stroke-opacity="1" stroke="#80878e" stroke-miterlimit="50" stroke-width="1"/></g><g><title>Stroke 7</title><use xlink:href="#Path-2" fill-opacity="0" fill="#ffffff" stroke-dasharray="0 1.764" stroke-linejoin="round" stroke-linecap="round" stroke-opacity="1" stroke="#80878e" stroke-miterlimit="50" stroke-width="1"/></g></g></g></svg>