<svg xmlns="http://www.w3.org/2000/svg" xmlns:xlink="http://www.w3.org/1999/xlink" width="100" height="98" viewBox="0 0 100 98"><defs><path id="bbora" d="M539.962 1997.654c0 2.454-2.021 4.443-4.516 4.443-2.494 0-4.516-1.989-4.516-4.443 0-2.454 2.022-4.444 4.516-4.444 2.495 0 4.516 1.99 4.516 4.444z"/><path id="bborb" d="M592.24 1947.58l14.451 24.631"/><path id="bborc" d="M579.91 1962.12l11.137 18.981"/><path id="bbord" d="M609.51 1982.56V2011"/><path id="bbore" d="M591.45 1989.08v21.917"/><path id="bborf" d="M573.38 1999.35v11.654"/><path id="bborg" d="M584.55 1940l-25.03-14.22"/><path id="bborh" d="M557.13 1944.95l18.386 10.455"/><path id="bbori" d="M566.484 1970.794l-9.354-5.314"/><path id="bborj" d="M569.46 1979.85l5.949 10.14"/><path id="bbork" d="M538.44 2011h72.879c3.99 0 7.225-3.184 7.225-7.11v-14.22c0-3.928-3.235-7.11-7.225-7.11h-8.389"/><path id="bborl" d="M549.9 1999.053l35.546-60.586c1.996-3.4.811-7.75-2.645-9.713l-12.514-7.11c-3.456-1.963-7.875-.798-9.87 2.602l-3.291 5.61"/><path id="bborm" d="M543.901 2010.989H527a6 6 0 0 1-6-6V1921a6 6 0 0 1 6-6h16.901a6 6 0 0 1 6 6v83.989a6 6 0 0 1-6 6z"/><path id="bborn" d="M549.904 2003.882c0 .217-.045.422-.064.635l58.42-33.192c3.457-1.964 4.641-6.312 2.646-9.713l-7.226-12.315c-1.995-3.401-6.414-4.566-9.87-2.603l-7.264 4.127"/></defs><g><g transform="translate(-520 -1914)"><g><use fill="#fff" fill-opacity="0" stroke="#dc1414" stroke-linecap="round" stroke-linejoin="round" stroke-miterlimit="50" stroke-width="2" xlink:href="#bbora"/></g><g><use fill="#fff" fill-opacity="0" stroke="#dc1414" stroke-linecap="round" stroke-linejoin="round" stroke-miterlimit="50" stroke-width="2" xlink:href="#bborb"/></g><g><use fill="#fff" fill-opacity="0" stroke="#dc1414" stroke-linecap="round" stroke-linejoin="round" stroke-miterlimit="50" stroke-width="2" xlink:href="#bborc"/></g><g><use fill="#fff" fill-opacity="0" stroke="#dc1414" stroke-linecap="round" stroke-linejoin="round" stroke-miterlimit="50" stroke-width="2" xlink:href="#bbord"/></g><g><use fill="#fff" fill-opacity="0" stroke="#dc1414" stroke-linecap="round" stroke-linejoin="round" stroke-miterlimit="50" stroke-width="2" xlink:href="#bbore"/></g><g><use fill="#fff" fill-opacity="0" stroke="#dc1414" stroke-linecap="round" stroke-linejoin="round" stroke-miterlimit="50" stroke-width="2" xlink:href="#bborf"/></g><g><use fill="#fff" fill-opacity="0" stroke="#dc1414" stroke-linecap="round" stroke-linejoin="round" stroke-miterlimit="50" stroke-width="2" xlink:href="#bborg"/></g><g><use fill="#fff" fill-opacity="0" stroke="#dc1414" stroke-linecap="round" stroke-linejoin="round" stroke-miterlimit="50" stroke-width="2" xlink:href="#bborh"/></g><g><use fill="#fff" fill-opacity="0" stroke="#dc1414" stroke-linecap="round" stroke-linejoin="round" stroke-miterlimit="50" stroke-width="2" xlink:href="#bbori"/></g><g><use fill="#fff" fill-opacity="0" stroke="#dc1414" stroke-linecap="round" stroke-linejoin="round" stroke-miterlimit="50" stroke-width="2" xlink:href="#bborj"/></g><g><use fill="#fff" fill-opacity="0" stroke="#dc1414" stroke-linecap="round" stroke-linejoin="round" stroke-miterlimit="50" stroke-width="2" xlink:href="#bbork"/></g><g><use fill="#fff" fill-opacity="0" stroke="#dc1414" stroke-linecap="round" stroke-linejoin="round" stroke-miterlimit="50" stroke-width="2" xlink:href="#bborl"/></g><g><use fill="#fff" fill-opacity="0" stroke="#dc1414" stroke-linecap="round" stroke-linejoin="round" stroke-miterlimit="50" stroke-width="2" xlink:href="#bborm"/></g><g><use fill="#fff" fill-opacity="0" stroke="#dc1414" stroke-linecap="round" stroke-linejoin="round" stroke-miterlimit="50" stroke-width="2" xlink:href="#bborn"/></g></g></g></svg>