<svg xmlns="http://www.w3.org/2000/svg" width="83" height="82" viewBox="0 0 83 82"><g><g><g><path fill="none" stroke="#dc1414" stroke-linecap="round" stroke-linejoin="round" stroke-miterlimit="50" stroke-width="2" d="M60.291 81.003h-15.03c-4.612 0-8.351-3.731-8.351-8.333v-30 0h31.732v30c0 4.602-3.74 8.333-8.35 8.333z"/></g><g><path fill="none" stroke="#dc1414" stroke-linecap="round" stroke-linejoin="round" stroke-miterlimit="50" stroke-width="2" d="M68.64 71.833v0h6.68c3.69 0 6.68-3.079 6.68-6.877v-9.58c0-3.798-2.99-6.876-6.68-6.876h-6.68v0"/></g><g><path fill="none" stroke="#dc1414" stroke-linecap="round" stroke-linejoin="round" stroke-miterlimit="50" stroke-width="2" d="M62.791 38.542v0a3.33 3.33 0 0 0-3.332-3.325H46.716a3.963 3.963 0 0 1-3.966-3.959 3.962 3.962 0 0 1 3.966-3.958h1.044v0h6.054c1.73 0 3.132-1.4 3.132-3.125a3.128 3.128 0 0 0-3.132-3.125h-1.043v0h-2.923a2.503 2.503 0 0 1-2.505-2.5c0-1.38 1.121-2.5 2.505-2.5h2.088v0"/></g><g><path fill="none" stroke="#dc1414" stroke-linecap="round" stroke-linejoin="round" stroke-miterlimit="50" stroke-width="2" d="M34.063 75.583v0H6.241c-2.436 0-4.411-1.599-4.411-3.571V4.572C1.83 2.599 3.805 1 6.24 1h51.978c2.524 0 4.57 1.68 4.57 3.75v26.707"/></g><g><path fill="none" stroke="#dc1414" stroke-linecap="round" stroke-linejoin="round" stroke-miterlimit="50" stroke-width="2" d="M12.72 32.667h6.94"/></g><g><path fill="none" stroke="#dc1414" stroke-linecap="round" stroke-linejoin="round" stroke-miterlimit="50" stroke-width="2" d="M12.72 22.667h21.616"/></g><g><path fill="none" stroke="#dc1414" stroke-linecap="round" stroke-linejoin="round" stroke-miterlimit="50" stroke-width="2" d="M12.72 42.667h20.876"/></g><g><path fill="none" stroke="#dc1414" stroke-linecap="round" stroke-linejoin="round" stroke-miterlimit="50" stroke-width="2" d="M12.72 52.667h13.778"/></g><g><path fill="none" stroke="#dc1414" stroke-linecap="round" stroke-linejoin="round" stroke-miterlimit="50" stroke-width="2" d="M12.72 62.667h20.876"/></g><g><path fill="none" stroke="#dc1414" stroke-linecap="round" stroke-linejoin="round" stroke-miterlimit="50" stroke-width="2" d="M23.16 32.667h16.125"/></g><g><path fill="none" stroke="#dc1414" stroke-linecap="round" stroke-linejoin="round" stroke-miterlimit="50" stroke-width="2" d="M30.1 52.667h3.499"/></g></g></g></svg>