<svg id="SVGDoc" width="25" height="25" xmlns="http://www.w3.org/2000/svg" version="1.1" xmlns:xlink="http://www.w3.org/1999/xlink" xmlns:avocode="https://avocode.com/" viewBox="0 0 25 25"><defs><path d="M190,1521.5c0,-6.90356 5.59644,-12.5 12.5,-12.5c6.90356,0 12.5,5.59644 12.5,12.5c0,6.90356 -5.59644,12.5 -12.5,12.5c-6.90356,0 -12.5,-5.59644 -12.5,-12.5z" id="Path-0"/><path d="M201.00357,1528.72745v-6.68661h-2.25357v-2.72966h2.25357v-2.29243c0,-1.66721 1.35154,-3.01875 3.01875,-3.01875h2.35594v2.45458h-1.68579c-0.52976,0 -0.95924,0.42948 -0.95924,0.95924v1.8974h2.60268l-0.35971,2.72966h-2.24297v6.68657z" id="Path-1"/></defs><desc>Generated with Avocode.</desc><g transform="matrix(1,0,0,1,-190,-1509)"><g><title>Group 2</title><g><title>Oval 2</title><use xlink:href="#Path-0" fill="#3b5998" fill-opacity="1"/></g><g><title>Shape</title><use xlink:href="#Path-1" fill="#ffffff" fill-opacity="1"/></g></g></g></svg>