<svg xmlns="http://www.w3.org/2000/svg" xmlns:xlink="http://www.w3.org/1999/xlink" width="18" height="26" viewBox="0 0 18 26"><defs><path id="7x4ta" d="M832 614.33c-.89 0-1.64-.32-2.27-.95a3.13 3.13 0 0 1-.93-2.29c0-.9.31-1.65.93-2.28a3.07 3.07 0 0 1 2.27-.95c.89 0 1.64.31 2.27.95.62.63.93 1.39.93 2.28 0 .9-.31 1.66-.93 2.3-.63.62-1.38.94-2.27.94zm0-12.33c2.5 0 4.62.88 6.37 2.65a8.81 8.81 0 0 1 2.63 6.44c0 1.27-.31 2.71-.94 4.34a26.83 26.83 0 0 1-2.26 4.57 91.05 91.05 0 0 1-2.63 4 47.75 47.75 0 0 1-2.2 2.96L832 628l-.97-1.13a62.24 62.24 0 0 1-4.92-6.9 29.83 29.83 0 0 1-2.14-4.48 12.46 12.46 0 0 1-.97-4.4c0-2.52.88-4.67 2.63-6.44A8.63 8.63 0 0 1 832 602z"/><clipPath id="7x4tb"><use fill="#fff" xlink:href="#7x4ta"/></clipPath></defs><g><g transform="translate(-823 -602)"><use fill="#fff" fill-opacity="0" stroke="#a7aaad" stroke-miterlimit="50" stroke-width="2" clip-path="url(&quot;#7x4tb&quot;)" xlink:href="#7x4ta"/></g></g></svg>