<svg id="SVGDoc" width="12" height="9" xmlns="http://www.w3.org/2000/svg" version="1.1" xmlns:xlink="http://www.w3.org/1999/xlink" xmlns:avocode="https://avocode.com/" viewBox="0 0 12 9"><defs><path d="M688,84.5c0,-0.27614 0.22386,-0.5 0.5,-0.5h11c0.27614,0 0.5,0.22386 0.5,0.5v0c0,0.27614 -0.22386,0.5 -0.5,0.5h-11c-0.27614,0 -0.5,-0.22386 -0.5,-0.5z" id="Path-0"/><path d="M688,88.5c0,-0.27614 0.22386,-0.5 0.5,-0.5h11c0.27614,0 0.5,0.22386 0.5,0.5v0c0,0.27614 -0.22386,0.5 -0.5,0.5h-11c-0.27614,0 -0.5,-0.22386 -0.5,-0.5z" id="Path-1"/><path d="M688,92.5c0,-0.27614 0.22386,-0.5 0.5,-0.5h11c0.27614,0 0.5,0.22386 0.5,0.5v0c0,0.27614 -0.22386,0.5 -0.5,0.5h-11c-0.27614,0 -0.5,-0.22386 -0.5,-0.5z" id="Path-2"/></defs><desc>Generated with Avocode.</desc><g transform="matrix(1,0,0,1,-688,-84)"><g><title>Icons / Hamburger Menu Dark</title><g><title>Rectangle 4</title><use xlink:href="#Path-0" fill="#a7aaad" fill-opacity="1"/></g><g><title>Rectangle 4</title><use xlink:href="#Path-1" fill="#a7aaad" fill-opacity="1"/></g><g><title>Rectangle 4</title><use xlink:href="#Path-2" fill="#a7aaad" fill-opacity="1"/></g></g></g></svg>