<?xml version="1.0" encoding="UTF-8"?>
<svg viewBox="0 0 44 55" version="1.1" xmlns="http://www.w3.org/2000/svg" xmlns:xlink="http://www.w3.org/1999/xlink">
    <!-- Generator: Sketch 47.1 (45422) - http://www.bohemiancoding.com/sketch -->
    <title>icon_empl_4-deal</title>
    <desc>Created with Sketch.</desc>
    <defs></defs>
    <g id="++Emplyees" stroke="none" stroke-width="1" fill="none" fill-rule="evenodd">
        <g id="TS_1440-Emplyees" transform="translate(-800.000000, -2321.000000)" fill="#DC1414">
            <g id="icon_empl_4-deal" transform="translate(800.000000, 2321.000000)">
                <path d="M40.2881,53 L6.5501,53 C5.8771,53 5.3301,52.454 5.3301,51.782 L5.3301,6.544 C5.3301,5.872 5.8771,5.326 6.5501,5.326 L29.0781,5.326 L29.0781,16.745 C29.0781,17.298 29.5251,17.745 30.0781,17.745 L41.5081,17.745 L41.5081,51.782 C41.5081,52.454 40.9611,53 40.2881,53 L40.2881,53 Z M3.2201,49.673 C2.5471,49.673 2.0001,49.127 2.0001,48.455 L2.0001,3.218 C2.0001,2.546 2.5471,2 3.2201,2 L22.3391,2 L23.6661,3.326 L6.5501,3.326 C4.7741,3.326 3.3301,4.77 3.3301,6.544 L3.3301,49.673 L3.2201,49.673 Z M31.0781,6.739 L40.0931,15.745 L31.0781,15.745 L31.0781,6.739 Z M43.4311,16.36 C43.3791,16.238 43.3061,16.129 43.2141,16.037 L30.7861,3.62 C30.6941,3.528 30.5851,3.454 30.4631,3.403 C30.3421,3.354 30.2111,3.326 30.0781,3.326 L26.4981,3.326 L23.4601,0.292 C23.2721,0.105 23.0171,0 22.7531,0 L3.2201,0 C1.4441,0 0.0001,1.443 0.0001,3.218 L0.0001,48.455 C0.0001,50.229 1.4441,51.673 3.2201,51.673 L3.3301,51.673 L3.3301,51.782 C3.3301,53.557 4.7741,55 6.5501,55 L40.2881,55 C42.0631,55 43.5081,53.557 43.5081,51.782 L43.5081,16.745 C43.5081,16.611 43.4801,16.481 43.4311,16.36 L43.4311,16.36 Z" id="Fill-1"></path>
                <path d="M34.5176,21.9541 L12.3206,21.9541 C11.7676,21.9541 11.3206,22.4011 11.3206,22.9541 C11.3206,23.5071 11.7676,23.9541 12.3206,23.9541 L34.5176,23.9541 C35.0706,23.9541 35.5176,23.5071 35.5176,22.9541 C35.5176,22.4011 35.0706,21.9541 34.5176,21.9541" id="Fill-4"></path>
                <path d="M34.5176,29.0518 L12.3206,29.0518 C11.7676,29.0518 11.3206,29.4988 11.3206,30.0518 C11.3206,30.6048 11.7676,31.0518 12.3206,31.0518 L34.5176,31.0518 C35.0706,31.0518 35.5176,30.6048 35.5176,30.0518 C35.5176,29.4988 35.0706,29.0518 34.5176,29.0518" id="Fill-6"></path>
                <path d="M34.5176,36.1484 L12.3206,36.1484 C11.7676,36.1484 11.3206,36.5954 11.3206,37.1484 C11.3206,37.7014 11.7676,38.1484 12.3206,38.1484 L34.5176,38.1484 C35.0706,38.1484 35.5176,37.7014 35.5176,37.1484 C35.5176,36.5954 35.0706,36.1484 34.5176,36.1484" id="Fill-8"></path>
                <path d="M34.5176,43.2432 L12.3206,43.2432 C11.7676,43.2432 11.3206,43.6902 11.3206,44.2432 C11.3206,44.7962 11.7676,45.2432 12.3206,45.2432 L34.5176,45.2432 C35.0706,45.2432 35.5176,44.7962 35.5176,44.2432 C35.5176,43.6902 35.0706,43.2432 34.5176,43.2432" id="Fill-10"></path>
            </g>
        </g>
    </g>
</svg>
