<?xml version="1.0" encoding="UTF-8"?>
<svg width="30px" height="30px" viewBox="0 0 30 30" version="1.1" xmlns="http://www.w3.org/2000/svg" xmlns:xlink="http://www.w3.org/1999/xlink">
    <!-- Generator: Sketch 51.2 (57519) - http://www.bohemiancoding.com/sketch -->
    <title>social_gray_inst copy</title>
    <desc>Created with Sketch.</desc>
    <defs></defs>
    <g id="GUI" stroke="none" stroke-width="1" fill="none" fill-rule="evenodd">
        <g transform="translate(-572.000000, -1592.000000)" fill="#F8F8F8" fill-rule="nonzero" id="social_gray_inst-copy">
            <path d="M587,1622 C595.284271,1622 602,1615.28427 602,1607 C602,1598.71573 595.284271,1592 587,1592 C578.715729,1592 572,1598.71573 572,1607 C572,1615.28427 578.715729,1622 587,1622 Z M590.985616,1600.7068 L583.014384,1600.7068 C581.74207,1600.7068 580.706797,1601.74207 580.706797,1603.01438 L580.706797,1610.98562 C580.706797,1612.25793 581.74207,1613.2932 583.014384,1613.2932 L590.985616,1613.2932 C592.25793,1613.2932 593.293203,1612.25793 593.293203,1610.98562 L593.293203,1603.01438 C593.293203,1601.74207 592.25793,1600.7068 590.985616,1600.7068 Z M586.999736,1611.14347 C584.715378,1611.14347 582.856532,1609.28462 582.856532,1606.99974 C582.856532,1604.71538 584.715378,1602.85653 586.999736,1602.85653 C589.284622,1602.85653 591.143468,1604.71538 591.143468,1606.99974 C591.143468,1609.28462 589.284622,1611.14347 586.999736,1611.14347 Z M591.276506,1603.71336 C590.735905,1603.71336 590.296138,1603.2736 590.296138,1602.733 C590.296138,1602.1924 590.735905,1601.75263 591.276506,1601.75263 C591.817108,1601.75263 592.256874,1602.1924 592.256874,1602.733 C592.256874,1603.2736 591.817108,1603.71336 591.276506,1603.71336 Z M586.999736,1604.60768 C585.680964,1604.60768 584.607152,1605.68096 584.607152,1606.99974 C584.607152,1608.31904 585.680964,1609.39285 586.999736,1609.39285 C588.319036,1609.39285 589.39232,1608.31904 589.39232,1606.99974 C589.39232,1605.68096 588.319036,1604.60768 586.999736,1604.60768 Z M590.985616,1600.7068 L583.014384,1600.7068 C581.74207,1600.7068 580.706797,1601.74207 580.706797,1603.01438 L580.706797,1610.98562 C580.706797,1612.25793 581.74207,1613.2932 583.014384,1613.2932 L590.985616,1613.2932 C592.25793,1613.2932 593.293203,1612.25793 593.293203,1610.98562 L593.293203,1603.01438 C593.293203,1601.74207 592.25793,1600.7068 590.985616,1600.7068 Z M586.999736,1611.14347 C584.715378,1611.14347 582.856532,1609.28462 582.856532,1606.99974 C582.856532,1604.71538 584.715378,1602.85653 586.999736,1602.85653 C589.284622,1602.85653 591.143468,1604.71538 591.143468,1606.99974 C591.143468,1609.28462 589.284622,1611.14347 586.999736,1611.14347 Z M591.276506,1603.71336 C590.735905,1603.71336 590.296138,1603.2736 590.296138,1602.733 C590.296138,1602.1924 590.735905,1601.75263 591.276506,1601.75263 C591.817108,1601.75263 592.256874,1602.1924 592.256874,1602.733 C592.256874,1603.2736 591.817108,1603.71336 591.276506,1603.71336 Z M586.999736,1604.60768 C585.680964,1604.60768 584.607152,1605.68096 584.607152,1606.99974 C584.607152,1608.31904 585.680964,1609.39285 586.999736,1609.39285 C588.319036,1609.39285 589.39232,1608.31904 589.39232,1606.99974 C589.39232,1605.68096 588.319036,1604.60768 586.999736,1604.60768 Z M595.043823,1610.98562 C595.043823,1613.22352 593.223516,1615.04382 590.985616,1615.04382 L583.014384,1615.04382 C580.776484,1615.04382 578.956177,1613.22352 578.956177,1610.98562 L578.956177,1603.01438 C578.956177,1600.77648 580.776484,1598.95618 583.014384,1598.95618 L590.985616,1598.95618 C593.223516,1598.95618 595.043823,1600.77648 595.043823,1603.01438 L595.043823,1610.98562 Z M590.985616,1600.7068 L583.014384,1600.7068 C581.74207,1600.7068 580.706797,1601.74207 580.706797,1603.01438 L580.706797,1610.98562 C580.706797,1612.25793 581.74207,1613.2932 583.014384,1613.2932 L590.985616,1613.2932 C592.25793,1613.2932 593.293203,1612.25793 593.293203,1610.98562 L593.293203,1603.01438 C593.293203,1601.74207 592.25793,1600.7068 590.985616,1600.7068 Z M586.999736,1611.14347 C584.715378,1611.14347 582.856532,1609.28462 582.856532,1606.99974 C582.856532,1604.71538 584.715378,1602.85653 586.999736,1602.85653 C589.284622,1602.85653 591.143468,1604.71538 591.143468,1606.99974 C591.143468,1609.28462 589.284622,1611.14347 586.999736,1611.14347 Z M591.276506,1603.71336 C590.735905,1603.71336 590.296138,1603.2736 590.296138,1602.733 C590.296138,1602.1924 590.735905,1601.75263 591.276506,1601.75263 C591.817108,1601.75263 592.256874,1602.1924 592.256874,1602.733 C592.256874,1603.2736 591.817108,1603.71336 591.276506,1603.71336 Z M586.999736,1604.60768 C585.680964,1604.60768 584.607152,1605.68096 584.607152,1606.99974 C584.607152,1608.31904 585.680964,1609.39285 586.999736,1609.39285 C588.319036,1609.39285 589.39232,1608.31904 589.39232,1606.99974 C589.39232,1605.68096 588.319036,1604.60768 586.999736,1604.60768 Z M586.999736,1604.60768 C585.680964,1604.60768 584.607152,1605.68096 584.607152,1606.99974 C584.607152,1608.31904 585.680964,1609.39285 586.999736,1609.39285 C588.319036,1609.39285 589.39232,1608.31904 589.39232,1606.99974 C589.39232,1605.68096 588.319036,1604.60768 586.999736,1604.60768 Z M586.999736,1604.60768 C585.680964,1604.60768 584.607152,1605.68096 584.607152,1606.99974 C584.607152,1608.31904 585.680964,1609.39285 586.999736,1609.39285 C588.319036,1609.39285 589.39232,1608.31904 589.39232,1606.99974 C589.39232,1605.68096 588.319036,1604.60768 586.999736,1604.60768 Z M590.985616,1600.7068 L583.014384,1600.7068 C581.74207,1600.7068 580.706797,1601.74207 580.706797,1603.01438 L580.706797,1610.98562 C580.706797,1612.25793 581.74207,1613.2932 583.014384,1613.2932 L590.985616,1613.2932 C592.25793,1613.2932 593.293203,1612.25793 593.293203,1610.98562 L593.293203,1603.01438 C593.293203,1601.74207 592.25793,1600.7068 590.985616,1600.7068 Z M586.999736,1611.14347 C584.715378,1611.14347 582.856532,1609.28462 582.856532,1606.99974 C582.856532,1604.71538 584.715378,1602.85653 586.999736,1602.85653 C589.284622,1602.85653 591.143468,1604.71538 591.143468,1606.99974 C591.143468,1609.28462 589.284622,1611.14347 586.999736,1611.14347 Z M591.276506,1603.71336 C590.735905,1603.71336 590.296138,1603.2736 590.296138,1602.733 C590.296138,1602.1924 590.735905,1601.75263 591.276506,1601.75263 C591.817108,1601.75263 592.256874,1602.1924 592.256874,1602.733 C592.256874,1603.2736 591.817108,1603.71336 591.276506,1603.71336 Z M586.999736,1604.60768 C585.680964,1604.60768 584.607152,1605.68096 584.607152,1606.99974 C584.607152,1608.31904 585.680964,1609.39285 586.999736,1609.39285 C588.319036,1609.39285 589.39232,1608.31904 589.39232,1606.99974 C589.39232,1605.68096 588.319036,1604.60768 586.999736,1604.60768 Z M586.999736,1604.60768 C585.680964,1604.60768 584.607152,1605.68096 584.607152,1606.99974 C584.607152,1608.31904 585.680964,1609.39285 586.999736,1609.39285 C588.319036,1609.39285 589.39232,1608.31904 589.39232,1606.99974 C589.39232,1605.68096 588.319036,1604.60768 586.999736,1604.60768 Z M586.999736,1604.60768 C585.680964,1604.60768 584.607152,1605.68096 584.607152,1606.99974 C584.607152,1608.31904 585.680964,1609.39285 586.999736,1609.39285 C588.319036,1609.39285 589.39232,1608.31904 589.39232,1606.99974 C589.39232,1605.68096 588.319036,1604.60768 586.999736,1604.60768 Z M590.985616,1600.7068 L583.014384,1600.7068 C581.74207,1600.7068 580.706797,1601.74207 580.706797,1603.01438 L580.706797,1610.98562 C580.706797,1612.25793 581.74207,1613.2932 583.014384,1613.2932 L590.985616,1613.2932 C592.25793,1613.2932 593.293203,1612.25793 593.293203,1610.98562 L593.293203,1603.01438 C593.293203,1601.74207 592.25793,1600.7068 590.985616,1600.7068 Z M586.999736,1611.14347 C584.715378,1611.14347 582.856532,1609.28462 582.856532,1606.99974 C582.856532,1604.71538 584.715378,1602.85653 586.999736,1602.85653 C589.284622,1602.85653 591.143468,1604.71538 591.143468,1606.99974 C591.143468,1609.28462 589.284622,1611.14347 586.999736,1611.14347 Z M591.276506,1603.71336 C590.735905,1603.71336 590.296138,1603.2736 590.296138,1602.733 C590.296138,1602.1924 590.735905,1601.75263 591.276506,1601.75263 C591.817108,1601.75263 592.256874,1602.1924 592.256874,1602.733 C592.256874,1603.2736 591.817108,1603.71336 591.276506,1603.71336 Z"></path>
        </g>
    </g>
</svg>