<svg xmlns="http://www.w3.org/2000/svg" xmlns:xlink="http://www.w3.org/1999/xlink" width="122" height="20" viewBox="0 0 122 20"><defs><path id="uynza" d="M728.42 53.9a3.14 3.14 0 0 1-1.55-1.86 4.4 4.4 0 0 1-.2-1.04h1.83a1.82 1.82 0 0 0 .41.96c.12.15.28.27.45.37.18.1.38.15.6.15.25 0 .47-.05.66-.15.18-.1.34-.22.46-.37a1.47 1.47 0 0 0 .37-.96h1.8c-.03.32-.1.67-.22 1.04s-.3.72-.55 1.05c-.24.32-.57.59-.97.8-.41.22-.93.33-1.55.33s-1.13-.1-1.54-.32zm4.92 5.54a117.64 117.64 0 0 1-1.82 3l-.56.91a1018.54 1018.54 0 0 1-4.64 7.49H724V54.87h2.53v11.36h.11l7-11.36H736v15.97h-2.53v-11.4zm-14.4 1c0-.58-.08-1.07-.26-1.49a2.7 2.7 0 0 0-1.75-1.62 3.98 3.98 0 0 0-2.43 0c-.39.12-.73.32-1.01.59-.3.27-.53.61-.7 1.03-.18.42-.27.91-.27 1.48v4.85c0 .6.09 1.1.26 1.51a2.8 2.8 0 0 0 1.74 1.6 3.88 3.88 0 0 0 2.41 0c.4-.12.74-.32 1.04-.58.3-.26.53-.6.7-1.02.19-.42.27-.92.27-1.5zm2.53 5.23c0 .83-.14 1.58-.44 2.25-.3.66-.7 1.22-1.23 1.68-.52.45-1.13.8-1.83 1.04-.7.24-1.45.36-2.25.36-.81 0-1.57-.12-2.27-.36a4.86 4.86 0 0 1-3.02-2.72 5.48 5.48 0 0 1-.44-2.25v-5.68a4.99 4.99 0 0 1 3.5-4.92 6.76 6.76 0 0 1 4.46 0c.7.26 1.3.6 1.83 1.06a4.9 4.9 0 0 1 1.7 3.9zm-16.95-1.35a2.5 2.5 0 0 0-1.72-.64h-3.66v4.77h3.68c.8 0 1.4-.21 1.8-.63.42-.43.62-1 .62-1.74s-.24-1.33-.72-1.76zm-.12-6.57a2.8 2.8 0 0 0-1.77-.5h-3.5v4.11h3.62a2.5 2.5 0 0 0 1.64-.53c.43-.36.65-.86.65-1.51 0-.71-.21-1.23-.64-1.57zm3.18 10.13a4.5 4.5 0 0 1-.83 1.51 4.06 4.06 0 0 1-3.26 1.45h-6.88V54.87h6.6c.73 0 1.37.12 1.93.35a3.88 3.88 0 0 1 2.2 2.3c.18.5.27 1.04.27 1.61 0 .62-.14 1.24-.44 1.85-.3.6-.78 1.1-1.44 1.5a3.6 3.6 0 0 1 1.62 1.6c.34.69.5 1.37.5 2.05 0 .6-.08 1.19-.27 1.75zm-16.81-10.62v13.58h-2.53V57.26H684v-2.39h10.98v2.39z"/><path id="uynzb" d="M803.54 64.02a3.4 3.4 0 0 0-2.32-.76h-4.28v5.8h4.33a4 4 0 0 0 1.25-.2c.38-.12.7-.3.99-.55.27-.25.5-.55.66-.91.17-.36.25-.79.25-1.28 0-.89-.3-1.59-.88-2.1zm2.16 3.82a4.02 4.02 0 0 1-2.3 2.31c-.57.23-1.2.34-1.93.34h-6.1V55.16h1.57v6.65h4.61a4.5 4.5 0 0 1 3.3 1.37 4.35 4.35 0 0 1 1.16 2.95c-.01.6-.11 1.18-.31 1.71zm-20.8-11.26v5.52c0 1.33-.08 2.49-.26 3.47-.17.98-.42 1.82-.74 2.51a5.78 5.78 0 0 1-2.86 2.92l-.72-1.34a4.89 4.89 0 0 0 2.24-2.5c.25-.58.44-1.31.57-2.18.13-.87.2-1.93.2-3.2v-6.62h9.37v15.33h-1.58V56.58zm-15.78 11.17l2.82-4.27 5.53-8.32h1.56v15.33h-1.58V57.83h-.09l-3 4.56-5.38 8.1h-1.56V55.16H769v12.59zm-8.04-11.15V70.5h-1.59V56.6h-4.7v-1.44h10.94v1.44zm-7.35-.33l-.8 1.22c-.46-.34-.98-.6-1.58-.78-.6-.17-1.2-.26-1.82-.26-.5 0-.98.07-1.44.22a3.36 3.36 0 0 0-2.17 1.9 4.3 4.3 0 0 0-.34 1.8v4.89c0 .7.12 1.3.35 1.8a3.67 3.67 0 0 0 2.16 1.93c.46.15.93.23 1.4.23.63 0 1.25-.09 1.85-.26.6-.17 1.15-.44 1.63-.83l.79 1.2a7.18 7.18 0 0 1-6.43.95 5.17 5.17 0 0 1-1.75-1.02 4.71 4.71 0 0 1-1.58-3.69v-5.54a4.82 4.82 0 0 1 3.35-4.67c.67-.24 1.4-.36 2.18-.36 1.66 0 3.06.42 4.2 1.27z"/></defs><g><g transform="translate(-684 -51)"><g><use fill="#e31624" xlink:href="#uynza"/></g><g><use fill="#6b6b6b" xlink:href="#uynzb"/></g></g></g></svg>