<svg id="SVGDoc" width="25" height="25" xmlns="http://www.w3.org/2000/svg" version="1.1" xmlns:xlink="http://www.w3.org/1999/xlink" xmlns:avocode="https://avocode.com/" viewBox="0 0 25 25"><defs><path d="M145,1521.5c0,-6.90356 5.59644,-12.5 12.5,-12.5c6.90356,0 12.5,5.59644 12.5,12.5c0,6.90356 -5.59644,12.5 -12.5,12.5c-6.90356,0 -12.5,-5.59644 -12.5,-12.5z" id="Path-0"/><path d="M159.02734,1524.4866c0.63908,-0.12661 1.23555,-0.37982 1.74682,-0.71743c0.42605,-0.25321 0.55387,-0.80183 0.29824,-1.22384c-0.25564,-0.42202 -0.80951,-0.54862 -1.23556,-0.29541c-1.23556,0.75962 -2.85456,0.75962 -4.09012,0c-0.42606,-0.25321 -0.97993,-0.12661 -1.23556,0.29541c-0.25563,0.42201 -0.12781,0.97063 0.29824,1.22384c0.55387,0.33761 1.15035,0.59082 1.74682,0.71743l-1.70421,1.68805c-0.34085,0.33761 -0.34085,0.88623 0,1.26605c0.17042,0.1688 0.38344,0.25321 0.63908,0.25321c0.21302,0 0.46866,-0.08441 0.63908,-0.25321l1.66161,-1.64586l1.66161,1.64586c0.34084,0.33761 0.89471,0.33761 1.27816,0c0.34085,-0.33761 0.34085,-0.88623 0,-1.26605z" id="Path-1"/><path d="M157.78237,1515.88c-1.66161,0 -2.98237,1.30824 -2.98237,2.95409c0,1.64586 1.32077,2.95409 2.98237,2.95409c1.66161,0 2.98237,-1.30824 2.98237,-2.95409c0,-1.64586 -1.32077,-2.95409 -2.98237,-2.95409z" id="Path-2"/><path d="M157.78814,1520.09205c-0.72428,0 -1.27814,-0.54861 -1.27814,-1.26603c0,-0.71741 0.55386,-1.26602 1.27814,-1.26602c0.72428,0 1.27815,0.54861 1.27815,1.26602c0,0.71742 -0.55387,1.26603 -1.27815,1.26603z" id="Path-3"/></defs><desc>Generated with Avocode.</desc><g transform="matrix(1,0,0,1,-145,-1509)"><g><title>Group 4</title><g><title>Combined Shape</title><use xlink:href="#Path-0" fill="#f5a623" fill-opacity="1"/></g><g><title>Combined Shape</title><use xlink:href="#Path-1" fill="#ffffff" fill-opacity="1"/></g><g><title>Shape</title><use xlink:href="#Path-2" fill="#ffffff" fill-opacity="1"/></g><g><title>Shape</title><use xlink:href="#Path-3" fill="#f5a623" fill-opacity="1"/></g></g></g></svg>