<svg xmlns="http://www.w3.org/2000/svg" xmlns:xlink="http://www.w3.org/1999/xlink" width="104" height="97" viewBox="0 0 104 97"><defs><path id="icjza" d="M1155.9 1936.26c-6.109 1.487-11.643 4.153-16.251 7.694 0 0-6.801-5.084-11.989-.039l5.203 6.676c-3.27 4.176-5.525 8.987-6.48 14.168h-1.635c-3.175 0-5.748 2.503-5.748 5.59v13.043c0 3.087 2.573 5.59 5.748 5.59h7.35c3.039 4.197 7.074 7.799 11.809 10.585v9.569c0 1.03.857 1.863 1.916 1.863h5.748c1.058 0 1.916-.834 1.916-1.863v-5.392a47.036 47.036 0 0 0 13.574 1.985 47.42 47.42 0 0 0 11.313-1.384v4.79c0 1.03.858 1.864 1.916 1.864h5.748c1.057 0 1.916-.834 1.916-1.863v-8.336c12.134-6.16 20.3-17.483 20.3-30.473 0-16.226-12.717-29.869-30.041-34.052"/><path id="icjzb" d="M1186.113 1947.337c-5.378-3.297-11.941-5.257-19.051-5.257-7.109 0-13.674 1.96-19.052 5.257"/><path id="icjzc" d="M1207.15 1962.166s5.294-3.806 8.486-1.01c1.898 1.493 1.688 5.056 0 5.9-1.686.842-4.031-.32-3.352-2.951.679-2.63 6.712-1.287 8.465 1.88"/><path id="icjzd" d="M1180.473 1929.033c0 7.204-6.004 13.044-13.411 13.044s-13.412-5.84-13.412-13.044c0-7.203 6.005-13.043 13.412-13.043 7.407 0 13.411 5.84 13.411 13.043z"/><path id="icjze" d="M1143.357 1963.595c0 1.544-1.286 2.794-2.873 2.794-1.588 0-2.874-1.25-2.874-2.794s1.286-2.795 2.874-2.795c1.587 0 2.873 1.251 2.873 2.795z"/></defs><g><g transform="translate(-1118 -1915)"><g><use fill="#fff" fill-opacity="0" stroke="#dc1414" stroke-linecap="round" stroke-linejoin="round" stroke-miterlimit="50" stroke-width="2" xlink:href="#icjza"/></g><g><use fill="#fff" fill-opacity="0" stroke="#dc1414" stroke-linecap="round" stroke-linejoin="round" stroke-miterlimit="50" stroke-width="2" xlink:href="#icjzb"/></g><g><use fill="#fff" fill-opacity="0" stroke="#dc1414" stroke-linecap="round" stroke-linejoin="round" stroke-miterlimit="50" stroke-width="2" xlink:href="#icjzc"/></g><g><use fill="#fff" fill-opacity="0" stroke="#dc1414" stroke-linecap="round" stroke-linejoin="round" stroke-miterlimit="50" stroke-width="2" xlink:href="#icjzd"/></g><g><use fill="#fff" fill-opacity="0" stroke="#dc1414" stroke-linecap="round" stroke-linejoin="round" stroke-miterlimit="50" stroke-width="2" xlink:href="#icjze"/></g></g></g></svg>