<svg id="SVGDoc" width="10" height="16" xmlns="http://www.w3.org/2000/svg" version="1.1" xmlns:xlink="http://www.w3.org/1999/xlink" xmlns:avocode="https://avocode.com/" viewBox="0 0 10 16"><defs><path d="M990,161c0,-1.10457 0.89543,-2 2,-2h6c1.10457,0 2,0.89543 2,2v12c0,1.10457 -0.89543,2 -2,2h-6c-1.10457,0 -2,-0.89543 -2,-2z" id="Path-0"/><path d="M994,172.5c0,-0.27614 0.22386,-0.5 0.5,-0.5h1c0.27614,0 0.5,0.22386 0.5,0.5v0c0,0.27614 -0.22386,0.5 -0.5,0.5h-1c-0.27614,0 -0.5,-0.22386 -0.5,-0.5z" id="Path-1"/><path d="M990,170.5c0,-0.27614 0.22386,-0.5 0.5,-0.5h9c0.27614,0 0.5,0.22386 0.5,0.5v0c0,0.27614 -0.22386,0.5 -0.5,0.5h-9c-0.27614,0 -0.5,-0.22386 -0.5,-0.5z" id="Path-2"/><path d="M990,161.5c0,-0.27614 0.22386,-0.5 0.5,-0.5h9c0.27614,0 0.5,0.22386 0.5,0.5v0c0,0.27614 -0.22386,0.5 -0.5,0.5h-9c-0.27614,0 -0.5,-0.22386 -0.5,-0.5z" id="Path-3"/><clipPath id="ClipPath1027"><use xlink:href="#Path-0" fill="#ffffff"/></clipPath></defs><desc>Generated with Avocode.</desc><g transform="matrix(1,0,0,1,-990,-159)"><g><title>Group 6</title><g><title>Rectangle 16</title><use xlink:href="#Path-0" fill-opacity="0" fill="#ffffff" stroke-linejoin="miter" stroke-linecap="butt" stroke-opacity="1" stroke="#a7aaad" stroke-miterlimit="50" stroke-width="2" clip-path="url(&quot;#ClipPath1027&quot;)"/></g><g><title>Rectangle 17</title><use xlink:href="#Path-1" fill="#a7aaad" fill-opacity="1"/></g><g><title>Rectangle 17</title><use xlink:href="#Path-2" fill="#a7aaad" fill-opacity="1"/></g><g><title>Rectangle 17</title><use xlink:href="#Path-3" fill="#a7aaad" fill-opacity="1"/></g></g></g></svg>