<svg xmlns="http://www.w3.org/2000/svg" width="82" height="82" viewBox="0 0 82 82"><g><g><g><path fill="none" stroke="#dc1414" stroke-linecap="round" stroke-linejoin="round" stroke-miterlimit="50" stroke-width="2" d="M16.01 15.487h34.278"/></g><g><path fill="none" stroke="#dc1414" stroke-linecap="round" stroke-linejoin="round" stroke-miterlimit="50" stroke-width="2" d="M15.33 27.897h12.592"/></g><g><path fill="none" stroke="#dc1414" stroke-linecap="round" stroke-linejoin="round" stroke-miterlimit="50" stroke-width="2" d="M15.25 39.777h9.298"/></g><g><g><path fill="none" stroke="#dc1414" stroke-linecap="round" stroke-linejoin="round" stroke-miterlimit="50" stroke-width="2" d="M51.357 40.646c0 5.41-4.51 9.796-10.073 9.796-5.563 0-10.074-4.385-10.074-9.796 0-5.41 4.51-9.796 10.074-9.796 5.563 0 10.073 4.386 10.073 9.796z"/></g><g><path fill="none" stroke="#dc1414" stroke-linecap="round" stroke-linejoin="round" stroke-miterlimit="50" stroke-width="2" d="M41.282 25.147v0l4.67-3.127v0l2.671 4.923v0l5.6-.614v0l.06 5.592v0l5.246 2.04v0l-2.564 4.98v0l3.689 4.225v0l-4.602 3.226v0l1.29 5.445v0l-5.584.733v0l-1.407 5.416v0l-5.288-1.927v0l-3.78 4.146v0l-3.781-4.146v0l-5.289 1.927v0l-1.406-5.416v0l-5.585-.733v0l1.29-5.445v0l-4.602-3.226v0l3.69-4.226v0l-2.564-4.98v0l5.245-2.039v0l.06-5.592v0l5.6.614v0l2.671-4.923v0z"/></g><g><path fill="none" stroke="#dc1414" stroke-linecap="round" stroke-linejoin="round" stroke-miterlimit="50" stroke-width="2" d="M41.29 60.549v15.956L49.814 81v0V57.92v0"/></g><g><path fill="none" stroke="#dc1414" stroke-linecap="round" stroke-linejoin="round" stroke-miterlimit="50" stroke-width="2" d="M32.76 57.92V81l8.524-4.495v0V60.55v0"/></g><g><path fill="none" stroke="#dc1414" stroke-linecap="round" stroke-linejoin="round" stroke-miterlimit="50" stroke-width="2" d="M32.539 70.053v0H5a4 4 0 0 1-4-4V5a4 4 0 0 1 4-4h72a4 4 0 0 1 4 4v61.053a4 4 0 0 1-4 4H50.295v0"/></g><g><path fill="none" stroke="#dc1414" stroke-linecap="round" stroke-linejoin="round" stroke-miterlimit="50" stroke-width="2" d="M58.65 15.487h8.355"/></g><g><path fill="none" stroke="#dc1414" stroke-linecap="round" stroke-linejoin="round" stroke-miterlimit="50" stroke-width="2" d="M54.64 27.897h12.6"/></g><g><path fill="none" stroke="#dc1414" stroke-linecap="round" stroke-linejoin="round" stroke-miterlimit="50" stroke-width="2" d="M58.72 39.777h8.638"/></g></g></g></g></svg>