<svg xmlns="http://www.w3.org/2000/svg" xmlns:xlink="http://www.w3.org/1999/xlink" width="98" height="98" viewBox="0 0 98 98"><defs><path id="ax3pa" d="M840.01 1932.38h41.133"/><path id="ax3pb" d="M839.2 1947.28h15.11"/><path id="ax3pc" d="M839.1 1961.53h11.158"/><path id="ax3pd" d="M882.426 1962.575c0 6.493-5.411 11.756-12.087 11.756s-12.089-5.263-12.089-11.756c0-6.491 5.413-11.755 12.089-11.755s12.087 5.264 12.087 11.755z"/><path id="ax3pe" d="M870.347 1943.972l5.604-3.752 3.205 5.908 6.72-.737.072 6.71 6.294 2.448-3.076 5.975 4.427 5.07-5.522 3.872 1.548 6.534-6.701.88-1.69 6.499-6.345-2.313-4.536 4.976-4.537-4.976-6.346 2.313-1.688-6.499-6.702-.88 1.548-6.534-5.522-3.871 4.428-5.07-3.077-5.976 6.294-2.448.072-6.71 6.72.737 3.206-5.908z"/><path id="ax3pf" d="M870.34 1986.454v19.148l10.229 5.393V1983.3"/><path id="ax3pg" d="M860.11 1983.3v27.695l10.229-5.393v-19.148"/><path id="ax3ph" d="M859.847 1997.863H822V1915h96v82.863h-36.846"/><path id="ax3pi" d="M891.18 1932.38h10.026"/><path id="ax3pj" d="M886.36 1947.28h15.12"/><path id="ax3pk" d="M891.27 1961.53h10.365"/></defs><g><g transform="translate(-821 -1914)"><g><use fill="#fff" fill-opacity="0" stroke="#dc1414" stroke-linecap="round" stroke-linejoin="round" stroke-miterlimit="50" stroke-width="2" xlink:href="#ax3pa"/></g><g><use fill="#fff" fill-opacity="0" stroke="#dc1414" stroke-linecap="round" stroke-linejoin="round" stroke-miterlimit="50" stroke-width="2" xlink:href="#ax3pb"/></g><g><use fill="#fff" fill-opacity="0" stroke="#dc1414" stroke-linecap="round" stroke-linejoin="round" stroke-miterlimit="50" stroke-width="2" xlink:href="#ax3pc"/></g><g><g><use fill="#fff" fill-opacity="0" stroke="#dc1414" stroke-linecap="round" stroke-linejoin="round" stroke-miterlimit="50" stroke-width="2" xlink:href="#ax3pd"/></g><g><use fill="#fff" fill-opacity="0" stroke="#dc1414" stroke-linecap="round" stroke-linejoin="round" stroke-miterlimit="50" stroke-width="2" xlink:href="#ax3pe"/></g><g><use fill="#fff" fill-opacity="0" stroke="#dc1414" stroke-linecap="round" stroke-linejoin="round" stroke-miterlimit="50" stroke-width="2" xlink:href="#ax3pf"/></g><g><use fill="#fff" fill-opacity="0" stroke="#dc1414" stroke-linecap="round" stroke-linejoin="round" stroke-miterlimit="50" stroke-width="2" xlink:href="#ax3pg"/></g><g><use fill="#fff" fill-opacity="0" stroke="#dc1414" stroke-linecap="round" stroke-linejoin="round" stroke-miterlimit="50" stroke-width="2" xlink:href="#ax3ph"/></g><g><use fill="#fff" fill-opacity="0" stroke="#dc1414" stroke-linecap="round" stroke-linejoin="round" stroke-miterlimit="50" stroke-width="2" xlink:href="#ax3pi"/></g><g><use fill="#fff" fill-opacity="0" stroke="#dc1414" stroke-linecap="round" stroke-linejoin="round" stroke-miterlimit="50" stroke-width="2" xlink:href="#ax3pj"/></g><g><use fill="#fff" fill-opacity="0" stroke="#dc1414" stroke-linecap="round" stroke-linejoin="round" stroke-miterlimit="50" stroke-width="2" xlink:href="#ax3pk"/></g></g></g></g></svg>