<svg xmlns="http://www.w3.org/2000/svg" xmlns:xlink="http://www.w3.org/1999/xlink" width="40" height="40" viewBox="0 0 40 40"><defs><path id="j202a" d="M352.5 1832.73a2 2 0 0 0-2.04-2.03 2 2 0 0 0-2.05 2.03 2 2 0 0 0 2.05 2.02 2 2 0 0 0 2.04-2.02zM350 1857a20 20 0 1 0 0-40 20 20 0 0 0 0 40zm5.16-12.52c.55.6.55 1.48 0 2.02a1.5 1.5 0 0 1-2.04 0l-2.66-2.63-2.66 2.63c-.27.27-.68.4-1.02.4-.41 0-.75-.13-1.02-.4-.55-.6-.55-1.48 0-2.02l2.72-2.7c-.95-.2-1.9-.61-2.8-1.15a1.42 1.42 0 0 1-.47-1.96c.4-.68 1.3-.88 1.98-.47a6.33 6.33 0 0 0 6.54 0c.68-.4 1.57-.2 1.98.47.4.67.2 1.55-.48 1.96-.82.54-1.77.94-2.8 1.14zm.07-11.75a4.72 4.72 0 0 1-4.77 4.72 4.72 4.72 0 1 1 0-9.45c2.66 0 4.77 2.1 4.77 4.73z"/></defs><g><g transform="translate(-330 -1817)"><use fill="#a7aaad" xlink:href="#j202a"/></g></g></svg>