<svg xmlns="http://www.w3.org/2000/svg" width="96" height="96" viewBox="0 0 96 96"><defs><filter id="ro36a" width="200%" height="200%" x="-50%" y="-50%"><feGaussianBlur in="SourceGraphic" result="FeGaussianBlur1020Out" stdDeviation="0 0"/></filter><mask id="ro36b"><path fill="#fff" d="M48 96c26.51 0 48-21.49 48-48S74.51 0 48 0 0 21.49 0 48s21.49 48 48 48z"/></mask></defs><g><g><g><path fill="#dc1414" d="M48 96c26.51 0 48-21.49 48-48S74.51 0 48 0 0 21.49 0 48s21.49 48 48 48z"/><path fill="#a01414" d="M0 97V-1h96v98zm48-2c26.51 0 48-21.49 48-48S74.51-1 48-1 0 20.49 0 47s21.49 48 48 48z" filter="url(#ro36a)" mask="url(&quot;#ro36b&quot;)"/></g><g><path fill="#fff" d="M38 30v36l28-17.585z"/></g></g></g></svg>