<svg id="SVGDoc" width="30" height="30" xmlns="http://www.w3.org/2000/svg" version="1.1" xmlns:xlink="http://www.w3.org/1999/xlink" xmlns:avocode="https://avocode.com/" viewBox="0 0 30 30"><defs><path d="M372,1607c0,-8.28427 6.71573,-15 15,-15c8.28427,0 15,6.71573 15,15c0,8.28427 -6.71573,15 -15,15c-8.28427,0 -15,-6.71573 -15,-15zM381.29333,1604.35536c-0.03631,-0.00193 -2.21906,-0.04705 -2.33642,-0.00177c-0.18825,0.07264 -0.24342,0.28368 -0.18428,0.5046c0.01779,0.06598 0.67983,1.46281 0.71323,1.52917c0.65364,1.298 1.36958,2.55897 2.27598,3.70612c0.5706,0.72222 1.22931,1.34152 2.05421,1.7795c0.97326,0.51706 2.01798,0.63622 3.09611,0.57819c0.37345,-0.02036 0.5856,-0.23106 0.60927,-0.56161c0.00454,-0.06321 0.10174,-0.80339 0.21425,-1.08525c0.13168,-0.32816 0.40827,-0.37548 0.6901,-0.16236c0.11945,0.09017 0.23024,0.19344 0.33405,0.30121c0.34451,0.3575 0.67058,0.73332 1.02937,1.07594c0.3226,0.30776 0.7232,0.46493 1.18022,0.46698c0.08785,0.00037 1.78773,0.04871 2.13572,0c0.55315,-0.07772 0.73606,-0.5143 0.43995,-0.97783c-0.2341,-0.36647 -0.50753,-0.71462 -0.80294,-1.03551c-0.40652,-0.44108 -0.8559,-0.84276 -1.27566,-1.2721c-0.26369,-0.26975 -0.27625,-0.45142 -0.09544,-0.77542c0.05054,-0.09013 0.10487,-0.1789 0.16652,-0.26214c0.48348,-0.65348 0.97849,-1.29871 1.45086,-1.95981c0.29435,-0.41208 0.56919,-0.84071 0.68379,-1.34501c0.04914,-0.2152 -0.03413,-0.38479 -0.24384,-0.45111c-0.12923,-0.04077 -0.27239,-0.05356 -0.40929,-0.05425c-0.77195,-0.00242 -1.5439,-0.00174 -2.31584,0c-0.41068,0.00103 -0.5267,0.08325 -0.67822,0.46179c-0.29298,0.73362 -0.63329,1.44514 -1.08894,2.09347c-0.25078,0.35644 -0.51799,0.70739 -0.82104,1.01928c-0.23865,0.24556 -0.47202,0.16024 -0.54762,-0.17962c-0.05402,-0.24386 -0.07246,-0.50052 -0.06933,-0.75092c0.00733,-0.63797 0.03833,-1.27593 0.05296,-1.91424c0.00351,-0.14854 -0.00939,-0.29946 -0.03448,-0.44626c-0.04844,-0.28459 -0.20589,-0.48908 -0.49989,-0.55264c-0.2254,-0.04872 -0.45565,-0.067 -0.68452,-0.06909c-0.5619,-0.00552 -1.12516,-0.03005 -1.68637,0c-0.34627,0.01833 -0.66559,0.06462 -0.8948,0.35512c-0.11011,0.13953 -0.09419,0.2794 0.07719,0.31014c0.55495,0.09914 0.68906,0.42761 0.7096,0.80168c0.03169,0.58406 0.0449,0.9673 0.03341,1.55208c-0.0042,0.2238 -0.07487,0.65572 -0.15187,0.86884c-0.0728,0.20309 -0.24174,0.24594 -0.42079,0.12401c-0.12259,-0.08324 -0.23895,-0.18549 -0.33127,-0.30049c-0.69601,-0.86418 -1.22446,-1.82682 -1.64143,-2.84784c-0.14672,-0.35844 -0.38422,-0.50415 -0.73251,-0.52285z" id="Path-0"/></defs><desc>Generated with Avocode.</desc><g transform="matrix(1,0,0,1,-372,-1592)"><g><title>Combined Shape Copy</title><use xlink:href="#Path-0" fill="#f8f8f8" fill-opacity="1"/></g></g></svg>