<svg id="SVGDoc" width="25" height="25" xmlns="http://www.w3.org/2000/svg" version="1.1" xmlns:xlink="http://www.w3.org/1999/xlink" xmlns:avocode="https://avocode.com/" viewBox="0 0 25 25"><defs><path d="M100,1521.5c0,-6.90356 5.59644,-12.5 12.5,-12.5c6.90356,0 12.5,5.59644 12.5,12.5c0,6.90356 -5.59644,12.5 -12.5,12.5c-6.90356,0 -12.5,-5.59644 -12.5,-12.5z" id="Path-0"/><path d="M108.35987,1519.73184c0.34747,0.85085 0.78785,1.65305 1.36786,2.3732c0.07693,0.09584 0.1739,0.18104 0.27605,0.25041c0.14921,0.10161 0.28999,0.0659 0.35066,-0.10334c0.06417,-0.1776 0.12306,-0.53754 0.12656,-0.72403c0.00958,-0.48732 -0.00143,-0.80669 -0.02784,-1.2934c-0.01711,-0.31173 -0.12888,-0.58545 -0.59133,-0.66807c-0.14282,-0.02562 -0.15609,-0.14218 -0.06433,-0.25845c0.19101,-0.24208 0.45711,-0.28066 0.74567,-0.29593c0.46767,-0.02505 0.93706,-0.00461 1.4053,0c0.19073,0.00173 0.3826,0.01697 0.57044,0.05757c0.245,0.05296 0.3762,0.22337 0.41658,0.46053c0.0209,0.12233 0.03165,0.24811 0.02872,0.37189c-0.01218,0.53192 -0.03801,1.06356 -0.04412,1.59519c-0.00261,0.20868 0.01275,0.42255 0.05777,0.62577c0.063,0.28322 0.25748,0.35432 0.45635,0.14968c0.25254,-0.2599 0.47521,-0.55236 0.6842,-0.84939c0.37971,-0.54028 0.6633,-1.13321 0.90745,-1.74456c0.12627,-0.31545 0.22295,-0.38397 0.56518,-0.38482c0.64329,-0.00145 1.28658,-0.00202 1.92986,0c0.11409,0.00056 0.2334,0.01123 0.34109,0.0452c0.17475,0.05527 0.24414,0.19659 0.2032,0.37593c-0.09551,0.42025 -0.32454,0.77744 -0.56983,1.12084c-0.39364,0.55091 -0.80615,1.08861 -1.20905,1.63317c-0.05138,0.06937 -0.09665,0.14335 -0.13877,0.21846c-0.15068,0.27 -0.14021,0.42138 0.07953,0.64618c0.3498,0.35778 0.72429,0.69251 1.06305,1.06008c0.24618,0.26741 0.47404,0.55754 0.66912,0.86293c0.24676,0.38627 0.09433,0.75009 -0.36663,0.81485c-0.28998,0.0406 -1.70656,0.00031 -1.77976,0c-0.38085,-0.0017 -0.71468,-0.13268 -0.98351,-0.38915c-0.299,-0.28551 -0.57072,-0.5987 -0.85782,-0.89661c-0.0865,-0.08981 -0.17883,-0.17587 -0.27837,-0.25101c-0.23486,-0.1776 -0.46535,-0.13817 -0.57508,0.1353c-0.09376,0.23489 -0.17476,0.85169 -0.17854,0.90438c-0.01973,0.27545 -0.19652,0.45103 -0.50773,0.468c-0.89844,0.04836 -1.76904,-0.05094 -2.58009,-0.48182c-0.68742,-0.36498 -1.23634,-0.88107 -1.71184,-1.48292c-0.75534,-0.95596 -1.35196,-2.00677 -1.89665,-3.08843c-0.02784,-0.0553 -0.57953,-1.21933 -0.59436,-1.27431c-0.04928,-0.1841 -0.00331,-0.35997 0.15357,-0.42051c0.0978,-0.03772 1.91676,-0.00012 1.94701,0.00149c0.29024,0.01558 0.48816,0.137 0.61043,0.4357z" id="Path-1"/></defs><desc>Generated with Avocode.</desc><g transform="matrix(1,0,0,1,-100,-1509)"><g><title>Group 9</title><g><title>Oval 2</title><use xlink:href="#Path-0" fill="#597da3" fill-opacity="1"/></g><g><title>Shape</title><use xlink:href="#Path-1" fill="#ffffff" fill-opacity="1"/></g></g></g></svg>