<?xml version="1.0" encoding="UTF-8"?>
<svg width="36px" height="32px" viewBox="0 0 36 32" version="1.1" xmlns="http://www.w3.org/2000/svg" xmlns:xlink="http://www.w3.org/1999/xlink">
    <!-- Generator: Sketch 53.1 (72631) - https://sketchapp.com -->
    <title>youtube-up</title>
    <desc>Created with Sketch.</desc>
    <g id="Home" stroke="none" stroke-width="1" fill="none" fill-rule="evenodd">
        <g id="TS_1440-Home" transform="translate(-674.000000, -8898.000000)" fill="#BABEC2" fill-rule="nonzero">
            <path d="M674,8930 L680.4,8930 L680.4,8910.8 L674,8910.8 L674,8930 Z M709.2,8912.4 C709.2,8910.64 707.76,8909.2 706,8909.2 L695.904,8909.2 L697.424,8901.888 L697.472,8901.376 C697.472,8900.72 697.2,8900.112 696.768,8899.68 L695.072,8898 L684.544,8908.544 C683.952,8909.12 683.6,8909.92 683.6,8910.8 L683.6,8926.8 C683.6,8928.56 685.04,8930 686.8,8930 L701.2,8930 C702.528,8930 703.664,8929.2 704.144,8928.048 L708.976,8916.768 C709.12,8916.4 709.2,8916.016 709.2,8915.6 L709.2,8912.544 L709.184,8912.528 L709.2,8912.4 Z" id="youtube-up"></path>
        </g>
    </g>
</svg>