<?xml version="1.0" encoding="UTF-8"?>
<svg width="36px" height="32px" viewBox="0 0 36 32" version="1.1" xmlns="http://www.w3.org/2000/svg" xmlns:xlink="http://www.w3.org/1999/xlink">
    <!-- Generator: Sketch 53.1 (72631) - https://sketchapp.com -->
    <title>youtube-down</title>
    <desc>Created with Sketch.</desc>
    <g id="Home" stroke="none" stroke-width="1" fill="none" fill-rule="evenodd">
        <g id="TS_1440-Home" transform="translate(-730.000000, -8909.000000)" fill="#BABEC2" fill-rule="nonzero">
            <path d="M752.4,8909 L738,8909 C736.672,8909 735.536,8909.8 735.056,8910.952 L730.224,8922.232 C730.08,8922.6 730,8922.984 730,8923.4 L730,8926.456 L730.016,8926.472 L730,8926.6 C730,8928.36 731.44,8929.8 733.2,8929.8 L743.296,8929.8 L741.776,8937.112 L741.728,8937.624 C741.728,8938.28 742,8938.888 742.432,8939.32 L744.128,8941 L754.672,8930.456 C755.248,8929.88 755.6,8929.08 755.6,8928.2 L755.6,8912.2 C755.6,8910.44 754.16,8909 752.4,8909 Z M758.8,8909 L758.8,8928.2 L765.2,8928.2 L765.2,8909 L758.8,8909 Z" id="youtube-down"></path>
        </g>
    </g>
</svg>