<svg xmlns="http://www.w3.org/2000/svg" width="118" height="82" viewBox="0 0 118 82"><g><g><path fill="none" stroke="#dc1414" stroke-linecap="round" stroke-linejoin="round" stroke-miterlimit="20" stroke-width="2" d="M44.12 55.68h23.585"/></g><g><path fill="none" stroke="#dc1414" stroke-linecap="round" stroke-linejoin="round" stroke-miterlimit="20" stroke-width="2" d="M110.56 50.19h3.2"/></g><g><path fill="none" stroke="#dc1414" stroke-linecap="round" stroke-linejoin="round" stroke-miterlimit="20" stroke-width="2" d="M105.307 39.656v0l-3.929-18.067c-.645-2.966-3.246-5.079-6.253-5.079H77.84v0"/></g><g><path fill="none" stroke="#dc1414" stroke-linecap="round" stroke-linejoin="round" stroke-miterlimit="20" stroke-width="2" d="M77.841 46.194v0V1v0H1v17.581"/></g><g><path fill="none" stroke="#dc1414" stroke-linecap="round" stroke-linejoin="round" stroke-miterlimit="20" stroke-width="2" d="M1 29.78v39.903h14.945c0-6.248 5.016-11.312 11.202-11.312 6.187 0 11.203 5.064 11.203 11.312h39.491v0-12.169 0"/></g><g><path fill="none" stroke="#dc1414" stroke-linecap="round" stroke-linejoin="round" stroke-miterlimit="20" stroke-width="2" d="M38.354 69.683c0 6.248-5.015 11.313-11.202 11.313S15.95 75.931 15.95 69.683 20.965 58.37 27.152 58.37s11.202 5.065 11.202 11.313z"/></g><g><path fill="none" stroke="#dc1414" stroke-linecap="round" stroke-linejoin="round" stroke-miterlimit="20" stroke-width="2" d="M77.84 69.695v0h8.533c0-6.25 5.016-11.317 11.203-11.317 6.187 0 11.202 5.067 11.202 11.317h8.221v0-20.336c0-5.357-4.299-9.699-9.602-9.699H77.84v0"/></g><g><path fill="none" stroke="#dc1414" stroke-linecap="round" stroke-linejoin="round" stroke-miterlimit="20" stroke-width="2" d="M108.775 69.683c0 6.248-5.016 11.313-11.202 11.313-6.188 0-11.203-5.065-11.203-11.313S91.385 58.37 97.573 58.37c6.186 0 11.202 5.065 11.202 11.313z"/></g></g></svg>