<svg xmlns="http://www.w3.org/2000/svg" width="81" height="81" viewBox="0 0 81 81"><g><g><path fill="none" stroke="#dc1414" stroke-linecap="round" stroke-linejoin="round" stroke-miterlimit="20" stroke-width="2" d="M59.579 80H44.42C39.771 80 36 76.3 36 71.74V42v0h32v29.74C68 76.3 64.229 80 59.579 80z"/></g><g><path fill="none" stroke="#dc1414" stroke-linecap="round" stroke-linejoin="round" stroke-miterlimit="20" stroke-width="2" d="M68 73v0h6c3.313 0 6-3.167 6-7.074v-9.853C80 52.166 77.313 49 74 49h-6v0"/></g><g><path fill="none" stroke="#dc1414" stroke-linecap="round" stroke-linejoin="round" stroke-miterlimit="20" stroke-width="2" d="M61.791 38.542v0a3.33 3.33 0 0 0-3.332-3.325H45.716a3.963 3.963 0 0 1-3.966-3.959 3.962 3.962 0 0 1 3.966-3.958h1.044v0h6.054c1.73 0 3.132-1.4 3.132-3.125a3.128 3.128 0 0 0-3.132-3.125h-1.043v0h-2.923a2.503 2.503 0 0 1-2.505-2.5c0-1.38 1.121-2.5 2.505-2.5h2.088v0"/></g><g><path fill="none" stroke="#dc1414" stroke-linecap="round" stroke-linejoin="round" stroke-miterlimit="20" stroke-width="2" d="M28.82 75v0H5.341C2.944 75 1 73.413 1 71.456V4.544C1 2.587 2.944 1 5.341 1h51.16C58.985 1 61 2.666 61 4.72v26.498"/></g><g><path fill="none" stroke="#dc1414" stroke-linecap="round" stroke-linejoin="round" stroke-miterlimit="20" stroke-width="2" d="M9 42.5h4"/></g><g><path fill="none" stroke="#dc1414" stroke-linecap="round" stroke-linejoin="round" stroke-miterlimit="20" stroke-width="2" d="M18 42.5h10"/></g><g><path fill="none" stroke="#dc1414" stroke-linecap="round" stroke-linejoin="round" stroke-miterlimit="20" stroke-width="2" d="M9 58.5h18"/></g><g><path fill="none" stroke="#dc1414" stroke-linecap="round" stroke-linejoin="round" stroke-miterlimit="20" stroke-width="2" d="M9 27h26"/></g></g></svg>