<svg xmlns="http://www.w3.org/2000/svg" width="82" height="82" viewBox="0 0 82 82"><g><g><path fill="none" stroke="#dc1414" stroke-linecap="round" stroke-linejoin="round" stroke-miterlimit="20" stroke-width="2" d="M41 25.276v0L45.822 22v0l2.757 5.157v0l5.781-.643v0l.063 5.858v0l5.415 2.136v0l-2.647 5.216v0L61 44.151v0l-4.75 3.38v0l1.331 5.703v0l-5.765.768v0l-1.453 5.673v0l-5.46-2.018v0L41 62v0l-3.903-4.343v0l-5.46 2.018v0l-1.452-5.673v0l-5.766-.768v0l1.332-5.704v0L21 44.15v0l3.81-4.426v0l-2.647-5.216v0l5.414-2.136v0l.063-5.858v0l5.781.643v0L36.18 22v0z"/></g><g><path fill="none" stroke="#dc1414" stroke-linecap="round" stroke-linejoin="round" stroke-miterlimit="20" stroke-width="2" d="M35 59v22l6-4.478zm6 17.522L47 81V59z"/></g><g><path fill="none" stroke="#dc1414" stroke-linecap="round" stroke-linejoin="round" stroke-miterlimit="20" stroke-width="2" d="M30 70.053v0H5a4 4 0 0 1-4-4V5a4 4 0 0 1 4-4h72a4 4 0 0 1 4 4v61.053a4 4 0 0 1-4 4H52v0"/></g></g></svg>