<?xml version="1.0" encoding="UTF-8"?>
<svg viewBox="0 0 40 35" version="1.1" xmlns="http://www.w3.org/2000/svg" xmlns:xlink="http://www.w3.org/1999/xlink">
    <!-- Generator: Sketch 50 (54983) - http://www.bohemiancoding.com/sketch -->
    <title>Group</title>
    <desc>Created with Sketch.</desc>
    <defs></defs>
    <g id="LK---Order-FIZ-and-UR" stroke="none" stroke-width="1" fill="none" fill-rule="evenodd">
        <g id="LK-Ur-Order-_1920" transform="translate(-344.000000, -518.000000)" fill="#DC1414" fill-rule="nonzero">
            <g id="Group" transform="translate(344.000000, 518.000000)">
                <path d="M1.05796139,25.9796141 C1.39643262,25.9741015 2.10330307,25.2795118 2.91349631,24.84244 C3.49709197,24.5266458 4.48115255,24.1903762 6.00035395,24.1856511 C7.51955536,24.1903762 8.50361593,24.5266458 9.08721159,24.84244 C9.89740484,25.2802993 10.6042753,25.974889 10.9427465,25.9796141 C10.9427465,25.9796141 11.5569827,26.1142794 11.4957016,25.691383 C11.4344205,25.2684865 10.0776853,24.3400044 9.39860513,23.9958596 C8.97818823,23.7824426 8.19079725,23.4485355 6.96802539,23.3233203 L7.26231722,22.4791025 C7.32502347,22.4917027 7.38986743,22.5011529 7.45613654,22.5011529 C8.05754647,22.5011529 8.54494505,21.9420161 8.54494505,21.251364 C8.54494505,20.5614994 8.05754647,20.001575 7.45613654,20.001575 C6.8547266,20.001575 6.36732802,20.5614994 6.36732802,21.251364 C6.36732802,21.5892086 6.48490224,21.8924026 6.67373356,22.1176323 L6.28395722,23.2768569 C6.19844869,23.2752818 6.11579046,23.2713442 6.02956936,23.2697692 L6.02956936,23.2674067 C6.01959337,23.2674067 6.01104252,23.2674067 6.00035395,23.2674067 C5.98966539,23.2674067 5.98182711,23.2674067 5.97113854,23.2674067 L5.97113854,23.2697692 C5.88491745,23.2713442 5.80225921,23.2752818 5.71675069,23.2768569 L5.32626177,22.1160573 C5.51580566,21.891615 5.63266731,21.5876336 5.63266731,21.249789 C5.63266731,20.5599244 5.14526873,20 4.5438588,20 C3.94244886,20 3.45505028,20.5599244 3.45505028,21.249789 C3.45505028,21.9404411 3.94244886,22.4995779 4.5438588,22.4995779 C4.6101279,22.4995779 4.67497186,22.4893402 4.73767811,22.4775274 L5.03196994,23.3217453 C3.80919808,23.4469605 3.02180711,23.7808675 2.60139021,23.9942846 C1.92159746,24.3392169 0.565574815,25.2669115 0.504293707,25.6898079 C0.4430126,26.1127044 1.05796139,25.9796141 1.05796139,25.9796141 Z" id="Shape"></path>
                <path d="M6.03005976,25.0015061 L6.03005976,25 C6.03005976,25 6.01557313,25 6.00036217,25 C5.9851512,25 5.97066457,25 5.97066457,25 L5.97066457,25.0015061 C5.53751434,25.010543 2.5865878,25.120491 1.34291061,26.3992017 C0,27.7825891 0,33.2453498 0,33.7853001 C0,34.3252504 0.406349973,35 1.03072373,35 C1.61381059,35 5.4607352,35 5.97066457,35 C6.00760548,35 6.02933543,35 6.02933543,35 C6.53998914,35 10.3861894,35 10.9692763,35 C11.5943744,35 12,34.3252504 12,33.7853001 C12,33.2453498 12,27.7825891 10.6563651,26.3992017 C9.41413654,25.120491 6.46248566,25.0097899 6.03005976,25.0015061 Z" id="Shape"></path>
                <rect id="Rectangle-path" x="11" y="7" width="16" height="1"></rect>
                <rect id="Rectangle-path" x="31" y="7" width="3" height="1"></rect>
                <rect id="Rectangle-path" x="11" y="12" width="16" height="1"></rect>
                <rect id="Rectangle-path" x="31" y="12" width="3" height="1"></rect>
                <rect id="Rectangle-path" x="11" y="17" width="16" height="1"></rect>
                <rect id="Rectangle-path" x="31" y="17" width="3" height="1"></rect>
                <rect id="Rectangle-path" x="25" y="24" width="9" height="1"></rect>
                <path d="M37.8010471,0 L7.19895288,0 C5.98439791,0 5,0.984198232 5,2.19850685 L5,17.4810608 L6.13811518,17.4810608 L6.13811518,1.13694866 L38.9234555,1.13694866 L38.9234555,22.9235103 L38.9227225,23.584528 L38.9227225,30.8821051 L14.4063874,30.8821051 L14.4063874,32 L37.8010471,32 C39.0156021,32 40,31.0158018 40,29.8014932 L40,2.19850685 C40,0.984198232 39.0156021,0 37.8010471,0 Z" id="Shape"></path>
            </g>
        </g>
    </g>
</svg>
