<svg xmlns="http://www.w3.org/2000/svg" xmlns:xlink="http://www.w3.org/1999/xlink" width="23" height="22" viewBox="0 0 23 22"><defs><path id="q15pa" d="M319.96 580.98a.89.89 0 0 0-1.13-.57l-1.16.38a11.09 11.09 0 0 0 1.09-4.79c0-6.07-4.88-11-10.88-11-6 0-10.88 4.93-10.88 11s4.88 11 10.88 11c.49 0 .89-.4.89-.9s-.4-.9-.9-.9a9.16 9.16 0 0 1-9.09-9.2c0-5.07 4.08-9.2 9.1-9.2 5.01 0 9.1 4.13 9.1 9.2 0 1.4-.32 2.77-.92 4l-.4-1.22a.89.89 0 0 0-1.11-.58.9.9 0 0 0-.58 1.13l1.05 3.27a.9.9 0 0 0 1.13.58l3.23-1.06a.9.9 0 0 0 .58-1.14z"/></defs><g><g transform="translate(-297 -565)"><use fill="#50555f" xlink:href="#q15pa"/></g></g></svg>