<svg xmlns="http://www.w3.org/2000/svg" width="217" height="52" viewBox="0 0 217 52"><g><g><path d="M.31 26.18c0-11.536 7.986-12.84 15.73-12.84h8.845c9.83 0 13.702 4.055 13.702 10.79v.868H33.67v-.747c0-5.295-3.443-6.548-8.72-6.548h-9.712c-4.977 0-9.647.75-9.647 8.67v6.668c0 7.103 4.304 8.73 10.692 8.73h8.91c4.913 0 9.032-1.502 9.032-6.67v-1.063h4.916v.937c0 8.045-3.935 11.161-13.765 11.161H13.458C8.724 46.136.31 44.826.31 33.296z"/></g><g><path d="M47.99 45.642h5.286V.5H47.99z"/></g><g><path d="M63.9 13.836h5.292v31.796H63.9zM63.9.5h5.292v5.86H63.9z"/></g><g><path d="M114.326 33.04c0 7.36-3.686 8.731-9.834 8.731h-9.396c-5.597 0-10.26-1.247-10.26-8.847v-6.052c0-5.488 2.647-9.169 9.582-9.169h10.503c7.438 0 9.405 2.932 9.405 9.106zM79.55 52.108h5.286V41.394h.116c1.11 3.31 3.629 4.742 9.218 4.742h10.08c10.868 0 15.36-3.503 15.36-13.78v-5.612c0-10.975-7.009-13.404-14.503-13.404H95.096c-4.672 0-8.971 1.678-10.51 5.55h-.116v-5.06h-4.92z"/></g><g><path fill="#dc1414" d="M126.98 34.665h4.914v1.561c0 3.916 2.027 5.546 7.43 5.546h11.309c7.915 0 10.446-.306 10.446-5.048v-.253c0-3.05-.861-4.738-7.196-4.738h-16.275c-7.44 0-10.199-2.437-10.199-8.479v-1.87c0-5.173 2.89-8.044 15.911-8.044h8.114c11.916 0 13.571 3.493 13.571 7.981v1.686h-4.907v-.313c0-4.859-3.205-4.99-8.974-4.99h-9.213c-7.561 0-9.218.748-9.218 4.366v1.184c0 2.616.856 4.11 6.385 4.11h13.95c7.927 0 13.33.812 13.33 9.42v.122c0 8.915-8.107 9.23-14.559 9.23h-9.708c-7.804 0-15.111 0-15.111-9.537z"/></g><g><path d="M211.028 32.924c0 7.42-4.311 8.847-10.451 8.847h-10.751c-6.141 0-10.44-1.427-10.44-8.847v-6.366c0-7.42 4.299-8.855 10.44-8.855h10.75c6.14 0 10.452 1.436 10.452 8.855zm-36.928.314c0 10.465 7.315 12.898 17.327 12.898h7.56c10.014 0 17.32-2.433 17.32-12.898V26.25c0-10.482-7.306-12.911-17.32-12.911h-7.56c-10.012 0-17.327 2.43-17.327 12.91z"/></g></g></svg>