<svg xmlns="http://www.w3.org/2000/svg" width="217" height="80" viewBox="0 0 217 80"><g><g><g><path d="M.31 26.18c0-11.536 7.986-12.84 15.73-12.84h8.845c9.83 0 13.702 4.055 13.702 10.79v.868H33.67v-.747c0-5.295-3.443-6.548-8.72-6.548h-9.712c-4.977 0-9.647.75-9.647 8.67v6.668c0 7.103 4.304 8.73 10.692 8.73h8.91c4.913 0 9.032-1.502 9.032-6.67v-1.063h4.916v.937c0 8.045-3.935 11.161-13.765 11.161H13.458C8.724 46.136.31 44.826.31 33.296z"/></g><g><path d="M47.99 45.642h5.286V.5H47.99z"/></g><g><path d="M63.9 13.836h5.292v31.796H63.9zM63.9.5h5.292v5.86H63.9z"/></g><g><path d="M114.326 33.04c0 7.36-3.686 8.731-9.834 8.731h-9.396c-5.597 0-10.26-1.247-10.26-8.847v-6.052c0-5.488 2.647-9.169 9.582-9.169h10.503c7.438 0 9.405 2.932 9.405 9.106zM79.55 52.108h5.286V41.394h.116c1.11 3.31 3.629 4.742 9.218 4.742h10.08c10.868 0 15.36-3.503 15.36-13.78v-5.612c0-10.975-7.009-13.404-14.503-13.404H95.096c-4.672 0-8.971 1.678-10.51 5.55h-.116v-5.06h-4.92z"/></g><g><path fill="#dc1414" d="M126.98 34.665h4.914v1.561c0 3.916 2.027 5.546 7.43 5.546h11.309c7.915 0 10.446-.306 10.446-5.048v-.253c0-3.05-.861-4.738-7.196-4.738h-16.275c-7.44 0-10.199-2.437-10.199-8.479v-1.87c0-5.173 2.89-8.044 15.911-8.044h8.114c11.916 0 13.571 3.493 13.571 7.981v1.686h-4.907v-.313c0-4.859-3.205-4.99-8.974-4.99h-9.213c-7.561 0-9.218.748-9.218 4.366v1.184c0 2.616.856 4.11 6.385 4.11h13.95c7.927 0 13.33.812 13.33 9.42v.122c0 8.915-8.107 9.23-14.559 9.23h-9.708c-7.804 0-15.111 0-15.111-9.537z"/></g><g><path d="M211.028 32.924c0 7.42-4.311 8.847-10.451 8.847h-10.751c-6.141 0-10.44-1.427-10.44-8.847v-6.366c0-7.42 4.299-8.855 10.44-8.855h10.75c6.14 0 10.452 1.436 10.452 8.855zm-36.928.314c0 10.465 7.315 12.898 17.327 12.898h7.56c10.014 0 17.32-2.433 17.32-12.898V26.25c0-10.482-7.306-12.911-17.32-12.911h-7.56c-10.012 0-17.327 2.43-17.327 12.91z"/></g><g><path fill="#dc1414" d="M62.443 72.93c-1.296 1.341-3.556 1.29-5.282 1.29-1.702 0-4.14.025-5.764-.515-2.363-.8-2.717-3.406-2.717-5.598 0-5.613 2.539-6.106 7.365-6.106 1.7 0 5-.073 6.297 1.342.786.874.964 1.934 1.016 3.064h-1.956c-.05-1.983-.99-2.422-2.794-2.625-.863-.105-1.726-.105-2.591-.105-3.986 0-5.356.207-5.356 4.72 0 1.133.1 2.419.938 3.267.964.984 3.937.907 5.182.907.813 0 1.626 0 2.412-.131 1.752-.26 2.26-.926 2.337-2.681h1.877c-.025 1.163-.126 2.322-.964 3.17"/></g><g><path fill="#dc1414" d="M74.516 63.73c2.21.128 3.733.592 3.733 3.182H67.278c.127-1.902.685-2.774 2.617-3.08.864-.132 1.75-.156 2.64-.156.661 0 1.32 0 1.981.054zm5.789 4.815c-.025-1.698 0-3.604-1.193-4.946-1.12-1.265-2.567-1.441-4.14-1.547C74.16 62 73.372 62 72.585 62c-4.85 0-7.365.44-7.365 6.082 0 2.346.382 4.972 2.947 5.695 1.575.441 3.986.466 5.611.466 1.043 0 2.084-.025 3.125-.209 2.156-.383 3.35-1.29 3.377-3.63h-1.93c-.05.54-.075.874-.432 1.29-.861.95-3.15.874-4.316.874-1.346 0-4.521.127-5.536-.98-.738-.801-.839-2.01-.865-3.043z"/></g><g><path fill="#dc1414" d="M82.7 62.16h1.851v11.913H82.7zm0-5.26h1.851v2.232H82.7z"/></g><g><path fill="#dc1414" d="M87.6 74.083h1.88V56.9H87.6z"/></g><g><path fill="#dc1414" d="M92.53 62.16h1.852v11.913H92.53zm0-5.26h1.852v2.232H92.53z"/></g><g><path fill="#dc1414" d="M110.1 74.09v-5.922c0-1.108.075-2.555-.661-3.483-.863-1.054-3.15-1.004-4.368-1.004-1.853 0-4.925 0-5.637 2.189-.28.85-.229 1.782-.229 2.68v5.54H97.35V62.163h1.855v1.8h.128c.736-1.44 2.005-1.752 3.503-1.875a23.84 23.84 0 0 1 2.438-.107c1.727 0 4.393-.077 5.689 1.342.966 1.03.966 2.68.966 4.018v6.749z"/></g><g><path fill="#dc1414" d="M125.167 63.911c2.106.418 2.486 1.576 2.486 3.615 0 1.707-.103 3.67-2.005 4.184-1.168.337-2.51.31-3.704.31-1.243 0-3.856.078-4.794-.933-.788-.85-.913-2.036-.913-3.146 0-1.886.252-3.54 2.308-3.98 1.167-.259 2.436-.259 3.627-.259.99 0 2.005 0 2.995.21m4.298 8.61c0-.49.025-.958.025-1.447V62.16h-1.851l.05 1.52h-.13c-1.065-1.828-3.603-1.678-5.409-1.678-4.468 0-7.92.052-7.92 5.723 0 2.14.43 4.614 2.692 5.44 1.243.466 3.53.49 4.849.49 1.269 0 3.58.05 4.7-.597.454-.251.708-.51 1.04-.954h.128c-.053 1.035-.027 2.893-.714 3.715-.28.335-.532.486-.938.644-1.142.41-3.377 1.658-4.597 1.658-1.14 0-3.735-1.167-4.547-2.2-.303-.39-.353-.774-.406-1.24h-1.904c0 1.315.332 3.598 1.526 4.238 1.596.882 3.731.853 5.483.853 1.93 0 5.435.182 6.833-1.47 1.065-1.258 1.065-4.214 1.09-5.78"/></g><g><path d="M155.122 71.184c-.356.515-.89.615-1.473.718-1.472.232-3.022.232-4.495.232-1.446 0-2.895-.05-4.342-.076-.964-.025-3.123-.025-3.885-.774-.635-.616-.736-1.728-.736-2.578 0-2.682.837-3.458 3.454-3.607zm6.044 1.024l-3.352-1.775a29.12 29.12 0 0 0 .227-3.632v-1.083h-2.183c0 1.235 0 2.45-.075 3.684l-10.135-5.464c-.43-.233-.836-.484-1.267-.716-1.043-.625-1.88-1.11-1.88-2.477 0-.798.356-1.389 1.117-1.623.915-.282 3.379-.207 4.343-.207 1.245 0 3.91 0 5.077.357.28.084.485.184.69.417.481.54.403 1.856.43 2.548h2.159c0-.898.05-1.858-.205-2.73-.305-1.058-1.117-1.701-2.134-2.01-1.752-.564-3.883-.616-5.712-.616h-1.195c-1.649 0-4.798-.082-6.017 1.312-.584.67-.788 1.572-.788 2.445 0 1.419.507 2.5 1.726 3.225-1.039.156-1.877.231-2.69.982-1.043.95-1.322 2.242-1.322 3.604 0 2.395.536 4.583 3.074 5.284 1.904.514 4.594.464 6.551.464 2.21 0 4.62.026 6.806-.314 1.372-.202 1.829-.535 2.743-1.592l3.403 1.824z"/></g><g><path fill="#dc1414" d="M184.338 74.087h-2.743l-3.63-10.151h-.178l-3.58 10.15h-2.742L166.03 62.16h2.057l4.57 10.202h.205l3.554-10.202h2.92l3.58 10.202h.203l4.546-10.202h2.134z"/></g><g><path fill="#dc1414" d="M202.73 69.551c.279.284.356.693.356 1.08 0 .409-.049.85-.332 1.182-.761.923-3.48.848-4.546.848-1.249 0-3.359.053-4.5-.232-.866-.208-1.195-.796-1.195-1.67 0-.924.252-1.595 1.195-1.878.94-.282 3.099-.2 4.091-.2 1.143 0 4.09-.082 4.93.87zm2.33 4.535V67.49c0-.973.022-1.982-.28-2.907-.156-.465-.358-.824-.69-1.166-1.421-1.49-4.52-1.332-6.375-1.332-1.596 0-4.924-.108-6.04 1.332-.432.567-.585 1.166-.585 1.885 0 .182 0 .331.024.514h1.93c0-.464.026-.923.332-1.316.685-.9 3.503-.741 4.467-.741 1.322 0 3.862-.132 4.802 1.05.534.675.558 1.421.558 2.248v1.257h-.152c-.786-1.057-1.904-1.183-3.149-1.207-1.12-.024-2.26-.077-3.377-.077-1.32 0-3.914-.107-5.001.827-.79.665-.944 1.615-.944 2.626 0 .953.028 1.955.712 2.68.331.332.687.567 1.117.717 1.372.492 3.936.415 5.385.415 1.348 0 3.45.103 4.596-.748.33-.234.534-.46.764-.8h.102l-.053 1.34z"/></g><g><path fill="#dc1414" d="M207.93 74.083h1.88V56.9h-1.88z"/></g><g><path fill="#dc1414" d="M212.86 74.083h1.88V56.9h-1.88z"/></g></g></g></svg>