<?xml version="1.0" encoding="UTF-8"?>
<svg width="180px" height="111px" viewBox="0 0 180 111" version="1.1" xmlns="http://www.w3.org/2000/svg" xmlns:xlink="http://www.w3.org/1999/xlink">
    <!-- Generator: Sketch 53.2 (72643) - https://sketchapp.com -->
    <title>deceuninck</title>
    <desc>Created with Sketch.</desc>
    <g id="Catalog" stroke="none" stroke-width="1" fill="none" fill-rule="evenodd">
        <g id="TS_1440-Catalog" transform="translate(-1130.000000, -2801.000000)">
            <g id="deceuninck" transform="translate(1130.000000, 2801.000000)">
                <rect id="Rectangle" fill="#FFFFFF" x="0" y="0" width="180" height="111"></rect>
                <path d="M22.7974088,48.5322712 C22.7974088,48.9933712 22.6809854,49.4544712 22.564562,49.2242837 C21.1682117,46.9180587 14.9999635,47.0333337 14.9999635,52.3374337 L14.9999635,64.7900337 C14.9999635,68.0180962 19.1897445,71.0159712 22.564562,66.9806212 C22.6809854,66.8649837 22.7974088,66.7500712 22.9138321,66.8649837 L22.9138321,66.9806212 L22.9138321,68.5948337 L28.2671168,68.5948337 L28.2671168,40.0001087 L22.9138321,40.0001087 L22.9138321,48.5322712 L22.7974088,48.5322712 Z M22.7974088,62.5990837 L22.7974088,62.5990837 C22.7974088,64.9049462 20.2368248,65.0202212 20.2368248,62.5990837 L20.2368248,53.3749087 C20.2368248,51.0690462 22.7974088,51.0690462 22.7974088,53.2596337 L22.7974088,62.5990837 Z" id="Fill-1" fill="#1266B0"></path>
                <path d="M85.874635,62.483555 C85.874635,64.2130425 83.3144161,64.2130425 83.3144161,62.3686425 L83.3144161,48.0709175 L78.0771898,48.0709175 L78.0771898,64.55923 C78.0771898,69.4018675 83.8961679,70.0935175 85.9910584,66.9803675 L85.9910584,68.59458 L91.3443431,68.59458 L91.3443431,48.0709175 L85.874635,48.0709175 L85.874635,62.483555 Z" id="Fill-4" fill="#1266B0"></path>
                <polygon id="Fill-6" fill="#1266B0" points="110.430657 68.59458 115.783942 68.59458 115.783942 48.0709175 110.430657 48.0709175"></polygon>
                <polygon id="Fill-8" fill="#1266B0" points="110.430657 45.303955 115.783942 45.303955 115.783942 40.0002175 110.430657 40.0002175"></polygon>
                <polygon id="Fill-9" fill="#1266B0" points="161.171496 56.9494125 164.662737 48.0710625 158.960182 48.0710625 156.051058 56.02685 156.051058 40 150.464562 40 150.464562 68.594725 156.051058 68.594725 156.051058 58.44835 159.076971 68.594725 164.662737 68.594725"></polygon>
                <path d="M30.4783942,52.7983525 L30.4783942,63.752015 C30.4783942,70.55469 43.6291241,70.9008775 43.6291241,63.752015 L43.6291241,61.2156025 L38.3922628,61.2156025 L38.3922628,63.752015 C38.3922628,65.59714 35.7156204,65.59714 35.7156204,63.752015 L35.7156204,59.1399275 L43.6291241,59.1399275 L43.6291241,52.7983525 C43.6291241,46.1109525 30.4783942,46.1109525 30.4783942,52.7983525 L30.4783942,52.7983525 Z M38.2758394,56.142415 L35.7156204,56.142415 L35.7156204,52.7983525 C35.7156204,51.299415 38.2758394,51.18414 38.2758394,52.7983525 L38.2758394,56.142415 Z" id="Fill-10" fill="#1266B0"></path>
                <path d="M61.9005474,52.7983525 L61.9005474,63.752015 C61.9005474,70.55469 75.0512774,70.9008775 75.0512774,63.752015 L75.0512774,61.2156025 L69.8144161,61.2156025 L69.8144161,63.752015 C69.8144161,65.59714 67.1377737,65.59714 67.1377737,63.752015 L67.1377737,59.1399275 L75.0512774,59.1399275 L75.0512774,52.7983525 C75.0512774,46.1109525 61.9005474,46.1109525 61.9005474,52.7983525 L61.9005474,52.7983525 Z M69.6979927,56.142415 L67.1377737,56.142415 L67.1377737,52.7983525 C67.1377737,51.299415 69.6979927,51.18414 69.6979927,52.7983525 L69.6979927,56.142415 Z" id="Fill-11" fill="#1266B0"></path>
                <path d="M46.1894891,52.7983525 L46.1894891,63.752015 C46.1894891,70.55469 59.340219,70.9008775 59.340219,63.752015 L59.340219,61.2156025 L54.1033577,61.2156025 L54.1033577,63.752015 C54.1033577,65.59714 51.4267153,65.59714 51.4267153,63.752015 L51.4267153,52.7983525 C51.4267153,51.299415 53.9869343,51.18414 53.9869343,52.7983525 L53.9869343,56.142415 L59.340219,56.142415 L59.340219,52.7983525 C59.340219,46.1109525 46.1894891,46.1109525 46.1894891,52.7983525" id="Fill-12" fill="#1266B0"></path>
                <path d="M134.753723,52.7983525 L134.753723,63.752015 C134.753723,70.55469 147.904453,70.9008775 147.904453,63.752015 L147.904453,61.2156025 L142.667591,61.2156025 L142.667591,63.752015 C142.667591,65.59714 139.990949,65.59714 139.990949,63.752015 L139.990949,52.7983525 C139.990949,51.299415 142.550803,51.18414 142.550803,52.7983525 L142.550803,56.142415 L147.904453,56.142415 L147.904453,52.7983525 C147.904453,46.1109525 134.753723,46.1109525 134.753723,52.7983525" id="Fill-13" fill="#1266B0"></path>
                <path d="M99.6074453,49.6852387 L99.6074453,48.0710262 L94.2537956,48.0710262 L94.2537956,68.5946887 L99.4910219,68.5946887 L99.4910219,54.2973262 C99.4910219,52.5678387 102.051241,52.5678387 102.051241,54.4126012 L102.051241,68.5946887 L107.288467,68.5946887 L107.288467,52.1067387 C107.404526,47.2641012 101.585912,46.5720887 99.6074453,49.6852387" id="Fill-14" fill="#1266B0"></path>
                <path d="M124.163358,49.6852387 L124.163358,48.0710262 L118.809708,48.0710262 L118.809708,68.5946887 L124.046934,68.5946887 L124.046934,54.2973262 C124.046934,52.5678387 126.607153,52.5678387 126.607153,54.4126012 L126.607153,68.5946887 L131.84438,68.5946887 L131.84438,52.1067387 C131.960438,47.2641012 126.141825,46.5720887 124.163358,49.6852387" id="Fill-15" fill="#1266B0"></path>
            </g>
        </g>
    </g>
</svg>