<svg xmlns="http://www.w3.org/2000/svg" width="223" height="70" viewBox="0 0 223 70"><defs><clipPath id="3auea"><path d="M5.76.45h43.986v11.01H5.76z"/></clipPath><clipPath id="3aueb"><path d="M0 31.54h32.515v37.433H0z"/></clipPath><clipPath id="3auec"><path d="M148.31 30.65h36.185v39.162H148.31z"/></clipPath><clipPath id="3aued"><path d="M109.45 30.65h33.884v39.162H109.45z"/></clipPath></defs><g><g><g><g/><g clip-path="url(#3auea)"><path fill="#c01a00" d="M5.76 11.46s5.703-7.537 17.044-7.537c6.293 0 7.21 1.442 13.176 1.442C44.764 5.3 49.746.45 49.746.45s-8.128 11.01-17.175 11.01c-5.113 0-7.21-2.753-13.7-2.753-6.49 0-13.111 2.753-13.111 2.753"/></g></g><g><path fill="#c01a00" d="M2.87 20.3s5.703-7.537 17.044-7.537c6.293 0 7.21 1.442 13.176 1.442 8.784-.065 13.766-4.915 13.766-4.915S38.728 20.3 29.681 20.3c-5.113 0-7.21-2.753-13.7-2.753C9.49 17.547 2.87 20.3 2.87 20.3"/></g><g><g/><g clip-path="url(#3aueb)"><path fill="#c01a00" d="M15.846 31.54c2.366 0 4.57.385 6.61 1.153 2.041.77 3.808 1.923 5.3 3.46 1.491 1.539 2.657 3.46 3.498 5.768.84 2.306 1.26 5.015 1.26 8.126 0 2.726-.343 5.242-1.029 7.549-.686 2.307-1.723 4.299-3.112 5.976-1.39 1.678-3.121 2.998-5.196 3.959-2.076.961-4.52 1.442-7.331 1.442H0V31.54zm-.566 30.764a10.2 10.2 0 0 0 3.395-.576c1.098-.384 2.075-1.022 2.933-1.913.857-.89 1.543-2.051 2.058-3.485.514-1.432.771-3.44.771-5.502 0-1.887-.18-4.114-.54-5.634-.36-1.52-.952-2.82-1.775-3.904-.823-1.082-1.912-1.913-3.266-2.49-1.356-.576-3.028-.864-5.017-.864H8.078v24.368z"/></g></g><g><path fill="#c01a00" d="M67.127 31.54v6.658H47.094v8.283h17.358v6.659H47.094v9.174H68.07v6.659H38.86V31.54z"/></g><g><path fill="#c01a00" d="M80.84 59.746a5.967 5.967 0 0 0 1.836 2.124c.763.542 1.658.943 2.688 1.205 1.028.262 2.618.393 3.717.393.746 0 1.544-.06 2.396-.183a8.438 8.438 0 0 0 2.395-.708 5.208 5.208 0 0 0 1.862-1.442c.497-.61.746-1.389.746-2.333 0-1.013-.329-1.835-.985-2.464-.657-.629-1.517-1.153-2.581-1.572-1.065-.42-2.271-.787-3.62-1.102a100.214 100.214 0 0 1-4.098-1.048 36.483 36.483 0 0 1-4.152-1.284 14.263 14.263 0 0 1-3.618-1.967 9.278 9.278 0 0 1-2.582-3.014c-.657-1.206-.985-2.665-.985-4.377 0-1.923.417-3.591 1.251-5.007a11.212 11.212 0 0 1 3.274-3.539c1.348-.943 2.874-1.642 4.577-2.097a19.75 19.75 0 0 1 5.11-.681c1.986 0 4.417.218 6.246.655 1.826.437 3.45 1.145 4.87 2.123a10.81 10.81 0 0 1 3.38 3.748c.832 1.52 1.25 3.365 1.25 5.532h-8.09c-.072-1.118-.311-2.045-.719-2.78a4.66 4.66 0 0 0-1.623-1.73c-.675-.419-1.446-.715-2.315-.89-.87-.175-2.343-.263-3.373-.263-.673 0-1.348.07-2.022.21a5.467 5.467 0 0 0-1.836.734c-.55.35-1.003.787-1.357 1.311-.355.524-.533 1.188-.533 1.992 0 .734.142 1.329.426 1.782.284.455.843.875 1.677 1.259.833.385 1.987.769 3.46 1.153 1.472.385 3.397.874 5.774 1.468.71.14 1.695.393 2.955.76 1.259.367 2.51.953 3.752 1.756 1.241.805 2.315 1.88 3.22 3.225.904 1.346 1.357 3.066 1.357 5.164 0 1.713-.338 3.303-1.011 4.77-.675 1.469-1.677 2.736-3.007 3.802-1.331 1.066-2.981 1.896-4.95 2.49-1.97.594-4.25.89-6.84.89a24.38 24.38 0 0 1-6.094-.76c-1.97-.506-3.708-1.301-5.216-2.385a11.816 11.816 0 0 1-3.593-4.141c-.887-1.678-1.313-3.67-1.277-5.977h7.566c0 1.258.23 2.325.692 3.198"/></g><g><g/><g clip-path="url(#3auec)"><path fill="#c01a00" d="M149.547 42.63c.825-2.394 2.01-4.483 3.557-6.266 1.546-1.782 3.444-3.18 5.695-4.194 2.25-1.013 4.785-1.52 7.603-1.52 2.853 0 5.395.507 7.63 1.52 2.233 1.014 4.123 2.412 5.67 4.194 1.546 1.783 2.731 3.872 3.556 6.265.825 2.395 1.237 4.99 1.237 7.786 0 2.726-.412 5.268-1.237 7.628-.825 2.359-2.01 4.412-3.557 6.16-1.546 1.748-3.436 3.119-5.67 4.115-2.234.997-4.776 1.494-7.629 1.494-2.818 0-5.352-.497-7.603-1.494-2.25-.996-4.15-2.367-5.695-4.115-1.547-1.748-2.732-3.801-3.557-6.16-.825-2.36-1.237-4.902-1.237-7.628 0-2.796.412-5.391 1.237-7.786m7.397 12.373c.36 1.486.936 2.823 1.727 4.01a8.894 8.894 0 0 0 3.093 2.858c1.27.717 2.817 1.074 4.638 1.074 1.821 0 3.368-.358 4.64-1.074a8.911 8.911 0 0 0 3.093-2.858c.79-1.187 1.365-2.524 1.726-4.01.361-1.485.541-3.015.541-4.587 0-1.643-.18-3.233-.54-4.771-.362-1.538-.938-2.91-1.727-4.115a8.828 8.828 0 0 0-3.094-2.884c-1.271-.716-2.818-1.075-4.639-1.075-1.821 0-3.368.359-4.638 1.075a8.811 8.811 0 0 0-3.093 2.884c-.791 1.205-1.366 2.577-1.727 4.115a20.817 20.817 0 0 0-.541 4.77c0 1.573.18 3.103.54 4.588"/></g></g><g><path fill="#c01a00" d="M198.725 54.5v14.478h-7.675V31.45h18.127c2.733 0 4.97.282 6.706.844 1.737.564 3.152 1.75 4.246 3.559 1.093 1.81 1.64 3.849 1.64 6.118 0 2.594-.708 4.761-2.123 6.502-1.415 1.74-3.353 2.876-5.814 3.405v.102c2.461.837 4.334 3.097 5.621 6.784L223 68.978h-7.95l-3.39-9.746s-1.246-4.732-6.031-4.732zm-.085-6.022h7.225c5.793 0 7.78-2.545 7.78-5.552 0-3.643-1.856-5.465-7.125-5.465h-7.88z"/></g><g><g/><g clip-path="url(#3aued)"><path fill="#c01a00" d="M135.45 56.192c-.427 1.773-1.171 3.257-2.24 4.446-1.385 1.538-3.307 2.307-5.767 2.307-1.813 0-3.35-.359-4.614-1.075a8.862 8.862 0 0 1-3.076-2.858c-.786-1.187-1.358-2.524-1.717-4.01a19.474 19.474 0 0 1-.538-4.587c0-1.643.18-3.233.538-4.771.359-1.538.93-2.91 1.717-4.115a8.775 8.775 0 0 1 3.076-2.884c1.264-.716 2.801-1.075 4.614-1.075a8.2 8.2 0 0 1 2.845.498 8.238 8.238 0 0 1 4.229 3.46c.478.787.785 1.652.922 2.595h7.791c-.239-2.166-.82-4.089-1.742-5.767-.923-1.677-2.094-3.084-3.512-4.22a15.392 15.392 0 0 0-4.818-2.595c-1.794-.594-3.7-.891-5.715-.891-2.803 0-5.324.507-7.562 1.52-2.238 1.014-4.126 2.412-5.663 4.194-1.539 1.783-2.717 3.872-3.537 6.265-.82 2.395-1.231 4.99-1.231 7.786 0 2.726.41 5.268 1.23 7.628.82 2.359 2 4.412 3.538 6.16 1.537 1.748 3.425 3.119 5.663 4.115 2.238.997 4.759 1.494 7.562 1.494 2.255 0 4.322-.35 6.202-1.049 1.879-.698 3.52-1.712 4.92-3.04 1.402-1.328 2.53-2.936 3.384-4.823.65-1.438 1.111-3.008 1.385-4.708z"/></g></g></g></g></svg>