<?xml version="1.0" encoding="UTF-8"?>
<svg width="180px" height="110px" viewBox="0 0 180 110" version="1.1" xmlns="http://www.w3.org/2000/svg" xmlns:xlink="http://www.w3.org/1999/xlink">
    <!-- Generator: Sketch 53 (72520) - https://sketchapp.com -->
    <title>Kbe</title>
    <desc>Created with Sketch.</desc>
    <g id="Catalog" stroke="none" stroke-width="1" fill="none" fill-rule="evenodd">
        <g id="TS_1440-Catalog" transform="translate(-330.000000, -2801.000000)">
            <g id="Kbe" transform="translate(330.000000, 2801.000000)">
                <rect id="Rectangle" fill="#FFFFFF" x="0" y="0" width="180" height="110"></rect>
                <polygon id="Fill-1" fill="#161615" points="67.8792087 21.9998995 42.930872 46.8732663 67.8792087 71.8426131 81.8466986 71.8426131 56.8981099 46.8732663 81.8466986 21.9998995"></polygon>
                <polygon id="Fill-2" fill="#D90016" points="28 21.9998995 28 71.8426131 62.8702117 71.8426131 52.9485887 61.8549246 37.921623 61.8549246 37.921623 31.9875879 52.9485887 31.9875879 62.8702117 21.9998995"></polygon>
                <polygon id="Fill-3" fill="#161615" points="100.533921 46.8733668 93.8875 57.2449749 93.8875 46.8733668 86.855746 46.8733668 86.855746 71.8427136 93.8875 71.8427136 93.8875 65.6962312 96.2957661 62.239196 100.822984 71.8427136 109.107006 71.8427136 101.208317 56.0927136 107.565927 46.8733668"></polygon>
                <polygon id="Fill-4" fill="#161615" points="133.95935 46.8733668 133.95935 71.8427136 152.93566 71.8427136 152.93566 65.9844221 141.279914 65.9844221 141.279914 61.758794 150.719934 61.758794 150.719934 56.3809045 141.279914 56.3809045 141.279914 52.731407 152.74312 52.731407 152.74312 46.8733668"></polygon>
                <path d="M123.170691,46.8733668 L122.97815,46.8733668 L122.78561,46.8733668 L122.592818,46.8733668 L122.496547,46.8733668 L122.303755,46.8733668 L120.281074,46.8733668 L110.166658,46.8733668 L110.166658,58.0135678 L110.166658,64.9281407 L110.166658,71.8427136 L120.281074,71.8427136 L122.303755,71.8427136 L122.592818,71.8427136 L122.881628,71.8427136 L123.074168,71.8427136 L123.363231,71.7464824 L123.652293,71.7464824 L123.845086,71.7464824 L124.133896,71.7464824 L124.423211,71.6507538 L124.615499,71.6507538 L124.904561,71.6507538 L125.097354,71.5542714 L125.289894,71.5542714 L125.482686,71.4585427 L125.771497,71.4585427 L125.868019,71.3625628 L126.15683,71.2665829 L126.349622,71.2665829 L126.542162,71.2665829 L126.734955,71.1703518 L126.927495,71.1703518 L127.120287,71.0743719 L127.31308,70.978392 L127.505368,70.8824121 L127.69816,70.7861809 L127.79443,70.6904523 L127.986971,70.5939698 L128.179763,70.4982412 L128.276033,70.4982412 L128.468574,70.4022613 L128.565096,70.2100503 L128.757888,70.1140704 L128.853906,70.0180905 L129.046699,69.9218593 L129.142969,69.8258794 L129.239239,69.7298995 L129.431779,69.5376884 L129.528301,69.4419598 L129.624572,69.2497487 L129.817364,69.1537688 L129.913382,69.0577889 L129.913382,68.9615578 L130.010156,68.769598 L130.106174,68.5773869 L130.202697,68.481407 L130.298967,68.3854271 L130.395237,68.1934673 L130.491507,68.0012563 L130.588029,67.8092965 L130.588029,67.7133166 L130.684299,67.5211055 L130.684299,67.3288945 L130.78057,67.1369347 L130.876588,67.0409548 L130.876588,66.8487437 L130.973362,66.6565327 L130.973362,66.4645729 L130.973362,66.2726131 L131.06938,66.0806533 L131.06938,65.8884422 L131.06938,65.6962312 L131.06938,65.5042714 L131.16565,65.3123116 L131.16565,65.0238693 L131.16565,64.9281407 L131.16565,64.7359296 L131.16565,64.5439698 L131.16565,64.3520101 L131.06938,64.3520101 L131.06938,64.1600503 L131.06938,63.9678392 L131.06938,63.8718593 L131.06938,63.6796482 L131.06938,63.5834171 L130.973362,63.4876884 L130.973362,63.2954774 L130.973362,63.1032663 L130.876588,63.0072864 L130.876588,62.9115578 L130.78057,62.8150754 L130.78057,62.6231156 L130.78057,62.5273869 L130.684299,62.4311558 L130.684299,62.3351759 L130.588029,62.239196 L130.588029,62.0469849 L130.588029,61.951005 L130.491507,61.8550251 L130.395237,61.6630653 L130.298967,61.5668342 L130.202697,61.4708543 L130.202697,61.2788945 L130.106174,61.1829146 L130.010156,61.0866834 L129.913382,60.9907035 L129.913382,60.8947236 L129.817364,60.8947236 L129.721094,60.7984925 L129.624572,60.7025126 L129.528301,60.5103015 L129.431779,60.4143216 L129.335761,60.3183417 L129.239239,60.3183417 L129.142969,60.2226131 L129.046699,60.1261307 L128.853906,60.030402 L128.757888,59.9341709 L128.661366,59.838191 L128.565096,59.7422111 L128.468574,59.7422111 L128.372555,59.6462312 L128.276033,59.55 L128.083493,59.55 L127.986971,59.55 L127.890701,59.4540201 L127.79443,59.3580402 L127.69816,59.3580402 L127.505368,59.2620603 L127.409098,59.2620603 L127.216305,59.1658291 L127.120287,59.1658291 L127.023765,59.0698492 L126.831225,59.0698492 L126.638432,58.9738693 L126.542162,58.9738693 L126.445892,58.8776382 L126.638432,58.8776382 L126.734955,58.7819095 L126.927495,58.7819095 L127.023765,58.6856784 L127.120287,58.6856784 L127.216305,58.5896985 L127.31308,58.4934673 L127.409098,58.4934673 L127.601638,58.3977387 L127.69816,58.3977387 L127.79443,58.3017588 L127.79443,58.2055276 L127.986971,58.2055276 L128.083493,58.2055276 L128.179763,58.1095477 L128.179763,58.0135678 L128.276033,58.0135678 L128.372555,58.0135678 L128.468574,57.9173367 L128.468574,57.821608 L128.565096,57.7253769 L128.661366,57.629397 L128.757888,57.5331658 L128.853906,57.5331658 L128.950176,57.4371859 L129.046699,57.4371859 L129.142969,57.3414573 L129.142969,57.2449749 L129.239239,57.1492462 L129.335761,57.0530151 L129.431779,56.8610553 L129.528301,56.7650754 L129.624572,56.6690955 L129.721094,56.5728643 L129.721094,56.4768844 L129.817364,56.3809045 L129.913382,56.2846734 L129.913382,56.1889447 L129.913382,56.0927136 L129.913382,55.9967337 L130.010156,55.9007538 L130.010156,55.8045226 L130.106174,55.6123116 L130.106174,55.5165829 L130.202697,55.420603 L130.202697,55.3243719 L130.298967,55.228392 L130.298967,55.1324121 L130.298967,54.9404523 L130.395237,54.8442211 L130.395237,54.7482412 L130.395237,54.6520101 L130.395237,54.5560302 L130.491507,54.3638191 L130.491507,54.2680905 L130.491507,54.0761307 L130.491507,53.8839196 L130.491507,53.7879397 L130.491507,53.5957286 L130.491507,53.4035176 L130.491507,53.3077889 L130.491507,53.211809 L130.491507,53.1155779 L130.491507,52.9233668 L130.491507,52.8276382 L130.491507,52.731407 L130.491507,52.6354271 L130.491507,52.5394472 L130.491507,52.4434673 L130.491507,52.3472362 L130.395237,52.2515075 L130.395237,52.1552764 L130.395237,52.0592965 L130.395237,51.9630653 L130.395237,51.8673367 L130.298967,51.7711055 L130.298967,51.6751256 L130.298967,51.5791457 L130.298967,51.4829146 L130.202697,51.3869347 L130.202697,51.2909548 L130.106174,51.1949749 L130.106174,51.0987437 L130.106174,51.0027638 L130.010156,50.9067839 L130.010156,50.8110553 L130.010156,50.7145729 L129.913382,50.7145729 L129.913382,50.6188442 L129.913382,50.5226131 L129.913382,50.4266332 L129.817364,50.3306533 L129.817364,50.2346734 L129.817364,50.1384422 L129.721094,50.1384422 L129.721094,50.0424623 L129.624572,49.9464824 L129.528301,49.8505025 L129.431779,49.7542714 L129.431779,49.6582915 L129.335761,49.6582915 L129.335761,49.5623116 L129.239239,49.4660804 L129.239239,49.3703518 L129.142969,49.2741206 L129.046699,49.1781407 L129.046699,49.0819095 L128.950176,49.0819095 L128.853906,48.9861809 L128.853906,48.890201 L128.757888,48.890201 L128.661366,48.7939698 L128.565096,48.6979899 L128.468574,48.6020101 L128.372555,48.5057789 L128.276033,48.4100503 L128.179763,48.4100503 L128.179763,48.3138191 L128.083493,48.3138191 L127.986971,48.2178392 L127.890701,48.121608 L127.79443,48.121608 L127.79443,48.0256281 L127.69816,47.9298995 L127.601638,47.9298995 L127.505368,47.9298995 L127.409098,47.8334171 L127.31308,47.8334171 L127.216305,47.7376884 L127.120287,47.7376884 L127.120287,47.6414573 L127.023765,47.6414573 L126.927495,47.5454774 L126.831225,47.5454774 L126.734955,47.4494975 L126.638432,47.4494975 L126.542162,47.4494975 L126.445892,47.3535176 L126.349622,47.3535176 L126.2531,47.2575377 L126.15683,47.2575377 L126.060559,47.2575377 L125.964037,47.2575377 L125.868019,47.2575377 L125.771497,47.2575377 L125.675227,47.1615578 L125.578705,47.1615578 L125.386416,47.1615578 L125.289894,47.1615578 L125.193624,47.0653266 L125.097354,47.0653266 L124.904561,47.0653266 L124.808291,47.0653266 L124.712021,47.0653266 L124.615499,46.9693467 L124.423211,46.9693467 L124.230418,46.9693467 L124.133896,46.9693467 L123.941356,46.9693467 L123.845086,46.9693467 L123.748816,46.9693467 L123.652293,46.9693467 L123.459753,46.9693467 L123.363231,46.8733668 L123.170691,46.8733668 Z M117.294934,52.2515075 L120.281074,52.2515075 L120.955217,52.2515075 L121.051487,52.2515075 L121.148009,52.2515075 L121.244279,52.2515075 L121.340549,52.2515075 L121.43682,52.2515075 L121.533342,52.3472362 L121.62936,52.3472362 L121.725882,52.3472362 L121.822404,52.3472362 L121.918422,52.4434673 L122.014945,52.4434673 L122.110963,52.4434673 L122.207737,52.5394472 L122.303755,52.5394472 L122.303755,52.6354271 L122.400025,52.6354271 L122.496547,52.731407 L122.592818,52.731407 L122.688836,52.731407 L122.688836,52.8276382 L122.78561,52.8276382 L122.881628,52.9233668 L122.881628,53.019598 L122.97815,53.019598 L122.97815,53.1155779 L122.97815,53.211809 L123.074168,53.3077889 L123.074168,53.4035176 L123.170691,53.4035176 L123.170691,53.5 L123.170691,53.5957286 L123.267213,53.5957286 L123.267213,53.6917085 L123.267213,53.7879397 L123.267213,53.8839196 L123.267213,53.9798995 L123.363231,54.0761307 L123.363231,54.1718593 L123.363231,54.2680905 L123.363231,54.3638191 L123.363231,54.4603015 L123.363231,54.5560302 L123.363231,54.6520101 L123.363231,54.7482412 L123.267213,54.7482412 L123.267213,54.8442211 L123.267213,54.9404523 L123.267213,55.0364322 L123.170691,55.1324121 L123.170691,55.228392 L123.170691,55.3243719 L123.074168,55.3243719 L123.074168,55.420603 L122.97815,55.420603 L122.97815,55.5165829 L122.97815,55.6123116 L122.881628,55.708794 L122.881628,55.8045226 L122.78561,55.8045226 L122.78561,55.9007538 L122.688836,55.9007538 L122.592818,55.9967337 L122.496547,55.9967337 L122.496547,56.0927136 L122.400025,56.0927136 L122.303755,56.1889447 L122.207737,56.1889447 L122.110963,56.1889447 L122.014945,56.2846734 L121.918422,56.2846734 L121.822404,56.2846734 L121.725882,56.2846734 L121.62936,56.3809045 L121.533342,56.3809045 L121.43682,56.3809045 L121.340549,56.3809045 L121.244279,56.3809045 L121.148009,56.3809045 L121.051487,56.3809045 L120.955217,56.3809045 L120.281074,56.3809045 L117.294934,56.3809045 L117.294934,52.2515075 Z M117.294934,64.9281407 L117.294934,61.758794 L120.281074,61.758794 L121.051487,61.758794 L121.148009,61.758794 L121.244279,61.758794 L121.340549,61.758794 L121.43682,61.758794 L121.533342,61.758794 L121.62936,61.758794 L121.725882,61.758794 L121.822404,61.758794 L121.918422,61.8550251 L122.014945,61.8550251 L122.110963,61.8550251 L122.207737,61.8550251 L122.303755,61.951005 L122.400025,61.951005 L122.400025,62.0469849 L122.496547,62.0469849 L122.592818,62.0469849 L122.592818,62.1429648 L122.688836,62.1429648 L122.78561,62.1429648 L122.78561,62.239196 L122.881628,62.239196 L122.97815,62.3351759 L123.074168,62.3351759 L123.074168,62.4311558 L123.170691,62.4311558 L123.170691,62.5273869 L123.267213,62.6231156 L123.363231,62.7193467 L123.363231,62.8150754 L123.459753,62.8150754 L123.459753,62.9115578 L123.459753,63.0072864 L123.556023,63.0072864 L123.652293,63.1032663 L123.652293,63.1994975 L123.652293,63.2954774 L123.652293,63.3914573 L123.748816,63.3914573 L123.748816,63.4876884 L123.748816,63.5834171 L123.748816,63.6796482 L123.748816,63.7756281 L123.748816,63.8718593 L123.748816,63.9678392 L123.748816,64.0635678 L123.748816,64.1600503 L123.748816,64.2557789 L123.748816,64.3520101 L123.748816,64.4479899 L123.748816,64.5439698 L123.748816,64.6399497 L123.652293,64.7359296 L123.652293,64.8321608 L123.652293,64.9281407 L123.652293,65.0238693 L123.556023,65.0238693 L123.459753,65.1203518 L123.459753,65.2160804 L123.363231,65.3123116 L123.363231,65.4082915 L123.267213,65.4082915 L123.267213,65.5042714 L123.170691,65.5042714 L123.170691,65.6005025 L123.074168,65.6005025 L123.074168,65.6962312 L122.97815,65.6962312 L122.97815,65.7927136 L122.881628,65.7927136 L122.78561,65.8884422 L122.688836,65.8884422 L122.592818,65.9844221 L122.496547,65.9844221 L122.400025,66.0806533 L122.303755,66.0806533 L122.303755,66.1766332 L122.207737,66.1766332 L122.110963,66.1766332 L122.014945,66.1766332 L121.918422,66.2726131 L121.822404,66.2726131 L121.725882,66.2726131 L121.62936,66.2726131 L121.533342,66.2726131 L121.43682,66.2726131 L121.340549,66.368593 L121.244279,66.368593 L121.148009,66.368593 L121.051487,66.368593 L120.281074,66.368593 L117.294934,66.368593 L117.294934,64.9281407 Z" id="Fill-5" fill="#161615"></path>
            </g>
        </g>
    </g>
</svg>