<svg xmlns="http://www.w3.org/2000/svg" width="260" height="40" viewBox="0 0 260 40"><defs><clipPath id="5btwa"><path d="M236.11.57h23.426v29.48H236.11z"/></clipPath><clipPath id="5btwb"><path d="M0 1.71h42.699v38.285H0z"/></clipPath></defs><g><g><g><path fill="#2c3439" d="M64.91 30.049h3.998l15.154-21.49 1.525 21.49h4.678L86.138.87z"/></g><g><path fill="#2c3439" d="M143.347.86l-13.96 12.32L131.933.86h-4.278l-5.976 29.194h4.278l2.95-14.516 8.986 14.516h5.52l-9.9-15.69L148.75.86z"/></g><g><path fill="#2c3439" d="M154.283.57l-7.333 29.48h4.414l2.997-13.365 11.51.078.78-3.534h-11.527l2.155-9.065 11.298.047.855-3.641z"/></g><g><g><path fill="#2c3439" d="M201.154 7.845c.184.767.285 1.62.302 2.558.017.938-.085 1.975-.307 3.111-.433 2.217-1.223 4.391-2.372 6.523a19.275 19.275 0 0 1-4.46 5.542c-1.407 1.193-3.13 2.238-5.172 3.133-2.041.895-4.342 1.343-6.902 1.343-1.467 0-2.93-.256-4.39-.768-1.46-.512-2.716-1.492-3.767-2.94a12.194 12.194 0 0 1-.908-1.599 9.973 9.973 0 0 1-.714-2.09 12.422 12.422 0 0 1-.293-2.6c-.014-.951.09-1.996.312-3.133.282-1.45.675-2.778 1.177-3.986a20.915 20.915 0 0 1 1.7-3.282 19.124 19.124 0 0 1 1.987-2.601 22.588 22.588 0 0 1 1.998-1.94C182.834 2.133 186.778.64 191.179.64a14.4 14.4 0 0 1 4.403.704c1.468.469 2.754 1.429 3.859 2.878.338.455.662.98.972 1.577.31.596.557 1.279.74 2.046m-4.143 6.37c.289-1.482.31-2.81.062-3.98S196.4 8.076 195.8 7.27c-.485-.65-1.183-1.256-2.1-1.816-.917-.559-2.156-.839-3.718-.839-1.563 0-3.058.28-4.485.84a14.041 14.041 0 0 0-3.843 2.244 16.63 16.63 0 0 0-1.556 1.502c-.512.56-.99 1.197-1.435 1.912-.446.716-.85 1.502-1.212 2.361-.362.86-.64 1.783-.833 2.771-.314 1.613-.344 3.018-.09 4.215.255 1.197.661 2.185 1.217 2.966.497.703 1.201 1.32 2.11 1.853.909.534 2.109.8 3.598.8 1.66 0 3.224-.285 4.69-.858 1.467-.571 2.743-1.327 3.829-2.264a14.306 14.306 0 0 0 3.277-4.039c.868-1.573 1.456-3.141 1.76-4.703"/></g><g><path fill="#2c3439" d="M215.915.57l-6.034 26.387h10.704l-.156 3.093H204.74L211.501.57z"/></g><g><path fill="#2c3439" d="M236.08.57l-6.19 29.48h-4.7L231.665.57z"/></g><g><path fill="#2c3439" d="M111.416.57c-8.762 0-18.476 7.975-18.476 18.784 0 10.81 6.714 11.143 11.38 11.143 7.096 0 10.715-3.524 10.715-3.524v-3.38s-3.666 3.38-10.048 3.38c-6.38 0-8.285-3.714-8.285-8.619 0-4.905 4.81-14.238 14-14.238 5.143 0 7.571 3.048 7.571 3.048l2.333-3.048S117.463.57 111.416.57"/></g><g><g/><g clip-path="url(#5btwa)"><path fill="#2c3439" d="M259.546.57l-1.553 3.308h-16.74L241.98.57zm-22.71 26.172h17.557l-1.552 3.308H236.11zm2.857-13.364h16.986l-1.552 2.727h-16.16z"/></g></g><g><path fill="#00eaac" d="M62.22 23.732l1.876-8.202h-8.995l-1.881 8.202z"/></g><g><path fill="#00eaac" d="M82.142 14.9L71.46 30.049h11.757z"/></g><g><path fill="#00eaac" d="M178.844 13.23h17.24l-.78 3.535-17.224-.078z"/></g><g><path fill="#2c3439" d="M56.153.57L50.12 26.957h10.418l.13 3.093H45.55L52.311.57z"/></g><g><g/><g clip-path="url(#5btwb)"><path fill="#2c3439" d="M37.931 24.533c-1.716 8.811-9.476 15.462-18.789 15.462C8.57 39.995 0 31.425 0 20.853 0 10.28 8.57 1.71 19.142 1.71H42.7s-4.536 21.632-4.768 22.823"/></g></g><g><path fill="#00eaac" d="M19.147 1.72A19.081 19.081 0 0 0 5.23 7.727l24.387 29.152c4.24-2.777 7.316-7.183 8.32-12.336.231-1.192 4.767-22.823 4.767-22.823z"/></g><g><path fill="#fff" d="M5.22 7.72l24.395 29.162s-3.443-4.245-3.443-9.144c0-6.857 5.286-7.5 5.286-7.5z"/></g></g></g></g></svg>