<?xml version="1.0" encoding="UTF-8"?>
<svg width="180px" height="111px" viewBox="0 0 180 111" version="1.1" xmlns="http://www.w3.org/2000/svg" xmlns:xlink="http://www.w3.org/1999/xlink">
    <!-- Generator: Sketch 53 (72520) - https://sketchapp.com -->
    <title>Monblanc</title>
    <desc>Created with Sketch.</desc>
    <defs>
        <polygon id="path-1" points="0.00987 0.00853475936 16.61517 0.00853475936 16.61517 16.4705882 0.00987 16.4705882"></polygon>
        <polygon id="path-3" points="0 0 149.99994 0 149.99994 36.4937326 0 36.4937326"></polygon>
    </defs>
    <g id="Catalog" stroke="none" stroke-width="1" fill="none" fill-rule="evenodd">
        <g id="TS_1440-Catalog" transform="translate(-730.000000, -2801.000000)">
            <g id="Monblanc" transform="translate(730.000000, 2801.000000)">
                <rect id="Rectangle" fill="#FFFFFF" x="0" y="0.170994652" width="180" height="110"></rect>
                <path d="M15.23013,67.6017112 L15.23013,51.691123 L18.68883,51.691123 L22.80033,62.9549091 C23.17683,64.0069305 23.45463,64.7918289 23.62773,65.3102032 C23.82363,64.7340321 24.13503,63.8823529 24.55383,62.7608556 L28.71093,51.691123 L31.80213,51.691123 L31.80213,67.6017112 L29.58543,67.6017112 L29.58543,54.2856898 L24.54003,67.6017112 L22.46613,67.6017112 L17.44533,54.0583957 L17.44533,67.6017112 L15.23013,67.6017112 Z" id="Fill-1" fill="#1D1D1B"></path>
                <g id="Group-5" transform="translate(34.800000, 51.400941)">
                    <mask id="mask-2" fill="white">
                        <use xlink:href="#path-1"></use>
                    </mask>
                    <g id="Clip-4"></g>
                    <path d="M2.37687,8.48340107 C2.37687,10.3987807 2.94147,11.9113797 4.06677,13.0152086 C5.19177,14.1184385 6.60387,14.6700535 8.30127,14.6700535 C10.02867,14.6700535 11.45187,14.1121497 12.57207,12.9999358 C13.68957,11.8814332 14.24817,10.3020535 14.24817,8.25610695 C14.24817,6.9651123 14.00667,5.8313369 13.53147,4.86735829 C13.05327,3.90038503 12.35487,3.14872727 11.43327,2.62136898 C10.51467,2.08472727 9.48087,1.8208984 8.33457,1.8208984 C6.71007,1.8208984 5.31027,2.33328342 4.13937,3.35805348 C2.96427,4.3822246 2.37687,6.08857754 2.37687,8.48340107 M0.00987,8.45315508 C0.00987,5.81306952 0.78417,3.74286631 2.33097,2.25122995 C3.87987,0.757197861 5.87667,0.00853475936 8.32377,0.00853475936 C9.92877,0.00853475936 11.37117,0.356812834 12.65997,1.05995722 C13.94607,1.76340107 14.92827,2.74235294 15.60387,3.99741176 C16.27797,5.25217112 16.61517,6.67373262 16.61517,8.26808556 C16.61517,9.87771123 16.25967,11.3235294 15.55227,12.5965561 C14.84037,13.8695829 13.83237,14.8335615 12.53097,15.488492 C11.22687,16.143123 9.82227,16.470738 8.31177,16.470738 C6.67977,16.470738 5.21757,16.1098824 3.93147,15.3854759 C2.64387,14.6637647 1.66797,13.6758289 1.00437,12.4240642 C0.34077,11.172 0.00987,9.84746524 0.00987,8.45315508" id="Fill-3" fill="#1D1D1B" mask="url(#mask-2)"></path>
                </g>
                <polygon id="Fill-6" fill="#1D1D1B" points="54.35304 67.6017112 54.35304 51.691123 56.71254 51.691123 65.83104 64.1824171 65.83104 51.691123 68.03274 51.691123 68.03274 67.6017112 65.67924 67.6017112 56.55444 55.098139 56.55444 67.6017112"></polygon>
                <polygon id="Fill-8" fill="#1D1D1B" points="76.31337 67.6017112 76.31337 53.5705668 70.59117 53.5705668 70.59117 51.691123 84.35577 51.691123 84.35577 53.5705668 78.61377 53.5705668 78.61377 67.6017112"></polygon>
                <path d="M88.91646,65.722477 L93.24096,65.722477 C93.98466,65.722477 94.50396,65.6982203 94.80426,65.6467123 C95.33286,65.5616642 95.77626,65.4164235 96.12876,65.2163807 C96.48666,65.0100492 96.77856,64.7162738 97.00596,64.3281668 C97.23666,63.9430545 97.34946,63.4944556 97.34946,62.9880599 C97.34946,62.397215 97.18506,61.8821348 96.85116,61.4425198 C96.52026,61.0061989 96.06186,60.699846 95.47236,60.5210652 C94.88346,60.341985 94.03926,60.2542417 92.93106,60.2542417 L88.91646,60.2542417 L88.91646,65.722477 Z M88.91646,58.378092 L92.67306,58.378092 C93.69036,58.378092 94.41876,58.3143059 94.86246,58.1900278 C95.44806,58.0325091 95.88846,57.7686802 96.18336,57.3991401 C96.48066,57.0319957 96.62646,56.5684235 96.62646,56.0105198 C96.62646,55.4858567 96.48996,55.0165947 96.21036,54.6162096 C95.93736,54.2161241 95.54226,53.9403166 95.02626,53.7914824 C94.51626,53.6432471 93.63546,53.5707765 92.38446,53.5707765 L88.91646,53.5707765 L88.91646,58.378092 Z M86.61636,67.6016214 L86.61636,51.6913326 L93.13116,51.6913326 C94.45836,51.6913326 95.52396,51.851846 96.32616,52.1761668 C97.12776,52.497493 97.75596,52.9946053 98.20836,53.6615144 C98.66406,54.3314182 98.88876,55.0345626 98.88876,55.7619636 C98.88876,56.4411508 98.68836,57.0808086 98.28426,57.6836321 C97.88346,58.2807658 97.27326,58.7661989 96.46266,59.135739 C97.51326,59.4172364 98.31786,59.8996749 98.88246,60.5785626 C99.44766,61.2574503 99.73296,62.0639102 99.73296,62.9880599 C99.73296,63.7340278 99.55986,64.4281882 99.21366,65.0675465 C98.87046,65.7039102 98.44836,66.2013219 97.94136,66.5498995 C97.43736,66.8954824 96.80286,67.1593112 96.04056,67.3347979 C95.28126,67.5135786 94.34286,67.6016214 93.24096,67.6016214 L86.61636,67.6016214 Z" id="Fill-10" fill="#1D1D1B"></path>
                <polygon id="Fill-12" fill="#1D1D1B" points="102.79659 67.6017112 102.79659 51.691123 105.09549 51.691123 105.09549 65.7225668 113.64639 65.7225668 113.64639 67.6017112"></polygon>
                <path d="M119.48877,61.0664214 L125.37357,61.0664214 L123.56037,56.6621861 C123.01107,55.3256727 122.59827,54.225138 122.33097,53.3641754 C122.10927,54.3829561 121.79637,55.3981433 121.39287,56.4016513 L119.48877,61.0664214 Z M114.47817,67.6016513 L121.14657,51.6910631 L123.62127,51.6910631 L130.72677,67.6016513 L128.11257,67.6016513 L126.08697,62.7820578 L118.82367,62.7820578 L116.91687,67.6016513 L114.47817,67.6016513 Z" id="Fill-14" fill="#1D1D1B"></path>
                <polygon id="Fill-16" fill="#1D1D1B" points="132.53964 67.6017112 132.53964 51.691123 134.89614 51.691123 144.01794 64.1824171 144.01794 51.691123 146.21964 51.691123 146.21964 67.6017112 143.86284 67.6017112 134.74164 55.098139 134.74164 67.6017112"></polygon>
                <path d="M162.47109,62.0244706 L164.76999,62.5518289 C164.28999,64.2824385 163.42179,65.600984 162.17049,66.5104599 C160.91949,67.4169412 159.38919,67.8715294 157.58229,67.8715294 C155.70879,67.8715294 154.18779,67.5229519 153.01509,66.8257968 C151.83999,66.1286417 150.94749,65.1161497 150.33729,63.7913155 C149.72679,62.4670802 149.42019,61.0482139 149.42019,59.526631 C149.42019,57.8717861 149.76609,56.4289626 150.45549,55.1921711 C151.14789,53.9583743 152.12829,53.0219465 153.40389,52.3822888 C154.67949,51.7396364 156.08199,51.4216043 157.61889,51.4216043 C159.35259,51.4216043 160.81329,51.8273797 162.00069,52.6368342 C163.18479,53.4492834 164.01069,54.585754 164.47539,56.0558289 L162.20979,56.5442567 C161.80899,55.3862246 161.22339,54.5435294 160.45809,54.012877 C159.69279,53.4855187 158.73009,53.2216898 157.56699,53.2216898 C156.23409,53.2216898 155.11989,53.5193583 154.22409,54.1012193 C153.32499,54.6857754 152.69349,55.4739679 152.33529,56.4622032 C151.97079,57.450738 151.78869,58.4689198 151.78869,59.5146524 C151.78869,60.8697326 152.00409,62.0487273 152.43219,63.0579251 C152.86359,64.0674225 153.53469,64.8250695 154.43949,65.3224813 C155.34729,65.8225882 156.33129,66.0711444 157.39089,66.0711444 C158.67849,66.0711444 159.76539,65.7315508 160.66149,65.0496684 C161.55099,64.3704813 162.15819,63.360984 162.47109,62.0244706" id="Fill-18" fill="#1D1D1B"></path>
                <g id="Group-22" transform="translate(15.000000, 12.170995)">
                    <mask id="mask-4" fill="white">
                        <use xlink:href="#path-3"></use>
                    </mask>
                    <g id="Clip-21"></g>
                    <path d="M74.77836,0.128500535 C24.18366,0.128500535 6e-05,35.3653775 6e-05,35.3653775 C6e-05,35.3653775 22.84236,9.86441497 70.02366,9.86441497 C94.46766,34.2645433 122.08146,36.6222332 150.00006,36.6222332 C150.00006,36.6222332 102.81876,35.2991957 74.77836,0.128500535" id="Fill-20" fill="#E23B2D" mask="url(#mask-4)"></path>
                </g>
            </g>
        </g>
    </g>
</svg>