<svg xmlns="http://www.w3.org/2000/svg" viewBox="0 0 500 175.2"><defs><style>.cls-1{fill:#008379}</style></defs><g id="Layer_2" data-name="Layer 2"><g id="Layer_1-2" data-name="Layer 1"><path class="cls-1" d="M243.1,41.07c0-6.58,6.41-10.88,15.54-10.88,6.77,0,12.08.3,15.93,3.47q4.67,3.86,6.73,11.44l46,.15c-2-16.09-8.17-26.81-18.58-34.19S283.23,0,263.4,0q-24.24,0-38.16,6.09T204.38,22.81a40.73,40.73,0,0,0-6.93,22.6q0,18.21,13.55,30t45,18.85q19.27,4.23,24.56,9t5.3,10.8c0,8-7.89,13.4-21.39,13.4-14.74,0-23.49-8.1-23.49-17.69l-46.41.07c0,20.66,21.6,50.69,69.16,50.69,39.36,0,67.41-19.71,67.41-53.14C331.13,52.78,243.1,67.19,243.1,41.07Z"/><path class="cls-1" d="M357.2,2.65h71.24q21.06,0,34,5.71a55.31,55.31,0,0,1,21.44,16.41,68,68,0,0,1,12.28,24.88A115.48,115.48,0,0,1,500,79.71q0,24.89-5.66,38.59a63.92,63.92,0,0,1-15.72,23A51.22,51.22,0,0,1,457,153.6a110.91,110.91,0,0,1-28.58,4.24H357.2Zm47.95,35.14v84.8H416.9q15,0,21.38-3.34t10-11.64q3.58-8.31,3.59-26.94,0-24.68-8-33.77t-26.68-9.11Z"/><path class="cls-1" d="M79.32,140.77a34.25,34.25,0,0,0,4.25,17.07h19l13-52.06C93.9,117.14,79.32,129.11,79.32,140.77Z"/><path class="cls-1" d="M121.48,81.87l10.58-42.38V78.9c12.52-3.42,25.46-6.63,38.34-9.59V2.65H108.88L86.22,93.4C97,89.35,109,85.5,121.48,81.87Z"/><path class="cls-1" d="M132.06,97.78v60.06H170.4V82.56C157,87.37,143.9,92.47,132.06,97.78Z"/><path class="cls-1" d="M32.85,133c0-4.29,2-8.48,5.49-12.57v-81l16.93,67.95A207.74,207.74,0,0,1,84.54,94l-23-91.37H0V157.84H38.34v-8.65A26.22,26.22,0,0,1,32.85,133Z"/><path d="M103.42,173.91S32.85,170,32.85,133c0-50.35,265.06-87.35,265.06-87.35S79.32,95.59,79.32,140.77C79.32,167,103.42,173.91,103.42,173.91Z" fill="#fff"/><path d="M116.33,175.2s-70.57-3.87-70.57-40.88C45.76,84,310.82,47,310.82,47S92.23,96.88,92.23,142.07C92.23,168.31,116.33,175.2,116.33,175.2Z" fill="#c4c4c4"/></g></g></svg>