<svg xmlns="http://www.w3.org/2000/svg" viewBox="0 0 494.36 171.7"><title>logo_pongs</title><g id="Layer_2" data-name="Layer 2"><g id="Layer_1-2" data-name="Layer 1"><path d="M82.68,103.84H103a37.35,37.35,0,0,0,14.13-2.4,27.49,27.49,0,0,0,9.64-6.34,25.44,25.44,0,0,0,5.61-9,33.91,33.91,0,0,0,2-10.41,32.73,32.73,0,0,0-1.3-10.47,23.29,23.29,0,0,0-5-9,25,25,0,0,0-9.2-6.34,36,36,0,0,0-14-2.4H65.32l-3.07,87.93H81.58Zm1.45-41.38h15a41.18,41.18,0,0,1,6.39.49,14.48,14.48,0,0,1,5.35,1.91,9.93,9.93,0,0,1,3.62,4,13.79,13.79,0,0,1,1.18,6.77A14.45,14.45,0,0,1,114,82.41a11,11,0,0,1-3.9,4,15.27,15.27,0,0,1-5.49,1.9,40.54,40.54,0,0,1-6.42.5h-15Z"/><path d="M225,109.69a54.07,54.07,0,0,0,3.59-17.92,54.28,54.28,0,0,0-2.32-18.29,42.06,42.06,0,0,0-8-14.71,37.16,37.16,0,0,0-13.2-9.86A43.44,43.44,0,0,0,187,45.34a45.29,45.29,0,0,0-18.29,3.57,40.93,40.93,0,0,0-14,9.86,46,46,0,0,0-9,14.71,56,56,0,0,0-3.59,18.29,52.06,52.06,0,0,0,2.33,17.92,40.81,40.81,0,0,0,8,14.47,37,37,0,0,0,13.27,9.67,44.24,44.24,0,0,0,18.05,3.51,45.88,45.88,0,0,0,18.35-3.51A41,41,0,0,0,216,124.16,44.66,44.66,0,0,0,225,109.69ZM209.22,91.77a45.64,45.64,0,0,1-1.67,10.78,30.09,30.09,0,0,1-4.46,9.42,22.14,22.14,0,0,1-7.62,6.71,23,23,0,0,1-11.17,2.53,22,22,0,0,1-11-2.53,20,20,0,0,1-7.15-6.71,27.85,27.85,0,0,1-3.8-9.42,44.27,44.27,0,0,1-.92-10.78,48.88,48.88,0,0,1,1.69-11.2,30.73,30.73,0,0,1,4.46-9.67,22.15,22.15,0,0,1,7.63-6.78,23.1,23.1,0,0,1,11.17-2.52,22.12,22.12,0,0,1,11,2.52,20.05,20.05,0,0,1,7.15,6.78,28.62,28.62,0,0,1,3.79,9.67A48.13,48.13,0,0,1,209.22,91.77Z"/><polygon points="317.55 47.44 299.44 47.44 297.38 106.43 297.14 106.43 262.5 47.44 243.28 47.44 240.21 135.37 258.31 135.37 260.37 76.5 260.62 76.5 295.14 135.37 314.48 135.37 317.55 47.44"/><path d="M373.52,102.24H393q-1.19,9.24-6.59,14.1t-15,4.87a22,22,0,0,1-11-2.53,20,20,0,0,1-7.15-6.71,27.85,27.85,0,0,1-3.8-9.42,44.27,44.27,0,0,1-.92-10.78,48.88,48.88,0,0,1,1.69-11.2,30.73,30.73,0,0,1,4.46-9.67,22.15,22.15,0,0,1,7.63-6.78,23.1,23.1,0,0,1,11.17-2.52,18.82,18.82,0,0,1,11.82,3.69q4.79,3.7,6.26,11.09H410a31.69,31.69,0,0,0-3.6-13.3,31.14,31.14,0,0,0-8.09-9.73,35.76,35.76,0,0,0-11.25-6,42.18,42.18,0,0,0-13-2,45.29,45.29,0,0,0-18.29,3.57,40.84,40.84,0,0,0-14,9.86,46,46,0,0,0-9,14.71,56,56,0,0,0-3.59,18.29,52.06,52.06,0,0,0,2.33,17.92,40.81,40.81,0,0,0,8,14.47,37,37,0,0,0,13.27,9.67,44.22,44.22,0,0,0,18,3.51,33,33,0,0,0,12.78-2.65,30.4,30.4,0,0,0,11.78-9.29l1.62,10h12.32L411,87.83H374Z"/><path d="M491.62,97.13a24.87,24.87,0,0,0-7.19-7.57,31.42,31.42,0,0,0-8.53-4.13q-4.33-1.29-6.78-1.79-8.17-2.08-13.24-3.44A48.87,48.87,0,0,1,448,77.49a8.41,8.41,0,0,1-3.78-3,7.73,7.73,0,0,1-.84-4.19,8.5,8.5,0,0,1,1.4-4.68A11.25,11.25,0,0,1,448,62.58a13,13,0,0,1,4.31-1.72,22.72,22.72,0,0,1,4.69-.49,32.77,32.77,0,0,1,6.57.61,15.28,15.28,0,0,1,5.29,2.1,10.32,10.32,0,0,1,3.61,4.06,15.23,15.23,0,0,1,1.43,6.53h18.72a26.35,26.35,0,0,0-2.44-13,23.92,23.92,0,0,0-7.51-8.81,31.79,31.79,0,0,0-11.09-5,55.67,55.67,0,0,0-13.19-1.54,46,46,0,0,0-11.88,1.6,34.22,34.22,0,0,0-10.76,4.93,27.74,27.74,0,0,0-7.87,8.31,23.72,23.72,0,0,0-3.3,11.76,20,20,0,0,0,7.64,17.37,31.58,31.58,0,0,0,8.22,4.62,80.83,80.83,0,0,0,9.5,3q4.76,1.35,9.39,2.46a57.3,57.3,0,0,1,8.29,2.59,17.12,17.12,0,0,1,5.84,3.69,7.48,7.48,0,0,1,2.08,5.79,8.78,8.78,0,0,1-1.92,5.48,12.67,12.67,0,0,1-4.42,3.39,20,20,0,0,1-5.6,1.66,38.63,38.63,0,0,1-5.56.43,29.28,29.28,0,0,1-7.36-.92,17.62,17.62,0,0,1-6.12-2.84,13.22,13.22,0,0,1-4.07-5,15.72,15.72,0,0,1-1.34-7.52H420.43a28.44,28.44,0,0,0,2.46,14,26.16,26.16,0,0,0,8,9.73,33.94,33.94,0,0,0,11.87,5.61,58.94,58.94,0,0,0,29.94-.31,35.15,35.15,0,0,0,11.66-5.85,25.71,25.71,0,0,0,7.27-8.93,27.47,27.47,0,0,0,2.73-11.21Q494.6,101.87,491.62,97.13Z"/><polygon points="63.65 151.96 70.71 151.96 70.71 171.17 75.89 171.17 75.89 151.96 82.95 151.96 82.95 147.6 63.65 147.6 63.65 151.96"/><polygon points="95.26 161.04 106.68 161.04 106.68 157.01 95.26 157.01 95.26 151.96 107.7 151.96 107.7 147.6 90.08 147.6 90.08 171.17 107.97 171.17 107.97 166.81 95.26 166.81 95.26 161.04"/><path d="M130.16,165.92a4.78,4.78,0,0,1-3.71,1.45,6,6,0,0,1-3-.67,5.63,5.63,0,0,1-2-1.8,7.71,7.71,0,0,1-1.11-2.53,12,12,0,0,1-.35-2.88,13,13,0,0,1,.35-3,7.84,7.84,0,0,1,1.11-2.59,5.48,5.48,0,0,1,2-1.81,6,6,0,0,1,3-.68,5.35,5.35,0,0,1,3.4,1.19,5.27,5.27,0,0,1,1.15,1.3,4.09,4.09,0,0,1,.59,1.64h5a9.53,9.53,0,0,0-1.12-3.64,8.8,8.8,0,0,0-2.26-2.65,9.78,9.78,0,0,0-3.1-1.63,12.54,12.54,0,0,0-8.55.39,10.48,10.48,0,0,0-3.65,2.64,11.65,11.65,0,0,0-2.27,3.94,14.74,14.74,0,0,0-.8,4.91,14.22,14.22,0,0,0,.8,4.8,11.34,11.34,0,0,0,2.27,3.87,10.36,10.36,0,0,0,3.65,2.59,12,12,0,0,0,4.87.95,11.6,11.6,0,0,0,4-.67,9.18,9.18,0,0,0,3.17-1.91,9.64,9.64,0,0,0,2.18-3,11.83,11.83,0,0,0,1-4h-5A6.73,6.73,0,0,1,130.16,165.92Z"/><polygon points="159.48 156.65 149.94 156.65 149.94 147.6 144.76 147.6 144.76 171.17 149.94 171.17 149.94 161 159.48 161 159.48 171.17 164.66 171.17 164.66 147.6 159.48 147.6 159.48 156.65"/><polygon points="188.69 163.41 188.62 163.41 178.78 147.6 173.64 147.6 173.64 171.17 178.49 171.17 178.49 155.39 178.55 155.39 188.35 171.17 193.54 171.17 193.54 147.6 188.69 147.6 188.69 163.41"/><rect x="202.51" y="147.61" width="5.18" height="23.56"/><path d="M230.94,165.92a4.78,4.78,0,0,1-3.71,1.45,6,6,0,0,1-3-.67,5.63,5.63,0,0,1-2-1.8,7.71,7.71,0,0,1-1.11-2.53,12,12,0,0,1-.34-2.88,13,13,0,0,1,.34-3,7.84,7.84,0,0,1,1.11-2.59,5.48,5.48,0,0,1,2-1.81,6,6,0,0,1,3-.68,5.33,5.33,0,0,1,1.83.31,5.29,5.29,0,0,1,2.72,2.18,4.26,4.26,0,0,1,.6,1.64h5a9.53,9.53,0,0,0-1.12-3.64,8.8,8.8,0,0,0-2.26-2.65,9.78,9.78,0,0,0-3.1-1.63,11.72,11.72,0,0,0-3.68-.57,11.86,11.86,0,0,0-4.87,1,10.48,10.48,0,0,0-3.65,2.64,11.82,11.82,0,0,0-2.27,3.94,14.74,14.74,0,0,0-.79,4.91,14.22,14.22,0,0,0,.79,4.8,11.5,11.5,0,0,0,2.27,3.87,10.36,10.36,0,0,0,3.65,2.59,12,12,0,0,0,4.87.95,11.6,11.6,0,0,0,4-.67,9.18,9.18,0,0,0,3.17-1.91,9.64,9.64,0,0,0,2.18-3,11.83,11.83,0,0,0,1-4h-5A6.66,6.66,0,0,1,230.94,165.92Z"/><path d="M252,147.61l-8.91,23.56h5.21l1.85-5.25h8.81l1.78,5.25h5.38l-8.81-23.56Zm-.5,14.45,3.07-8.65h.07l3,8.65Z"/><polygon points="277.75 147.6 272.57 147.6 272.57 171.17 289.24 171.17 289.24 166.81 277.75 166.81 277.75 147.6"/><polygon points="308.31 151.96 315.37 151.96 315.37 171.17 320.55 171.17 320.55 151.96 327.61 151.96 327.61 147.6 308.31 147.6 308.31 151.96"/><polygon points="339.92 161.04 351.34 161.04 351.34 157.01 339.92 157.01 339.92 151.96 352.36 151.96 352.36 147.6 334.74 147.6 334.74 171.17 352.63 171.17 352.63 166.81 339.92 166.81 339.92 161.04"/><polygon points="379.82 147.6 374.14 147.6 369.36 155.13 364.74 147.6 358.73 147.6 366.32 158.82 358.11 171.17 363.91 171.17 369.16 163.01 374.31 171.17 380.48 171.17 372.26 158.86 379.82 147.6"/><polygon points="385.13 151.96 392.19 151.96 392.19 171.17 397.38 171.17 397.38 151.96 404.44 151.96 404.44 147.6 385.13 147.6 385.13 151.96"/><rect x="411.57" y="147.61" width="5.18" height="23.56"/><polygon points="430.9 147.6 425.72 147.6 425.72 171.17 442.39 171.17 442.39 166.81 430.9 166.81 430.9 147.6"/><polygon points="454.89 161.04 466.31 161.04 466.31 157.01 454.89 157.01 454.89 151.96 467.33 151.96 467.33 147.6 449.71 147.6 449.71 171.17 467.6 171.17 467.6 166.81 454.89 166.81 454.89 161.04"/><path d="M491,158.89a9,9,0,0,0-2.33-1.11c-.78-.23-1.39-.38-1.83-.47l-3.58-.93a13.65,13.65,0,0,1-2.15-.72,2.43,2.43,0,0,1-1-.79,2.12,2.12,0,0,1-.27-1.13,2.22,2.22,0,0,1,.33-1.25,2.89,2.89,0,0,1,.84-.83,3.37,3.37,0,0,1,1.14-.46,6,6,0,0,1,1.26-.13,8.15,8.15,0,0,1,1.76.17,4.16,4.16,0,0,1,1.44.56,2.9,2.9,0,0,1,1,1.08,4.2,4.2,0,0,1,.45,1.75h5a7.21,7.21,0,0,0-.77-3.48,6.9,6.9,0,0,0-2.1-2.36,8.8,8.8,0,0,0-3-1.33,14.67,14.67,0,0,0-3.54-.42,12.29,12.29,0,0,0-3.17.43,9,9,0,0,0-2.84,1.32,7.1,7.1,0,0,0-2,2.23,6.13,6.13,0,0,0-.77,3.15,5.56,5.56,0,0,0,2.21,4.66,9,9,0,0,0,2.24,1.23,22.56,22.56,0,0,0,2.57.81q1.29.36,2.55.66a17,17,0,0,1,2.24.69,5.08,5.08,0,0,1,1.6,1,2.07,2.07,0,0,1,.61,1.55,2.25,2.25,0,0,1-.46,1.47,3.16,3.16,0,0,1-1.16.91,5.2,5.2,0,0,1-1.48.45,11.38,11.38,0,0,1-1.49.11,7.68,7.68,0,0,1-2-.25,4.76,4.76,0,0,1-1.66-.75,3.71,3.71,0,0,1-1.14-1.34,4.27,4.27,0,0,1-.43-2h-5a7.81,7.81,0,0,0,.8,3.76,7.46,7.46,0,0,0,2.22,2.6,9.47,9.47,0,0,0,3.24,1.51,15.3,15.3,0,0,0,3.78.48,14.31,14.31,0,0,0,4.24-.57,9,9,0,0,0,3.07-1.56,6.55,6.55,0,0,0,1.86-2.4,7.14,7.14,0,0,0,.63-3,5.71,5.71,0,0,0-.85-3.25A7,7,0,0,0,491,158.89Z"/><path d="M60.75,22.53C79.25,22.53,95.88,0,95.88,0S85.69,9.92,67.72,10.06c-12.2,0-14.08-2.95-26.95-2.95C17.57,7.11,5.9,22.53,5.9,22.53S19.44,16.9,32.72,16.9,50.29,22.53,60.75,22.53Z"/><path d="M90,18.1S79.79,28,61.82,28.16c-12.2,0-14.08-2.95-26.95-2.95C11.67,25.21,0,40.63,0,40.63S13.54,35,26.82,35s17.57,5.63,28,5.63C73.35,40.63,90,18.1,90,18.1Z"/></g></g></svg>