<svg xmlns="http://www.w3.org/2000/svg" viewBox="0 0 500 376.42"><defs><style>.cls-1{fill:#888382}.cls-2{fill:#ffd000}</style></defs><g id="Layer_2" data-name="Layer 2"><g id="Layer_1-2" data-name="Layer 1"><path class="cls-1" d="M1.8,371.26V250H39.47q21.42,0,27.92,1.81a30.43,30.43,0,0,1,16.74,11.88q6.74,9.13,6.74,23.62,0,11.16-3.89,18.78a33.24,33.24,0,0,1-22,17.7q-8.4,1.74-24.35,1.74H25.27v45.75ZM25.28,270.49v34.42H38.13q13.88,0,18.56-1.9a15.54,15.54,0,0,0,7.33-6,16.83,16.83,0,0,0,2.66-9.43,15.82,15.82,0,0,0-13.17-16.3q-4.2-.82-16.89-.83Z"/><path class="cls-1" d="M136.32,371.26V270.49h-34.5V250h92.4v20.51H159.8V371.26Z"/><path class="cls-1" d="M209.05,371.26V250h35.14l21.09,82.72L286.15,250h35.21V371.26H299.55V275.79l-23.08,95.47h-22.6l-23-95.47v95.47Z"/><path class="cls-1" d="M419.08,326.67l22.77,7.52q-5.25,19.86-17.41,29.5t-30.9,9.63q-23.16,0-38.07-16.5t-14.91-45.13q0-30.27,15-47T395,247.91q21.33,0,34.66,13.15,7.94,7.79,11.89,22.34l-23.24,5.79a25.88,25.88,0,0,0-8.6-14.89,24,24,0,0,0-15.9-5.46,26,26,0,0,0-21,9.68q-8.06,9.68-8.05,31.36,0,23,7.93,32.76a25.35,25.35,0,0,0,20.62,9.76,22.94,22.94,0,0,0,16.1-6.21Q416.15,340,419.08,326.67Z"/><path class="cls-1" d="M497.62,376.42H462.06v-7.53h12.81a11.12,11.12,0,0,1-3.59-8.26,11.65,11.65,0,0,1,3.41-8.6q3.4-3.4,9.78-3.41,6.6,0,10.16,3.47a11.49,11.49,0,0,1,2.46,13.25,11.12,11.12,0,0,1-3.26,4.08h3.78v7Zm-13.44-7.48c2.67,0,4.64-.46,5.92-1.4a6.1,6.1,0,0,0,2.71-5.2,5.55,5.55,0,0,0-1.93-4.25c-1.28-1.17-3.31-1.75-6.07-1.75q-4.41,0-6.36,1.77a5.82,5.82,0,0,0-2,4.53,5.92,5.92,0,0,0,1.91,4.5Q480.31,368.94,484.18,368.94Z"/><path class="cls-1" d="M497.62,334.73,471.86,346.2v-7.91L485,332.93l4.39-1.55c-1.12-.41-1.85-.67-2.21-.78-.73-.25-1.45-.51-2.18-.8l-13.15-5.42v-7.75L497.62,328Z"/><path class="cls-1" d="M497.62,312.34H462.06v-7.53h12.81a11.1,11.1,0,0,1-3.59-8.26,11.67,11.67,0,0,1,3.41-8.6q3.4-3.4,9.78-3.41,6.6,0,10.16,3.47a11.49,11.49,0,0,1,2.46,13.25,11.23,11.23,0,0,1-3.26,4.09h3.78v7Zm-13.44-7.47q4,0,5.92-1.4a6.11,6.11,0,0,0,2.71-5.2,5.53,5.53,0,0,0-1.93-4.25c-1.28-1.17-3.31-1.76-6.07-1.76q-4.41,0-6.36,1.77a5.82,5.82,0,0,0-2,4.53,6,6,0,0,0,1.91,4.51Q480.31,304.87,484.18,304.87Z"/><path class="cls-1" d="M479.72,272.85l-1.12,6.84a9.63,9.63,0,0,1-5.53-4q-1.79-2.81-1.79-8.36a19.76,19.76,0,0,1,1.08-7.51,7.3,7.3,0,0,1,2.74-3.47q1.66-1,6.1-1l7.95.08a25.11,25.11,0,0,0,5-.36,13.67,13.67,0,0,0,3.46-1.35v7.45c-.46.2-1.13.44-2,.73l-.8.26a13.77,13.77,0,0,1,2.55,4.13,12.84,12.84,0,0,1,.85,4.69,10.32,10.32,0,0,1-2.16,6.93,7.14,7.14,0,0,1-9.35,1.39,7.28,7.28,0,0,1-2.61-3.24,26.79,26.79,0,0,1-1.59-6,44.4,44.4,0,0,0-1.68-7.32h-.68a3.36,3.36,0,0,0-2.8,1.07q-.84,1.08-.84,4.05a5.81,5.81,0,0,0,.72,3.14A5,5,0,0,0,479.72,272.85Zm5.53-10.08c.29,1,.64,2.5,1,4.59a14.91,14.91,0,0,0,1.19,4.1,2.79,2.79,0,0,0,2.4,1.47,3.22,3.22,0,0,0,2.48-1.17,4.41,4.41,0,0,0,1-3,7,7,0,0,0-1.21-3.88,4.32,4.32,0,0,0-2.26-1.8,12.12,12.12,0,0,0-3.32-.29h-1.36Z"/><path class="cls-1" d="M262.25 202.29L262.25 227.94 313.77 227.94 262.25 202.29z"/><path class="cls-1" d="M345.86 1.43L262.25 1.43 262.25 146.65 345.86 1.43z"/><path class="cls-1" d="M409.8 1.43H500V153.86H409.8z"/><path class="cls-2" d="M499.49 203.63L499.49 203.63 500 203.63 500 163.34 400.48 163.34 400.48 1.43 394.08 1.43 326.37 175.42 499.49 203.63z"/><path class="cls-1" d="M499.93 213.88L499.93 213.99 309.76 185.96 381.22 1.43 359.17 1.43 262.25 173.62 262.25 184.51 262.48 189.03 341.52 227.94 500 227.94 500 213.88 499.93 213.88z"/><path class="cls-2" d="M61.67 190.21L135.91 213.88 240 88.38 240 82.04 211.61 78.05 61.67 190.21z"/><path class="cls-1" d="M0 229.38L122.1 229.38 0 181.17 0 229.38z"/><path class="cls-1" d="M240.68 229.38L240.97 102.78 141.89 229.38 240.68 229.38z"/><circle class="cls-1" cx="44.27" cy="133.57" r="24.87"/><path class="cls-1" d="M44.27,176.84a43.28,43.28,0,1,1,43.28-43.27A43.32,43.32,0,0,1,44.27,176.84Zm0-82.52a39.25,39.25,0,1,0,39.25,39.25A39.29,39.29,0,0,0,44.27,94.32Z"/><path class="cls-1" d="M44.27,168.36a34.8,34.8,0,1,1,34.8-34.79A34.84,34.84,0,0,1,44.27,168.36Zm0-65.57a30.78,30.78,0,1,0,30.78,30.78A30.81,30.81,0,0,0,44.27,102.79Z"/><path class="cls-1" d="M1,0V92.71L158.44,28.07c13-4.93,12.27-8.24,22.58-8.71,44-2,38.17,27.59,37.69,36.75-.17,3.28-1,9.71-2.86,14l.13.16,22.76,4.14V0Z"/><path class="cls-1" d="M91,150.45l119-87c10.16-39.3-29.19-35.3-29.19-35.3L49.41,84.37C93.59,86.63,100.77,133.57,91,150.45Z"/></g></g></svg>