<?xml version="1.0" encoding="UTF-8"?>
<svg width="180px" height="110px" viewBox="0 0 180 110" version="1.1" xmlns="http://www.w3.org/2000/svg" xmlns:xlink="http://www.w3.org/1999/xlink">
    <!-- Generator: Sketch 53 (72520) - https://sketchapp.com -->
    <title>Rehau</title>
    <desc>Created with Sketch.</desc>
    <g id="Catalog" stroke="none" stroke-width="1" fill="none" fill-rule="evenodd">
        <g id="TS_1440-Catalog" transform="translate(-530.000000, -2801.000000)">
            <g id="Rehau" transform="translate(530.000000, 2801.000000)">
                <rect id="Rectangle" fill="#FFFFFF" x="0" y="0" width="180" height="110"></rect>
                <path d="M68.0894256,50.2606614 L68.0894256,56.692672 C68.0894256,56.692672 68.4661536,56.7709788 69.2457456,56.692672 C70.0253376,56.6148942 70.8828096,55.2868519 70.8049296,53.4119841 C70.7267856,51.5368519 70.3371216,50.2606614 69.5575296,50.2606614 L68.0894256,50.2606614 Z M68.0894256,61.3019312 L68.0894256,72.5775926 L60.4627296,72.5775926 L60.4627296,45.6260053 L74.0014416,45.6260053 C77.2753056,45.6260053 78.4448256,48.8027249 78.4448256,50.5995503 L78.4448256,56.2241534 C78.4448256,57.708545 77.2753056,58.6458466 76.4178336,58.8021958 C78.5227056,59.1929365 78.6005856,60.5990212 78.6005856,62.0831481 L78.6005856,72.4733598 L70.8828096,72.4733598 L70.8828096,63.0987566 C70.8828096,61.4582804 70.1032176,61.2238889 68.8560816,61.2238889 L68.0894256,61.3019312 Z" id="Fill-1" fill="#50504F"></path>
                <polygon id="Fill-3" fill="#50504F" points="106.756529 45.6259788 106.756529 56.7709524 103.937009 56.7709524 103.937009 45.6259788 96.3103128 45.6259788 96.3103128 72.5775661 103.937009 72.5775661 103.937009 61.3019048 106.756529 61.3019048 106.756529 72.5775661 114.383489 72.5775661 114.383489 45.6259788"></polygon>
                <path d="M124.751825,52.4744444 L124.751825,56.7710053 L127.571609,56.7710053 L127.571609,50.4432275 C127.571609,50.4432275 124.751825,49.5839683 124.751825,52.4744444 M120.386321,45.6260317 L135.198305,45.6260317 L135.198305,72.577619 L127.571609,72.577619 L127.571609,61.3019577 L124.751825,61.3019577 L124.751825,72.577619 L117.124865,72.577619 L117.124865,50.2868783 C117.124865,48.8807937 117.519281,45.6260317 120.386321,45.6260317" id="Fill-5" fill="#50504F"></path>
                <polygon id="Fill-7" fill="#50504F" points="93.8805888 68.0203968 88.8780528 68.0203968 88.8780528 61.3018783 93.8805888 61.3018783 93.8805888 56.7711905 88.8780528 56.7711905 88.8780528 50.1571693 93.8805888 50.1571693 93.8805888 45.6259524 81.2510928 45.6259524 81.2510928 72.5778042 88.8780528 72.5778042 88.8780528 72.5513492 93.8805888 72.5513492"></polygon>
                <path d="M137.939707,66.5361905 L137.939707,45.625873 L145.566667,45.625873 L145.566667,66.1454497 C145.566667,66.1454497 145.410643,68.3327513 146.969827,68.3327513 C148.529011,68.3327513 148.373251,66.1454497 148.373251,66.1454497 L148.373251,45.625873 L155.999947,45.625873 L155.999947,66.5361905 C155.999947,72.3951852 153.362587,72.7856614 146.969827,72.7856614 C140.577331,72.7856614 137.939707,72.2391005 137.939707,66.5361905" id="Fill-9" fill="#50504F"></path>
                <path d="M30.8075304,49.3233598 C39.9530184,57.4913492 52.1352984,50.6659524 52.0135944,41.124418 C45.7538904,46.3387037 38.9558904,49.2947884 30.8075304,49.3233598" id="Fill-11" fill="#DB006B"></path>
                <path d="M33.5446032,25.8136508 C21.8388432,29.432963 21.3678672,43.4110053 29.5798512,48.2416931 C28.3636032,40.1758201 29.3549232,32.8170899 33.5446032,25.8136508" id="Fill-13" fill="#A0C20D"></path>
                <path d="M53.1139992,38.8544974 C55.6032552,26.8346561 43.6152792,19.6722222 35.4286392,24.5457672 C43.0645752,27.3732804 49.0167192,31.7960317 53.1139992,38.8544974" id="Fill-15" fill="#BAB9B9"></path>
            </g>
        </g>
    </g>
</svg>