<?xml version="1.0" encoding="UTF-8"?>
<svg width="180px" height="112px" viewBox="0 0 180 112" version="1.1" xmlns="http://www.w3.org/2000/svg" xmlns:xlink="http://www.w3.org/1999/xlink">
    <!-- Generator: Sketch 53 (72520) - https://sketchapp.com -->
    <title>Salamander</title>
    <desc>Created with Sketch.</desc>
    <defs>
        <polygon id="path-1" points="2.99401198e-05 0.0802994012 20.3924095 0.0802994012 20.3924095 55.3892216 2.99401198e-05 55.3892216"></polygon>
        <polygon id="path-3" points="39.9049401 51.6752994 164.700599 51.6752994 164.700599 66.7211078 39.9049401 66.7211078"></polygon>
    </defs>
    <g id="Catalog" stroke="none" stroke-width="1" fill="none" fill-rule="evenodd">
        <g id="TS_1440-Catalog" transform="translate(-930.000000, -2801.000000)">
            <g id="Salamander" transform="translate(930.000000, 2801.000000)">
                <rect id="Rectangle" fill="#FFFFFF" x="-2.84217094e-14" y="0.170994652" width="180" height="111"></rect>
                <g id="Group-3" transform="translate(15.000000, 38.219162)">
                    <mask id="mask-2" fill="white">
                        <use xlink:href="#path-1"></use>
                    </mask>
                    <g id="Clip-2"></g>
                    <path d="M8.10182635,7.49107784 C8.22727545,7.13359281 8.78446108,6.79826347 9.49404192,6.66922156 C10.6129042,6.65994012 10.8404491,7.11083832 11.0158982,7.48149701 C10.9431437,7.63389222 10.7865569,7.77251497 10.5700898,7.89017964 C10.2910479,7.95814371 9.91679641,7.97311377 9.49823353,7.91143713 C8.7892515,7.9545509 8.42248503,8.20365269 8.10182635,7.49107784 L8.10182635,7.49107784 Z M6.81200599,5.68449102 C6.61709581,4.26083832 9.17308383,4.17670659 9.39464072,4.71023952 C9.11679641,5.08838323 8.56140719,5.16712575 8.12667665,5.1539521 C7.42517964,5.59886228 6.97787425,5.84197605 6.81200599,5.68449102 L6.81200599,5.68449102 Z M3.69404192,6.66203593 C2.85182635,6.34856287 3.30991018,5.28179641 3.63805389,5.33718563 C3.91260479,5.43898204 4.12128743,5.89556886 4.17817365,6.21113772 C4.25991018,6.48179641 3.94494012,6.69646707 3.69404192,6.66203593 L3.69404192,6.66203593 Z M5.94194611,10.2464671 C4.79134731,7.60335329 8.32248503,7.72580838 8.96110778,8.73688623 C8.80452096,9.4045509 8.07547904,9.48778443 7.45901198,9.41383234 C6.74883234,10.1575449 6.27338323,10.5542515 5.94194611,10.2464671 L5.94194611,10.2464671 Z M3.90631737,13.5791018 C2.11679641,11.4132335 5.53505988,10.3994611 6.40781437,11.1662275 C6.43565868,11.8545509 5.75691617,12.168024 5.14434132,12.2949701 C4.65571856,13.235988 4.30332335,13.7689222 3.90631737,13.5791018 L3.90631737,13.5791018 Z M2.67907186,17.3144311 C1.57428144,15.5937725 3.55422156,14.1117365 4.05991018,14.6488623 C4.41649701,15.2144311 4.26919162,16.3808982 4.02038922,17.0728144 C3.85991018,17.7081437 3.07607784,17.7069461 2.67907186,17.3144311 L2.67907186,17.3144311 Z M3.515,21.5165269 C1.94853293,20.5521557 3.35002994,18.8264072 3.9901497,19.078503 C4.49973054,19.3970659 4.72248503,20.3231138 4.69733533,20.9213174 C4.74494012,21.4527545 4.00661677,21.6934731 3.515,21.5165269 L3.515,21.5165269 Z M5.04943114,25.5401796 C3.57607784,24.6347904 4.89404192,23.0126347 5.49553892,23.2482635 C5.97398204,23.5509581 6.18386228,24.424012 6.16050898,24.9853892 C6.20541916,25.4811976 5.5141018,25.7066467 5.04943114,25.5401796 L5.04943114,25.5401796 Z M6.58865269,28.5353892 C5.4898503,27.8587425 6.47458084,26.6464671 6.92188623,26.822515 C7.28086826,27.0458683 7.43715569,27.6970659 7.42038922,28.1165269 C7.45002994,28.4892814 6.93476048,28.6566467 6.58865269,28.5353892 L6.58865269,28.5353892 Z M4.07038922,29.8554491 C3.30062874,28.8530539 4.22008982,27.5072455 4.54583832,27.7952695 C4.79613772,28.1246108 4.83535928,28.9518563 4.76889222,29.468024 C4.74973054,29.9338922 4.32697605,30.0602395 4.07038922,29.8554491 L4.07038922,29.8554491 Z M8.15901198,31.1686228 C7.17847305,30.8838922 7.58266467,29.4099401 7.95931138,29.4302994 C8.27667665,29.5288024 8.56350299,30.0970659 8.65991018,30.5006587 C8.77997006,30.8449701 8.44494012,31.1758084 8.15901198,31.1686228 L8.15901198,31.1686228 Z M4.32847305,31.9545509 C3.79224551,31.2982635 4.42817365,30.4177246 4.65362275,30.6063473 C4.82697605,30.8213174 4.85511976,31.3662275 4.81020958,31.7015569 C4.79523952,32.0078443 4.50302395,32.0910778 4.32847305,31.9545509 L4.32847305,31.9545509 Z M9.1644012,33.5015569 C8.32308383,33.1883832 8.78176647,32.1174251 9.10991018,32.1731138 C9.38326347,32.2782036 9.59224551,32.7347904 9.64973054,33.0473653 C9.73176647,33.3177246 9.41679641,33.5326946 9.1644012,33.5015569 L9.1644012,33.5015569 Z M9.85362275,36.5743114 C9.42787425,35.8746108 10.2425449,35.4138323 10.4392515,35.6392814 C10.575479,35.8701198 10.5051198,36.3018563 10.3940419,36.5482635 C10.3227844,36.7805988 10.007515,36.7440719 9.85362275,36.5743114 L9.85362275,36.5743114 Z M10.416497,39.6683234 C10.0841617,39.1198204 10.719491,38.7608383 10.8742814,38.9380838 C10.9832635,39.1165269 10.9245808,39.4530539 10.8407485,39.6491617 C10.7841617,39.8291018 10.5380539,39.8006587 10.416497,39.6683234 L10.416497,39.6683234 Z M16.7123054,5.1051497 C16.3215868,5.75634731 16.4203892,6.42251497 16.7227844,7.02730539 C17.1934431,7.14766467 17.6850599,6.9297006 18.115,6.42520958 C18.3904491,6.06353293 18.4955389,5.62191617 18.4260778,5.25365269 C18.170988,5.40694611 17.873982,5.55994012 17.5081138,5.78179641 C17.6347605,5.33868263 17.7308683,4.95185629 17.819491,4.58538922 C17.4569162,4.51293413 17.0215868,4.70245509 16.7123054,5.1051497 L16.7123054,5.1051497 Z M15.5015269,13.2949701 C15.9218862,14.435988 13.8081138,15.0794012 13.5296707,14.6835928 C13.6910479,14.3063473 14.1407485,14.1156287 14.5024251,14.0302994 C15.0078144,13.5015569 15.3332635,13.2018563 15.5015269,13.2949701 L15.5015269,13.2949701 Z M14.2275749,12.6940719 C13.0907485,11.5377844 15.3988323,9.33808383 15.9617066,9.65095808 C15.9584132,10.23 15.4994311,10.7644311 15.0883533,11.1114371 C14.7356587,12.1081437 14.4862575,12.7003593 14.2275749,12.6940719 L14.2275749,12.6940719 Z M12.403024,7.96682635 C12.9470359,8.14197605 13.4551198,8.93389222 13.6527246,9.93928144 C13.6655988,11.5288024 12.9817665,11.8539521 12.4185928,12.1048503 C12.1907485,11.9976647 11.975479,11.775509 11.7982335,11.4689222 C11.6952395,11.0731138 11.672485,10.5413772 11.7685928,9.94467066 C11.7012275,8.94077844 11.323982,8.41862275 12.403024,7.96682635 L12.403024,7.96682635 Z M9.40032934,10.0575449 C11.7775749,8.78 11.6730838,12.7069461 10.7655988,13.4108383 C10.1617066,13.2392814 10.0874551,12.4288024 10.1515269,11.7434731 C9.48505988,10.9515569 9.12368263,10.422515 9.40032934,10.0575449 L9.40032934,10.0575449 Z M6.97637725,12.2305988 C9.40212575,9.75964072 10.5401497,14.4907784 9.68505988,15.6976647 C8.91200599,15.728503 8.55991018,14.7901796 8.41649701,13.9473653 C7.36320359,13.2689222 6.76230539,12.7791018 6.97637725,12.2305988 L6.97637725,12.2305988 Z M5.63356287,14.8635329 C7.83565868,12.4758084 9.73865269,16.7677246 9.05002994,17.8608383 C8.32757485,18.6338922 6.83296407,18.3105389 5.94823353,17.7662275 C5.13505988,17.4159281 5.12817365,15.7189222 5.63356287,14.8635329 L5.63356287,14.8635329 Z M6.35092814,19.2782036 C7.87967066,17.6186228 9.20152695,20.6000599 8.72488024,21.3605389 C8.22398204,21.8943713 7.18386228,21.671018 6.57158683,21.2934731 C6.00362275,21.0506587 6.00122754,19.871018 6.35092814,19.2782036 L6.35092814,19.2782036 Z M7.38296407,22.890479 C8.55212575,21.6231138 9.56200599,23.9030539 9.19943114,24.4865868 C8.8147006,24.8961677 8.01799401,24.7249102 7.54943114,24.432994 C7.1155988,24.2488623 7.11350299,23.3470659 7.38296407,22.890479 L7.38296407,22.890479 Z M8.69823353,26.0964671 C9.63236527,25.0832934 10.4395509,26.9018563 10.1476347,27.3632335 C9.84194611,27.6883832 9.20961078,27.5530539 8.83356287,27.3201198 C8.48715569,27.1752096 8.48595808,26.4557485 8.69823353,26.0964671 L8.69823353,26.0964671 Z M11.1557186,26.0267066 C12.020988,25.4838922 12.4431437,26.8802994 12.1572156,27.1515569 C11.8718862,27.327006 11.3838623,27.124012 11.1114072,26.8985629 C10.8551198,26.7353892 10.9416467,26.2380838 11.1557186,26.0267066 L11.1557186,26.0267066 Z M9.59643713,28.6674251 C10.4916467,27.824012 11.2629042,29.3356886 10.9835629,29.7228144 C10.6901497,29.9952695 10.0820659,29.8835928 9.72458084,29.688982 C9.39284431,29.5671257 9.39314371,28.9692216 9.59643713,28.6674251 L9.59643713,28.6674251 Z M11.5021257,27.9692216 C12.1524251,27.5653293 12.4730838,28.6144311 12.254521,28.8207186 C12.0401497,28.9491617 11.6730838,28.7958683 11.4691916,28.6294012 C11.2757784,28.5057485 11.3398503,28.1302994 11.5021257,27.9692216 L11.5021257,27.9692216 Z M10.6482335,31.5758084 C11.5751796,31.0003593 12.0278743,32.4910778 11.7170958,32.78 C11.4141018,32.9650299 10.8937425,32.7491617 10.603024,32.5096407 C10.3257784,32.3377844 10.4200898,31.8054491 10.6482335,31.5758084 L10.6482335,31.5758084 Z M11.4293713,35.3467665 C12.1652994,34.9946707 12.3955389,36.1548503 12.1446407,36.3470659 C11.903024,36.4581437 11.5275749,36.2497605 11.3263772,36.0437725 C11.1320659,35.8883832 11.2398503,35.4991617 11.4293713,35.3467665 L11.4293713,35.3467665 Z M11.8069162,38.8692216 C12.3242814,38.7308982 12.3584132,39.5216168 12.1727844,39.6138323 C12.004521,39.6548503 11.7793713,39.474012 11.6703892,39.3117365 C11.5566168,39.1862874 11.6667964,38.9425749 11.8069162,38.8692216 L11.8069162,38.8692216 Z M4.54643713,55.3159281 L4.35182635,55.3294012 L4.50332335,55.3294012 C13.7018263,47.5401796 13.8362575,38.9955689 11.4829641,29.1165269 L11.5042216,29.1147305 C11.5042216,29.1147305 12.3476347,34.1794012 14.7670958,27.918024 C15.420988,27.8590419 16.9548204,27.3802994 15.1551198,27.3069461 C15.5287725,26.7380838 15.9892515,26.0671257 15.9377545,26.0838922 L14.853024,26.8258084 L15.1952395,24.831497 L14.3542216,26.2297006 L14.1712874,24.6767066 L13.8437425,26.2165269 L12.9925449,25.3623353 C13.4428443,26.4132335 13.4272754,27.6952695 13.3889521,27.8895808 C13.1114072,27.374012 12.0416467,24.0386826 10.719491,25.8479641 L10.6623054,25.6937725 C9.2138024,21.0488623 9.36799401,18.9671257 10.2464371,16.0823952 C11.4742814,13.8901796 11.7898503,14.1776048 12.9425449,13.2608383 C12.9736826,13.5383832 12.272485,17.0150299 16.4934431,14.2335928 C17.0132036,14.1991617 18.6626048,14.0940719 18.6138024,14.0533533 L18.115,13.5159281 L18.7715868,13.0045509 L17.8778743,12.7931737 L18.5772754,10.6737126 L17.5266766,12.0961677 L17.3916467,11.140479 C16.9766766,12.1458683 16.8700898,13.322515 16.2147006,12.6207186 C16.4218862,12.1317964 17.5892515,10.3308982 17.2781737,9.44407186 C16.7910479,8.53329341 16.0455389,8.98419162 15.6766766,8.90185629 C18.7206886,7.58419162 17.0362575,9.49646707 19.4736826,4.87131737 C21.0868563,3.26682635 20.360509,2.24377246 18.9009281,1.72550898 L18.8967365,1.72730539 C19.9395509,2.17131737 20.3069162,2.99556886 19.0036228,3.67520958 C18.3952395,3.76622754 17.7883533,3.7788024 17.2629042,3.91113772 C16.8404491,3.15365269 16.6072156,3.48778443 16.623982,4.20275449 C16.4108084,4.29407186 16.2302695,4.45035928 16.1042216,4.69107784 C15.0829641,4.64766467 15.3455389,4.09856287 15.7931437,5.29916168 C15.6350599,5.64377246 15.5820659,6.15125749 15.6892515,6.87191617 C15.3054192,7.33 14.8176946,7.79047904 14.0928443,7.92311377 C13.6763772,7.58778443 13.2658982,7.2548503 12.8521257,6.92041916 C12.466497,6.74526946 11.9078144,6.98389222 11.526976,7.44347305 C11.0449401,7.92311377 10.575479,8.39736527 10.1138024,8.86143713 C-7.02691617,20.3689222 23.9021257,33.827006 4.54643713,55.3159281 L4.54643713,55.3159281 Z M11.7033234,5.22251497 L11.7015269,5.20155689 C14.1272754,1.00844311 15.703024,2.87341317 17.6946407,1.72281437 L17.6946407,1.76443114 C15.7048204,2.91203593 14.1470359,1.66592814 11.7033234,5.22251497 L11.7033234,5.22251497 Z M10.6641018,25.6811976 L10.7215868,25.8353892 C12.0479341,24.024012 13.113503,27.3614371 13.3907485,27.8767066 C13.4305689,27.6797006 13.4479341,26.4015569 12.9958383,25.3467665 L13.8464371,26.2003593 L14.1733832,24.6635329 L14.357515,26.2135329 L15.2012275,24.8168263 L14.8593114,26.8111377 L15.9398503,26.0707186 C15.9922455,26.0515569 15.5338623,26.7264072 15.1581138,27.2907784 C16.9569162,27.3674251 15.425479,27.8473653 14.7700898,27.9018563 C12.3524251,34.1677246 11.5102096,29.1003593 11.5102096,29.1003593 L11.4892515,29.1018563 C13.9877545,39.6012575 13.9883533,45.925509 4.5404491,55.3892814 L4.39763473,55.3512575 C11.7596108,44.9752096 11.5144012,38.7428743 6.74194611,31.2276048 L6.72577844,31.2587425 C5.95182635,31.1994611 6.06260479,33.6338922 5.70092814,34.5509581 C5.41080838,35.2847904 4.29703593,36.0560479 3.47817365,34.8716168 C2.70511976,34.2734132 2.7152994,33.0294012 1.81979042,31.7311976 C1.34494012,31.5713174 0.494640719,31.7150299 0.554221557,31.6877844 L1.07278443,31.1437725 L2.99401198e-05,30.2096407 L1.17817365,30.2141317 L0.326976048,28.4117365 L1.68715569,29.3743114 L2.09643713,28.4081437 L2.38176647,29.9129341 L2.86859281,29.2018563 L2.67428144,30.2150299 C3.07637725,31.0395808 3.29973054,31.4677246 3.82637725,32.3913772 C3.83206587,31.369521 2.27158683,27.3003593 4.52727545,27.2856886 L4.53326347,27.2880838 L4.5395509,27.2976647 C0.982065868,20.8126347 -1.49308383,14.4994611 5.91170659,7.95904192 L5.90332335,7.9039521 C5.1138024,7.99287425 4.80212575,7.59407186 3.91020958,7.44556886 C3.19404192,7.32760479 2.23146707,6.33508982 3.04523952,5.14586826 C3.36110778,4.16502994 4.44344311,3.84856287 5.33326347,2.54946108 C5.34883234,1.99886228 5.00182635,1.12491018 5.0398503,1.18179641 L5.64823353,1.59586826 L6.17697605,0.203652695 L6.48296407,1.46293413 L7.82338323,0.0802994012 L7.34703593,1.78958084 L8.29494012,1.97790419 L7.0644012,2.67371257 L7.80901198,3.01323353 L6.87877246,3.06862275 C6.26979042,3.71652695 5.95302395,4.06772455 5.29344311,4.87341317 C6.18116766,4.61173653 8.64224551,3.65994012 9.72008982,4.21862275 L9.71230539,4.19497006 C9.99763473,4.23928144 10.2587126,4.27371257 10.4976347,4.30305389 C12.7985329,1.84257485 13.176976,0.859640719 17.0311677,1.33479042 C19.4850599,1.54197605 21.6982335,2.64766467 19.475479,4.85814371 C17.0410479,9.48449102 18.7227844,7.57101796 15.6826647,8.88718563 C16.0515269,8.96922156 16.7940419,8.51742515 17.2808683,9.42820359 C17.5922455,10.3150299 16.4248802,12.1159281 16.219491,12.6093413 C16.8748802,13.3105389 16.9817665,12.1338922 17.3949401,11.1246108 L17.5296707,12.0802994 L18.5817665,10.6620359 L17.8823653,12.781497 L18.7748802,12.9886826 L18.1182934,13.5000599 L18.6158982,14.0407784 C18.6644012,14.0811976 17.015,14.1862874 16.4964371,14.2177246 C12.2772754,17.0030539 12.975479,13.525509 12.9458383,13.2449701 C11.7913473,14.1647305 11.4760778,13.8773054 10.2482335,16.0692216 C9.37398204,18.9524551 9.21679641,21.0326946 10.6641018,25.6811976 L10.6641018,25.6811976 Z" id="Fill-1" fill="#009540" mask="url(#mask-2)"></path>
                </g>
                <path d="M19.5464371,93.5350599 L19.3518263,93.5485329 L19.503024,93.5485329 C28.7018263,85.7593114 28.8362575,77.2147006 26.4829641,67.3356587 L26.5042216,67.3338623 C26.5042216,67.3338623 27.3476347,72.3985329 29.7670958,66.1371557 C30.420988,66.0781737 31.9548204,65.5994311 30.1551198,65.5260778 C30.5287725,64.9572156 30.9892515,64.2865569 30.9377545,64.303024 L29.853024,65.0449401 L30.1949401,63.0506287 L29.3542216,64.4491317 L29.1712874,62.8961377 L28.8437425,64.4356587 L27.9925449,63.5820659 C28.4428443,64.6326647 28.4272754,65.9147006 28.3889521,66.1087126 C28.1114072,65.5931437 27.0416467,62.2578144 25.719491,64.0670958 L25.6623054,63.9132036 C24.2138024,59.267994 24.367994,57.1862575 25.2461377,54.3015269 C26.4742814,52.1093114 26.7898503,52.3967365 27.9425449,51.4799701 C27.9733832,51.757515 27.272485,55.2341617 31.4931437,52.4527246 C32.0132036,52.4182934 33.6626048,52.313503 33.6138024,52.2727844 L33.115,51.7350599 L33.7715868,51.2236826 L32.8778743,51.0126048 L33.576976,48.8928443 L32.5266766,50.3152994 L32.3916467,49.3599102 C31.9766766,50.365 31.8700898,51.5416467 31.2144012,50.8398503 C31.4218862,50.3509281 32.5892515,48.5500299 32.2781737,47.663503 C31.7910479,46.7524251 31.0455389,47.2033234 30.6766766,47.120988 C33.7206886,45.8033234 32.0362575,47.7155988 34.4736826,43.0904491 C36.0868563,41.4859581 35.360509,40.4629042 33.9009281,39.9446407 L33.8964371,39.9464371 C34.9395509,40.3904491 35.3069162,41.2147006 34.0036228,41.8946407 C33.3952395,41.9853593 32.7883533,41.9979341 32.2626048,42.1302695 C31.8404491,41.3727844 31.6072156,41.7072156 31.623982,42.4218862 C31.4108084,42.5132036 31.2302695,42.669491 31.1042216,42.9102096 C30.0829641,42.8667964 30.3455389,42.317994 30.7928443,43.5182934 C30.6350599,43.8626048 30.5820659,44.3703892 30.6892515,45.0910479 C30.3054192,45.5494311 29.8176946,46.0096108 29.0928443,46.1422455 C28.6763772,45.8069162 28.2655988,45.473982 27.8518263,45.1395509 C27.466497,44.9644012 26.907515,45.203024 26.526976,45.6626048 C26.0449401,46.1422455 25.575479,46.616497 25.1138024,47.0805689 C7.97308383,58.5883533 38.9021257,72.0464371 19.5464371,93.5350599" id="Fill-4" fill="#1D1D1B"></path>
                <path d="M29.2275449,50.9132036 C28.0907186,49.7569162 30.3988024,47.5572156 30.9616766,47.8700898 C30.9583832,48.4494311 30.4991018,48.9835629 30.0883234,49.3305689 C29.7356287,50.3272754 29.4862275,50.919491 29.2275449,50.9132036" id="Fill-6" fill="#009540"></path>
                <path d="M27.4030838,46.1859581 C27.9470958,46.3611078 28.4551796,47.153024 28.652485,48.1584132 C28.6656587,49.7479341 27.9818263,50.0730838 27.4183533,50.323982 C27.1908084,50.2167964 26.9752395,49.9946407 26.797994,49.6880539 C26.6952994,49.2922455 26.6725449,48.760509 26.7686527,48.1638024 C26.7012874,47.1599102 26.3240419,46.6380539 27.4030838,46.1859581" id="Fill-8" fill="#009540"></path>
                <path d="M24.4001497,48.2767964 C26.7776946,46.9989521 26.6729042,50.9261976 25.7654192,51.6303892 C25.1618263,51.4582335 25.0875749,50.6480539 25.1513473,49.9627246 C24.4848802,49.170509 24.1238024,48.6414671 24.4001497,48.2767964" id="Fill-10" fill="#009540"></path>
                <path d="M21.9764371,50.4497904 C24.4021856,47.9788323 25.5402096,52.7099701 24.6848204,53.9168563 C23.9117665,53.9476946 23.5599701,53.0093713 23.4162575,52.1665569 C22.3632635,51.4881138 21.7623653,50.9982934 21.9764371,50.4497904" id="Fill-12" fill="#009540"></path>
                <path d="M20.633503,53.0828443 C22.8355988,50.6951198 24.7385928,54.9867365 24.0502695,56.0801497 C23.3278144,56.8529042 21.8329042,56.5298503 20.9481737,55.9855389 C20.135,55.6352395 20.1281138,53.9379341 20.633503,53.0828443" id="Fill-14" fill="#009540"></path>
                <path d="M21.3507186,57.4973952 C22.8797605,55.8378144 24.2013174,58.8192515 23.7246707,59.5797305 C23.2240719,60.1135629 22.1836527,59.8902096 21.5713772,59.5123653 C21.0034132,59.2695509 21.0013174,58.0899102 21.3507186,57.4973952" id="Fill-16" fill="#009540"></path>
                <path d="M30.5016168,51.5140719 C30.921976,52.6553892 28.8079042,53.298503 28.5297605,52.902994 C28.6908383,52.5254491 29.1408383,52.3350299 29.502515,52.2494012 C30.0079042,51.7206587 30.3333533,51.4209581 30.5016168,51.5140719" id="Fill-18" fill="#009540"></path>
                <path d="M22.3828443,61.109521 C23.552006,59.8424551 24.5618862,62.1223952 24.1993114,62.7056287 C23.8148802,63.1152096 23.0181737,62.9439521 22.5493114,62.6523353 C22.115479,62.4682036 22.1133832,61.5664072 22.3828443,61.109521" id="Fill-20" fill="#009540"></path>
                <path d="M23.6981437,64.315509 C24.6325749,63.3026347 25.4394611,65.1208982 25.1472455,65.5822754 C24.8418563,65.9074251 24.209521,65.7723952 23.8337725,65.5391617 C23.4870659,65.3942515 23.4858683,64.6753892 23.6981437,64.315509" id="Fill-22" fill="#009540"></path>
                <path d="M24.5963473,66.8862874 C25.4915569,66.0431737 26.2628144,67.5545509 25.9837725,67.941976 C25.6900599,68.2144311 25.081976,68.1024551 24.7247904,67.9081437 C24.3927545,67.7862874 24.3933533,67.1880838 24.5963473,66.8862874" id="Fill-24" fill="#009540"></path>
                <path d="M25.6481737,69.7949401 C26.5751198,69.219491 27.0278144,70.710509 26.7170359,70.9991317 C26.4140419,71.1844611 25.8936826,70.967994 25.6029641,70.7287725 C25.3257186,70.5569162 25.4200299,70.0245808 25.6481737,69.7949401" id="Fill-26" fill="#009540"></path>
                <path d="M26.1557784,64.2457784 C27.0210479,63.7032635 27.4432036,65.0996707 27.156976,65.3706287 C26.8719461,65.5460778 26.3839222,65.3430838 26.1114671,65.1179341 C25.8551796,64.9544611 25.9417066,64.4574551 26.1557784,64.2457784" id="Fill-28" fill="#009540"></path>
                <path d="M26.5022455,66.188503 C27.1525449,65.7846108 27.4732036,66.8337126 27.2546407,67.0397006 C27.0399701,67.1684431 26.6729042,67.0148503 26.469012,66.8486826 C26.2755988,66.7250299 26.3399701,66.3492814 26.5022455,66.188503" id="Fill-30" fill="#009540"></path>
                <path d="M26.4294311,73.5658084 C27.1653593,73.2137126 27.3955988,74.3735928 27.1447006,74.5664072 C26.9030838,74.677485 26.5276347,74.4691018 26.3264371,74.2628144 C26.1321257,74.1077246 26.2399102,73.7182036 26.4294311,73.5658084" id="Fill-32" fill="#009540"></path>
                <path d="M26.8067665,77.0884431 C27.3244311,76.9498204 27.3585629,77.7408383 27.1729341,77.8327545 C27.0043713,77.8740719 26.779521,77.6932335 26.6702395,77.5309581 C26.5567665,77.405509 26.6669461,77.1617964 26.8067665,77.0884431" id="Fill-34" fill="#009540"></path>
                <path d="M31.7122156,43.3242216 C31.321497,43.9754192 31.4202994,44.6415868 31.722994,45.2463772 C32.1933533,45.3667365 32.6849701,45.1487725 33.1152096,44.6445808 C33.3903593,44.2829042 33.4957485,43.8412874 33.4262874,43.4727246 C33.1711976,43.626018 32.8738922,43.7793114 32.5083234,44.0008683 C32.6346707,43.5577545 32.7307784,43.1709281 32.8194012,42.8047605 C32.4568263,42.732006 32.021497,42.9215269 31.7122156,43.3242216" id="Fill-36" fill="#FFFFFF"></path>
                <mask id="mask-4" fill="white">
                    <use xlink:href="#path-3"></use>
                </mask>
                <g id="Clip-39"></g>
                <path d="M155.976497,66.4711078 L155.976497,51.9255988 L158.789671,51.9255988 C160.20524,51.9255988 161.148952,51.9606287 161.621108,52.0297904 C162.639371,52.182485 163.415719,52.516018 163.949551,53.0297904 C164.595359,53.6552395 164.918114,54.5998503 164.918114,55.8639222 C164.918114,56.7393713 164.676198,57.4896707 164.191467,58.114521 C163.707335,58.7399701 163.05524,59.1151198 162.235778,59.2402695 C162.545958,59.2540419 162.831587,59.4345808 163.092964,59.7818862 C163.266617,60.0040419 163.440269,60.3375749 163.614222,60.7821856 L165.700749,66.4711078 L162.794461,66.4711078 L161.22979,61.9282934 C161.030988,61.3582335 160.826198,60.976497 160.61482,60.7821856 C160.354042,60.5456587 159.957036,60.4276946 159.422605,60.4276946 L158.584281,60.4276946 L158.584281,66.4711078 L155.976497,66.4711078 Z M158.584281,54.2178144 L158.584281,58.135479 L159.441168,58.135479 C160.522006,58.135479 161.266916,57.9480539 161.676796,57.5729042 C162.024701,57.2531437 162.198353,56.7669162 162.198353,56.1142216 C162.198353,55.3360778 161.906437,54.8010479 161.322605,54.5094311 C160.925299,54.3151198 160.298353,54.2178144 159.441168,54.2178144 L158.584281,54.2178144 Z M145.842066,66.4711078 L145.842066,51.9255988 L153.517216,51.9255988 L153.517216,54.2178144 L148.45015,54.2178144 L148.45015,57.8022455 L153.088473,57.8022455 L153.088473,60.0944611 L148.45015,60.0944611 L148.45015,64.1788922 L153.554341,64.1788922 L153.554341,66.4711078 L145.842066,66.4711078 Z M134.99985,54.2178144 L134.99985,64.1788922 L136.453144,64.1788922 C137.607934,64.1788922 138.595359,63.7480539 139.41512,62.8866766 C140.296856,61.9558383 140.737874,60.726497 140.737874,59.1980539 C140.737874,57.6977545 140.296856,56.4752994 139.41512,55.5306886 C138.595359,54.6555389 137.607934,54.2178144 136.453144,54.2178144 L134.99985,54.2178144 Z M132.392365,66.4711078 L132.392365,51.9255988 L135.95015,51.9255988 C138.222904,51.9255988 139.974102,52.4118263 141.203743,53.3842814 C142.706437,54.5788922 143.457635,56.5169162 143.457635,59.1980539 C143.457635,61.8657186 142.706437,63.7965569 141.203743,64.9914671 C139.961527,65.9776946 138.210329,66.4711078 135.95015,66.4711078 L132.392365,66.4711078 Z M118.811228,66.4711078 L118.811228,51.9255988 L122.015719,51.9255988 L126.971108,62.8103293 L127.008234,51.9255988 L129.504641,51.9255988 L129.504641,66.4711078 L126.318713,66.4711078 L121.34506,55.5932635 L121.307635,66.4711078 L118.811228,66.4711078 Z M104.150449,66.4711078 L109.217515,51.9255988 L112.160928,51.9255988 L117.26512,66.4711078 L114.377695,66.4711078 L113.259731,63.1366766 L107.987874,63.1366766 L106.851647,66.4711078 L104.150449,66.4711078 Z M112.533084,60.8447605 L110.651946,54.8429641 L108.733084,60.8447605 L112.533084,60.8447605 Z M87.9061377,66.4711078 L87.9061377,51.9255988 L92.0785928,51.9255988 L95.1711078,62.9492515 L98.3007485,51.9255988 L102.473802,51.9255988 L102.473802,66.4711078 L99.9773952,66.4711078 L99.9773952,54.4681138 L96.4381737,66.4711078 L93.9417665,66.4711078 L90.4396707,54.4681138 L90.4019461,54.5094311 L90.4019461,66.4711078 L87.9061377,66.4711078 Z M73.114521,66.4711078 L78.1812874,51.9255988 L81.125,51.9255988 L86.2291916,66.4711078 L83.3417665,66.4711078 L82.2241018,63.1366766 L76.9519461,63.1366766 L75.8157186,66.4711078 L73.114521,66.4711078 Z M81.4977545,60.8447605 L79.616018,54.8429641 L77.6971557,60.8447605 L81.4977545,60.8447605 Z M65.1411677,66.4711078 L65.1411677,51.9255988 L67.7492515,51.9255988 L67.7492515,64.1788922 L72.7977545,64.1788922 L72.7977545,66.4711078 L65.1411677,66.4711078 Z M50.3498503,66.4711078 L55.4169162,51.9255988 L58.3603293,51.9255988 L63.464521,66.4711078 L60.5770958,66.4711078 L59.4594311,63.1366766 L54.1872754,63.1366766 L53.0510479,66.4711078 L50.3498503,66.4711078 Z M58.7327844,60.8447605 L56.8513473,54.8429641 L54.932485,60.8447605 L58.7327844,60.8447605 Z M48.5615269,52.1962575 L48.3193114,54.5929641 C47.4624251,54.1758982 46.5803892,53.9678144 45.6738024,53.9678144 C45.1276946,53.9678144 44.6741018,54.1067365 44.3142216,54.3845808 C43.8543413,54.7318862 43.6247006,55.2666168 43.6247006,55.9890719 C43.6247006,56.6420659 44.1154192,57.1977545 45.0965569,57.6564371 C46.6486527,58.3923653 47.5618263,58.8648204 47.8348802,59.0732036 C48.8282934,59.8510479 49.3252994,60.9348802 49.3252994,62.3241018 C49.3252994,63.8244012 48.8408683,64.9567365 47.8723054,65.7208084 C47.0276946,66.3878743 45.8851796,66.7211078 44.4444611,66.7211078 C43.6995509,66.7211078 43.0037425,66.6447605 42.3582335,66.4917665 C42.1842814,66.4501497 41.7681138,66.3390719 41.1097305,66.1585329 L41.3522455,63.5327844 C41.8115269,63.8106287 42.2959581,64.029491 42.8052395,64.1890719 C43.3142216,64.3489521 43.8112275,64.4288922 44.2953593,64.4288922 C44.8791916,64.4288922 45.3881737,64.2827844 45.8229042,63.9911677 C46.3444611,63.6441617 46.6052395,63.164521 46.6052395,62.5534431 C46.6052395,61.8172156 46.1148204,61.2058383 45.1336826,60.7196108 C43.4570359,59.8860778 42.5441617,59.4136228 42.3953593,59.3028443 C41.4016467,58.5381737 40.9049401,57.4758982 40.9049401,56.1142216 C40.9049401,54.5998503 41.3770958,53.4537425 42.3208084,52.6755988 C43.127994,52.0088323 44.1714072,51.6752994 45.4504491,51.6752994 C46.5929641,51.6752994 47.6297904,51.8492515 48.5615269,52.1962575 L48.5615269,52.1962575 Z" id="Fill-38" fill="#009540" mask="url(#mask-4)"></path>
            </g>
        </g>
    </g>
</svg>