<?xml version="1.0" encoding="UTF-8"?>
<svg width="180px" height="112px" viewBox="0 0 180 112" version="1.1" xmlns="http://www.w3.org/2000/svg" xmlns:xlink="http://www.w3.org/1999/xlink">
    <!-- Generator: Sketch 53 (72520) - https://sketchapp.com -->
    <title>Schuco</title>
    <desc>Created with Sketch.</desc>
    <g id="Catalog" stroke="none" stroke-width="1" fill="none" fill-rule="evenodd">
        <g id="TS_1440-Catalog" transform="translate(-1130.000000, -2801.000000)">
            <g id="Schuco" transform="translate(1130.000000, 2801.000000)">
                <rect id="Rectangle" fill="#FFFFFF" x="0" y="0.170994652" width="180" height="111"></rect>
                <path d="M91.66671,42.9999698 L96.85011,42.9999698 L98.46771,47.9965047 L94.80501,47.9965047 L91.66671,42.9999698 Z M107.40021,42.9999698 L112.58421,42.9999698 L109.44561,47.9965047 L105.78321,47.9965047 L107.40021,42.9999698 Z M99.08181,42.9999698 L105.16851,42.9999698 L103.88961,47.9965047 L100.36041,47.9965047 L99.08181,42.9999698 Z M158.83221,68.7544814 L147.02991,68.7544814 C143.06751,68.7544814 140.86251,66.9795279 140.86251,63.1632721 L140.86251,56.1946674 C140.86251,52.377807 143.06751,50.6031558 147.02991,50.6031558 L158.83221,50.6031558 C162.79461,50.6031558 164.99991,52.377807 164.99991,56.1946674 L164.99991,63.1632721 C164.99991,66.9795279 162.79461,68.7544814 158.83221,68.7544814 L158.83221,68.7544814 Z M160.95441,63.1632721 L160.95441,56.1946674 C160.95441,54.7008767 160.01631,54.1152721 158.72691,54.1152721 L147.13491,54.1152721 C145.84641,54.1152721 144.90771,54.7008767 144.90771,56.1946674 L144.90771,63.1632721 C144.90771,64.6570628 145.84641,65.2420628 147.13491,65.2420628 L158.72691,65.2420628 C160.01631,65.2420628 160.95441,64.6570628 160.95441,63.1632721 L160.95441,63.1632721 Z M90.75981,63.1632721 L90.75981,50.6031558 L94.80501,50.6031558 L94.80501,63.1632721 C94.80501,64.6570628 95.74341,65.2420628 97.03221,65.2420628 L107.21841,65.2420628 C108.50751,65.2420628 109.44561,64.6570628 109.44561,63.1632721 L109.44561,50.6031558 L113.49111,50.6031558 L113.49111,63.1632721 C113.49111,66.9795279 111.28701,68.7544814 107.32311,68.7544814 L96.92721,68.7544814 C92.96481,68.7544814 90.75981,66.9795279 90.75981,63.1632721 L90.75981,63.1632721 Z M138.03231,68.7544814 L123.98421,68.7544814 C120.02211,68.7544814 117.81621,66.9795279 117.81621,63.1632721 L117.81621,56.1946674 C117.81621,52.377807 120.02211,50.6031558 123.98421,50.6031558 L137.92851,50.6031558 L136.96581,54.1152721 L124.08891,54.1152721 C122.79981,54.1152721 121.86141,54.7008767 121.86141,56.1946674 L121.86141,63.1632721 C121.86141,64.6570628 122.79981,65.2420628 124.08891,65.2420628 L137.07291,65.2420628 L138.03231,68.7544814 Z M81.98661,61.0699698 L68.29221,61.0699698 L68.29221,68.7544814 L64.24701,68.7544814 L64.24701,50.6031558 L68.29221,50.6031558 L68.29221,57.6210395 L81.98661,57.6210395 L81.98661,50.6031558 L86.03181,50.6031558 L86.03181,68.7544814 L81.98661,68.7544814 L81.98661,61.0699698 Z M60.65961,68.7544814 L46.61151,68.7544814 C42.64881,68.7544814 40.44381,66.9795279 40.44381,63.1632721 L40.44381,56.1946674 C40.44381,52.377807 42.64881,50.6031558 46.61151,50.6031558 L60.55551,50.6031558 L59.59311,54.1152721 L46.71621,54.1152721 C45.42741,54.1152721 44.48901,54.7008767 44.48901,56.1946674 L44.48901,63.1632721 C44.48901,64.6570628 45.42741,65.2420628 46.71621,65.2420628 L59.69991,65.2420628 L60.65961,68.7544814 Z M36.63711,63.4767837 C36.63711,67.1412721 34.60701,68.7544814 30.77991,68.7544814 L15.30501,68.7544814 L16.26561,65.2420628 L30.67521,65.2420628 C31.93041,65.2420628 32.59161,64.894993 32.59161,63.4767837 L32.59161,63.0846674 C32.59161,61.6664581 31.93041,61.3193884 30.67521,61.3193884 L20.85711,61.3193884 C17.02911,61.3193884 14.99991,59.7061791 14.99991,56.0413884 L14.99991,55.8811558 C14.99991,52.2160628 17.02911,50.6031558 20.85711,50.6031558 L35.83911,50.6031558 L34.87911,54.1152721 L20.96181,54.1152721 C19.70631,54.1152721 19.04511,54.4629465 19.04511,55.8811558 L19.04511,56.0413884 C19.04511,57.4592953 19.70631,57.8072721 20.96181,57.8072721 L30.77991,57.8072721 C34.60791,57.8072721 36.63711,59.4201791 36.63711,63.0846674 L36.63711,63.4767837 Z" id="Fill-1" fill="#26347D"></path>
            </g>
        </g>
    </g>
</svg>