<?xml version="1.0" encoding="UTF-8"?>
<svg width="180px" height="110px" viewBox="0 0 180 110" version="1.1" xmlns="http://www.w3.org/2000/svg" xmlns:xlink="http://www.w3.org/1999/xlink">
    <!-- Generator: Sketch 53 (72520) - https://sketchapp.com -->
    <title>Veka</title>
    <desc>Created with Sketch.</desc>
    <g id="Catalog" stroke="none" stroke-width="1" fill="none" fill-rule="evenodd">
        <g id="TS_1440-Catalog" transform="translate(-130.000000, -2801.000000)">
            <g id="Veka" transform="translate(130.000000, 2801.000000)">
                <rect id="Rectangle" fill="#FFFFFF" x="0" y="0" width="180" height="110"></rect>
                <path d="M116.355894,43.9999822 L110.473798,73.9090947 L119.296326,73.9090947 L119.786662,70.2672012 L124.687734,70.2672012 L125.177718,73.9090947 L134.00007,73.9090947 L127.138006,43.9999822 L116.355894,43.9999822 Z M122.139254,55.4780888 L124.295606,62.4313432 L120.080406,62.4313432 L122.139254,55.4780888 Z" id="Fill-1" fill="#0074B8"></path>
                <polygon id="Fill-2" fill="#0074B8" points="100.80545 43.9999822 96.4570176 52.9396272 96.4570176 43.9999822 88.4513056 43.9999822 88.4513056 73.9090947 96.4570176 73.9090947 96.4570176 64.5279704 101.596042 73.9090947 109.897786 73.9090947 103.177578 58.6786805 109.503018 43.9999822"></polygon>
                <polygon id="Fill-3" fill="#0074B8" points="70.2207856 43.9999822 70.2207856 73.9090947 85.6489456 73.9090947 85.6489456 66.7353669 78.9521456 66.7353669 78.9521456 61.8794497 84.6318416 61.8794497 84.6318416 55.6987396 78.9521456 55.6987396 78.9521456 51.0636509 85.3099696 51.0636509 85.3099696 43.9999822"></polygon>
                <polygon id="Fill-4" fill="#0074B8" points="61.4375056 43.9999822 57.4979216 57.2438284 54.3042256 43.9999822 46.0000176 43.9999822 52.6008976 73.9090947 61.3308496 73.9090947 69.6352336 43.9999822"></polygon>
            </g>
        </g>
    </g>
</svg>