<svg xmlns="http://www.w3.org/2000/svg" viewBox="0 0 14 21">
    <g fill="none" fill-rule="evenodd" stroke="#AAA" stroke-linecap="round" stroke-width=".5">
        <path d="M13.672 6.961A6.711 6.711 0 0 0 6.532.263C3.255.467.563 3.085.275 6.353a6.7 6.7 0 0 0 2.171 5.574c.844.767 1.292 1.878 1.292 3.018v3.962c0 .742.601 1.343 1.343 1.343H9.11c.741 0 1.342-.6 1.342-1.343v-4.28c0-1.085.442-2.12 1.215-2.88a6.693 6.693 0 0 0 2.006-4.786zM3.74 16.25h6.712"/>
        <path d="M3.044 5.915c.164.575-.766.887-.39 1.479.187.295 1.202-.012 1.52.292.269.255.007 1.3.384 1.501.327.175 1.044-.61 1.463-.514.358.081.642 1.116 1.075 1.116.433 0 .717-1.035 1.075-1.117.42-.096 1.14.688 1.467.513.377-.202.114-1.247.383-1.503.319-.305 1.334 0 1.522-.296.372-.589-.558-.9-.396-1.471M3.74 17.25h2M3.74 18.25h1.5M7.096 9.539v6.71"/>
    </g>
</svg>
