<?xml version="1.0" encoding="UTF-8"?>
<svg viewBox="0 0 24 17" version="1.1" xmlns="http://www.w3.org/2000/svg" xmlns:xlink="http://www.w3.org/1999/xlink">
    <!-- Generator: Sketch 48.2 (47327) - http://www.bohemiancoding.com/sketch -->
    <title>mail</title>
    <desc>Created with Sketch.</desc>
    <defs></defs>
    <g id="TS_1440-Dilers3_all" stroke="none" stroke-width="1" fill="" fill-rule="evenodd" transform="translate(-945.000000, -1276.000000)">
        <g id="mail" transform="translate(945.000000, 1276.000000)" fill="" fill-rule="nonzero">
            <g id="Group" transform="translate(4.000000, 9.000000)">
                <path d="M15.3211429,4.65 C15.2274286,4.65 15.1337143,4.61785714 15.0605714,4.55285714 L10.6765714,0.697142857 C10.5234286,0.562857143 10.5158095,0.336428571 10.6598095,0.192857143 C10.8038095,0.0478571429 11.0438095,0.0414285714 11.1984762,0.177142857 L15.5824762,4.03285714 C15.735619,4.16714286 15.7432381,4.39357143 15.5992381,4.53714286 C15.5238095,4.61214286 15.4232381,4.65 15.3211429,4.65 Z" id="Shape"></path>
                <path d="M0.687238095,4.65 C0.585904762,4.65 0.484571429,4.61214286 0.409142857,4.53714286 C0.265142857,4.39357143 0.272761905,4.16714286 0.425904762,4.03285714 L4.81142857,0.177142857 C4.96533333,0.0428571429 5.20685714,0.0485714286 5.35009524,0.192857143 C5.49409524,0.336428571 5.48647619,0.562857143 5.33333333,0.697142857 L0.947809524,4.55285714 C0.874666667,4.61785714 0.780952381,4.65 0.687238095,4.65 Z" id="Shape"></path>
            </g>
            <path d="M22.0652651,17 L1.93473494,17 C0.868309042,17 0,16.1356194 0,15.0723001 L0,1.92769991 C0,0.864380641 0.868309042,0 1.93473494,0 L22.0652651,0 C23.131691,0 24,0.864380641 24,1.92769991 L24,15.0723001 C24,16.1356194 23.131691,17 22.0652651,17 Z M1.93473494,0.771079966 C1.29472462,0.771079966 0.773893977,1.29001678 0.773893977,1.92769991 L0.773893977,15.0723001 C0.773893977,15.7099832 1.29472462,16.22892 1.93473494,16.22892 L22.0652651,16.22892 C22.7052754,16.22892 23.226106,15.7099832 23.226106,15.0723001 L23.226106,1.92769991 C23.226106,1.29001678 22.7052754,0.771079966 22.0652651,0.771079966 L1.93473494,0.771079966 Z" id="Shape"></path>
            <path d="M12.5064195,11 C11.9910652,11 11.4757109,10.8265199 11.0835766,10.4803446 L1.13297559,1.68780686 C0.971782051,1.54572586 0.954732735,1.29767283 1.09500211,1.13361245 C1.23682142,0.970337037 1.48093663,0.955422456 1.64213017,1.0959335 L11.5927312,9.88768628 C12.0879363,10.324919 12.9249027,10.324919 13.4193329,9.88768628 L23.3575344,1.11006311 C23.517953,0.967982103 23.7620682,0.983681661 23.9046625,1.14774205 C24.0449318,1.31180243 24.0286575,1.55907048 23.867464,1.70193646 L13.9292625,10.4795596 C13.5363532,10.8265199 13.0217739,11 12.5064195,11 Z" id="Shape"></path>
        </g>
    </g>
</svg>
