<?xml version="1.0" encoding="UTF-8"?>
<svg viewBox="0 0 14 24" version="1.1" xmlns="http://www.w3.org/2000/svg" xmlns:xlink="http://www.w3.org/1999/xlink">
    <!-- Generator: Sketch 48.2 (47327) - http://www.bohemiancoding.com/sketch -->
    <title>smartphone (1)</title>
    <desc>Created with Sketch.</desc>
    <defs></defs>
    <g id="TS_1440-Dilers3_all" stroke="none" stroke-width="1" fill="" fill-rule="evenodd" transform="translate(-596.000000, -1273.000000)">
        <g id="smartphone-(1)" transform="translate(596.000000, 1273.000000)" fill="" fill-rule="nonzero">
            <path d="M12.1861765,0 L1.81382353,0 C0.814058824,0 0,0.7908 0,1.762 L0,22.2376 C0,23.2092 0.814058824,24 1.81382353,24 L12.1857647,24 C13.1859412,24 14,23.2092 14,22.238 L14,1.762 C14,0.7908 13.1859412,0 12.1861765,0 Z M0.823529412,3.2 L13.1764706,3.2 L13.1764706,18.4 L0.823529412,18.4 L0.823529412,3.2 Z M1.81382353,0.8 L12.1857647,0.8 C12.7321765,0.8 13.1764706,1.2316 13.1764706,1.762 L13.1764706,2.4 L0.823529412,2.4 L0.823529412,1.762 C0.823529412,1.2316 1.26782353,0.8 1.81382353,0.8 Z M12.1861765,23.2 L1.81382353,23.2 C1.26782353,23.2 0.823529412,22.7684 0.823529412,22.238 L0.823529412,19.2 L13.1764706,19.2 L13.1764706,22.238 C13.1764706,22.7684 12.7321765,23.2 12.1861765,23.2 Z" id="Shape"></path>
            <path d="M7,20 C6.4485,20 6,20.4485 6,21 C6,21.5515 6.4485,22 7,22 C7.5515,22 8,21.5515 8,21 C8,20.4485 7.5515,20 7,20 Z" id="Shape"></path>
            <path d="M5.5,2 L7.5,2 C7.7765,2 8,1.7765 8,1.5 C8,1.2235 7.7765,1 7.5,1 L5.5,1 C5.2235,1 5,1.2235 5,1.5 C5,1.7765 5.2235,2 5.5,2 Z" id="Shape"></path>
            <path d="M8.33333333,2 L8.66666667,2 C8.851,2 9,1.7765 9,1.5 C9,1.2235 8.851,1 8.66666667,1 L8.33333333,1 C8.149,1 8,1.2235 8,1.5 C8,1.7765 8.149,2 8.33333333,2 Z" id="Shape"></path>
        </g>
    </g>
</svg>
