<?xml version="1.0" encoding="UTF-8"?>
<svg viewBox="0 0 29 26" version="1.1" xmlns="http://www.w3.org/2000/svg" xmlns:xlink="http://www.w3.org/1999/xlink">
    <!-- Generator: Sketch 48.2 (47327) - http://www.bohemiancoding.com/sketch -->
    <title>Shape</title>
    <desc>Created with Sketch.</desc>
    <defs></defs>
    <g id="TS_1440-Dilers3_all" stroke="none" stroke-width="1" fill="" fill-rule="evenodd" transform="translate(-160.000000, -1273.000000)">
        <path d="M188.051103,1283.20533 L185.809268,1280.77923 C185.747848,1280.71781 185.625007,1280.65639 185.532877,1280.65639 L175.311536,1280.65639 L175.311536,1276.74663 C175.802897,1276.3474 176.079287,1275.7332 176.079287,1275.11899 C176.079287,1273.95201 175.127275,1273 173.960292,1273 C172.79331,1273 171.841298,1273.95201 171.841298,1275.11899 C171.841298,1275.76391 172.117688,1276.3474 172.609049,1276.74663 L172.609049,1277.04988 L162.633388,1277.04988 C162.541258,1277.04988 162.449128,1277.08059 162.356998,1277.17272 L160.115163,1279.38385 C159.961612,1279.5374 159.961612,1279.75237 160.115163,1279.90592 L162.356998,1282.30131 C162.418418,1282.36273 162.541258,1282.42415 162.633388,1282.42415 L172.609049,1282.42415 L172.609049,1294.69664 C170.643605,1295.00374 169.261652,1295.59895 169.261652,1296.4164 C169.261652,1297.76764 171.319227,1298.5354 173.960292,1298.5354 C176.601358,1298.5354 178.658933,1297.76764 178.658933,1296.4164 C178.658933,1295.69324 177.24627,1295.00374 175.311536,1294.69664 L175.311536,1286.03066 L185.563587,1286.03066 C185.655717,1286.03066 185.747848,1285.99995 185.839978,1285.90782 L188.081813,1283.69669 C188.204653,1283.57385 188.204653,1283.32817 188.051103,1283.20533 Z M160.913625,1279.66024 L162.786939,1277.81764 L172.609049,1277.81764 L172.609049,1281.6871 L162.786939,1281.6871 L160.913625,1279.66024 Z M177.921891,1296.4164 C177.921891,1297.21486 176.294258,1297.79835 173.960292,1297.79835 C171.626327,1297.79835 169.998694,1297.21486 169.998694,1296.4164 C169.998694,1295.98646 170.868812,1295.59235 172.609049,1295.23406 C172.609049,1295.9711 172.686701,1296.81563 173.960292,1296.81563 C175.233884,1296.81563 175.311536,1295.9711 175.311536,1295.23406 C177.051773,1295.61282 177.921891,1296.00693 177.921891,1296.4164 Z M174.728044,1276.22456 C174.635914,1276.28598 174.574494,1276.40882 174.574494,1276.53166 L174.574494,1293.09971 L174.574494,1293.99031 L174.574494,1294.72735 L174.574494,1295.03445 L174.574494,1295.40297 C174.574494,1295.74078 174.576355,1296.01717 173.960292,1296.01717 C173.34423,1296.01717 173.346091,1295.74078 173.346091,1295.40297 L173.346091,1295.03445 L173.346091,1294.72735 L173.346091,1293.99031 L173.346091,1293.09971 L173.346091,1276.53166 C173.346091,1276.40882 173.284671,1276.28598 173.192541,1276.22456 C172.82402,1275.97888 172.578339,1275.54894 172.578339,1275.08828 C172.578339,1274.32053 173.192541,1273.70633 173.960292,1273.70633 C174.728044,1273.70633 175.342246,1274.32053 175.342246,1275.08828 C175.311536,1275.54894 175.096565,1275.97888 174.728044,1276.22456 Z M185.379327,1285.29361 L175.311536,1285.29361 L175.311536,1281.42415 L185.379327,1281.42415 L187.252641,1283.45101 L185.379327,1285.29361 Z" id="Shape" fill="#A7AAAD" fill-rule="nonzero"></path>
    </g>
</svg>
