<svg xmlns="http://www.w3.org/2000/svg" viewBox="0 0 23 22">
    <path fill="none" fill-rule="evenodd" stroke="#AAA" stroke-linecap="round" stroke-linejoin="round" stroke-width=".5" d="M18.309 12a.25.25 0 0 1 0-.5h3.25a.25.25 0 0 1 0 .5h-3.25zM1.25 12a.25.25 0 0 1 0-.5H4.5a.25.25 0 0 1 0 .5H1.25zm16.835-2.654a.25.25 0 0 1-.17-.47l3.054-1.11a.25.25 0 0 1 .17.469l-3.054 1.11zm-16 6a.25.25 0 0 1-.17-.47l3.053-1.11a.25.25 0 0 1 .17.469l-3.053 1.11zM17.161 7.28a.25.25 0 1 1-.322-.384l2.49-2.088a.25.25 0 1 1 .32.384L17.162 7.28zm-13 11a.25.25 0 1 1-.322-.384l2.49-2.088a.25.25 0 1 1 .32.384L4.162 18.28zM15.216 4.939a.25.25 0 1 1-.432-.25l1.625-2.814a.25.25 0 1 1 .432.25l-1.625 2.814zm-9 15a.25.25 0 1 1-.433-.25l1.624-2.814a.25.25 0 1 1 .434.25l-1.624 2.814zm7.03-15.696a.25.25 0 0 1-.492-.086l.564-3.2a.25.25 0 0 1 .492.086l-.564 3.2zm-3 17a.25.25 0 0 1-.492-.086l.564-3.2a.25.25 0 0 1 .492.086l-.564 3.2zm.564-17.086a.25.25 0 0 1-.492.086l-.564-3.2a.25.25 0 0 1 .492-.086l.564 3.2zm3 17a.25.25 0 0 1-.492.086l-.564-3.2a.25.25 0 0 1 .492-.086l.564 3.2zM7.84 4.689a.25.25 0 0 1-.433.25L5.783 2.125a.25.25 0 0 1 .434-.25L7.84 4.689zm9.001 15a.25.25 0 0 1-.432.25l-1.625-2.814a.25.25 0 0 1 .432-.25l1.625 2.814zM6.65 6.896a.25.25 0 1 1-.322.384L3.84 5.192a.25.25 0 1 1 .322-.384L6.65 6.896zm13 11a.25.25 0 1 1-.322.384l-2.489-2.088a.25.25 0 1 1 .322-.384l2.489 2.088zM5.138 8.876a.25.25 0 0 1-.17.47L1.915 8.235a.25.25 0 0 1 .17-.47l3.053 1.111zm16.001 6a.25.25 0 0 1-.17.47l-3.054-1.111a.25.25 0 0 1 .17-.47l3.054 1.111z"/>
</svg>
