<?xml version="1.0" encoding="UTF-8" standalone="no"?>
<svg viewBox="0 0 350 50" version="1.1" xmlns="http://www.w3.org/2000/svg" xmlns:xlink="http://www.w3.org/1999/xlink">
    <!-- Generator: Sketch 47.1 (45422) - http://www.bohemiancoding.com/sketch -->
    <title>logo_shutterstock</title>
    <desc>Created with Sketch.</desc>
    <defs></defs>
    <g id="++Photobank" stroke="none" stroke-width="1" fill="none" fill-rule="evenodd">
        <g id="TS_1440-Photobank" transform="translate(-545.000000, -2565.000000)">
            <g id="logo_shutterstock" transform="translate(545.000000, 2565.000000)">
                <path d="M207.865272,27.9714545 C207.336868,27.8805455 205.568256,27.5841818 205.0512,27.4914545 C202.258009,26.9864545 199.867477,26.3350909 199.867477,23.5196364 C199.867477,21.1046364 202.397827,19.9787273 205.545558,19.9787273 C210.229021,19.9787273 214.33823,22.1028182 214.806258,22.3373636 L217.372925,15.5532727 C216.385117,15.0400909 212.205999,12.8046364 205.625454,12.8046364 C199.595558,12.8046364 192.232847,15.9737273 192.232847,23.8596364 C192.232847,30.9182727 197.26858,33.1819091 202.12273,34.0382727 C202.792769,34.1600909 204.897763,34.5219091 205.505156,34.6278182 C208.766829,35.1814545 210.558139,36.3978182 210.558139,38.5373636 C210.558139,41.2523636 208.012354,42.521 204.159176,42.521 C197.986284,42.521 194.362354,40.6791818 193.317348,40.2491818 L190.473768,46.8846364 C191.356712,47.341 195.570785,49.7191818 203.793288,49.7191818 C211.772925,49.7191818 218.174157,45.7605455 218.174157,38.3978182 C218.111965,31.5414545 213.511576,28.9414545 207.865272,27.9714545" id="Fill-1" fill="#747373"></path>
                <path d="M232.227724,0.454363636 L224.678437,4.63709091 L224.678437,13.4943636 L220.702237,13.4943636 L220.702237,20.7257273 L224.678437,20.7257273 L224.678437,36.3589091 C224.678437,43.0361818 227.418969,49.0320909 237.086868,49.0320909 L240.111122,49.0320909 L240.111122,41.7952727 L238.97714,41.7952727 C234.222406,41.7952727 232.227724,39.0484545 232.227724,35.3189091 L232.227724,20.7257273 L240.901005,20.7257273 L240.901005,13.4943636 L232.227724,13.4943636 L232.227724,0.454363636 Z" id="Fill-4" fill="#747373"></path>
                <path d="M291.223379,20.1567273 C294.169553,20.1567273 297.189721,21.499 298.093547,24.7449091 L304.945558,22.1367273 C303.028048,15.3462727 296.72487,12.8058182 291.16845,12.8058182 C281.209112,12.8058182 277.194326,18.9976364 277.194326,25.0180909 L277.194326,37.5049091 C277.194326,43.5217273 281.209112,49.719 291.16845,49.719 C296.72487,49.719 303.028048,47.1762727 304.945558,40.384 L298.093547,37.7794545 C297.189721,41.0221818 294.169553,42.3699091 291.223379,42.3699091 C286.091407,42.3699091 284.72954,39.5576364 284.72954,36.3526364 L284.72954,26.1685455 C284.72954,22.9676364 286.091407,20.1567273 291.223379,20.1567273" id="Fill-7" fill="#747373"></path>
                <polygon id="Fill-9" fill="#747373" points="323.510538 29.4549545 337.628567 13.4931364 328.342445 13.4931364 316.200486 27.4076818 316.200486 0.456318182 308.641667 0.456318182 308.641667 49.0340455 316.200486 49.0340455 316.200486 37.7217727 318.678178 34.9158636 329.492769 49.0340455 338.552367 49.0340455"></polygon>
                <polygon id="Fill-11" fill="#747373" points="344.654079 13.4943636 344.654079 14.2948182 343.174183 14.2948182 343.174183 18.3825455 342.375674 18.3825455 342.375674 14.2948182 340.892601 14.2948182 340.892601 13.4943636"></polygon>
                <polygon id="Fill-13" fill="#747373" points="345.935279 18.3827273 345.141764 18.3827273 345.141764 13.4981818 346.031064 13.4981818 347.374319 16.6727273 348.730739 13.4981818 349.625486 13.4981818 349.625486 18.3827273 348.824708 18.3827273 348.824708 16.1395455 348.978145 14.8145455 348.909144 14.8145455 348.495136 15.9695455 347.697082 17.7059091 347.070169 17.7059091 346.264397 15.9695455 345.857652 14.7968182 345.789559 14.7968182 345.935279 16.1477273"></polygon>
                <path d="M262.023891,21.2491818 L254.17227,21.2491818 C252.923891,21.2491818 251.912477,22.2650909 251.912477,23.5119091 L251.912477,32.0437273 L244.16572,32.0437273 L244.16572,23.5119091 C244.16572,17.9750909 248.642633,13.4946364 254.17227,13.4946364 L262.023891,13.4946364 L262.023891,21.2491818 Z" id="Fill-15" fill="#E32413"></path>
                <path d="M255.633962,41.2749091 L263.490577,41.2749091 C264.73487,41.2749091 265.748554,40.2621818 265.748554,39.0117273 L265.748554,30.484 L273.495765,30.484 L273.495765,39.0117273 C273.495765,44.5458182 269.016128,49.034 263.490577,49.034 L255.633962,49.034 L255.633962,41.2749091 Z" id="Fill-17" fill="#E32413"></path>
                <path d="M127.577588,13.4943636 L136.248599,13.4943636 L136.248599,20.7257273 L127.577588,20.7257273 L127.577588,35.3189091 C127.577588,39.0484545 129.572724,41.7952727 134.320195,41.7952727 L135.45463,41.7952727 L135.45463,49.0320909 L132.429922,49.0320909 C122.759754,49.0320909 120.025577,43.0361818 120.025577,36.3589091 L120.025577,20.7257273 L107.31799,20.7257273 L107.31799,35.3189091 C107.31799,39.0484545 109.314488,41.7952727 114.064228,41.7952727 L115.194578,41.7952727 L115.194578,49.0320909 L112.167601,49.0320909 C102.498794,49.0320909 99.7614397,43.0361818 99.7614397,36.3589091 L99.7614397,20.7257273 L95.9336835,20.7257273 L95.9336835,13.4943636 L99.7614397,13.4943636 L99.7614397,4.63709091 L107.31799,0.454363636 L107.31799,13.4943636 L120.025577,13.4943636 L120.025577,4.63709091 L127.577588,0.454363636 L127.577588,13.4943636 Z" id="Fill-19" fill="#E32413"></path>
                <path d="M46.0572763,12.8059091 C43.6667445,12.8059091 41.2417121,13.2672727 39.0636316,14.1940909 L39.0636316,0.455 L31.5093515,0.455 L31.5093515,49.0318182 L39.0636316,49.0318182 L39.0636316,21.2618182 C40.5784825,20.3104545 42.7651881,19.7377273 44.9005966,19.7377273 C49.6444358,19.7377273 51.8797147,22.3809091 51.8797147,26.2777273 L51.8797147,49.0318182 L59.4249157,49.0318182 L59.4249157,25.2445455 C59.4249157,18.0722727 54.2366537,12.8059091 46.0572763,12.8059091" id="Fill-22" fill="#E32413"></path>
                <path d="M84.3316602,41.9647273 C82.8971595,42.7410909 81.0813359,43.1860909 79.2732296,43.1860909 C73.6387289,43.1860909 71.5183009,40.3079091 71.5183009,36.3456364 L71.5183009,13.4947273 L63.9681064,13.4947273 L63.9681064,36.4829091 C63.9681064,45.4210909 69.1277691,49.7192727 78.3448898,49.7192727 C82.7577951,49.7192727 87.6469001,48.6029091 91.8814008,46.7679091 L91.8814008,13.4947273 L84.3316602,13.4947273 L84.3316602,41.9647273 Z" id="Fill-24" fill="#E32413"></path>
                <path d="M17.3893256,27.9714545 C16.8654604,27.8805455 15.0950324,27.5841818 14.5757069,27.4914545 C11.7888716,26.9864545 9.39107652,26.3350909 9.39107652,23.5196364 C9.39107652,21.1046364 11.9196109,19.9787273 15.0696109,19.9787273 C19.75262,19.9787273 23.8618288,22.1028182 24.3303113,22.3373636 L26.8951621,15.5532727 C25.9159792,15.0400909 21.7314137,12.8046364 15.1472374,12.8046364 C9.12097276,12.8046364 1.75871595,15.9737273 1.75871595,23.8596364 C1.75871595,30.9182727 6.78809339,33.1819091 11.6490532,34.0382727 C12.3172763,34.1600909 14.4240856,34.5219091 15.0332944,34.6278182 C18.2954215,35.1814545 20.0799222,36.3978182 20.0799222,38.5373636 C20.0799222,41.2523636 17.5400389,42.521 13.6877691,42.521 C7.51079118,42.521 3.88686122,40.6791818 2.84140078,40.2491818 L9.07911802e-05,46.8846364 C0.885304799,47.341 5.0966537,49.7191818 13.3191569,49.7191818 C21.2992477,49.7191818 27.7004799,45.7605455 27.7004799,38.3978182 C27.6342023,31.5414545 23.0333593,28.9414545 17.3893256,27.9714545" id="Fill-27" fill="#E32413"></path>
                <path d="M159.920629,28.5689545 L147.186258,28.5689545 L147.186258,25.9835 C147.186258,23.0985 148.632562,20.0048636 153.59203,20.0048636 C158.374001,20.0048636 159.920629,23.0194091 159.920629,25.8425909 L159.920629,28.5689545 Z M167.472185,25.0180455 C167.472185,18.5175909 162.525882,12.8039545 153.626077,12.8039545 C143.528281,12.8039545 139.65059,19.1180455 139.65059,25.0180455 L139.65059,36.8221364 C139.65059,44.9830455 144.864274,49.7189545 153.626077,49.7189545 C161.361939,49.7189545 165.374455,45.2453182 166.566543,42.5535 L160.192549,38.7189545 C159.647802,40.2998636 157.121991,42.5144091 153.679189,42.5144091 C149.009799,42.5144091 147.213949,39.9048636 147.213949,36.6385 L147.186258,34.6916818 L167.472185,34.6916818 L167.472185,25.0180455 Z" id="Fill-30" fill="#E32413"></path>
                <path d="M172.30332,25.0293636 L172.30332,49.0343636 L179.851245,49.0343636 L179.851245,25.6775455 C179.851245,23.6366364 181.009287,20.1511818 186.547549,20.1511818 C187.420052,20.1511818 189.384773,20.3970909 190.01668,20.5161818 L190.01668,13.1857273 C189.334384,13.0225455 187.773684,12.8039091 186.160778,12.8039091 C176.56415,12.8039091 172.30332,18.8302727 172.30332,25.0293636" id="Fill-32" fill="#E32413"></path>
            </g>
        </g>
    </g>
</svg>
