<svg id="Layer_1" data-name="Layer 1" xmlns="http://www.w3.org/2000/svg" viewBox="0 0 280 280"><defs><style>.cls-1{fill:#dc1414;}.cls-2{fill:#fff;}</style></defs><title>Stamp Discount</title><path class="cls-1" d="M48.89,153.58l1.8,6-15.56,4.67,20.13,10.55,2.21,7.38-17.74-9.55L23.57,193.39l-2.24-7.47,13-16.11L28,166.38,16.5,169.83l-1.8-6Z"/><path class="cls-1" d="M215.89,145.49l-.22-.79.52-.76-.14-.79-.3-.6c0-.45,0-.91,0-1.36l.36-.38-.35-.32c0-.16,0-.31,0-.46s0-.48,0-.72l0-.06-.05-.15c0-.74,0-1.47-.06-2.2,0,.07-2.13-14.56-1.87-14.2l-.24-1.19.06-.82-.22-.75-.37-.71.11-.84-.54-.66-.34-.71-.58-.63-.13-.77-.43-.68-.43-.66.29-.94.14-.89-.91-.48v-.84l-.89-.47.2-.94-.61-.58-.52-.61.15-.92v-.87l-1.16-.3v-.87l-.71-.51-.28-.73.31-1-1-.31,0-.92-.28-.74-.33-.71-.48-.63-.77-.43.06-1-1-.28-.62-.51L202,97.1l-.27-.76-.67-.47-.24-.79-.52-.58.14-1.09-.95-.25-.76-.38-.13-.9-.41-.67-.24-.82-.7,0-.43-.5,0-.52-.66-.24c-.48-.53-1-1-1.47-1.57l-.09-.39-.38-.1-.49-.5V85.8l-.79,0-.51-.5-.13-.22-.15,0-1.25-1.16V83.1l-.76,0-.77-.67L189,81.6l-.8-.25-.42-.73-.89-.13-.34-.83-.68-.4-.62-.49-.74-.07c-.58-.42-1.16-.83-1.76-1.24l-.17-.32-.66-.41-.36-.07-1.32-.84-.1-.66-.73-.3-.8-.18-.64-.45-.57-.59-.68-.39-.66-.41-.81.1-.2-.11-.36-.75-.6.26c-1.39-.71-2.82-1.37-4.26-2l-.18-.43-.64-.5-.83,0-.71-.32-.7-.38-.75-.21-.84,0-.59-.69-.54.32c-.84-.28-1.69-.55-2.54-.8l0,0h-.06L160.32,67l-.26-.3-.76-.18-.39.1-1.8-.44-.11-.12-.77-.14-.76-.17-.75-.21-.22.09c-1.88-.36-3.78-.66-5.7-.88l-.23-.29-.75-.32-.78,0-.81.28-.76-.35-.37.37c-.53,0-1.07-.07-1.61-.09l-.36-.52-.4.48-1.64,0-.31-.27-.73-.1-.05.32-.78-.36-.38.42-1.05,0-.13-.08-.79-.38-.74.53h0l-.79-.44-.78,0-.78.17L133,64l-.77.27-.36.37-1.37.17-.6-.34-.54.48c-.76.11-1.51.24-2.26.36l-.24,0-.19.1-1,.2-.3-.05-.11.14q-3.33.66-6.54,1.59l-.15,0-.12.11h0l-.5.45-.77.14-.69.38-.88-.2-.7.37-.57.72-1-.47-.75.24-.78.16-.52.78-.83,0-.6.57-1-.23-.32,1.19-1-.23-.68.4-.79.16-.4.93-1-.19-.54.65-.63.46-.6.52-.76.23-.85.09-.74.28-.32,1-.54.6-.84.13-1-.07-.28,1-.74.3-.41.77-1.17-.3-.23,1-.81.21-.28.92-1.15-.21-.57.54,0,1.19h-1l-.84.2-.38.77-.56.53-.13,1-1,.08-.31.8-.64.46-.38.72-1.12,0-.42.68-.53.57-.75.37L84,89l-.24.83-.57.52-1.11.07-.28.79-.21.84-.3.75-1.2,0-.47.63,0,1-.3.75-.89.3-.19.83-.49.6-.25.77-.47.62-.44.64-.29.73-.85.38-.17.81-.51.5h0v0l-.06,0-.56.57v.45l-.45.77-.26.18-.73.5,0,.9-.54.6.12.37-.39.81-.63.12.27.62c-.15.3-.29.6-.43.9l-.12.08,0,.22-.33.74-.64.31-.28.73-.05.82-.48.65.19.49c-.29.73-.56,1.47-.83,2.21l-.52.21-.25.74.08.85-.41.68.14.35-.3,1-.18.15V119c-.23.8-.45,1.59-.65,2.4l-.2.13.1.22c-.1.41-.19.82-.28,1.23l-.1.08,0,.25c-.13.56-.25,1.12-.37,1.69l-.49.28.32.64c-.22,1.16-.42,2.32-.58,3.5l-.55.48.27.83-.53.72.47.67-.12,1.39-.4.3.34.38c0,.51-.07,1-.1,1.54l-.52.41.4.8.06.09c0,.38,0,.76,0,1.13l-.34.33.33.31c0,.41,0,.82,0,1.23l0,0-.21.78.25.5c0,.17,0,.35,0,.52l-.29.54.32.59c0,1.31.14,2.61.25,3.9l-.08.17,0,.79.25.41c0,.32.07.64.11,1v.08s2,6.2,2.16,9.26c-.2-.23-.41-.45-.59-.7.08.33.15.67.24,1l-.24.55.22.76.53.33c.12,1.15.28,2.28.5,3.39l0,.06,0,0a28.27,28.27,0,0,0,1,3.59,21.11,21.11,0,0,0,3.76,6.55l-.13.6.48.64.6.56.79.45-.41,1.12.48.63.57.56.81.42.15.82.22.78.71.47-.07,1,.74.44.26.77,1,.26.23.8-.07,1,1.19.08.15.86.81.35.33.73.56.54.08,1,.92.23-.11,1.14,1.1.06.14.93.72.39.14.94.64.47,1,.07.39.71.31.79.64.46.32.07c.69.65,1.38,1.28,2.09,1.9h0c.32.29.65.57,1,.85l.06.31.72.36.55.55.42.73.76.08.25.19.31.57.4,0,.66.49,0,.69.67-.17,1.18.82.1.67.62-.17.6.4.09.61.85.12.23,0,.77.48.15.61.85.12.45.76.76.25.71.34.84.09h0l1.36.7h0l.63.48.62.51.49-.12,1.3.61.4.36.68.39.6.58.74.26.85,0,.35,0c.73.28,1.46.56,2.19.82l.26.64.89-.24,0,0,.6.56.55-.18c.54.18,1.07.34,1.62.5l.14.15.73.27.78.09.64.65.78.08.73.31.82,0,.92-.59.61.87.88-.4.61.92.76.23.89-.61.66.81.87-.52.77.06.81-.15.65,1.06.88-.85.7.84.82-.43.76.27.79-.12.74.63.79-.09.78.06.8-.86.77.56.78,0,.78.2.78-.25.77-.3.78.25.77-.23.81.57.76-.4.78.05.74-.56.83.59.7-.81.88.83.66-1,.83.31.72-.43.84.34.7-.5.87.42.7-.49.68-.59.76-.15.88.38.79,0,.75-.24.67-.52.76-.16.38-.23a1,1,0,0,1,0,.17c.75-.21,1.49-.43,2.23-.66l.46.12.67-.46.78-.13.16-.21c.82-.28,1.64-.58,2.45-.89l.36.12.31-.38.57-.23.62.17.47-.62.27-.11.64,0,.77-.19.65-.46.7-.33.84-.06.59-.59.67-.39.47-.47q.75-.39,1.5-.81h0l.83-.12.1-.4.8-.47.5.16.7-.35.61-.5.5-.67,0-.07.94-.61.58.2.08-.64c.4-.26.79-.53,1.17-.8l.57,0,.08-.4L185,201h.16l.73-.33.46-.68.65-.43.68-.4.2-.39,1.18-1a2.78,2.78,0,0,1-.07-.57l.05-.08.67-.4.55-.56,1.19.16-.07-1.23.52-.57,1-.05.29-.83,1.05,0-.1-1.19.82-.29.4-.69.48-.62.49-.59,1.16,0-.05-1.07.89-.27,0-1,.36-.71h1.25l-.15-1.1.87-.32.18-.83.5-.6.85-.35.4-.67-.21-1.09.74-.44.12-.85,1.12-.2.37-.69-.11-1,.22-.77.66-.51.1-.84,1.29-.17.3-.73.26-.74,0-.87.54-.6-.22-1,.7-.52,0-.85.31-.71.27-.72.84-.48-.18-.92.78-.52.11-.8.15-.77.25-.73.9-.51-.6-1,1-.48.39-.7-.26-.9.22-.74.15-.77.09-.78.11-.77.56-.66.08-.78.64-.65,0-.81-.47-.89.8-.64,0-.79.45-.71.2-.76-.42-.68c0-.12,0-.23.05-.34l.6-.53v-.79l-.22-.82-.06-.14c.08-.65.15-1.31.21-2l.15-.2-.11-.22c0-.33.06-.66.08-1Z"/><path class="cls-2" d="M86.75,133.44l0,2.93-.06,2.9.32,2.9-.18.22,2.92-2.56,3.67-1.69,2.54,0,2.41.68,2.34.38,1.44,1.91,1.54,1.68,1.77,1.68.48,2.56.58,2.46,0,2.77L106,155,105,157.4l-.82,2.64-2.11,1.67-2.12,1.57-2.69.5L94.79,165l-2.62.05-2.54-.57-2.46-.18-2.33-.88L82.77,162l-1.38-2.06-1.6-2.26-.32-2.83L82,155l2.46-.45,2.4-.38.59,2.11,2.15,1.14,1.78,1.49,2.29-.49,2.76-.47,1.72-2,1-2.5-.6-2.75-.27-2.78L97,145.49l-2.34-1.36-2.92.06-3.16,1.35-2.15,2.25L83.27,149,80,149l.27-2.87-.64-3,.23-3,.83-3-.45-3L80,131l.3-3.26,3.23,0,2.83-1,3,.3,2.85-.85,2.9-.6,3-.15,3.21-.66.36,3.44.11,3.05-2.86.68-3,.56-3,.51-3.13-.29Z"/><path class="cls-2" d="M107.24,133.73l.9-3.27,1.4-3.05,1.53-2.27,2.34-1.41,2.33-1.28,2.68,0,2.6-.47,2.71,0,2.28,1.56,2.33,1.32,2.35,2.42,1.25,3.15,1.24,2.83.42,3.08,1.38,2.93.14,3.21-.42,3.2.58,3.24L133.62,152l-1.07,3.14-1.23,2.54-2.41,1.43-2.58.75-2.55.7-2.61-.15-2.7.3-2.29-1.53-2.6-1-1.89-2.88-1.54-3-1-3-.61-3.11-1.32-3,0-3.16.5-3.12ZM116,145.85l.34,2.21.68,2.13,2.39,3.24,3.59,1.29,3.25-2.19,1.81-3.77-.19-2.29-.45-2.22.18-4L126.9,138l-.85-2.73-.54-2.92L123.94,130l-1.87-1.9-2.78.47-2.36.79-1.86,1.77.12,2.86-1.1,2.9.51,2.84.89,2.24Z"/><path class="cls-2" d="M136.37,129.65l.43-3.41,1.45-3.15,1.9-2,2.22-1.62,2.54-.81,2.55-.59,2.64.15,2.59.22,2.53.82,2,1.78,2.61,2.14,1.69,3,1.16,2.93.32,3.14.39,3.08.51,3.15.72,3.18-1,3.12-.21,3.42-1.67,3-1.74,2-2.11,1.6-2.4,1.08-2.57.53-2.61.44-2.74.09-2.33-1.59L143,153.68l-2.65-2.23-1.67-3-.72-3.17-.32-3.19-.48-3.12-.94-3,.44-3.12ZM145,141.77l.81,2.08.67,2.08,2,3.41,3.54,1,3.51-1.79,1.3-3.94.42-2.26-.23-2.27-.61-3.89-.08-2.36-1.22-2.66-1-2.74-1.39-2.29L151,124.28l-2.75-.48L145.8,125l-.89,2.32-1.46,2.45.39,3-.12,2.85.19,2.35Z"/><path class="cls-2" d="M174.22,132.76l2.4,0,2.5-.26-1-3.11.1-3-1-2.87-.33-3,.19-3-.5-2.68,2.89-1.17,3.27-.27,3.25-.45,3.1.12,3,.48,2.42.46,1.76,1.73,1.89,1.24,1.43,1.8.74,2.22.66,2.24-.4,2.32-.06,2.26-.5,2.16-1.59,1.59-1,2.29L195.23,135l-3,.69-3,.48-2.86.86.24,4.38,3.36-.94,3.08-.33,3-.15.68,2.53.48,3-3.3.42-3.17-.26-3.12.79.14,2.36.83,2.42h-3.66l-3.46.87-.66-2.32.39-2.59-2.41.78-2-.06-.75-2.5.07-2.6,1.92-.08,2.46-.58-1.09-4.06-2.05-.21-1.94.52L175,135.7Zm13.57-2,2.69-.24,2.26-1,.73-2.35.61-3-1.52-2.76-1.57-1.7-2.16-1.29-2.77.08-1.76.91.29,2.76.42,3,.1,3.09.35,3.17Z"/><path class="cls-1" d="M279.51,130.59l-.61-1.39.75-1.51-.46-1.4-.69-1c-.09-.82-.19-1.65-.29-2.47l.55-.79-.71-.49c0-.29-.07-.57-.11-.85s-.14-.86-.2-1.29l.06-.13-.12-.27q-.68-4.35-1.6-8.6l.07-1-.56-1.34-.25-1.41-.17-.15c-.11-.44-.21-.89-.33-1.33a4.17,4.17,0,0,1-.49.62l-.32-.28.19-1.53.18-1.53-1-1.19,0-1.48-.05-1.49-1-1.17v-3l-1.79-.88.27-1.62-.6-1.3-.4-1.38-.52-1.34L269.13,86l-.61-1.31-.84-1.2,0-1.56-1.15-1-.81-1.21-1.21-1-.43-1.38-.95-1.11-1-1.1.28-1.77,0-1.66L260.68,71l-.19-1.54-1.74-.63.13-1.75-1.26-.9-1.11-1,0-1.72-.22-1.58-2.17-.25-.22-1.58-1.41-.75-.7-1.25.29-2-2-.31L250,54.12l-.71-1.28-.79-1.2-1-1L246,50l-.14-1.77L243.94,48l-1.26-.78-.87-1.14-.68-1.31-1.35-.69-.63-1.36-1.09-.93,0-2-1.79-.21-1.49-.5-.47-1.6-.91-1.12-.65-1.43-1.29.1c-.31-.27-.6-.54-.91-.8l-.18-.94L229.09,33c-1-.84-2-1.67-3.07-2.48l-.28-.69-.71-.09L224,29l-.2-1.33-1.44.11L221.29,27l-.28-.36-.3-.05c-.85-.6-1.7-1.2-2.56-1.79l-.21-1.3-1.37.26-1.57-1-.73-1.51-1.53-.26-.94-1.2h-1.66l-.83-1.44L208,17.73,206.73,17l-1.37.07c-1.16-.62-2.34-1.23-3.52-1.81l-.39-.53-.74-.33a4,4,0,0,1-1.24.41,6.17,6.17,0,0,1-2.67-.09c-1.16-.35-.64-1.81-.18-2.61l-.12-.38-1.41-.36-1.5-.12-1.28-.65-1.18-.93-1.34-.53-1.31-.58L187,9l-.39-.14-.86-1.29-1,.63c-2.72-.93-5.48-1.76-8.26-2.52l-.43-.74-1.29-.75-1.53.18-1.38-.4-1.36-.52-1.43-.18-1.51.26-1.25-1.11-.91.72c-1.6-.29-3.21-.56-4.82-.8l-.06-.06-.12,0c-.7-.11-1.41-.2-2.12-.29l-.55-.49-1.43-.13-.67.28c-1.13-.13-2.26-.24-3.39-.34L152,1.11l-1.43-.06L149.17.93l-1.42-.2-.38.23c-3.51-.18-7.05-.24-10.6-.15l-.48-.46L134.83,0,133.4.12,132,.84,130.54.39l-.59.76c-1,.07-2,.16-2.94.25l-.79-.84-.61,1c-1,.1-2,.22-3,.35L122,1.46h-1.36v.61l-1.51-.46-.58.86-1.91.31-.25-.12-1.54-.48-1.21,1.15h-.08L112,2.74l-1.43.17-1.37.5-1.44.17-1.31.68-.57.77c-.82.2-1.63.43-2.44.65l-1.2-.45-.84,1c-1.36.39-2.7.81-4,1.24h-.44l-.31.23-1.88.63-.55,0L94,8.6q-5.86,2.06-11.48,4.58l-.28,0-.2.24,0,0v0l-.78,1-1.37.45-1.16.86L77,15.56l-1.18.85L75,17.86l-1.94-.59-1.29.62-1.38.49-.76,1.55-1.49.3-1,1.2-1.79-.17-.26,2.25-1.83-.19-1.12.9-1.39.51-.5,1.79-1.83-.1-.81,1.31-1,1-1,1.1-1.33.62-1.52.38-1.28.7-.33,1.85-.83,1.23-1.5.45-1.78.13L46.84,37l-1.26.74L45,39.28,42.81,39l-.15,1.89-1.42.6L41,43.26l-2.14-.08-.9,1.13.25,2.18-1.84.26-1.49.59-.48,1.49L33.48,50l0,1.88-1.77.39-.36,1.55-1,1-.53,1.39-2,.26-.59,1.34-.82,1.18-1.27.86-.05,1.71-.22,1.57-.91,1.11-2,.41-.3,1.5-.17,1.58-.36,1.44-2.17.38-.69,1.27.28,1.79L18.16,74l-1.55.79-.13,1.54-.74,1.23L15.48,79l-.68,1.25-.64,1.27L13.82,83l-1.46.91-.09,1.52-.81,1h0v0l-.09.12,0,.06a1.78,1.78,0,0,1-.12.87c.49.26.38,1,0,1.84h0c1.85-.26,1,2-.37,3.48,1.76.3-.94,4.49-2.79,4.77A7.53,7.53,0,0,1,7,98.83c-.1.32-.21.65-.3,1l-.2.18,0,.41c-.14.47-.27,1-.41,1.42L5,102.54l-.33,1.4.12,1.51-.71,1.31.48.83c-.34,1.41-.65,2.82-.94,4.24l-.9.51-.27,1.41.38,1.53-.58,1.35.35.61c-.11.64-.19,1.29-.29,1.94L2,119.5l.11.86q-.32,2.25-.57,4.53l-.31.28.24.38c-.08.77-.15,1.54-.22,2.3l-.15.19.1.44c-.09,1.06-.17,2.11-.23,3.17l-.82.63.74,1.09q-.16,3.25-.17,6.52l-.87,1,.7,1.42-.78,1.46,1,1.09c0,.85.09,1.71.14,2.57l-.65.64.71.6c.06.94.14,1.89.22,2.83l-.84.88.93,1.36.12.15c.07.69.15,1.38.23,2.07l-.54.68.68.48c.09.75.17,1.5.28,2.25l0,.05-.19,1.47.59.85c.05.31.09.63.15,1l-.39,1,.74,1c.42,2.37.91,4.71,1.45,7l-.11.33.15,1.44.56.68c.14.58.29,1.15.44,1.71v.31l.28,1.41,0,1.5.89.75c.28,1,.58,1.92.88,2.87l0,.35.2.16c.22.66.43,1.33.65,2l-.31.69.65,1.29.27,1.43.78.45q.73,1.95,1.53,3.87l-.29,1.06.59,1.31,1.75.8v1.56l.5,1.35,1,1.12-.42,1.8,1.39.91,1.12,1,1.07,1,.43,1.38-.63,2,1.94.55-.22,1.78.51,1.37.8,1.2,2.09.38.14,1.6.83,1.16,1,1.08.89,1.12-.12,1.83,1,1,1.24.87,1.56.62-.45,2.14,1,1L31,227l1.58.56.49,1.45.59,1.37.92.44a3,3,0,0,1,1.47-.83c.66-.09,1,.13,1,.53.65-.07.94.2,1,.64a2,2,0,0,1,.58-.19c2-.29.8,2.43-.78,3.9l1.29.16.61,1.38.13,1.88,2.19-.16.5,1.52,1.56.44.78,1.25,1.18.83.38,1.7,1.74.2.07,2.09,2-.17.48,1.65,1.41.54.5,1.67,1.28.7L56,250.4l.89,1.19.77,1.37,1.29.67.6,0c1.41,1,2.83,2,4.28,2.92v0h0l2,1.28.2.56,1.39.47,1.16.85.94,1.22,1.41,0,.5.29.71.95.71-.15,1.34.72.25,1.23,1.18-.47c.78.41,1.56.8,2.35,1.2l.34,1.17,1.1-.46,1.19.57.33,1.1H82.5l.41,0,1.52.68.44,1.08h1.56l1,1.28,1.45.25,1.37.43,1.54,0h0c.88.32,1.77.62,2.66.93h0l1.27.71,1.26.77.86-.35,2.52.78.82.56,1.34.54,1.24.9,1.42.27,1.54-.26.63-.14c1.39.34,2.79.65,4.2.94l.63,1.1,1.55-.66.11,0,1.23.87,1-.47c1,.18,2,.34,3.07.5l.29.23,1.41.29,1.44,0,1.32,1,1.46-.06,1.41.37,1.46-.27,1.54-1.31,1.33,1.43,1.49-.95,1.36,1.51,1.43.22,1.47-1.34,1.41,1.32,1.44-1.18,1.43-.09,1.42-.48,1.47,1.76,1.37-1.76,1.49,1.35,1.38-1,1.45.31,1.41-.43,1.51.95,1.42-.35,1.43-.1,1.24-1.76,1.54.81,1.41-.24,1.47.16,1.35-.65,1.32-.76,1.5.27,1.34-.63,1.62.84,1.27-.93,1.45-.11L171.9,275l1.68.86,1-1.66,1.82,1.28.94-2,1.59.35,1.2-1,1.61.38,1.16-1.08,1.69.54,1.15-1.07,1.07-1.24,1.34-.47,1.71.47,1.43-.28,1.3-.62,1.08-1.13,1.35-.48.64-.51a2.91,2.91,0,0,1,0,.31c1.31-.57,2.6-1.17,3.89-1.78l.87.1,1.1-1,1.39-.42.23-.43c1.43-.72,2.83-1.47,4.22-2.24l.7.13.47-.78,1-.56,1.17.14.69-1.24.47-.28,1.14-.22,1.36-.54,1.06-1,1.2-.79,1.51-.32.91-1.21,1.13-.89.74-1c.85-.6,1.68-1.22,2.51-1.84h0l1.48-.43.08-.75,1.34-1.06.94.17,1.18-.83,1-1,.74-1.35,0-.13c.53-.45,1-.9,1.56-1.36L233,245l0-1.18c.65-.58,1.29-1.18,1.93-1.77l1-.23,0-.75,1.49-1.45.29-.05,1.24-.79.67-1.34,1.07-1,1.14-.89.25-.76c.64-.69,1.28-1.38,1.9-2.08a4.9,4.9,0,0,1-.26-1l.07-.17,1.12-.91.84-1.15H248l-.45-2.21.8-1.18,1.86-.36.3-1.57,1.9-.36-.48-2.13,1.42-.74.54-1.36.72-1.24.74-1.21,2.12-.32-.38-1.95,1.55-.71-.21-1.81.47-1.38,2.28-.32-.56-2,1.51-.79.11-1.57.76-1.21,1.44-.86.57-1.33L264.3,201l1.24-1v-1.57l2-.66.49-1.35-.46-1.76.21-1.45,1.07-1.1,0-1.55,2.29-.64.36-1.4.3-1.43-.2-1.59.83-1.22-.65-1.72,1.15-1.13-.18-1.54.37-1.38.31-1.39,1.42-1.09-.58-1.62,1.29-1.15v-1.47l.07-1.45.28-1.4,1.49-1.15L276,166.05l1.72-1.14.54-1.36-.71-1.57.22-1.41.07-1.44,0-1-.32-.08c-.51-.1-.68-.65-.71-1.08,0,0,0-.08,0-.12a2.83,2.83,0,0,1-1.36.72c-2.69.38.34-4.5,2.32-4.77.6-.09.91.1,1,.43l.84-1.13-.24-1.46-1.08-1.51,1.28-1.35-.16-1.45.63-1.41.18-1.43-1-1.14c0-.21,0-.42,0-.63l1-1.11-.23-1.44-.6-1.43-.15-.24c0-1.21-.06-2.42-.11-3.64l.2-.41-.24-.37c0-.6-.07-1.2-.11-1.8Zm-7.22-7-.78.9,1,1.33.09.12c.08.7.16,1.41.22,2.12l-.53.65.62.48c.07.77.13,1.53.18,2.29l0,0-.32,1.46.47.85c0,.34,0,.69.05,1l-.5,1,.56,1q.1,3.65,0,7.26l-.17.27-.24,1.43.31.77c0,.63-.06,1.26-.1,1.89l-.07.22v.09c1.79.95,3.28,4.77,1.22,5.07a4.56,4.56,0,0,1-1.75,1.54c0,.06,0,.12,0,.18l-.14.25.09.18q-.12,1.06-.27,2.13l-.57.48,0,1.44-.45,1.38.44.76c-.23,1.38-.48,2.76-.76,4.13l-.8.71-.27,1.4.45.81c-.19.83-.38,1.67-.59,2.5l-.32,1v.32c-.12.49-.26,1-.39,1.46l-1.08.79.42,1.6v0q-.69,2.37-1.46,4.71l-1,.48.5,1c-.15.45-.31.89-.47,1.33l-.66.44-.72,1.25-.46,1.35.41.83q-1.31,3.34-2.8,6.62l-.9.46-.39,1.39-.14,1.2c-.37.77-.76,1.54-1.15,2.31l-.86.21-.5,1.35-.33,1.44v.2c-.56,1-1.12,2-1.7,3l-.5.47-.06.47-.8,1.35-1,.39-.17,1.52-.08.12-1,.92.07.62c-.5.76-1,1.52-1.5,2.27l-1.39.38.3,1.19c-.94,1.34-1.9,2.68-2.89,4-.46.61-.94,1.2-1.41,1.8l-.68.21,0,.71-.87,1.1-1.28.09.13,1.29c-.28.33-.55.67-.83,1l-.76.22-.53,1.29-.12.12-1.62.4-.78,1.22v1.08c-.56.59-1.12,1.18-1.69,1.76l-1.07.44-.86,1.16-.13.51q-2.75,2.73-5.62,5.3l-.55,0-.83,1.16-.11.09-1.1.77-1.46.49-.43,1.24-.57.46-1.06.28-.14.69-1.25,1-1.17-.28-.09,1.23-2.18,1.59-1.14-.24-.13,1.13c-.37.26-.74.53-1.11.78l-1.09-.26-.82,1.34-.16.28c-.49.33-1,.66-1.47,1l-1.11-.23-.89,1.28-1.64,0-1.07,1-1.19.79-.94,1.17c-.93.51-1.86,1-2.8,1.49l-1.14.35-1.42.35-.36.79-2.48,1.19-.91.12-1.37.45-1.52.07-1.28.65-1.08,1.12-1.07,1.18-1.38.43-1.23.82-1.89-1-1,1.38-1.57-.16-1,1.43-1.31.65-1.61-.37-1.4.31-1.32.6-1.6-.46-1.33.56-1.44.12-1.3.72-1.09,1.7-1.68-1-1.21,1.31-1.67-1.15-1.44.08-1.18,1.6-1.62-1-1.24,1.39-1.41.27-1.38.64-1.63-1.63-1.25,1.86-1.56-1.27-1.35,1-1.46-.3-1.41.41-1.49-1-1.41.27h-1.43l-1.41,1.63-1.45-1-1.43.05-1.43-.39-1.44.4-1.46.48-1.41-.59-1.46.28L130,272.28l-1.48.53-1.41-.32-1.52.74-1.29-1.38L122.69,273l-1.19-1.87-.94.81-1.91-.28-.11-.08-.17,0-2.13-.38-.48-.4-.71.18-1.23-.22L113,270l-1.54.33-.06,0c-1.26-.27-2.51-.57-3.76-.88l-.3-.36-1.32-.61-1.41-.28-1.08.16c-2.2-.63-4.4-1.31-6.57-2.05l-.54-.65L95,265.56h0l-1.25-.72-.45.11q-2.27-.85-4.5-1.8l-.31-.59-.84.1-1.11-.48-.56-1-1.35.14L84,261l-.76-.76L82,259.42,80.62,259l-1.28-.64-1-1.17L76.86,257l-1.3-.61-1.12-.24c-1-.54-1.9-1.1-2.84-1.66l-.88-1.14-.72.17c-.49-.3-1-.62-1.47-.94l-.14-.9-1.14-.86L66,250.17l-1.5-.35h-.08l-1.74-1.22,0-1.09-1.11.25-1.71-1.25-.45-.35-.38-.92-.72.07c-.57-.44-1.13-.88-1.68-1.33l-.07-.23-.92-1.15-1.37-.55-.1-.08-1-.93-.94-1.1-.71-.22c-1.21-1.07-2.39-2.17-3.56-3.29a1.05,1.05,0,0,1-.87.62c-1,.14-2.1-1-2.7-2.22a2.34,2.34,0,0,1-.88.37,1,1,0,0,1-.82-.15,3.33,3.33,0,0,1-.53.11l-.22,0a1.06,1.06,0,0,1-1.11-.66,2.14,2.14,0,0,1,.23-1.65,4.2,4.2,0,0,1,.8-1.17,1.17,1.17,0,0,1-.62-.6,2,2,0,0,1,.19-1.54v-1l-1.14,0c-1.54-1.74-3-3.52-4.49-5.32L36,221.9l-1.41-.2-.61-.78-.08-1-.84-.23c-.58-.77-1.14-1.55-1.71-2.34l.32-1.1L30.39,216l-.8-1.18,0-.65-.72-.45c-.45-.67-.89-1.35-1.33-2l0-1.28-.83-1.16-.78-.19c-.79-1.29-1.55-2.6-2.29-3.91l.28-.89-.77-1.2-.85-.38q-1.34-2.52-2.57-5.11l.55-1-.74-1.22-.78-1.22-1-.84-.28-.67-.14-1-.36-.2c-1-2.46-2-4.95-2.85-7.48l.1-.32-.28-.22c-.25-.71-.49-1.43-.72-2.15l.1-.35-.44-.74c-.4-1.26-.77-2.52-1.13-3.79l.53-1.12-1-.47c-.14-.5-.26-1-.38-1.5l.45-.75-.05-1.45-1.21-1.14c-.52-2.25-1-4.52-1.37-6.81l.07-.29-.3-1c0-.17-.05-.34-.08-.51L9,159.9l-.56-1.36-.52-.49c-.08-.58-.15-1.16-.22-1.74l.39-.61-.39-1.39.42-1.48v-1.44l-1.35-1.32,1.12-1.52-.31-1.41-.66-1.39L6,144.34l.09-1.44.76-1.45L6.05,140l1.15-1.43-.48-1.44.9-1.4-.27-1.44-.69-1.47-.4-1.46L7.66,130l-1.45-1.55,1.12-1.35-.28-1.47.3-1.41L7,123.07l.12-.71.52-1,0-1.45.56-1.37.66-1.35v-1.45l.35-1.39-.69-1.61.86-1.29.87-1.28-.3-1.54.72-1.3.73-1.29-.24-1.55.83-1.26L12.9,102,12,100.24l1.21-1.12.35-1.4.15-.34c-1.37-1.43-2.16-4.2-.41-4.45a1.59,1.59,0,0,1,.8.13,5.36,5.36,0,0,1,2.75-2.51l.56-.54V88.46l.37-1.4,0-1.58.8-1.21.31-1.45.33-1.45,1.6-.81,1.39-.89-.43-1.84,1.21-1L22.6,75l1.6-.75.2-1.54.38-1.45,1.57-.73,1.34-.85-.63-2.1,1.4-.81.2-1.59,1-1.1,2-.36-.3-2,1.59-.62,1-1,1-1.05.76-1.21L36,56.26l1.72-.45,0-1.89.61-1.37,1.05-1,1.25-.81.6-1.41,1.34-.72.9-1.13,2,0,.23-1.78.56-1.49,1.62-.39L49,42.94l1.48-.51.08-2,1.83-.11L53,38.77l1.1-.93L55,36.69l1.63-.27.6-1.55,2,.23.4-1.84,1.4-.53.73-1.43,1.19-.81,2,.44.41-2,1.42-.45,1.69,0,.89-1.26L70.9,27l.8-1.46h1.65l1.15-.87L75.76,24l.85-1.43,1.31-.6,1.11-1h1.61l1.26-.67,1-1.13.52-.45c.08.15.17.3.24.46L85,18.58l1.07.5,1.21-.79,1.14-1,1.36-.44,1.49-.13,1.33-.51L94,15.8l.81-1.17.49-.17,1.4.45.43-1.1c2.74-.93,5.52-1.75,8.32-2.5l.71.4,1.48,0,1.26-.86,1.41-.27,1.44-.11,1.37-.42,1.29-.82h0l1.55.57.6-1c1.61-.29,3.23-.54,4.86-.77l.06,0v0l1.51.47.57-.79q1-.13,2-.24l.19.09,1.5.6,1.24-1,.22,0,1.38.73,1.43,0,1.41-.28,1.43.09,1.41-.41.69-.6,2.63,0,1,.71,1-.7c1.49,0,3,0,4.48.1l.22.08.22-.06c.74,0,1.49,0,2.24.1l.4.18.22-.15c4.19.28,8.35.77,12.47,1.43l.13.1.18,0c1,.17,2,.32,3,.51,0-.16.11-.31.17-.47h1l1.24,1.12,1.45.08,1.6-.55,1.07,1.73,1.37.42,1.31.61,1.64-.56,1.24.87,1.52-.1,1.05,1.45,1.9-1.23,1,1.54,1.4.34,1.23.82,1.75-.62.94,1.57,1.55,0,1.4.37,1,.2a4.1,4.1,0,0,1,2.14-1l1.81-.26a1,1,0,0,1,1,.45,2.17,2.17,0,0,1,.89-.37c2-.28.84,2.33-.7,3.81l.55-.15,1.48.26,1,1.21.79,1.61,1.83-.4,1.12.95,1.61.06.4,2.2,1.87-.37.94,1.22,1.76-.12.38,2.1,1.27.67,2.11-.61.54,1.78.78,1.4,1.52.31,1.19.8,1.79-.14.13.08.46,1.67,1.56.32,1,1,1.39.56.19,2,1.31.67,1.1.9.73,1.35,1.69.25,1.54.45,1,1.09,0,2,1.42.6,1.49.52,1.33.72-.2,2.19,1,1,1.8.28,1.26.8.21,1.74,1.4.69.85,1.16,1.25.83.86,1.16.87,1.15,1.1,1,.11,1.73,1.28.84.53,1.39.54,1.38,1.53.68.21,1.59.18,1.59,1.49.74.46,1.4,2,.46-.86,2.19,2.13.41v1.66l1.15,1-.39,1.85.71,1.23,1.11,1,.31,1.44,1.83.7,0,1.58,1.36,1-.89,2,.58,1.31,1.15,1.06.24,1.45,1.62.9-.37,1.68.88,1.21.89,1.2L267,96.1l-.73,1.76,1.49,1-.48,1.66.84,1.24L269,103l-1.18,1.82,1.41,1.1.7,1.31,0,.21-.61,0c.38,1.52.73,3.06,1.06,4.61l-.62,1.15.94,1.26-.53,1.56,1.16.92c.15.85.29,1.71.43,2.57l-.55.67.73.54c0,.26.09.52.13.78C272.12,122.18,272.2,122.87,272.29,123.55Z"/><path class="cls-1" d="M224.87,135.57l.34-.89-.6-.52c0-.24,0-.49-.05-.73l.33-.49-.43-.65c-.08-.8-.16-1.6-.26-2.39l.18-.42-.27-.35c0-.25-.07-.51-.1-.77l.48-.66-.67-.58-.12-.79,0-.28-.11-.15c-.11-.62-.22-1.25-.34-1.87l.48-.65-.71-.48c-.07-.37-.15-.75-.23-1.12l.34-1-.55-.77.11-.93-.71-.72.26-1-.34-.82-.22-.85-.61-.56c-.24-.77-.49-1.53-.74-2.29l.06-.4-.32-.82-.27-.31c-.19-.55-.4-1.09-.61-1.64l.36-.65-.45-.76-.6-.71-.27-.83-.11-.9-.35-.81-.31-.82-.79-.45c0-.07-.07-.15-.11-.23l.19-.92-.71-.17c-.76-1.54-1.57-3-2.42-4.55a1.76,1.76,0,0,1-.8.37c-1.2.17-1.31-1.26-.85-2.7a5.11,5.11,0,0,1-.85-2.2l-.48-.34-.06-1-.7-.08c-.56-.82-1.14-1.63-1.73-2.42V89.5l-.06,0-.79-1,0-.45-.56-.67-.41-.17c-.43-.54-.87-1.07-1.31-1.61l0-.18-.59-.64-.57-.66-.53-.7-.26-.07q-2.15-2.39-4.5-4.63v-.4l-.45-.8-.69-.54-.92-.29-.43-.83-.58.07L194.1,74.7l0-.7-.69.16L192,73l-.09-.45-.58-.59-.27.26-.45-.85-.62.12-1-.69-.06-.16-.45-.87-1,0,0,0-.4-.93-.69-.54-.81-.37-.69-.55-.86-.27-.57.08-1.34-.77-.31-.71-.81.07c-.75-.41-1.51-.81-2.27-1.2l-.18-.19-.24,0-1.08-.54-.23-.24-.19,0q-3.42-1.65-6.92-3l-.11-.14-.19,0h0l-.74.07-.79-.39-.87-.13-.66-.77-.87-.14-1,.26L164,58.31l-.83-.29-.8-.39-1,.34-.77-.51-.92.11-.7-.84-1.09.85-.7-.87-.87-.09-.82-.38-1,.56-.74-.83-.92.21-.87,0-.89.07-.84-.31-.82-.49-.85-.25-.94.65-.88.18-.84-.46-.83-.71-.91.69-.86-.23-.88.41-.85-1.06-.88.75-.87-.36-.87.63-.88-1H138c-.44,1.29-1.32,2.57-2.31,2.71a.83.83,0,0,1-.92-.42,2.89,2.89,0,0,1-2-1.14l-.18-.23-.48.5-.93-.59-.82.51h-.88l-.83.37-1-.76-.84.32-.86.15-.91-.17-.76.71-.77.58-.87.09-1-.69-.78.52-.75.6-.78.47-1.1-.77-.84.25-.65.89-.77.47-1-.33-.72.61-.85.21-.74.52-.83.25-.83.27-.75.46-1-.24-.69.62-.8.09h-.1l-.89.13-.29.41-.92.39-.35,0-1,0-.57.84-.88.17-.14.41-.9.46L101,64l-.18.73-1,.51h-.17l-.16.19-.79.43L98,65.7l-.74.46-.6.71-.87.25-.15.57c-.75.46-1.5.93-2.24,1.42l-.6-.17-.72.49-.5.82-.83.34-.11.41-1,.71h-.27l-.32.42q-1.11.84-2.19,1.71h-.26l-.06.26-1.09.9-.14,0-.15.23c-.49.42-1,.83-1.46,1.26l-.63-.08-.15.79c-.85.77-1.68,1.57-2.5,2.37.76,1.42.91,3.09-.43,3.28a2.46,2.46,0,0,1-2-1.17v.44c-.36.38-.7.77-1,1.16h-.56l0,.57c-.38.43-.75.87-1.13,1.31l-.74,0-.18,1v.12l-.8,1-.52.06.09.5c-.29.36-.58.72-.86,1.09h0l-.72.55-.1.62c-.12.16-.24.31-.35.47l-.62.29-.11.75q-1.26,1.8-2.41,3.65l-.19.09-.55.69-.06.53-.54.93-.13.13-.49.73-.67.63.06.7c-.29.54-.57,1.08-.85,1.62l-.17.14,0,.15-.58,1.14-.43.16-.28.84-.5.73.15.53c-.2.44-.39.89-.58,1.33.66,1.37.74,2.89-.54,3.07a1.14,1.14,0,0,1-.45,0l.08.2-.68.68-.36.79-.06.9-1,.6.21,1,0,.93v.91l-.41.78-1.12.58.6,1.07-.86.67-.37.81-.18.86.74,1.07-.63.75-.14.86-.06.87-.09.87-.85.73v.89l.16.91.41.93-1.12.73v.88l.13.89.44.92-.41.84-.33.84.31.9-.72.83.37.89-.3.86.7.89-.33.86-.75.87,1,.87-.44.87.48.86-.2.88.15.86-.57.9.66.83-.87.94,1,.8-.51.92.38.84-.51.93.21.7c2,.28,4.08,4.95,1.79,5.27a1.24,1.24,0,0,1-.47,0c.1.57.2,1.14.32,1.7v0h0l.3,1.42-.15.32.4.8.13.87-.12.93.62.59.09.33-.1.72.37.24.27.89-.43.64.71.3c.16.51.33,1,.5,1.53l-.36.66.67.27.27.76-.33.61.68.68.19.16.36,1-.27.66.68.67-.11,1,.51.73.41.78.68.65v0c.24.52.5,1,.75,1.55h0l.24.85.21.87.52.22c.25.48.49.95.75,1.42l.11.59.35.81.15.93.49.73.77.55.33.21c.46.74.93,1.48,1.41,2.21l-.2.75,1,.38,0,.06.16.9.61.21,1.11,1.53,0,.23.48.73.63.61.13,1,.65.6.45.77.75.51,1.22.1,0,1.19,1,.23L77,197.58l.52.71,1.21.06,0,1.17,1.13.11.65.58.82.41L81.21,202l1.35-.17.06,1.22,1,.17.49.76.79.41.24,1.07.76.45.66.58,1.3-.22.31,1,.71.5.57.71.86.3.89.24.53.76.85.31.34,1.06.94.15.68.57h1l.35,1.09,1.17-.26.23,1.34,1.26-.45.53.83.94.11.53.86,1,0,.49,1,1,0,1-.08.78.38.53.93.74.5.82.29,1,0,.78.38.5.05L109,219c.8.32,1.62.62,2.43.91l.34.42.91,0,.78.41.28-.08c.93.3,1.86.58,2.79.85l.24.36.54-.14.66.18.45.57.83-.24.32.08.59.4.82.35.89,0,.78.16a1.16,1.16,0,0,1,1-1.28c.86-.12,1.77.67,2.4,1.68h.08c.49-1,1.22-1.84,2-1.95,1.11-.16,1.28,1.07.93,2.4h0l1,.12.33.48.87.15.88,0,.9-.26.07,0,1.25.09.39.56.5-.51,1.59.07.54.34.34-.31,1.27,0,.14.1.87.2.87-.29.88,0,.87.1.44-.22,1.71-.07a3,3,0,0,1,.32-.55l.1,0,.87.09.86-.13,1,.95.76-1.15.86-.16.95.64.81-.54,1,.67.71-1.14.93.3.82-.35.84-.23.85-.2,1,.78.68-1,1,.36.69-.87.79-.38,1.12.84.61-1.09.31.1c.45-1.23,1.31-2.4,2.26-2.54.74-.1,1.06.42,1.09,1.17a2.31,2.31,0,0,1,.83.44l.42-.88,1,.11.68-.68,1.14.58.79-.37.56-1,.72-.53h.93l.66-.68L175,218l.76-.45.74-.49.6-.77.89-.17.46-1h1l.59-.74.75-.43.73-.47,1.08.14.45-1,1.05.06.63-.63.66-.59.72-.48,1.14.14.16-1.32,1.23.25.82-.36.37-1,.7-.52.65-.59.6-.64.63-.61.94-.22.6-.64,1-.15.52-.73.19-1.12,1.13,0,.56-.69.88-.34.69-.54L199,201l.28-.28.89-.06.52-.72.35-.87,0-.17c.43-.44.84-.88,1.26-1.33a4.52,4.52,0,0,1,1.66-2.35l.17-.12c-.53-1.06,1.7-4.21,3.29-4.43a1.19,1.19,0,0,1,.58,0l.21-.28.08,0,.06-.16c1.06-1.45,2.06-2.91,3-4.4l.47-.41.34-.81.49-.72v-.14c.15-.24.3-.47.44-.71a2.61,2.61,0,0,1-.48.05l0-.26.74-.57.73-.58.08-1,.62-.65.62-.66.06-1,.64-.65.66-.65-.39-1.15.81-.58.31-.82.42-.77.35-.8.61-.69.3-.82.16-.88L220,170l0-.95.17-.86-.09-.95.41-.78.07-.89.06-.89.88-.64.73-.7-.49-1,.58-.74-.48-1,.81-.7-.15-.93-.06-.9.76-.73.58-.77-.83-1,.59-.77-.29-.93.24-.84,1-.74-.71-1,.66-.79.24-.85.18-.86v-.88l-.4-.91.7-.82-.69-.92-.21-.88.12-.86.27-.86-.29-.87.32-.87-.07-.87.86-.87-.68-.87-.43-.85.49-.89Zm-4-6v.89l.36.84-.8,1,.28.85.08.87-.26.89.62.83.46.86-.05.88-.87.9.36.86.42.88.26.87-1,.86v.87l.65.9.2.89-.66.84.31.89-.13.87.18.9-.14.87-.12.87.06.89-.69.79.19.91-.37.83-.36.82.36.95-.59.78-.61.77.33,1-.41.8.66,1.05-1.31.58.74,1.09-.72.71.06.93-1,.63-.23.84,0,.92-.48.75.49,1.1-.67.69.17,1-1.24.46-.31.81,0,1-.52.72.31,1.09-.88.57-.14.89-.14.91-.17.89-1.08.44.21,1.09-.92.51-.18.89-.14.93-1.29.27.13,1.09-.26.86-.11.08c-.08-.1-.17-.19-.24-.29-.5.83-1,1.64-1.54,2.45l-.76.22-.14,1-.89.44.1.89c-.3.44-.61.87-.92,1.29L205,188l.09.55-.29.39-.77,1-.72,0-.17,1v.1l-.81,1-.52.05.07.48-.91,1.06h0l-.77.49-.16.57-.42.47-.64.2-.21.7q-1.53,1.6-3.13,3.12l-.19,0-.72.51-.19.46-.86.78-.12.06-.7.53-.84.35-.2.65-1.47,1.19-.17.05,0,.12c-.34.27-.68.54-1,.8l-.45,0-.64.61-.78.39-.14.52c-.7.5-1.4,1-2.11,1.46l-.65,0-.72.49-.15.54-1.34.83-.56.28-.13.14-.8.47-.81-.13-.51.87h0c-.88.49-1.77.95-2.66,1.4l-.64-.23-.23.67-.78.37-.47-.1-.85.23-.78.39-.18.53c-1.34.58-2.69,1.13-4.06,1.65l-.58-.19-.77.43-.58.45-1.49.5-.46-.28-.8.37-.76.48-.08.09c-.68.19-1.36.39-2,.57h-.42l-.23.17-.92.24-.61-.27-.72.58-.09,0-.85-.05-.24.29q-.79.18-1.62.33l-.76-.43-.38.64c-1,.17-2,.34-3,.48l-1.38.17-.39-.2-.32.29-.85.09-.59-.51-.5.61-.78.07-.43-.23-.78.32h-.1l-.87-.53-.86.19-.47.46-1.49,0-.65-.27-.87.13-.28.16c-1.57,0-3.14,0-4.7-.14l-.25-.22-.86.14h-.08l-.81-.14-.83-.42-.73.35-.44,0-.58-.34-.35.24-1-.13-.39-.63-.56.49-1.62-.25-.4-.6-.54.44-.81-.14-.36-.59-.93.23-.19.05-1-.22-.38-.58-.93.17-.73-.68-.89,0-.85-.17-.91.1-1.85-.56-.64-.34-.76-.47-.5.19c-.53-.18-1.06-.36-1.58-.56l-.44-.34-.79-.39-.69-.63-.82-.27-.95,0-1,.05-.78-.41-.88-.18-.38-1.25-1,.15-.61-.74-1.06.17-.84-.29-.54-.85-.73-.47-.83-.31-.49-.89-.82-.33-.67-.57-.87-.25-.93.21a2.82,2.82,0,0,1-1.85,1.33l-.22,0c-1.06.15-1.19-1.13-1.11-2a4,4,0,0,1-1.13-1,4.69,4.69,0,0,1-1-2l0-.3-.46-.31-.86-.32v-1.4l-1.34.26-.13-1.22-1-.13-.5-.76-.78-.43-.21-1.07-.73-.49-.61-.62-1.31.09-.2-1.05-.64-.59-.44-.79-.8-.45-.83-.42-.35-.86-.75-.51-.05-1.11-.87-.41-.47-.74-1-.34,0-1.14-1.19-.19.29-1.32-.76-.05-.7-.95v-.08l-.09-.06-.75-1.08,0-.38-.39-.22-.43-.63,0-.71-.8-.52,0,0c-.43-.66-.84-1.33-1.24-2l0-.28-.3-.84-.49-.72-.53-.4c-.68-1.22-1.33-2.46-2-3.71l0-.51-.61-.68h0l-.24-.85-.23-.15c-.41-.89-.8-1.8-1.17-2.71l.12-.38-.4-.33c-.09-.23-.19-.45-.28-.68l.19-.67-.64-.53-.14-.39v-.65l-.14-.87-.44-.77-.27-.83.07-.93-.54-.75-.29-.82-.38-.59c-.18-.64-.35-1.29-.51-1.94l.11-.87-.38-.23c-.08-.35-.15-.69-.23-1l.33-.45-.12-.86-.29-.83-.49-.8,0,0c-.08-.42-.16-.85-.23-1.28l.45-.49-.58-.37c-.07-.42-.14-.84-.2-1.27,0-.12,0-.23,0-.35l.24-.56-.35-.28-.15-1.29.07-.13.1-.89-.36-.83v-.89l.07-.88-.21-.4c-.09-1.46-.14-2.91-.15-4.36l.54-.47-.55-.45c0-.66,0-1.32,0-2l.17-.19-.15-.33c0-.28,0-.56,0-.84l.54-.55-.49-.48c.08-1.42.2-2.83.35-4.23l.66-.47-.52-.7c0-.2,0-.4.08-.6l.39-.46-.26-.46q.12-.87.27-1.74l.61-.34-.45-.63c0-.28.11-.57.17-.85l.27-.29-.12-.51c.1-.48.2-1,.31-1.44l.54-.57.14-.86-.25-.41c.22-.9.45-1.79.7-2.67l.5-.26.19-.85-.21-.53c.34-1.11.71-2.21,1.1-3.31l.68-.22.22-.84.18-.86-.07-.8c.05-.14.11-.27.17-.41l.36-.48-.07-.25q.93-2.25,2-4.45l.18-.09,0-.22c.2-.41.41-.82.62-1.23l.19-.11.13-.51c.37-.71.76-1.41,1.15-2.12l.71-.25-.22-.62.48-.81.52-.13.61-.65,0-1c.74-1.19,1.53-2.37,2.34-3.52l.16-.09.29-.56.18-.25.88-.37.35-.82,0-.44L76,90l.43-.1.43-.76.82-.46.62-.62V87l.39-.06c-.15-1.54,1.1-4.28,2.59-4.48a.82.82,0,0,1,.91.4l.13-.5,1.11-.12.41-.83,1-.22.5-.73.33-.93.46-.8,1.18,0,0-1.3,1.06-.09.52-.75.73-.49.37-.64.35-.25L91,75l.62-.63.83-.35.86-.3.63-.62.75-.45.4-1,.92-.18.93-.18.53-.79.88-.25.87-.24.56-.77.9-.19.91-.15.37-1.16,1,0,.75-.45.82-.32.79-.36.91-.1.78-.38.73-.52h1l.66-.67.76-.44.68-.69.87-.18.75-.49.76-.48,1,.34,1,.21.61-1,.94.1.64-.93,1,.36.75-.58.79-.46,1,.37,1,.2.63-1.17.95.25.77-.6.89-.06,1,.7.72-1,1,.42h.89l.87,0,.85-.19.82-.57.93.55.8-.83.86-.33.88,0,.89.19.86-.35.89.26.88-.09.88.85.87-.67.88-.4.87.53.87.16.85.41.92-.84.83.74.9-.4L147,59l.88-.1.82.58.93-.4.76,1,1-.62.83.38.94-.3.86.16.69,1.07,1-.67.81.42.74.72.92-.16.77.52,1-.28.72.7.87.12.83.26,1-.25.82.31.9.05.69.7.84.25.93,0,.42,0c0,.1-.05.2-.09.3l.8.31.25.67.86.19.91.06.78.4.7.58.79.36.77.41.85-.16.29.14.41.8.66-.29c1.57.78,3.13,1.62,4.66,2.51l.13.47.63.65.91.17.72.5.67.57.77.41.91.2h0l.43.91.68-.16c.82.57,1.63,1.15,2.43,1.76l0,0,0,0,.45.85.58-.1,1,.77,0,.12.38.9,1,.11.1.09.28.91.61.63.73.48.58.66.78.43.55,0L197,82.21l.11.72.75.14c.64.65,1.26,1.31,1.88,2l.06.13.12.06.93,1,.09.25.16,0c1.69,1.93,3.27,3.93,4.76,6v.1l.1.06c.36.5.74,1,1.09,1.53l.27-.14.43.44.05,1,.59.66.92.45L209,97.84l.22.42a1,1,0,0,1,.81-.52c1.94-.28,4.17,4.09,2.65,5.09l-.22,1,.45.75.18.88,1,.49-.27,1.08.67.66.45.76.5.74.14.89,0,1,.16.87,1,.56.53.75-.09,1-.36,1,1,.61.07.9.66.71-.76,1.13,1,.64-.12.93.81.71-.75,1.07.27.83,1.17.65-.54,1-.26.94.52.79.17.85.83.71a.29.29,0,0,0,0,.09l-.52.92Z"/><path class="cls-1" d="M28.14,78.38a16.55,16.55,0,0,1,4.78-5.56,16.2,16.2,0,0,1,6.15-2.75A18,18,0,0,1,45.91,70a22.81,22.81,0,0,1,12.65,7,18.17,18.17,0,0,1,3.58,5.83,15.65,15.65,0,0,1,.92,6.65A18.15,18.15,0,0,1,56.13,102,15.67,15.67,0,0,1,50,104.78a18,18,0,0,1-6.84.08,22.78,22.78,0,0,1-12.65-7,18,18,0,0,1-3.58-5.83,16,16,0,0,1-1-6.66A16.73,16.73,0,0,1,28.14,78.38Zm4.47,2.46a9.94,9.94,0,0,0-1.37,4.87,9.56,9.56,0,0,0,1.06,4.44A13.68,13.68,0,0,0,35.2,94a20.25,20.25,0,0,0,4.08,3A19.73,19.73,0,0,0,44,98.78a13.68,13.68,0,0,0,4.76.43A9.68,9.68,0,0,0,53,97.74,9.88,9.88,0,0,0,56.42,94a10,10,0,0,0,1.38-4.86,9.82,9.82,0,0,0-1.06-4.45,14,14,0,0,0-2.91-3.79,19.59,19.59,0,0,0-4.07-3A20.52,20.52,0,0,0,45.08,76a13.94,13.94,0,0,0-4.76-.42A9.68,9.68,0,0,0,36,77.09,10,10,0,0,0,32.61,80.84Z"/><path class="cls-1" d="M38,63.22l19.87-21,3.92,3.71L54,54.18,76,75l-4.3,4.54-22-20.83-7.77,8.21Z"/><path class="cls-1" d="M79.31,27.54l5.82-2.29L96.22,53.44l14.2-5.58-11.1-28.2,5.82-2.29,11.09,28.2,5.4-2.12,5.22,13.26L121,59l-3.24-8.24-25.4,10Z"/><path class="cls-1" d="M124.12,13.59l25.68-.83.18,5.4-19.44.62.3,9.35,18-.58.16,5.1-18,.58.34,10.44L151.13,43l.17,5.4-26,.84Z"/><path class="cls-1" d="M163.46,14.48l6,1.83-4.17,13.58,15.53,4.77L185,21.09l6,1.84L180.45,57.05l-6-1.84,4.74-15.39-15.54-4.77-4.73,15.39-6-1.84Z"/><path class="cls-1" d="M204.33,28.89l4.86,3.93-8.61,10.66,7.39,6a15.2,15.2,0,0,1,4.14,4.73,9.58,9.58,0,0,1,1.17,4.45,9.39,9.39,0,0,1-.87,3.89,14.4,14.4,0,0,1-1.88,3.08,15.09,15.09,0,0,1-2.63,2.5,9.37,9.37,0,0,1-3.64,1.69,9.75,9.75,0,0,1-4.61-.19,15.09,15.09,0,0,1-5.51-3l-12.25-9.9ZM190,56.62l7.19,5.81a10.45,10.45,0,0,0,2,1.29,4.76,4.76,0,0,0,2.1.5,4.54,4.54,0,0,0,2.2-.57,7.14,7.14,0,0,0,2.21-1.94A6.13,6.13,0,0,0,207,59.15a5,5,0,0,0,0-2.34,5.84,5.84,0,0,0-1-2,8.06,8.06,0,0,0-1.48-1.59l-7.12-5.75Zm40.31-6.77,4.86,3.93L212.69,81.55l-4.86-3.93Z"/><path class="cls-1" d="M65.74,191.42a16.5,16.5,0,0,1,2.85,6.75,16,16,0,0,1-.26,6.72,18.19,18.19,0,0,1-3,6.17,22.75,22.75,0,0,1-11.88,8.23,17.89,17.89,0,0,1-6.81.62,15.81,15.81,0,0,1-6.37-2.12A18.24,18.24,0,0,1,32.13,206a15.77,15.77,0,0,1,.24-6.71,17.94,17.94,0,0,1,3-6.17A22,22,0,0,1,40.63,188a21.5,21.5,0,0,1,6.58-3.14,17.89,17.89,0,0,1,6.81-.62,15.88,15.88,0,0,1,6.39,2.11A16.4,16.4,0,0,1,65.74,191.42Zm-4.19,2.9a10.13,10.13,0,0,0-3.75-3.39,9.68,9.68,0,0,0-4.46-1,14.13,14.13,0,0,0-4.69.91,20.41,20.41,0,0,0-8.21,5.7,13.91,13.91,0,0,0-2.5,4.08,9.62,9.62,0,0,0-.6,4.52,11.1,11.1,0,0,0,5.61,8.1,9.64,9.64,0,0,0,4.45,1,14.08,14.08,0,0,0,4.69-.91A20.28,20.28,0,0,0,56.56,211a20.67,20.67,0,0,0,3.75-3.36,14.12,14.12,0,0,0,2.5-4.08,9.64,9.64,0,0,0,.6-4.53A10.05,10.05,0,0,0,61.55,194.32Z"/><path class="cls-1" d="M73.79,204.28l5,3.75-8.52,11.36,13,9.75,8.52-11.36,5,3.75L75.37,250.09l-5-3.75L80,233.46l-13-9.75-9.66,12.88-5-3.75Z"/><path class="cls-1" d="M98.62,222.32l5.93,2-5.14,15.42,20.23-10.39,7.3,2.43-18,9,7.69,25.17-7.4-2.47-5.72-19.87-6.43,3.18-3.79,11.38-5.93-2Z"/><path class="cls-1" d="M135.18,262a6,6,0,0,0,3.5-1.32,7,7,0,0,0,2.32-3.27l-12.83-25.64,7.45-.31,9,19.59h.1l7.46-20.28,7-.29-10.71,26.67a17.71,17.71,0,0,1-5.16,7.64,12,12,0,0,1-7.12,2.58c-.63,0-1.16,0-1.58,0s-.82,0-1.23-.1l-.22-5.39,1.05.11A8.33,8.33,0,0,0,135.18,262Z"/><path class="cls-1" d="M161,229.65,175.66,224a14.8,14.8,0,0,1,6.18-1.21,9.65,9.65,0,0,1,4.44,1.23,9.37,9.37,0,0,1,2.95,2.71,13.89,13.89,0,0,1,2.59,6.69,9.35,9.35,0,0,1-.36,4,9.74,9.74,0,0,1-2.47,3.88,15.47,15.47,0,0,1-5.4,3.24l-8.86,3.42,4.94,12.78-5.82,2.25Zm11.92,13.5,8.54-3.3a8.05,8.05,0,0,0,1.89-1,6,6,0,0,0,1.54-1.64,5,5,0,0,0,.75-2.22,6.09,6.09,0,0,0-.48-2.84,7.47,7.47,0,0,0-1.51-2.53,4.64,4.64,0,0,0-1.92-1.21,4.72,4.72,0,0,0-2.15-.16,10.67,10.67,0,0,0-2.29.61l-8.62,3.34Z"/><path class="cls-1" d="M187,219,207.2,203.1l3.35,4.24-15.27,12,5.79,7.34,14.13-11.15,3.16,4-14.12,11.15,6.47,8.2,15.54-12.26,3.35,4.23L209.15,247Z"/><path class="cls-1" d="M208.66,201.65l3.4-5.24L224,204.14l8.84-13.63-11.91-7.73,3.4-5.25L254.25,197l-3.4,5.25-13.51-8.76-8.84,13.63L242,215.84l-3.4,5.24Z"/><path class="cls-1" d="M225.25,175.41,232,147.32l5.24,1.27-2.66,11,29.45,7.12-1.47,6.07-29.45-7.11-2.65,11Z"/><path class="cls-1" d="M231.19,142.78l-.05-6.65,35.59-14,0,6.7-9.42,3.42.1,14.25,9.48,3.28.05,6.45Zm21.51,2-.08-10.9-15.31,5.46v.15Z"/></svg>