<svg xmlns="http://www.w3.org/2000/svg" viewBox="0 0 11 22">
    <g fill="none" fill-rule="evenodd" stroke="#AAA" stroke-linecap="round" stroke-linejoin="round" stroke-width=".5">
        <path d="M8.025 11.602v-7.76a2.593 2.593 0 0 0-5.184 0v7.76c-1.543.898-2.59 2.551-2.59 4.464a5.182 5.182 0 1 0 10.365 0c0-1.913-1.049-3.566-2.59-4.464z"/>
        <path d="M8.025 16.067a2.593 2.593 0 1 1-5.185-.002 2.593 2.593 0 0 1 5.185.002zM5.434 4.463H6.47M5.434 6.649H6.47M5.434 8.835H6.47M5.434 11.02H6.47M5.434 13.475V3.358"/>
    </g>
</svg>
