<?xml version="1.0" encoding="UTF-8"?>
<svg viewBox="0 0 20 20" version="1.1" xmlns="http://www.w3.org/2000/svg" xmlns:xlink="http://www.w3.org/1999/xlink">
    <!-- Generator: Sketch 48.2 (47327) - http://www.bohemiancoding.com/sketch -->
    <title>whatsapp</title>
    <desc>Created with Sketch.</desc>
    <defs></defs>
    <g id="TS_1440-Dilers3_all" stroke="none" stroke-width="1" fill="none" fill-rule="evenodd" transform="translate(-413.000000, -2297.000000)">
        <g id="whatsapp" transform="translate(413.000000, 2297.000000)" fill="#DC1414" fill-rule="nonzero">
            <path d="M10,0 C4.48576923,0 0,4.48576923 0,10 C0,11.8811538 0.522692308,13.7073077 1.51423077,15.2930769 C1.11923077,16.6769231 0.405769231,19.2946154 0.398076923,19.3219231 C0.361153846,19.4573077 0.400769231,19.6019231 0.501923077,19.6992308 C0.603076923,19.7965385 0.749230769,19.8311538 0.882307692,19.7903846 L4.84615385,18.5711538 C6.39884615,19.5065385 8.17692308,20 10,20 C15.5142308,20 20,15.5142308 20,10 C20,4.48576923 15.5142308,0 10,0 Z M10,19.2307692 C8.26192308,19.2307692 6.56884615,18.745 5.10346154,17.8265385 C5.04153846,17.7876923 4.97038462,17.7680769 4.89923077,17.7680769 C4.86115385,17.7680769 4.82307692,17.7738462 4.78615385,17.785 L1.325,18.8503846 C1.57923077,17.9223077 2.03615385,16.2623077 2.30115385,15.3388462 C2.33192308,15.2319231 2.31461538,15.1165385 2.25423077,15.0230769 C1.28269231,13.5280769 0.769230769,11.7911538 0.769230769,10 C0.769230769,4.91038462 4.91038462,0.769230769 10,0.769230769 C15.0896154,0.769230769 19.2307692,4.91038462 19.2307692,10 C19.2307692,15.0896154 15.0896154,19.2307692 10,19.2307692 Z" id="Shape"></path>
            <path d="M16.8043372,12.3917847 C16.1018145,12.0069335 15.5035666,11.6209558 15.0670587,11.3393573 C14.7336839,11.1245916 14.4927863,10.9695247 14.3162042,10.8820414 C13.8226116,10.6391158 13.4485164,10.8107031 13.3061851,10.9526287 C13.2882986,10.9702756 13.2723148,10.9894243 13.2586145,11.0096994 C12.7459936,11.7685134 12.0765801,12.4942866 11.8805892,12.5333349 C11.6541531,12.4984167 10.5942799,11.9040562 9.54087642,11.0386102 C8.46540014,10.1543909 7.78875583,9.30771813 7.6894284,8.73100443 C8.37939249,8.0303874 8.62790134,7.58959191 8.62790134,7.08797114 C8.62790134,6.57095632 7.40552702,4.41241006 7.18441884,4.1942651 C6.96254953,3.97574468 6.46286788,3.9415774 5.69907421,4.09176325 C5.6256252,4.10640638 5.55788465,4.14207552 5.50460557,4.1942651 C5.41212831,4.28550301 3.24823655,6.46207157 4.27652279,9.10008618 C5.40527815,11.9952941 8.30251839,15.3605837 11.9962809,15.9072602 C12.4160439,15.9692119 12.809548,16 13.1779347,16 C15.3509601,16 16.6334636,14.9212901 16.9946197,12.781517 C17.0216398,12.6249483 16.9451462,12.468755 16.8043372,12.3917847 Z M12.2906424,15.3331003 C9.03380129,14.9929336 5.78209791,11.1109118 5.05462448,9.08049371 C4.33301185,7.06659584 5.66378275,5.27100135 5.9978491,4.86507507 C6.26964431,4.8155143 6.55572526,4.79466731 6.67513932,4.81472762 C6.92459019,5.18722006 7.78832753,6.93954721 7.82642281,7.25500543 C7.82642281,7.46150863 7.3968119,7.56873093 7.0179969,8.55027216 C6.91067075,8.82836314 6.91067075,8.72373485 6.91067075,8.82836314 C6.91067075,10.8878884 11.336795,13.3620765 12.0532795,13.3620765 C12.6763572,13.3620765 13.4888124,12.2375191 13.9514503,11.5047277 C13.9781903,11.5059077 14.0232453,11.5157412 14.0873479,11.5503551 C14.2192162,11.6215495 14.4477879,11.7816387 14.7367993,11.9846018 C15.1184847,12.2524659 15.6254451,12.6080448 16.2239806,12.9766038 C15.667693,14.3528451 14.7474932,15.5897107 12.2906424,15.3331003 Z" id="Shape"></path>
        </g>
    </g>
</svg>
