<?xml version="1.0" encoding="UTF-8" standalone="no"?>
<svg viewBox="0 0 29 23" version="1.1" xmlns="http://www.w3.org/2000/svg" xmlns:xlink="http://www.w3.org/1999/xlink">
    <!-- Generator: Sketch 46.2 (44496) - http://www.bohemiancoding.com/sketch -->
    <title>zoom</title>
    <desc>Created with Sketch.</desc>
    <defs></defs>
    <g id="GUI" stroke="none" stroke-width="1" fill="none" fill-rule="evenodd" stroke-linecap="round">
        <g transform="translate(-492.000000, -1688.000000)" id="zoom" stroke="#A7AAAD">
            <g transform="translate(492.000000, 1689.000000)">
                <path d="M8.95958015,21.0769 L1.53258015,16.7889 C0.78958015,16.3599 0.53458015,15.4089 0.96458015,14.6649 L1.06158015,14.4969 C1.48958015,13.7539 2.44058015,13.4989 3.18558015,13.9289 L10.6115802,18.2169 C11.3555802,18.6459 11.6095802,19.5969 11.1805802,20.3399 L11.0835802,20.5079 C10.6535802,21.2509 9.70358015,21.5059 8.95958015,21.0769 Z" id="Stroke-1" transform="translate(6.072340, 17.502551) scale(-1, 1) translate(-6.072340, -17.502551) "></path>
                <path d="M11.103,13.2131 L13.524,14.5861" id="Stroke-3" transform="translate(12.313500, 13.899600) scale(-1, 1) translate(-12.313500, -13.899600) "></path>
                <path d="M27.8772782,6.61080862 C28.6438532,10.9610591 25.7395613,15.1097994 21.3890506,15.8773164 C17.0385399,16.6438455 12.8895514,13.7387395 12.1229764,9.38947681 C11.3554136,5.03823849 14.2606933,0.889498217 18.611204,0.122969061 C22.9607269,-0.64454789 27.1107032,2.2605581 27.8772782,6.61080862 Z" id="Stroke-5"></path>
                <path d="M16,8 L24,8" id="Stroke-7"></path>
                <path d="M20,4 L20,12" id="Stroke-9"></path>
            </g>
        </g>
    </g>
</svg>
